<?xml version="1.0" standalone="no"?>
<!DOCTYPE svg PUBLIC "-//W3C//DTD SVG 1.1//EN" "http://www.w3.org/Graphics/SVG/1.1/DTD/svg11.dtd" >
<svg xmlns="http://www.w3.org/2000/svg">
<metadata></metadata>
<defs>
<font id="tisapromedium" horiz-adv-x="1167" >
<font-face units-per-em="2048" ascent="1638" descent="-410" />
<missing-glyph horiz-adv-x="434" />
<glyph unicode=" "  horiz-adv-x="434" />
<glyph unicode="&#x09;" horiz-adv-x="434" />
<glyph unicode="&#xa0;" horiz-adv-x="434" />
<glyph unicode="!" horiz-adv-x="706" d="M502 1438l-51 -994q-40 -8 -86 -8q-43 0 -89 8l-71 975q95 25 205 25q52 0 92 -6zM360 274q68 0 111 -39t43 -108q0 -75 -43 -117.5t-111 -42.5q-151 0 -151 160q0 66 42.5 106.5t108.5 40.5z" />
<glyph unicode="&#x22;" horiz-adv-x="856" d="M283 928q-75 0 -152 18q14 269 14 510q114 0 220 -26q0 -92 -26 -246t-56 -256zM676 928q-75 0 -152 18q15 289 15 510q113 0 219 -26q0 -92 -26 -246t-56 -256z" />
<glyph unicode="#" horiz-adv-x="1224" d="M1130 279h-215l-41 -275q-40 -8 -108 -8q-58 0 -94 8l45 275h-273l-41 -275q-40 -8 -108 -8q-56 0 -92 8l43 275h-203q3 61 29 141h200l50 293h-216q3 59 31 141h211l37 227q93 19 193 19l-39 -246h280l37 227q93 19 191 19l-37 -246h190q4 -16 4 -51q0 -48 -10 -90h-209 l-45 -293h197q7 -63 -7 -141zM514 713l-45 -293h274l48 293h-277z" />
<glyph unicode="$" horiz-adv-x="1046" d="M680 842v121q-58 24 -131 24q-81 0 -120.5 -34t-39.5 -93q0 -45 31 -79.5t80.5 -58t109.5 -46.5t120.5 -52.5t110 -67.5t80.5 -100t31 -143q0 -149 -94 -236t-250 -110v-170q-27 -6 -96 -6q-70 0 -100 6v166q-171 16 -297 86q-11 37 -11 103q0 108 25 178q129 0 217 -33 v-145q72 -41 186 -41q86 0 132.5 40t46.5 111q0 46 -24.5 81.5t-64 57t-90.5 44t-104 40.5t-104 47t-90.5 63.5t-64 90t-24.5 125.5q0 126 83 207.5t227 101.5v140q75 16 196 16v-154q144 -16 258 -71q4 -28 4 -66q0 -104 -24 -190q-57 0 -115.5 12.5t-93.5 34.5z" />
<glyph unicode="%" horiz-adv-x="1914" d="M410 1126q163 0 255.5 -82.5t92.5 -236.5q0 -162 -92.5 -249t-255.5 -87q-170 0 -259.5 84.5t-89.5 251.5q0 146 97 232.5t252 86.5zM266 807q0 -94 38.5 -147.5t105.5 -53.5q141 0 141 201q0 82 -37 133t-104 51q-68 0 -106 -49t-38 -135zM1440 1106l-787 -1178 q-36 7 -86 33t-71 47l759 1139q38 -1 93 -13.5t92 -27.5zM1503 618q163 0 255.5 -82.5t92.5 -236.5q0 -162 -92.5 -249t-255.5 -87q-170 0 -259 84.5t-89 251.5q0 146 97 232.5t251 86.5zM1360 299q0 -94 38 -147.5t105 -53.5q71 0 106.5 52t35.5 149q0 82 -37.5 133 t-104.5 51q-68 0 -105.5 -49t-37.5 -135z" />
<glyph unicode="&#x26;" horiz-adv-x="1787" d="M1458 676q-46 -215 -158 -379q74 -78 117 -133q79 -3 158 -21q22 -64 22 -143h-331q-46 62 -123 150q-201 -191 -490 -191q-78 0 -151 12.5t-142 42.5t-120 74t-82 112.5t-31 153.5q0 142 88 249t217 142v15q-90 50 -139 122.5t-49 182.5q0 92 38 164t100.5 113.5t133 62 t143.5 20.5q69 0 135 -18t124 -53.5t93.5 -98t35.5 -143.5q0 -122 -80.5 -219.5t-190.5 -128.5v-14q82 -54 195 -146t192 -170q50 110 74 244q-80 11 -109 18q-20 59 -24 142h528q0 -27 -9.5 -75.5t-18.5 -74.5q-43 -7 -146 -12zM1024 274q-217 220 -479 392 q-176 -96 -176 -277q0 -136 86 -200t223 -64q211 0 346 149zM655 846q78 40 119 106.5t41 143.5q0 94 -49.5 138t-116.5 44q-27 0 -54 -8t-54.5 -25.5t-44.5 -53t-17 -83.5q0 -81 43 -141t133 -121z" />
<glyph unicode="'" horiz-adv-x="462" d="M283 928q-75 0 -152 18q14 269 14 510q114 0 220 -26q0 -92 -26 -246t-56 -256z" />
<glyph unicode="(" horiz-adv-x="686" d="M387 -436q-119 263 -174 526.5t-55 497.5q0 502 194 952q32 17 103.5 28t122.5 11q-89 -204 -135 -461.5t-46 -515.5q0 -536 170 -969q-68 -44 -180 -69z" />
<glyph unicode=")" horiz-adv-x="686" d="M147 -371q172 432 172 961q0 253 -37 498.5t-110 443.5q30 21 83.5 38.5t100.5 22.5q102 -237 151.5 -499.5t49.5 -491.5q0 -238 -55 -508t-174 -532q-45 8 -97.5 27t-83.5 40z" />
<glyph unicode="*" horiz-adv-x="925" d="M735 877l-162 120q-40 32 -65 64l-10 -8q25 -47 28 -88l17 -193q-33 -10 -86 -10q-48 0 -90 10l16 193q4 45 23 84l-11 10q-30 -41 -61 -62l-160 -120q-20 23 -46.5 71.5t-35.5 79.5l174 74q47 21 90 28v13q-44 4 -90 24l-168 74q4 29 27 80.5t43 79.5l164 -111 q44 -31 63 -61l13 8q-22 52 -25 84l-12 182q77 15 168 15l-13 -197q-4 -48 -28 -88l14 -10q30 43 66 65l155 109q57 -54 107 -135l-197 -95q-36 -18 -88 -22v-12q37 -3 88 -25l184 -78q-9 -31 -39 -80.5t-53 -72.5z" />
<glyph unicode="+" d="M694 643h385q13 -54 13 -111q0 -34 -7 -65h-391v-418q-42 -10 -104 -10q-67 0 -115 10v418h-399q0 37 8 90.5t18 85.5h373v399q97 19 219 19v-418z" />
<glyph unicode="," horiz-adv-x="565" d="M207 33l-105 22q11 41 34.5 90t45.5 74q44 10 107 10q97 0 176 -28q-23 -128 -91 -299t-128 -269q-31 7 -69 27t-60 37q68 183 90 336z" />
<glyph unicode="-" horiz-adv-x="770" d="M637 463h-537q0 42 8.5 99.5t20.5 92.5h498q14 -61 14 -129q0 -35 -4 -63z" />
<glyph unicode="." horiz-adv-x="612" d="M315 295q71 0 114.5 -41t43.5 -113q0 -80 -43.5 -123t-114.5 -43q-159 0 -159 166q0 69 44 111.5t115 42.5z" />
<glyph unicode="/" horiz-adv-x="964" d="M1014 1526l-713 -1876q-36 6 -97.5 27t-88.5 36l698 1839q115 0 201 -26z" />
<glyph unicode="0" horiz-adv-x="1335" d="M668 1130q261 0 410 -147.5t149 -421.5q0 -291 -148 -446.5t-411 -155.5q-272 0 -415.5 151.5t-143.5 450.5q0 262 154 415.5t405 153.5zM360 561q0 -202 82 -320t226 -118q150 0 228.5 115t78.5 323q0 181 -83.5 295.5t-223.5 114.5q-148 0 -228 -109.5t-80 -300.5z" />
<glyph unicode="1" horiz-adv-x="933" d="M383 188v727l-295 -38q3 98 39 165q84 28 221.5 55.5t278.5 32.5v-948q125 -11 235 -39q12 -41 12 -92q0 -27 -4 -51h-741q13 72 45 137q95 32 209 51z" />
<glyph unicode="2" horiz-adv-x="1110" d="M348 745q-68 -39 -194 -43q-29 111 -29 228q0 55 6 98q214 102 436 102q73 0 135 -9t115.5 -29t91 -50.5t59 -76t21.5 -103.5q0 -52 -18.5 -106t-45.5 -99t-71.5 -95t-83.5 -86.5t-96 -81.5t-93.5 -71t-91 -64.5t-75.5 -53.5v-19q360 7 614 33q4 -27 4 -67 q0 -84 -14 -152h-877l-30 170q36 32 105.5 85.5t132.5 101t135 110.5t124 118.5t86.5 118t34.5 117.5q0 70 -48.5 106t-135.5 36q-109 0 -197 -45v-173z" />
<glyph unicode="3" horiz-adv-x="1112" d="M334 936v-137q-32 -19 -89.5 -31t-107.5 -14q-26 88 -26 200q0 68 4 97q91 36 207 57.5t215 21.5q84 0 159 -18t136 -53.5t97 -96.5t36 -139q0 -115 -74.5 -206t-181.5 -130v-14q123 -21 206.5 -93t83.5 -192q0 -99 -49.5 -181t-132 -134t-185 -80.5t-212.5 -28.5 q-166 0 -305 41q-17 25 -28 69t-11 79q0 21 2 33q67 -21 159.5 -33t165.5 -12q89 0 160 20t121.5 72.5t50.5 132.5q0 104 -103 157.5t-327 53.5q-20 42 -20 100q0 38 4 62q107 3 198 30.5t154.5 87t63.5 142.5q0 86 -57 126t-140 40q-85 0 -174 -29z" />
<glyph unicode="4" horiz-adv-x="1161" d="M913 154v-347q-42 -10 -114 -10q-74 0 -119 10v347h-602l-35 127q260 433 606 845l264 -39v-759h179q10 -48 10 -115q0 -31 -4 -59h-185zM680 328v350q0 116 14 211h-20q-203 -241 -383 -549v-21q83 9 190 9h199z" />
<glyph unicode="5" horiz-adv-x="1071" d="M203 1090h774q0 -102 -27 -220q-277 15 -551 21l-26 -318q88 15 168 15q195 0 313.5 -89t118.5 -263q0 -117 -47.5 -209.5t-128 -148.5t-180 -85t-209.5 -29q-152 0 -285 37q-15 23 -26 65.5t-11 76.5q0 18 2 30q146 -34 305 -34q137 0 230.5 73.5t93.5 206.5 q0 207 -273 207q-135 0 -294 -33z" />
<glyph unicode="6" horiz-adv-x="1202" d="M379 684h20q39 57 111.5 94t173.5 37q189 0 301.5 -114t112.5 -285q0 -204 -133.5 -330.5t-343.5 -126.5q-241 0 -368.5 155.5t-127.5 438.5q0 177 52 324t141.5 243.5t209 149.5t254.5 53q134 0 242 -51q15 -32 24 -91t5 -94q-51 26 -124 43t-132 17q-73 0 -139 -27 t-123.5 -81.5t-98.5 -145.5t-57 -209zM377 541v-35q0 -185 63 -286t187 -101q100 0 161.5 80.5t61.5 201.5q0 117 -61 182.5t-168 65.5q-141 0 -244 -108z" />
<glyph unicode="7" horiz-adv-x="1101" d="M1022 1090l33 -160q-404 -624 -531 -1118q-60 -13 -121 -13q-72 0 -145 15q156 507 537 1052v19h-502q-21 -103 -53 -176q-35 0 -91.5 10t-85.5 22l31 349h928z" />
<glyph unicode="8" horiz-adv-x="1189" d="M401 668v14q-96 35 -161.5 109t-65.5 186q0 88 38 156.5t101.5 108.5t139.5 60.5t159 20.5q85 0 159 -17.5t137 -53t99.5 -98.5t36.5 -146q0 -114 -67 -197t-162 -111v-14q109 -42 182.5 -123.5t73.5 -200.5q0 -79 -25.5 -145.5t-70.5 -113.5t-105.5 -80t-131 -48.5 t-146.5 -15.5q-69 0 -132 10t-127 36t-110 66t-75 104.5t-29 146.5q0 128 81 222.5t201 123.5zM541 604q-181 -80 -181 -252q0 -127 68 -183t176 -56q44 0 82.5 11.5t72 35.5t53 69t19.5 105q0 28 -9 54t-21.5 46t-37.5 41.5t-44 35t-56 33.5t-58 30t-64 30zM668 766 q67 36 104 97t37 126q0 53 -19 92t-50.5 60t-66.5 31t-73 10q-31 0 -62.5 -8t-63 -26.5t-51.5 -55.5t-20 -88q0 -41 20 -75t62.5 -64t80.5 -50t102 -49z" />
<glyph unicode="9" horiz-adv-x="1196" d="M836 408h-21q-36 -57 -109.5 -94.5t-170.5 -37.5q-133 0 -230 55.5t-144.5 147.5t-47.5 207q0 198 130.5 321t334.5 123q247 0 376 -157.5t129 -446.5q0 -174 -49 -318.5t-134.5 -241t-202 -149.5t-251.5 -53q-154 0 -286 54q-20 33 -31 88.5t-6 91.5q55 -20 140.5 -34.5 t146.5 -14.5q162 0 280 113.5t146 345.5zM836 565q-3 209 -63.5 309.5t-194.5 100.5q-103 0 -161.5 -75t-58.5 -200q0 -117 60 -187.5t168 -70.5q74 0 140 33.5t110 89.5z" />
<glyph unicode=":" horiz-adv-x="696" d="M348 997q69 0 110.5 -40t41.5 -111q0 -75 -41.5 -118.5t-110.5 -43.5q-75 0 -115 42t-40 120q0 67 43 109t112 42zM346 328q71 0 114.5 -41t43.5 -113q0 -80 -43.5 -123t-114.5 -43q-160 0 -160 166q0 69 44.5 111.5t115.5 42.5z" />
<glyph unicode=";" horiz-adv-x="620" d="M315 997q69 0 110.5 -40t41.5 -111q0 -75 -41.5 -118.5t-110.5 -43.5q-75 0 -115 42t-40 120q0 67 43 109t112 42zM223 33l-104 22q11 41 34.5 90t45.5 74q44 10 106 10q97 0 176 -28q-23 -128 -91 -299t-128 -269q-31 7 -69 27t-60 37q68 183 90 336z" />
<glyph unicode="&#x3c;" d="M979 952l-551 -391v-18l530 -381q-12 -30 -53.5 -81t-70.5 -69l-648 471l9 142l620 458q38 -21 87.5 -61t76.5 -70z" />
<glyph unicode="=" d="M1028 651h-897q0 88 25 178h866q12 -49 12 -112q0 -39 -6 -66zM1028 268h-899q0 81 27 178h866q12 -50 12 -112q0 -39 -6 -66z" />
<glyph unicode="&#x3e;" d="M985 485l-649 -481q-29 17 -72 68t-55 82l532 385v18l-553 385q27 32 77.5 71.5t88.5 57.5l623 -446z" />
<glyph unicode="?" horiz-adv-x="968" d="M260 1278v-193q-33 -19 -87 -31t-101 -14q-27 153 -27 357q74 30 200 51.5t226 21.5q185 0 293 -78.5t108 -213.5q0 -58 -21.5 -111t-56.5 -94t-76.5 -79t-83.5 -71.5t-77 -64.5t-56.5 -66t-21.5 -69q0 -95 49 -156q-33 -24 -89 -44t-105 -24q-40 41 -65 98.5t-25 112.5 q0 63 37 123t90 109t106 96.5t90 103t37 111.5q0 63 -47.5 111.5t-140.5 48.5q-91 0 -156 -35zM436 274q68 0 111 -39t43 -108q0 -75 -43 -117.5t-111 -42.5q-151 0 -151 160q0 66 42.5 106.5t108.5 40.5z" />
<glyph unicode="@" horiz-adv-x="2154" d="M1509 889l-88 -631q0 -37 11 -70q102 15 184 71t131 135t74.5 167.5t25.5 177.5q0 110 -39.5 204.5t-106.5 161t-156.5 114t-189 70t-204.5 22.5q-176 0 -328 -66.5t-257.5 -181.5t-165.5 -272.5t-60 -335.5q0 -225 92 -398t265 -270.5t403 -97.5q133 0 274.5 33 t243.5 90q21 -18 48.5 -54t37.5 -61q-132 -78 -304.5 -122t-340.5 -44q-207 0 -379 66t-290 185t-183.5 288t-65.5 370q0 174 49.5 332.5t142 285.5t218 220.5t285 144t335.5 50.5q174 0 331 -50t277 -140.5t190.5 -227.5t70.5 -301q0 -106 -28 -207t-89.5 -195.5 t-149.5 -168t-217 -121t-284 -56.5q-39 69 -51 135h-15q-46 -65 -116.5 -100t-155.5 -35q-129 0 -209 93t-80 278q0 116 35.5 227.5t101.5 196.5q70 86 171.5 135t226.5 49q99 0 185 -26.5t144 -69.5zM1210 299l74 520q-44 23 -102 23q-148 0 -226 -121q-82 -126 -82 -315 q0 -222 140 -222q58 0 110.5 30t85.5 85z" />
<glyph unicode="A" horiz-adv-x="1599" d="M1550 0h-569q7 72 37 145q50 16 141 29q-41 53 -78 148l-45 118h-536l-47 -129q-29 -86 -68 -145q79 -3 158 -21q9 -26 16.5 -71.5t7.5 -73.5h-530q9 72 41 145q49 18 102 25l533 1292h180l510 -1286q70 -8 121 -24q23 -82 26 -152zM780 1200h-18q-13 -100 -68 -242 l-137 -366h422l-139 371q-51 141 -60 237z" />
<glyph unicode="B" horiz-adv-x="1363" d="M987 770v-14q139 -32 219 -117.5t80 -214.5q0 -92 -32.5 -166t-88 -123t-131.5 -82.5t-159.5 -48t-176.5 -14.5q-218 0 -624 14q9 90 32 148q39 12 150 28v1088q-66 3 -145 14q-12 84 -2 156q300 20 528 20q165 0 292 -40t204 -127t77 -212q0 -110 -61 -195t-162 -114z M504 670v-512q73 -8 168 -8q358 0 358 260q0 128 -97 194t-257 66h-172zM504 1294v-469h164q145 0 219 56.5t74 183.5q0 114 -93.5 174.5t-253.5 60.5q-60 0 -110 -6z" />
<glyph unicode="C" horiz-adv-x="1343" d="M1008 1069v205q-84 37 -187 37q-98 0 -181 -36.5t-145.5 -106.5t-97.5 -180.5t-35 -250.5q0 -288 124 -433.5t335 -145.5q86 0 200 20.5t202 52.5q3 -34 -8.5 -85.5t-28.5 -82.5q-88 -45 -205.5 -74.5t-232.5 -29.5q-144 0 -265.5 55t-206 152.5t-131.5 234t-47 295.5 q0 179 58.5 327.5t159.5 247t235 152.5t285 54q222 0 399 -86q0 -212 -33 -367q-45 0 -102.5 13t-91.5 32z" />
<glyph unicode="D" horiz-adv-x="1492" d="M256 176v1071q-61 3 -145 15q-13 92 -2 155q290 33 565 33q167 0 304 -44.5t238.5 -131.5t157.5 -225.5t56 -317.5q0 -149 -38.5 -273t-104 -209.5t-154 -144.5t-187 -86.5t-203.5 -27.5q-377 0 -669 12q8 85 32 145q54 20 150 29zM504 1282v-1122q80 -6 180 -6 q228 0 357.5 135.5t129.5 412.5q0 292 -140.5 439t-381.5 147q-89 0 -145 -6z" />
<glyph unicode="E" horiz-adv-x="1273" d="M1167 0h-1095q8 86 32 145q75 22 152 29v1092q-83 7 -145 18q-11 82 -2 152h1038v-334q-96 0 -170 22q-22 84 -25 154h-448v-473h354q3 40 21 100q79 23 165 23v-398q-91 -7 -167 13q-16 62 -19 108h-354v-489h454q7 91 27 170q68 22 182 22v-354z" />
<glyph unicode="F" horiz-adv-x="1157" d="M504 625v-453q126 -8 205 -22q7 -26 10 -76t-2 -74h-645q8 86 32 145q75 22 152 29v1092q-83 7 -145 18q-11 82 -2 152h999v-346q-104 0 -174 24q-22 86 -29 164h-401v-500h321q3 42 21 107q75 22 166 22v-409q-97 -8 -168 14q-16 60 -19 113h-321z" />
<glyph unicode="G" horiz-adv-x="1523" d="M1298 547v-492q-95 -33 -255 -64.5t-283 -31.5q-309 0 -486.5 197t-177.5 522q0 362 213 580.5t568 218.5q240 0 432 -117q0 -75 -10 -180t-23 -164q-41 0 -104 14.5t-89 28.5v203q-99 55 -223 55q-102 0 -191 -38.5t-158 -112.5t-109 -193.5t-40 -270.5 q0 -284 127.5 -426.5t348.5 -142.5q98 0 221 21v391q-173 4 -271 22q-18 58 -18 150h703q-4 -88 -25 -152q-58 -13 -150 -18z" />
<glyph unicode="H" horiz-adv-x="1667" d="M1163 655h-659v-483q97 -4 160 -22q7 -26 10 -76t-2 -74h-600q8 86 32 145q75 22 152 29v1092q-83 7 -145 18q-13 91 -2 152h548q5 -25 3.5 -74.5t-7.5 -75.5q-66 -14 -149 -18v-445h659v443q-81 7 -137 18q-6 28 -7.5 77t3.5 75h553q11 -72 -4 -150q-73 -14 -160 -18 v-1096q107 -8 174 -22q10 -42 10 -95q0 -27 -4 -55h-594q3 70 29 145q75 23 137 29v481z" />
<glyph unicode="I" horiz-adv-x="759" d="M684 0h-612q8 86 32 145q75 22 152 29v1092q-83 7 -145 18q-13 91 -2 152h559q5 -25 3.5 -74.5t-7.5 -75.5q-73 -14 -160 -18v-1096q107 -8 174 -22q10 -42 10 -95q0 -27 -4 -55z" />
<glyph unicode="J" horiz-adv-x="770" d="M547 1268v-789q0 -298 -130 -515t-382 -335q-22 20 -45.5 60t-30.5 71q178 104 259 272t81 400v834q-103 7 -180 18q-13 91 -2 152h594q6 -18 6 -58q0 -59 -10 -92q-73 -14 -160 -18z" />
<glyph unicode="K" horiz-adv-x="1456" d="M504 805h129l252 346q52 73 104 115q-104 11 -127 16q-18 65 -18 154h520q-4 -87 -33 -160q-45 -8 -125 -12l-397 -510l475 -590l133 8q0 -40 -11 -90.5t-26 -81.5q-106 -27 -260 -39l-524 694h-92v-483q96 -7 155 -22q8 -26 10.5 -75.5t-1.5 -74.5h-596q8 86 32 145 q75 22 152 29v1092q-83 7 -145 18q-11 82 -2 152h542q6 -25 4.5 -74.5t-8.5 -75.5q-62 -14 -143 -18v-463z" />
<glyph unicode="L" horiz-adv-x="1241" d="M256 174v1092q-83 7 -145 18q-13 91 -2 152h598q5 -24 2.5 -74t-9.5 -76q-87 -14 -196 -18v-1104h465q8 119 26 203q67 24 187 24v-391h-1110q8 86 32 145q75 22 152 29z" />
<glyph unicode="M" horiz-adv-x="1955" d="M868 -25l-319 887q-78 218 -98 389h-19v-1081q84 -8 137 -25q6 -25 8 -72.5t-2 -72.5h-489q3 70 27 143q53 16 133 29v1094q-78 7 -137 18q-6 28 -7.5 77.5t2.5 74.5h492l293 -813q66 -180 86 -357h18q24 185 88 355l303 815h478q5 -25 3.5 -74.5t-7.5 -75.5 q-74 -14 -158 -18v-1098q94 -7 172 -23q10 -31 10 -102q0 -31 -2 -45h-575q8 80 30 145q74 22 138 29v1081h-21q-26 -198 -102 -403l-318 -877h-164z" />
<glyph unicode="N" horiz-adv-x="1585" d="M584 1436l483 -879q32 -57 65.5 -146.5t47.5 -154.5h18v1010q-90 8 -154 18q-5 31 -6 77.5t4 74.5h484q6 -18 6 -58q0 -59 -10 -92q-62 -14 -140 -18v-1282h-272l-553 1009q-59 105 -88 219h-18v-1042q100 -8 165 -22q8 -26 10.5 -75.5t-1.5 -74.5h-547q7 76 31 145 q71 22 143 29v1092q-86 8 -143 18q-6 28 -7.5 77.5t2.5 74.5h480z" />
<glyph unicode="O" horiz-adv-x="1527" d="M768 1477q303 0 483.5 -194t180.5 -546q0 -366 -179.5 -572t-484.5 -206q-326 0 -499 198.5t-173 579.5q0 168 51 308t141 234t213.5 146t266.5 52zM362 737q0 -281 108 -445.5t298 -164.5q196 0 297.5 160.5t101.5 449.5q0 166 -49.5 296.5t-140.5 204t-209 73.5 q-196 0 -301 -153.5t-105 -420.5z" />
<glyph unicode="P" horiz-adv-x="1269" d="M256 174v1086q-67 0 -145 12q-13 75 -5 160q258 24 564 24q165 0 288.5 -46.5t197 -147t73.5 -244.5q0 -93 -29.5 -170t-80 -130t-118.5 -90t-143.5 -54t-155.5 -17q-104 0 -198 16v-401q132 -8 217 -22q7 -26 10 -76t-2 -74h-657q8 86 32 145q75 22 152 29zM504 1288 v-559q85 -12 198 -12q130 0 202.5 71.5t72.5 221.5q0 134 -93 209t-247 75q-81 0 -133 -6z" />
<glyph unicode="Q" horiz-adv-x="1544" d="M1194 119v-17q87 -68 202.5 -133.5t155.5 -68.5l160 20q2 -14 2 -47q0 -69 -35 -166q-26 -11 -72.5 -22t-70.5 -11q-73 0 -237.5 105.5t-290.5 218.5q-106 -39 -240 -39q-326 0 -499 198.5t-173 579.5q0 168 51 308t141 234t213.5 146t266.5 52q303 0 483.5 -194 t180.5 -546q0 -213 -64 -375t-174 -243zM362 737q0 -281 107 -445.5t299 -164.5q196 0 297.5 160.5t101.5 449.5q0 166 -49.5 296.5t-140.5 204t-209 73.5q-196 0 -301 -153.5t-105 -420.5z" />
<glyph unicode="R" horiz-adv-x="1396" d="M256 174v1088q-86 0 -145 12q-13 75 -5 160q281 24 551 24q121 0 221.5 -25t178 -74t121 -129.5t43.5 -185.5q0 -145 -84.5 -247t-218.5 -144q94 -177 188.5 -322.5t126.5 -160.5l121 10q0 -40 -9.5 -90.5t-23.5 -81.5q-108 -31 -248 -39q-47 32 -160 221t-227 426 q-96 0 -182 13v-457q116 -9 162 -22q7 -25 9 -75.5t-3 -74.5h-600q8 86 32 145q75 22 152 29zM504 1290v-514q71 -10 192 -10q124 0 199.5 67t75.5 199q0 128 -95.5 196t-250.5 68q-69 0 -121 -6z" />
<glyph unicode="S" horiz-adv-x="1185" d="M827 1112v168q-71 39 -172 39q-113 0 -180 -51t-67 -129q0 -68 38 -119.5t98.5 -86t133.5 -66t146 -69.5t133.5 -86t98.5 -126.5t38 -179.5q0 -99 -29.5 -176.5t-79.5 -128t-121.5 -83t-149.5 -46t-169 -13.5q-245 0 -439 78q0 192 29 373q40 0 102 -8.5t99 -20.5v-209 q116 -53 244 -53q131 0 200.5 59.5t69.5 169.5q0 56 -23.5 100t-63.5 74.5t-92 56.5t-109 50t-114 50.5t-109 63.5t-92 83t-63.5 114.5t-23.5 153.5q0 174 130.5 278.5t354.5 104.5q95 0 206 -19t198 -51q0 -71 -10 -169.5t-25 -164.5q-42 0 -97.5 11t-89.5 28z" />
<glyph unicode="T" horiz-adv-x="1308" d="M778 1278v-1106q123 -8 201 -22q7 -26 10 -76t-2 -74h-665q3 60 36 143q80 24 172 31v1104h-282q-6 -68 -27 -170q-66 -18 -178 -18v346h1223v-355q-104 0 -181 21q-18 83 -26 176h-281z" />
<glyph unicode="U" horiz-adv-x="1550" d="M479 1268v-723q0 -418 336 -418q175 0 261.5 115t86.5 305v719q-73 7 -133 18q-6 29 -7 77.5t5 74.5h473q6 -18 6 -58q0 -59 -10 -92q-59 -14 -135 -18v-709q0 -136 -34.5 -244t-104.5 -188.5t-185.5 -124t-269.5 -43.5q-274 0 -405.5 142.5t-131.5 426.5v738 q-100 10 -145 20q-18 63 -18 150h575q6 -25 4.5 -74.5t-8.5 -75.5q-74 -15 -160 -18z" />
<glyph unicode="V" horiz-adv-x="1527" d="M788 219h21q13 109 70 273l178 518q52 154 108 258q-78 3 -153 20q-10 28 -18.5 74t-8.5 74h520q0 -33 -8 -81t-18 -75q-60 -11 -117 -14l-485 -1293h-222l-473 1293q-54 7 -114 22q-25 66 -29 148h594q0 -71 -33 -156q-66 -10 -172 -14q72 -123 115 -248l182 -535 q47 -131 63 -264z" />
<glyph unicode="W" horiz-adv-x="2144" d="M682 199h18q15 168 54 319l233 936h250l223 -940q32 -142 45 -307h19q10 148 55 311l133 502q43 155 90 248q-84 4 -139 18q-21 73 -21 150h472q0 -30 -8 -79t-17 -77q-53 -11 -107 -14l-391 -1293h-227l-219 928q-39 173 -49 334h-19q-16 -195 -53 -340l-233 -922h-252 l-361 1293q-65 8 -106 20q-21 62 -29 150h561q0 -30 -9.5 -77.5t-21.5 -78.5q-60 -10 -157 -14q55 -109 88 -246l125 -504q44 -182 53 -317z" />
<glyph unicode="X" horiz-adv-x="1525" d="M825 872l154 281q34 63 88 117q-68 4 -115 16q-22 75 -22 150h471q0 -31 -8.5 -79t-18.5 -77q-50 -9 -102 -12l-350 -537l387 -559q69 -4 131 -20q25 -76 28 -152h-581q6 70 37 147q62 16 125 19q-63 52 -129 145l-203 293l-174 -299q-41 -69 -105 -137q73 -4 140 -18 q9 -25 15.5 -73.5t6.5 -76.5h-547q6 73 37 143q57 16 117 23l401 594l-342 502q-78 9 -119 24q-23 57 -28 150h577q0 -31 -8 -78t-18 -76q-56 -12 -138 -16q61 -57 109 -127z" />
<glyph unicode="Y" horiz-adv-x="1345" d="M696 707h21q12 79 59 163l148 279q32 63 82 119q-60 3 -121 18q-23 79 -23 150h469q0 -86 -22 -154q-35 -10 -101 -14l-417 -713v-383q118 -8 198 -22q7 -25 9 -76t-1 -74h-665q7 72 37 143q79 23 172 31v369l-385 723q-60 4 -107 20q-20 66 -24 150h569q0 -69 -25 -154 q-59 -12 -145 -16q49 -52 80 -119l139 -277q40 -83 53 -163z" />
<glyph unicode="Z" horiz-adv-x="1261" d="M106 0v162l750 1089v21h-491q-3 -72 -31 -191q-88 -18 -191 -18v373h1008v-162l-739 -1086v-18h542q7 92 29 199q33 12 89 20t99 8v-397h-1065z" />
<glyph unicode="[" horiz-adv-x="714" d="M190 -414v1983h377q3 -24 0.5 -73t-8.5 -75q-58 -12 -137 -16v-1657q104 -4 168 -24q8 -39 8 -86q0 -28 -4 -52h-404z" />
<glyph unicode="\" horiz-adv-x="915" d="M158 1587l712 -1876q-25 -14 -88.5 -35.5t-95.5 -27.5l-700 1845q26 24 80.5 54.5t91.5 39.5z" />
<glyph unicode="]" horiz-adv-x="714" d="M512 1569v-1983h-410q3 61 25 142q60 16 156 24v1653q-59 3 -136 16q-5 27 -5.5 75t5.5 73h365z" />
<glyph unicode="^" d="M119 766l366 618l160 15l406 -651q-29 -21 -79.5 -46.5t-86.5 -35.5l-219 362q-66 110 -88 186h-19q-29 -96 -82 -182l-231 -389q-32 19 -70.5 57t-56.5 66z" />
<glyph unicode="_" horiz-adv-x="1024" d="M-4 -328h1032q10 -44 10 -102q0 -35 -6 -62h-1061q0 87 25 164z" />
<glyph unicode="`" horiz-adv-x="821" d="M459 1135l-330 338q33 24 108.5 41.5t135.5 17.5l254 -352q-27 -15 -81 -30t-87 -15z" />
<glyph unicode="a" horiz-adv-x="1071" d="M674 117h-15q-87 -152 -292 -152q-58 0 -109.5 18t-93 52.5t-66 91t-24.5 127.5q0 157 113.5 243.5t285.5 86.5q103 0 178 -35v94q0 193 -186 193q-67 0 -162 -29t-153 -64q-9 24 -9 70q0 90 31 143q54 26 158 45t192 19q184 0 271.5 -87.5t87.5 -287.5v-371 q0 -88 26 -129q58 0 140 21q2 -10 2 -27q0 -54 -29 -114q-39 -23 -114 -41.5t-140 -18.5q-32 19 -57.5 61t-34.5 91zM655 225v209q-63 17 -129 17q-103 0 -160 -44.5t-57 -119.5q0 -74 45 -112t113 -38q59 0 109 24.5t79 63.5z" />
<glyph unicode="b" horiz-adv-x="1165" d="M162 51v1270h-146q3 77 41 147q89 35 207 35q84 0 133 -18v-303q0 -128 -16 -316h27q29 66 99.5 110t178.5 44q74 0 141 -26.5t125.5 -82t93.5 -156.5t35 -235q0 -249 -146 -402t-380 -153q-222 0 -393 86zM391 733v-590q68 -20 141 -20q152 0 228 98.5t76 270.5 q0 166 -65 260t-169 94q-68 0 -123 -32t-88 -81z" />
<glyph unicode="c" horiz-adv-x="993" d="M705 709v137q-52 22 -97 22q-124 0 -198 -89t-74 -267q0 -185 81 -279t216 -94q63 0 139 16t133 40q3 -33 -8 -78.5t-31 -75.5q-64 -33 -150.5 -54.5t-170.5 -21.5q-210 0 -335.5 142t-125.5 366q0 240 147 393.5t381 153.5q163 0 295 -74q6 -30 6 -82q0 -108 -34 -198 q-38 0 -90.5 13t-83.5 30z" />
<glyph unicode="d" horiz-adv-x="1206" d="M768 969v352h-145q4 84 43 147q89 35 206 35q83 0 132 -18v-1176q0 -91 18 -153h147q2 -10 2 -31q0 -63 -24 -109q-55 -18 -148.5 -29.5t-160.5 -11.5q-38 65 -47 154h-15q-98 -164 -309 -164q-56 0 -108.5 15.5t-103 52t-88 91.5t-60.5 140.5t-23 192.5 q0 254 137.5 408.5t358.5 154.5q118 0 188 -51zM772 250v581q-66 29 -147 29q-148 0 -221.5 -98t-73.5 -270q0 -166 64.5 -258.5t170.5 -92.5q127 0 207 109z" />
<glyph unicode="e" horiz-adv-x="1044" d="M946 451h-616q7 -142 91 -223t218 -81q66 0 155.5 17t147.5 39q3 -32 -8.5 -79.5t-30.5 -76.5q-62 -34 -151 -58t-185 -24q-150 0 -260.5 67t-166.5 181t-56 260q0 155 61 279t175.5 196t261.5 72q189 0 279.5 -121.5t90.5 -337.5q0 -55 -6 -110zM326 602h395 q5 50 -1.5 96.5t-25.5 87.5t-56.5 66t-90.5 25q-93 0 -152.5 -76t-68.5 -199z" />
<glyph unicode="f" horiz-adv-x="749" d="M455 985h270q17 -83 10 -158h-280v-661q113 -12 200 -41q16 -60 9 -125h-601q7 70 31 119q52 30 125 49v659h-160q2 29 11.5 74t21.5 72q53 26 127 41v90q0 104 31 183t87 127t130.5 71.5t165.5 23.5q145 0 270 -43q6 -38 6 -82q0 -106 -30 -198q-40 2 -92 13.5t-78 27.5 v131q-28 14 -78 14q-82 0 -129 -58.5t-47 -185.5v-143z" />
<glyph unicode="g" horiz-adv-x="1138" d="M219 -6v14q-36 14 -64 56t-28 92q0 59 34 107.5t87 76.5v12q-135 85 -135 293q0 171 117.5 273t299.5 102q139 0 242 -53q77 43 205 43q55 0 102 -15q29 -69 29 -164h-205q45 -79 45 -186q0 -176 -112 -275.5t-306 -99.5q-79 0 -147 19q-23 -35 -23 -70q0 -50 65 -68 t210 -18q103 0 180 -13t140.5 -44t96.5 -88t33 -140q0 -93 -43 -164.5t-118.5 -116t-173.5 -67t-213 -22.5q-138 0 -246.5 32.5t-175 102t-66.5 166.5q0 83 51 140.5t119 74.5zM354 -41q-84 -49 -84 -143q0 -61 45.5 -106t111 -65t140.5 -20q79 0 145 20.5t108 63.5t42 101 q0 65 -64 97t-216 32q-136 0 -228 20zM348 645q0 -109 48.5 -175.5t133.5 -66.5q89 0 135 65t46 177q0 106 -49.5 173t-131.5 67q-182 0 -182 -240z" />
<glyph unicode="h" horiz-adv-x="1277" d="M438 705v-545q94 -12 142 -33q6 -23 8 -61.5t-2 -65.5h-539q7 70 31 119q39 22 125 49v1153h-146q4 84 43 147q89 35 207 35q81 0 131 -18v-355q0 -128 -14 -296h25q33 82 115 134t206 52q56 0 99 -7.5t86.5 -31.5t72 -63.5t46.5 -107.5t18 -161q0 -255 -15 -489 q78 -6 156 -33q8 -36 8 -80q0 -23 -4 -47h-518q8 75 26 119q31 21 109 49v440q0 232 -178 232q-73 0 -137.5 -40t-100.5 -95z" />
<glyph unicode="i" horiz-adv-x="661" d="M219 825h-147q2 35 14 77.5t29 68.5q86 35 207 35q77 0 133 -17v-829q80 -7 153 -33q8 -36 8 -80q0 -23 -4 -47h-549q7 70 31 119q43 25 125 49v657zM342 1505q65 0 105 -38t40 -105q0 -72 -39.5 -113t-105.5 -41q-72 0 -109.5 39.5t-37.5 114.5q0 64 41 103.5t106 39.5z " />
<glyph unicode="j" horiz-adv-x="573" d="M197 825h-148q1 33 13.5 76t27.5 70q89 35 209 35q77 0 133 -17v-813q0 -110 -26 -209.5t-75.5 -184t-99.5 -147t-118 -131.5q-36 12 -74 42.5t-59 62.5q45 49 79.5 98t68 114t51.5 143t18 163v698zM319 1505q66 0 106 -38.5t40 -104.5q0 -72 -40 -113t-106 -41 q-72 0 -109.5 39.5t-37.5 114.5q0 64 41 103.5t106 39.5z" />
<glyph unicode="k" horiz-adv-x="1204" d="M438 471v-311q86 -12 140 -33q13 -64 6 -127h-537q7 70 31 119q39 22 125 49v1153h-146q4 84 43 147q89 35 207 35q81 0 131 -18v-875h109l135 142q15 17 42.5 39t47.5 32q-80 15 -117 31q-20 53 -20 131h491q0 -69 -28 -143q-31 -12 -113 -23l-266 -254 q104 -144 211.5 -268.5t140.5 -142.5l119 18q2 -12 2 -33q0 -30 -10 -71.5t-23 -67.5q-96 -35 -176 -43q-22 4 -51.5 24.5t-70 64t-73.5 81t-87 108.5t-85 112t-92 124h-86z" />
<glyph unicode="l" horiz-adv-x="645" d="M203 1321h-146q4 84 43 147q86 35 207 35q81 0 131 -18v-1325q82 -7 158 -33q8 -36 8 -80q0 -23 -4 -47h-553q7 70 31 119q43 25 125 49v1153z" />
<glyph unicode="m" horiz-adv-x="1892" d="M455 719v-559q88 -12 141 -33q13 -64 6 -127h-539q7 70 31 119q39 22 125 49v657h-147q2 35 14 77.5t29 68.5q79 35 188 35q68 0 117 -17v-155h26q39 78 121 132t203 54q112 0 182.5 -42t96.5 -155h14q35 81 119.5 139t208.5 58q54 0 96 -7.5t84.5 -31.5t70 -63.5 t45 -107.5t17.5 -161q0 -261 -12 -489q77 -6 155 -33q8 -36 8 -80q0 -23 -4 -47h-518q8 75 29 119q37 25 104 49v440q0 232 -172 232q-63 0 -122 -36.5t-97 -84.5v-559q77 -7 139 -33q6 -23 8.5 -61.5t-1.5 -65.5h-506q8 75 26 119q36 24 105 49v440q0 232 -172 232 q-63 0 -123 -36.5t-96 -84.5z" />
<glyph unicode="n" horiz-adv-x="1284" d="M455 717v-557q92 -12 141 -33q6 -23 8 -61.5t-2 -65.5h-539q7 70 31 119q39 22 125 49v657h-147q2 35 14 77.5t29 68.5q79 35 188 35q68 0 117 -17v-155h26q39 77 123 131.5t209 54.5q55 0 97.5 -7.5t86 -31.5t72 -63.5t46.5 -107.5t18 -161q0 -193 -15 -489 q78 -6 156 -33q8 -36 8 -80q0 -23 -4 -47h-520q8 75 29 119q34 23 106 49v440q0 232 -176 232q-66 0 -128.5 -37t-98.5 -86z" />
<glyph unicode="o" horiz-adv-x="1146" d="M573 1020q224 0 357 -134.5t133 -377.5q0 -256 -132 -399.5t-358 -143.5q-236 0 -362.5 139t-126.5 404q0 233 137.5 372.5t351.5 139.5zM326 508q0 -176 66 -281.5t181 -105.5q122 0 184 102t62 285q0 156 -67.5 257t-178.5 101q-118 0 -182.5 -97t-64.5 -261z" />
<glyph unicode="p" horiz-adv-x="1185" d="M418 16v-329q114 -12 194 -41q16 -60 9 -125h-594q7 72 30 119q39 22 125 49v1136h-149q2 35 14 77.5t29 68.5q82 35 188 35q66 0 119 -17v-147h25q21 37 44.5 65.5t59.5 55.5t87 42t114 15q57 0 110.5 -15.5t105 -52.5t89.5 -92t61 -140.5t23 -191.5 q0 -256 -137.5 -409.5t-362.5 -153.5q-114 0 -184 51zM414 729v-575q78 -29 147 -29q150 0 222.5 98.5t72.5 272.5q0 172 -61.5 262t-165.5 90q-73 0 -128 -34.5t-87 -84.5z" />
<glyph unicode="q" horiz-adv-x="1146" d="M1004 920v-1239q78 -7 163 -33q9 -40 9 -80q0 -17 -5 -47h-575q7 64 33 119q62 32 139 49v168q0 116 16 264h-24q-30 -67 -102 -111.5t-179 -44.5q-75 0 -142.5 27t-125.5 83t-92.5 155t-34.5 229q0 258 144.5 409.5t387.5 151.5q216 0 388 -100zM772 254v586 q-67 28 -145 28q-149 0 -223 -100.5t-74 -273.5q0 -165 64.5 -259t166.5 -94q69 0 123 31.5t88 81.5z" />
<glyph unicode="r" horiz-adv-x="860" d="M420 795h26q20 93 93 159t172 66q65 0 98 -16q33 -51 33 -152q0 -47 -8 -74q-62 35 -148 35q-71 0 -132.5 -39.5t-98.5 -114.5v-493q131 -13 200 -41q8 -22 10.5 -60t-1.5 -65h-601q7 70 31 119q39 22 125 49v657h-145q0 35 11.5 77t29.5 69q82 35 188 35q68 0 117 -17 v-194z" />
<glyph unicode="s" horiz-adv-x="915" d="M606 754v106q-52 23 -106 23q-68 0 -105 -28t-37 -79q0 -44 26.5 -76.5t69 -53.5t93.5 -40.5t102 -45.5t93.5 -59.5t69 -90t26.5 -131.5q0 -83 -32 -145t-88 -98t-124.5 -53.5t-149.5 -17.5q-199 0 -340 78q-10 45 -10 104q0 93 21 158q112 0 188 -24v-127 q65 -41 156 -41q68 0 107.5 33t39.5 92q0 44 -26.5 76t-69.5 52.5t-94.5 39.5t-103.5 44.5t-95 60t-69.5 93t-26.5 135.5q0 126 101 203.5t270 77.5q171 0 315 -62q4 -32 4 -67q0 -86 -23 -176q-109 0 -182 39z" />
<glyph unicode="t" horiz-adv-x="761" d="M174 1014l35 227q30 17 87.5 29t102.5 12v-297h291q17 -89 8 -158h-299v-512q0 -93 29 -131.5t102 -38.5q77 0 191 27q2 -10 2 -31q0 -58 -33 -116q-123 -60 -266 -60q-134 0 -199 75t-65 241q0 286 14 546h-147q0 29 9 75t21 71q58 28 117 41z" />
<glyph unicode="u" horiz-adv-x="1241" d="M795 260v565h-146q4 83 43 146q75 35 207 35q75 0 131 -17v-686q0 -80 17 -147h151q2 -10 2 -31q0 -63 -24 -109q-54 -18 -150.5 -29.5t-165.5 -11.5q-39 71 -49 170h-14q-39 -75 -120.5 -127.5t-199.5 -52.5q-54 0 -96.5 8t-84.5 32.5t-69 64.5t-44 108.5t-17 161.5 q0 288 10 485h-153q2 35 14 77.5t29 68.5q86 35 208 35q76 0 132 -17v-610q0 -115 40 -173.5t134 -58.5q59 0 118.5 33.5t96.5 79.5z" />
<glyph unicode="v" horiz-adv-x="1105" d="M569 168h19q18 99 49 194l92 279q30 95 76 176q-63 11 -107 31q-20 56 -20 137h420q0 -70 -27 -149q-43 -15 -90 -19l-313 -823l-240 -23l-311 838q-44 12 -88 39q-19 60 -23 137h496q0 -62 -25 -143q-63 -20 -129 -27q38 -57 74 -164l100 -293q30 -96 47 -190z" />
<glyph unicode="w" horiz-adv-x="1640" d="M502 166h20q7 75 37 203l148 612l270 25l143 -637q16 -70 33 -203h18q13 93 43 205l74 274q24 95 60 172q-63 11 -105 31q-20 62 -20 137h403q0 -64 -27 -147q-52 -18 -88 -21l-243 -819l-262 -27l-142 592q-30 128 -37 240h-18q-10 -112 -43 -242l-143 -563l-267 -27 l-233 838q-53 15 -88 39q-20 64 -23 137h469q0 -73 -22 -141q-58 -20 -127 -27q41 -76 63 -164l72 -286q29 -115 35 -201z" />
<glyph unicode="x" horiz-adv-x="1179" d="M559 401l-108 -157q-29 -46 -72 -80q47 -3 106 -25q23 -63 23 -139h-485q7 75 34 133q44 23 119 41l283 346l-244 293q-67 15 -104 33q-23 62 -27 139h491q0 -67 -16 -141q-41 -18 -86 -25q39 -25 74 -69l110 -136l101 138q29 42 61 67q-28 6 -86 29q-14 61 -14 137h395 q-3 -64 -31 -145q-44 -18 -86 -21l-245 -315l282 -340q58 -4 101 -23q26 -57 26 -141h-506q7 76 29 141q59 20 88 23q-53 42 -88 86z" />
<glyph unicode="y" horiz-adv-x="1105" d="M582 166h18q17 90 49 196l84 279q31 106 68 176q-63 11 -107 31q-18 58 -18 137h414q0 -70 -27 -149q-44 -15 -90 -19l-117 -330q-144 -410 -238 -591q-72 -143 -184 -248t-246 -148q-31 29 -59.5 83.5t-32.5 99.5q126 35 223.5 110t145.5 170l-340 846q-46 11 -96 39 q-19 60 -23 137h500q0 -75 -25 -141q-55 -21 -133 -29q47 -69 78 -158l109 -297q31 -87 47 -194z" />
<glyph unicode="z" horiz-adv-x="980" d="M104 0l-26 113l518 708v19h-281q-9 -65 -41 -148q-39 0 -91.5 8t-78.5 21v264h764l29 -113l-518 -710v-19q189 0 332 19q19 86 45 145q54 15 114 15q38 0 66 -7l-37 -315h-795z" />
<glyph unicode="{" horiz-adv-x="733" d="M90 528q0 74 25 146q36 4 61.5 16t40 29t22.5 45.5t10.5 57.5t2.5 73v340q0 80 17.5 139.5t58.5 108.5t117 76.5t186 31.5q0 -31 -9 -79t-22 -76q-64 -9 -92.5 -53.5t-28.5 -135.5v-338q0 -121 -34.5 -196t-114.5 -103v-14q81 -27 115 -94t34 -189v-391q0 -195 142 -207 q6 -27 2.5 -77.5t-11.5 -73.5q-200 9 -280 91.5t-80 238.5v389q0 63 -5.5 102.5t-22.5 72.5t-49.5 49.5t-84.5 20.5z" />
<glyph unicode="|" horiz-adv-x="661" d="M428 1565v-1946q-21 -8 -92 -8q-72 0 -96 8v1929q76 17 188 17z" />
<glyph unicode="}" horiz-adv-x="733" d="M406 594v14q-146 63 -146 287v334q0 109 -34.5 157t-116.5 56q0 29 13 76.5t28 72.5q98 -7 167 -37.5t105 -79t51.5 -103t15.5 -122.5v-346q0 -43 2.5 -72t11 -60.5t24 -50t43.5 -31.5t67 -15q18 -63 18 -148q-95 -7 -130.5 -55t-35.5 -164v-397q0 -63 -9.5 -112 t-33.5 -93t-64 -73t-103.5 -47.5t-149.5 -22.5q-9 27 -11 75t3 76q65 5 102 53.5t37 129.5v395q0 128 31.5 200t114.5 103z" />
<glyph unicode="~" d="M201 414q-23 17 -49.5 51t-38.5 61q45 70 122.5 115t167.5 45q67 0 133 -26t128 -52t118 -26q50 0 91 25t63 61q27 -6 67 -23.5t62 -32.5q-43 -89 -128 -146.5t-185 -57.5q-62 0 -116.5 16t-87.5 36t-79.5 36t-93.5 16q-54 0 -100 -29t-74 -69z" />
<glyph unicode="&#xa1;" horiz-adv-x="724" d="M223 -426l51 967q53 16 115 16q36 0 60 -4l71 -979q-57 -14 -147 -14q-87 0 -150 14zM365 1024q68 0 110.5 -39t42.5 -108q0 -75 -42.5 -117.5t-110.5 -42.5q-75 0 -113.5 41t-38.5 119q0 65 42.5 106t109.5 41z" />
<glyph unicode="&#xa2;" horiz-adv-x="1067" d="M754 743v140q-53 20 -109 20q-127 0 -203.5 -82t-76.5 -241q0 -165 82 -252.5t225 -87.5q135 0 286 57q3 -31 -9 -79.5t-29 -76.5q-88 -46 -218 -65v-174q-27 -6 -96 -6q-66 0 -100 6v170q-183 25 -289 153.5t-106 317.5q0 195 116.5 332t309.5 169v138q78 16 196 16 v-149q119 -14 225 -76q5 -29 5 -68q0 -121 -33 -205q-41 0 -93 12t-83 31z" />
<glyph unicode="&#xa3;" horiz-adv-x="1155" d="M883 481h-359q2 -14 2 -55q0 -77 -34.5 -147t-81.5 -107v-14h442q13 81 35 139q92 18 164 12v-309h-979q3 64 30 129q46 28 125 51q72 123 72 221q0 55 -2 80h-176q0 78 22 146h129q-24 106 -24 182q0 151 111.5 236t316.5 85q164 0 323 -59q5 -45 5 -67q0 -106 -27 -207 q-46 1 -96 14t-82 31v116q-59 21 -119 21q-195 0 -195 -182q0 -68 21 -170h371q5 -21 7.5 -67t-1.5 -79z" />
<glyph unicode="&#xa4;" horiz-adv-x="1171" d="M356 918q106 61 236 61q123 0 229 -53l119 149q33 -8 70.5 -35.5t56.5 -52.5l-131 -156q90 -111 90 -278q0 -181 -96 -305l137 -160q-16 -27 -51.5 -53t-71.5 -33l-125 154q-97 -54 -227 -54q-136 0 -238 54l-127 -158q-34 10 -69.5 36.5t-53.5 53.5l140 164 q-86 116 -86 301q0 153 88 268l-137 164q16 25 54 52t73 36zM365 551q0 -130 63 -212.5t164 -82.5q107 0 166 80t59 215q0 116 -63.5 194t-161.5 78q-107 0 -167 -74.5t-60 -197.5z" />
<glyph unicode="&#xa5;" horiz-adv-x="1187" d="M1024 248h-309v-80q106 -13 184 -39q16 -68 6 -129h-610q3 57 35 123q50 26 145 49v76h-319q0 66 18 125h301v33l-59 90h-260q0 66 18 125h160l-178 286q-55 16 -101 41q-20 55 -20 142h528q0 -60 -22 -150q-53 -20 -123 -31q40 -32 69 -88l84 -155q38 -74 47 -113h21 q16 56 49 113l92 155q32 58 72 90q-59 11 -102 33q-21 59 -21 146h436q0 -31 -10.5 -78.5t-21.5 -75.5q-45 -20 -99 -23l-186 -292h170q5 -18 7 -58t-1 -67h-260l-49 -78v-45h303q5 -18 7 -58t-1 -67z" />
<glyph unicode="&#xa6;" horiz-adv-x="661" d="M428 1565v-762q-19 -8 -92 -8t-100 8v745q76 17 192 17zM428 383v-764q-28 -8 -92 -8q-60 0 -100 8v748q72 16 192 16z" />
<glyph unicode="&#xa7;" horiz-adv-x="1028" d="M289 106v-159q71 -45 172 -45q100 0 154.5 41t54.5 116q0 45 -31.5 81t-81.5 63t-111 54t-122 62t-111 78.5t-81.5 112t-31.5 154.5q0 171 117 288q-12 41 -12 88q0 134 98 208.5t270 74.5q177 0 349 -76q0 -131 -25 -250q-45 0 -98.5 11t-85.5 28v123q-68 31 -138 31 q-79 0 -122 -33.5t-43 -93.5q0 -39 29.5 -70t77 -55t104.5 -49t114 -60t104.5 -79t77 -115t29.5 -160q0 -141 -98 -262q26 -63 26 -135q0 -80 -34.5 -141t-95 -98.5t-138.5 -56t-170 -18.5q-197 0 -368 91q0 139 22 276q101 0 199 -25zM289 700q0 -50 29 -91t80 -72.5 t105.5 -58t121.5 -62.5t112 -72q25 59 25 105q0 56 -31 99.5t-84 75.5t-109 58t-121 61.5t-106 71.5q-22 -48 -22 -115z" />
<glyph unicode="&#xa8;" horiz-adv-x="944" d="M231 1430q60 0 97 -33.5t37 -93.5q0 -66 -37 -103t-97 -37q-135 0 -135 140q0 58 37 92.5t98 34.5zM715 1430q60 0 96.5 -33.5t36.5 -93.5q0 -66 -36.5 -103t-96.5 -37q-135 0 -135 140q0 58 37 92.5t98 34.5z" />
<glyph unicode="&#xa9;" horiz-adv-x="1714" d="M965 840v108q-37 15 -78 15q-81 0 -133 -69t-52 -198q0 -266 224 -266q46 0 108.5 12t108.5 29q2 -27 -7 -67t-22 -66q-124 -62 -266 -62q-169 0 -275 111.5t-106 284.5q0 99 34.5 181t92.5 136t135 83.5t162 29.5q152 0 256 -51q0 -44 -7 -123.5t-14 -122.5 q-93 0 -161 35zM1595 694q0 -202 -100 -371t-272 -266.5t-377 -97.5q-153 0 -288 56.5t-231 153t-152 231.5t-56 286t58.5 288t157.5 236t236.5 157t290.5 58q152 0 288 -57.5t233.5 -155.5t154.5 -233t57 -285zM1442 688q0 162 -77 301t-212 221t-297 82q-160 0 -295 -80 t-213 -218.5t-78 -301.5q0 -122 46.5 -233.5t125 -192.5t188 -128.5t230.5 -47.5q160 0 294 80t211 217.5t77 300.5z" />
<glyph unicode="&#xaa;" horiz-adv-x="905" d="M551 739h-14q-24 -45 -75 -71.5t-118 -26.5q-86 0 -148.5 50.5t-62.5 144.5q0 105 77 163t189 58q69 0 121 -19v47q0 97 -119 97q-46 0 -113 -17.5t-108 -40.5q-7 32 -1 82.5t18 79.5q38 15 110 26t133 11q140 0 202.5 -58t62.5 -190v-194q0 -74 16 -90q42 0 96 16 q0 -73 -22 -119q-32 -18 -88.5 -32.5t-98.5 -14.5q-20 15 -36.5 42.5t-20.5 55.5zM520 823v117q-46 8 -76 8q-63 0 -97 -24t-34 -68q0 -43 27 -62.5t68 -19.5q72 0 112 49zM178 557h565q5 -24 8 -68.5t-1 -78.5h-592q0 82 20 147z" />
<glyph unicode="&#xab;" horiz-adv-x="1249" d="M418 520q70 -192 178 -401q-36 -15 -97.5 -28t-103.5 -13q-151 240 -241 442q76 177 213 398q126 36 243 36q-114 -226 -192 -434zM881 526q70 -192 178 -401q-36 -15 -97.5 -28t-103.5 -13q-154 245 -242 442q76 177 213 398q130 37 244 37q-112 -223 -192 -435z" />
<glyph unicode="&#xac;" d="M135 649h907v-391q-38 -10 -100 -10q-65 0 -113 10v211h-720q0 87 26 180z" />
<glyph unicode="&#xad;" d="M133 641h916q12 -52 12 -115q0 -40 -6 -67h-949q0 81 27 182z" />
<glyph unicode="&#xae;" horiz-adv-x="1282" d="M471 975v307q-19 0 -55 4q-10 51 -2 78q90 10 233 10q97 0 158 -36t61 -107q0 -50 -26 -85.5t-68 -49.5q23 -48 74 -125l61 6q0 -48 -18 -80q-59 -18 -127 -18q-51 79 -111 202q-37 0 -51 2v-110q39 -5 57 -17q9 -32 5 -65h-263q4 37 17 67q29 14 55 17zM647 1608 q217 0 349 -134t132 -346q0 -213 -138.5 -352t-354.5 -139q-214 0 -347.5 135t-133.5 350q0 213 137.5 349.5t355.5 136.5zM639 1505q-163 0 -266 -108t-103 -271q0 -165 104.5 -276t270.5 -111q163 0 265 106.5t102 272.5q0 168 -103 277.5t-270 109.5zM598 1161 q28 -4 57 -4q36 0 58 17t22 47q0 36 -24 50.5t-76 14.5q-25 0 -37 -2v-123z" />
<glyph unicode="&#xaf;" horiz-adv-x="888" d="M752 1206h-619q0 84 25 174h587q11 -50 11 -112q0 -34 -4 -62z" />
<glyph unicode="&#xb0;" horiz-adv-x="839" d="M422 1323q134 0 215.5 -72.5t81.5 -201.5q0 -136 -82.5 -213.5t-218.5 -77.5q-145 0 -220 74t-75 217q0 123 85 198.5t214 75.5zM301 1049q0 -68 33 -111t88 -43q56 0 86.5 41t30.5 113q0 60 -32.5 98.5t-84.5 38.5q-56 0 -88.5 -37.5t-32.5 -99.5z" />
<glyph unicode="&#xb1;" d="M686 842h320q12 -43 12 -101q0 -34 -6 -61h-326v-352q-36 -9 -96 -9q-72 0 -107 9v352h-333q0 84 24 162h309v340q78 16 203 16v-356zM168 170h829q13 -50 13 -107q0 -36 -6 -63h-861q0 80 25 170z" />
<glyph unicode="&#xb2;" horiz-adv-x="788" d="M90 776v137q33 31 114 97t137 114t103.5 114t47.5 120q0 92 -107 92q-69 0 -125 -27v-96q-61 -22 -156 -22q-16 94 -16 211q149 67 309 67q301 0 301 -213q0 -51 -31.5 -108t-71.5 -100.5t-104.5 -95t-100.5 -76t-91 -60.5v-12q257 4 426 16q0 -90 -14 -158h-621z" />
<glyph unicode="&#xb3;" horiz-adv-x="788" d="M367 1440q-51 0 -118 -12.5t-118 -34.5q-7 82 21 153q93 37 225 37q127 0 212 -50.5t85 -148.5q0 -73 -42.5 -120.5t-115.5 -61.5v-14q76 -10 126 -58.5t50 -128.5q0 -122 -97 -180.5t-257 -58.5q-132 0 -211 26q-27 59 -27 123q0 29 2 43q49 -22 121 -36.5t127 -14.5 q61 0 99 24t38 74q0 62 -63 85.5t-225 23.5q-11 74 12 141q135 0 198.5 25t63.5 84q0 80 -106 80z" />
<glyph unicode="&#xb4;" horiz-adv-x="808" d="M635 1464l-346 -356q-28 12 -65.5 43t-55.5 57l244 338q42 0 117 -26.5t106 -55.5z" />
<glyph unicode="&#xb5;" horiz-adv-x="1269" d="M309 156h-18q39 -180 63.5 -377t24.5 -336q-70 3 -141.5 17t-108.5 34q33 906 33 1477q32 11 111.5 19.5t121.5 8.5q-12 -270 -12 -444q0 -410 217 -410q72 0 132.5 47.5t94.5 114.5q-10 110 -10 213q0 250 14 451q32 12 101 20t112 8q-12 -176 -12 -475 q0 -216 24 -298.5t79 -82.5q21 0 50.5 8.5t47.5 20.5q2 -10 2 -29q0 -32 -10 -71.5t-23 -61.5q-63 -45 -145 -45q-156 0 -197 195h-14q-14 -39 -32.5 -69.5t-50.5 -61t-83 -47.5t-117 -17q-92 0 -159 48t-95 143z" />
<glyph unicode="&#xb6;" horiz-adv-x="1325" d="M920 1337q-76 6 -185 6v-1540q329 -9 508 -26q10 -42 10 -92q0 -23 -2 -35h-850q7 71 27 125q73 20 141 26v910q-50 -4 -82 -4q-76 0 -143.5 19.5t-127.5 60.5t-95 115.5t-35 174.5q0 195 153 297.5t451 102.5q301 0 547 -21q6 -27 6 -63q0 -38 -8 -74q-43 -2 -150 -2 v-1364q-21 -6 -77 -6q-64 0 -88 6v1384z" />
<glyph unicode="&#xb7;" horiz-adv-x="659" d="M346 670q75 0 120.5 -43.5t45.5 -120.5q0 -83 -45.5 -128.5t-120.5 -45.5q-170 0 -170 174q0 73 47.5 118.5t122.5 45.5z" />
<glyph unicode="&#xb8;" horiz-adv-x="741" d="M236 -164l75 178q66 17 146 17l-27 -146q53 -13 93 -53t40 -96q0 -88 -79.5 -147t-186.5 -70q-56 36 -90 96q61 9 100 40t39 75q0 41 -30.5 68t-79.5 38z" />
<glyph unicode="&#xb9;" horiz-adv-x="788" d="M512 1583v-672q89 -4 147 -16q11 -42 11 -84q0 -23 -2 -35h-512q3 57 28 117q61 17 131 20v510l-182 -18q4 77 27 133q171 37 352 45z" />
<glyph unicode="&#xba;" horiz-adv-x="913" d="M465 1323q155 0 246.5 -86t91.5 -242q0 -165 -91.5 -259.5t-246.5 -94.5q-163 0 -253.5 92t-90.5 262q0 150 96.5 239t247.5 89zM311 995q0 -101 41.5 -161t112.5 -60q70 0 107.5 59t37.5 162q0 86 -40.5 142.5t-104.5 56.5q-72 0 -113 -54t-41 -145zM178 557h582 q5 -23 7.5 -68.5t-1.5 -78.5h-608q0 82 20 147z" />
<glyph unicode="&#xbb;" horiz-adv-x="1253" d="M662 137q113 228 174 389q-82 215 -174 394q92 43 198 43q164 -264 238 -437q-80 -179 -244 -446q-44 3 -100 20t-92 37zM195 131q113 228 174 389q-81 211 -174 393q92 43 198 43q165 -266 238 -436q-80 -179 -244 -446q-44 3 -100 20t-92 37z" />
<glyph unicode="&#xbc;" horiz-adv-x="1896" d="M1638 193v-189q-16 -8 -88 -8t-96 8v189h-385v114l338 486h231v-459h111q8 -52 8 -141h-119zM1454 334v172q0 69 8 121h-12l-195 -285v-12q27 4 91 4h108zM1595 1411l-1024 -1477q-39 7 -85 32t-70 50l999 1436q100 -4 180 -41zM510 1399v-672q89 -4 147 -16 q11 -42 11 -84q0 -23 -2 -35h-512q3 57 28 117q61 17 131 20v510l-182 -18q4 77 27 133q171 37 352 45z" />
<glyph unicode="&#xbd;" horiz-adv-x="1896" d="M1511 1411l-1024 -1477q-39 7 -85 32t-70 50l999 1436q100 -4 180 -41zM463 1399v-672q89 -4 147 -16q11 -42 11 -84q0 -17 -3 -35h-512q3 54 29 117q61 17 131 20v510l-182 -18q4 77 27 133q171 37 352 45zM1145 0v137q30 29 89.5 76.5t108 88.5t97.5 89.5t77.5 97.5 t28.5 93q0 92 -106 92q-69 0 -125 -27v-96q-64 -23 -156 -23q-16 94 -16 211q152 68 309 68q301 0 301 -213q0 -51 -31.5 -108t-71.5 -100.5t-104.5 -95t-100.5 -76t-91 -60.5v-13q237 4 426 17q0 -85 -15 -158h-620z" />
<glyph unicode="&#xbe;" horiz-adv-x="1896" d="M1628 193v-189q-16 -8 -88 -8t-96 8v189h-385v114l338 486h231v-459h111q8 -52 8 -141h-119zM1444 334v172q0 69 8 121h-12l-195 -285v-12q27 4 90 4h109zM1571 1411l-1024 -1477q-39 7 -85.5 32t-70.5 50l1000 1436q100 -4 180 -41zM391 1255q-51 0 -117.5 -12.5 t-117.5 -34.5q-8 85 20 154q93 37 225 37q127 0 212 -50.5t85 -148.5q0 -73 -42 -120.5t-115 -61.5v-14q76 -10 126 -58.5t50 -128.5q0 -122 -97.5 -180.5t-257.5 -58.5q-131 0 -210 26q-27 59 -27 123q0 29 2 43q49 -22 121 -36.5t127 -14.5q61 0 99 24t38 74 q0 62 -63.5 85.5t-225.5 23.5q-11 72 13 141q135 0 198.5 25t63.5 84q0 79 -107 79z" />
<glyph unicode="&#xbf;" horiz-adv-x="1036" d="M524 1024q68 0 111 -39t43 -108q0 -75 -43 -117.5t-111 -42.5q-151 0 -151 160q0 66 42.5 106.5t108.5 40.5zM700 -283v193q33 19 87.5 31t101.5 14q26 -147 26 -356q-74 -30 -200.5 -52t-225.5 -22q-185 0 -293 79t-108 214q0 58 21.5 111t56.5 94t76.5 79t83.5 71.5 t77 64.5t56.5 66t21.5 69q0 94 -49 155q33 24 89.5 44t105.5 24q40 -41 65 -98.5t25 -112.5q0 -46 -20 -90.5t-51.5 -81.5t-70.5 -73t-77.5 -71t-70 -70t-51.5 -75.5t-20 -81.5q0 -63 47.5 -111t141.5 -48q91 0 155 34z" />
<glyph unicode="&#xc0;" horiz-adv-x="1599" d="M1550 0h-569q7 72 37 145q50 16 141 29q-41 53 -78 148l-45 118h-536l-47 -129q-29 -86 -68 -145q79 -3 158 -21q9 -26 16.5 -71.5t7.5 -73.5h-530q9 72 41 145q49 18 102 25l533 1292h180l510 -1286q70 -8 121 -24q23 -82 26 -152zM780 1200h-18q-13 -100 -68 -242 l-137 -366h422l-139 371q-51 141 -60 237zM885 1538l-541 207q26 41 84.5 91t101.5 69l418 -211q-7 -36 -25.5 -84.5t-37.5 -71.5z" />
<glyph unicode="&#xc1;" horiz-adv-x="1599" d="M1550 0h-569q7 72 37 145q50 16 141 29q-41 53 -78 148l-45 118h-536l-47 -129q-29 -86 -68 -145q79 -3 158 -21q9 -26 16.5 -71.5t7.5 -73.5h-530q9 72 41 145q49 18 102 25l533 1292h180l510 -1286q70 -8 121 -24q23 -82 26 -152zM780 1200h-18q-13 -100 -68 -242 l-137 -366h422l-139 371q-51 141 -60 237zM1204 1729l-545 -197q-12 30 -20 80.5t-8 85.5l446 215q35 -29 71.5 -82.5t55.5 -101.5z" />
<glyph unicode="&#xc2;" horiz-adv-x="1599" d="M1550 0h-569q7 72 37 145q50 16 141 29q-41 53 -78 148l-45 118h-536l-47 -129q-29 -86 -68 -145q79 -3 158 -21q9 -26 16.5 -71.5t7.5 -73.5h-530q9 72 41 145q49 18 102 25l533 1292h180l510 -1286q70 -8 121 -24q23 -82 26 -152zM780 1200h-18q-13 -100 -68 -242 l-137 -366h422l-139 371q-51 141 -60 237zM670 1872h245l289 -215q-10 -32 -40.5 -69t-59.5 -54l-318 158l-337 -168q-20 24 -34.5 68.5t-17.5 80.5z" />
<glyph unicode="&#xc3;" horiz-adv-x="1599" d="M1550 0h-569q7 72 37 145q50 16 141 29q-41 53 -78 148l-45 118h-536l-47 -129q-29 -86 -68 -145q79 -3 158 -21q9 -26 16.5 -71.5t7.5 -73.5h-530q9 72 41 145q49 18 102 25l533 1292h180l510 -1286q70 -8 121 -24q23 -82 26 -152zM780 1200h-18q-13 -100 -68 -242 l-137 -366h422l-139 371q-51 141 -60 237zM1083 1841q84 0 136 -24q-2 -104 -75 -183.5t-206 -79.5q-57 0 -114.5 24t-111.5 47.5t-102 23.5q-44 0 -76 -26t-40 -60q-34 3 -71.5 24t-57.5 47q16 93 87 153t189 60q52 0 99.5 -14t77.5 -31t70.5 -31t80.5 -14q44 0 74.5 23.5 t39.5 60.5z" />
<glyph unicode="&#xc4;" horiz-adv-x="1599" d="M1550 0h-569q7 72 37 145q50 16 141 29q-41 53 -78 148l-45 118h-536l-47 -129q-29 -86 -68 -145q79 -3 158 -21q9 -26 16.5 -71.5t7.5 -73.5h-530q9 72 41 145q49 18 102 25l533 1292h180l510 -1286q70 -8 121 -24q23 -82 26 -152zM780 1200h-18q-13 -100 -68 -242 l-137 -366h422l-139 371q-51 141 -60 237zM504 1837q67 0 107 -34.5t40 -98.5q0 -69 -40.5 -106t-106.5 -37q-148 0 -148 143q0 61 40.5 97t107.5 36zM1083 1837q67 0 107.5 -34.5t40.5 -98.5q0 -69 -40.5 -106t-107.5 -37q-147 0 -147 143q0 61 40.5 97t106.5 36z" />
<glyph unicode="&#xc5;" horiz-adv-x="1599" d="M805 1892q126 0 199 -57t73 -164q0 -89 -47 -144.5t-133 -76.5l506 -1274q70 -8 121 -24q23 -82 26 -152h-569q7 72 37 145q50 16 141 29q-41 53 -78 148l-45 118h-536l-47 -129q-29 -86 -68 -145q79 -3 158 -21q9 -26 16.5 -71.5t7.5 -73.5h-530q9 72 41 145 q49 18 102 25l527 1278q-179 38 -179 219q0 106 73.5 165.5t203.5 59.5zM780 1200h-18q-13 -100 -68 -242l-137 -366h422l-139 371q-51 141 -60 237zM803 1769q-53 0 -85 -27.5t-32 -74.5q0 -51 30.5 -77.5t86.5 -26.5q52 0 83.5 26.5t31.5 77.5q0 50 -31.5 76t-83.5 26z " />
<glyph unicode="&#xc6;" horiz-adv-x="2004" d="M1241 1278v-483h348q3 40 21 100q79 23 166 23v-398q-94 -8 -168 12q-16 61 -19 107h-348v-477h449q7 97 26 170q68 22 182 22v-354h-1081q4 77 31 145q72 22 143 29v303h-434l-92 -164q-44 -79 -98 -143q80 -7 153 -23q10 -27 17.5 -72.5t7.5 -74.5h-529q9 74 41 143 q44 20 101 27l637 1098q-110 8 -170 20q-6 28 -8 75t4 73h1257v-334q-96 0 -170 22q-22 84 -25 154h-442zM991 1257h-18q-28 -87 -74 -167l-256 -461h348v628z" />
<glyph unicode="&#xc7;" horiz-adv-x="1343" d="M1008 1069v205q-84 37 -187 37q-98 0 -181 -36.5t-145.5 -106.5t-97.5 -180.5t-35 -250.5q0 -288 124 -433.5t335 -145.5q86 0 200 20.5t202 52.5q3 -34 -8.5 -85.5t-28.5 -82.5q-137 -72 -316 -96l-14 -90q65 -11 109.5 -55.5t44.5 -112.5q0 -67 -44.5 -121.5 t-110 -84.5t-140.5 -38q-55 38 -97 109q150 32 150 127q0 91 -129 117l57 143q-269 20 -433.5 223.5t-164.5 511.5q0 179 58.5 327.5t159.5 247t235 152.5t285 54q222 0 399 -86q0 -212 -33 -367q-45 0 -102.5 13t-91.5 32z" />
<glyph unicode="&#xc8;" horiz-adv-x="1273" d="M1167 0h-1095q8 86 32 145q75 22 152 29v1092q-83 7 -145 18q-11 82 -2 152h1038v-334q-96 0 -170 22q-22 84 -25 154h-448v-473h354q3 40 21 100q79 23 165 23v-398q-91 -7 -167 13q-16 62 -19 108h-354v-489h454q7 91 27 170q68 22 182 22v-354zM772 1538l-541 207 q26 41 85 91t102 69l418 -211q-7 -35 -26 -84t-38 -72z" />
<glyph unicode="&#xc9;" horiz-adv-x="1273" d="M1167 0h-1095q8 86 32 145q75 22 152 29v1092q-83 7 -145 18q-11 82 -2 152h1038v-334q-96 0 -170 22q-22 84 -25 154h-448v-473h354q3 40 21 100q79 23 165 23v-398q-91 -7 -167 13q-16 62 -19 108h-354v-489h454q7 91 27 170q68 22 182 22v-354zM1090 1729l-545 -197 q-12 30 -20.5 80.5t-8.5 85.5l447 215q35 -29 71.5 -82.5t55.5 -101.5z" />
<glyph unicode="&#xca;" horiz-adv-x="1273" d="M1167 0h-1095q8 86 32 145q75 22 152 29v1092q-83 7 -145 18q-11 82 -2 152h1038v-334q-96 0 -170 22q-22 84 -25 154h-448v-473h354q3 40 21 100q79 23 165 23v-398q-91 -7 -167 13q-16 62 -19 108h-354v-489h454q7 91 27 170q68 22 182 22v-354zM545 1872h246l288 -215 q-10 -32 -40.5 -69t-59.5 -54l-317 158l-338 -168q-20 24 -34.5 68.5t-17.5 80.5z" />
<glyph unicode="&#xcb;" horiz-adv-x="1273" d="M1167 0h-1095q8 86 32 145q75 22 152 29v1092q-83 7 -145 18q-11 82 -2 152h1038v-334q-96 0 -170 22q-22 84 -25 154h-448v-473h354q3 40 21 100q79 23 165 23v-398q-91 -7 -167 13q-16 62 -19 108h-354v-489h454q7 91 27 170q68 22 182 22v-354zM385 1837 q67 0 107 -34.5t40 -98.5q0 -69 -40.5 -106t-106.5 -37q-147 0 -147 143q0 61 40.5 97t106.5 36zM965 1837q67 0 107 -34.5t40 -98.5q0 -69 -40.5 -106t-106.5 -37q-148 0 -148 143q0 61 40.5 97t107.5 36z" />
<glyph unicode="&#xcc;" horiz-adv-x="759" d="M684 0h-612q8 86 32 145q75 22 152 29v1092q-83 7 -145 18q-13 91 -2 152h559q5 -25 3.5 -74.5t-7.5 -75.5q-73 -14 -160 -18v-1096q107 -8 174 -22q10 -42 10 -95q0 -27 -4 -55zM469 1538l-541 207q26 41 85 91t102 69l417 -211q-7 -36 -25.5 -84.5t-37.5 -71.5z" />
<glyph unicode="&#xcd;" horiz-adv-x="759" d="M684 0h-612q8 86 32 145q75 22 152 29v1092q-83 7 -145 18q-13 91 -2 152h559q5 -25 3.5 -74.5t-7.5 -75.5q-73 -14 -160 -18v-1096q107 -8 174 -22q10 -42 10 -95q0 -27 -4 -55zM807 1729l-545 -197q-12 30 -20.5 80.5t-8.5 85.5l447 215q35 -29 71.5 -82.5t55.5 -101.5 z" />
<glyph unicode="&#xce;" horiz-adv-x="759" d="M684 0h-612q8 86 32 145q75 22 152 29v1092q-83 7 -145 18q-13 91 -2 152h559q5 -25 3.5 -74.5t-7.5 -75.5q-73 -14 -160 -18v-1096q107 -8 174 -22q10 -42 10 -95q0 -27 -4 -55zM256 1872h246l289 -215q-10 -32 -40.5 -69t-60.5 -54l-317 158l-338 -168 q-20 24 -33.5 68.5t-17.5 80.5z" />
<glyph unicode="&#xcf;" horiz-adv-x="759" d="M119 1837q67 0 107 -34.5t40 -98.5q0 -69 -40.5 -106t-106.5 -37q-148 0 -148 143q0 61 40.5 97t107.5 36zM637 1837q67 0 107 -34.5t40 -98.5q0 -69 -40.5 -106t-106.5 -37q-148 0 -148 143q0 61 40.5 97t107.5 36zM684 0h-612q8 86 32 145q75 22 152 29v1092 q-83 7 -145 18q-13 91 -2 152h559q5 -25 3.5 -74.5t-7.5 -75.5q-73 -14 -160 -18v-1096q107 -8 174 -22q10 -42 10 -95q0 -27 -4 -55z" />
<glyph unicode="&#xd0;" horiz-adv-x="1527" d="M281 176v463h-168q0 88 22 156h146v452q-62 3 -146 15q-13 92 -2 155q290 33 565 33q167 0 304 -44.5t238.5 -131.5t157.5 -225.5t56 -317.5q0 -149 -38.5 -273t-104 -209.5t-153.5 -144.5t-186.5 -86.5t-203.5 -27.5q-378 0 -670 12q8 81 33 145q54 20 150 29zM528 1282 v-487h342q6 -24 9.5 -72t-0.5 -84h-351v-479q80 -6 181 -6q228 0 357.5 135.5t129.5 412.5q0 292 -140.5 439t-381.5 147q-90 0 -146 -6z" />
<glyph unicode="&#xd1;" horiz-adv-x="1585" d="M584 1436l483 -879q32 -57 65.5 -146.5t47.5 -154.5h18v1010q-90 8 -154 18q-5 31 -6 77.5t4 74.5h484q6 -18 6 -58q0 -59 -10 -92q-62 -14 -140 -18v-1282h-272l-553 1009q-59 105 -88 219h-18v-1042q100 -8 165 -22q8 -26 10.5 -75.5t-1.5 -74.5h-547q7 76 31 145 q71 22 143 29v1092q-86 8 -143 18q-6 28 -7.5 77.5t2.5 74.5h480zM1120 1841q83 0 135 -24q-2 -104 -74.5 -183.5t-205.5 -79.5q-57 0 -114.5 24t-111.5 47.5t-102 23.5q-44 0 -76.5 -26t-40.5 -60q-34 3 -71.5 24t-57.5 47q16 92 87.5 152.5t189.5 60.5q52 0 99.5 -14 t77.5 -31t70.5 -31t80.5 -14q44 0 74.5 23.5t39.5 60.5z" />
<glyph unicode="&#xd2;" horiz-adv-x="1527" d="M768 1477q303 0 483.5 -194t180.5 -546q0 -366 -179.5 -572t-484.5 -206q-326 0 -499 198.5t-173 579.5q0 168 51 308t141 234t213.5 146t266.5 52zM362 737q0 -281 108 -445.5t298 -164.5q196 0 297.5 160.5t101.5 449.5q0 166 -49.5 296.5t-140.5 204t-209 73.5 q-196 0 -301 -153.5t-105 -420.5zM879 1538l-541 207q26 41 84.5 91t101.5 69l418 -211q-7 -36 -25.5 -84.5t-37.5 -71.5z" />
<glyph unicode="&#xd3;" horiz-adv-x="1527" d="M768 1477q303 0 483.5 -194t180.5 -546q0 -366 -179.5 -572t-484.5 -206q-326 0 -499 198.5t-173 579.5q0 168 51 308t141 234t213.5 146t266.5 52zM362 737q0 -281 108 -445.5t298 -164.5q196 0 297.5 160.5t101.5 449.5q0 166 -49.5 296.5t-140.5 204t-209 73.5 q-196 0 -301 -153.5t-105 -420.5zM1171 1729l-544 -197q-12 30 -20.5 80.5t-8.5 85.5l446 215q35 -29 71.5 -82.5t55.5 -101.5z" />
<glyph unicode="&#xd4;" horiz-adv-x="1527" d="M768 1477q303 0 483.5 -194t180.5 -546q0 -366 -179.5 -572t-484.5 -206q-326 0 -499 198.5t-173 579.5q0 168 51 308t141 234t213.5 146t266.5 52zM362 737q0 -281 108 -445.5t298 -164.5q196 0 297.5 160.5t101.5 449.5q0 166 -49.5 296.5t-140.5 204t-209 73.5 q-196 0 -301 -153.5t-105 -420.5zM649 1872h246l289 -215q-10 -32 -40.5 -69t-60.5 -54l-317 158l-338 -168q-20 24 -33.5 68.5t-17.5 80.5z" />
<glyph unicode="&#xd5;" horiz-adv-x="1527" d="M768 1477q303 0 483.5 -194t180.5 -546q0 -366 -179.5 -572t-484.5 -206q-326 0 -499 198.5t-173 579.5q0 168 51 308t141 234t213.5 146t266.5 52zM362 737q0 -281 108 -445.5t298 -164.5q196 0 297.5 160.5t101.5 449.5q0 166 -49.5 296.5t-140.5 204t-209 73.5 q-196 0 -301 -153.5t-105 -420.5zM1059 1841q83 0 135 -24q-2 -104 -75 -183.5t-206 -79.5q-45 0 -91.5 15t-79 32.5t-75 32.5t-81.5 15q-44 0 -76.5 -26t-40.5 -60q-34 3 -71.5 24t-57.5 47q16 93 87 153t189 60q52 0 99.5 -14t77.5 -31t70.5 -31t80.5 -14q44 0 75 23.5 t40 60.5z" />
<glyph unicode="&#xd6;" horiz-adv-x="1527" d="M453 1837q67 0 107 -34.5t40 -98.5q0 -69 -40.5 -106t-106.5 -37q-148 0 -148 143q0 61 40.5 97t107.5 36zM1102 1837q67 0 107 -34.5t40 -98.5q0 -69 -40.5 -106t-106.5 -37q-148 0 -148 143q0 61 40.5 97t107.5 36zM768 1477q303 0 483.5 -194t180.5 -546 q0 -366 -179.5 -572t-484.5 -206q-326 0 -499 198.5t-173 579.5q0 168 51 308t141 234t213.5 146t266.5 52zM362 737q0 -281 108 -445.5t298 -164.5q196 0 297.5 160.5t101.5 449.5q0 166 -49.5 296.5t-140.5 204t-209 73.5q-196 0 -301 -153.5t-105 -420.5z" />
<glyph unicode="&#xd7;" d="M709 549l335 -330q-14 -29 -56.5 -71t-74.5 -62l-329 336l-328 -336q-34 21 -75.5 62.5t-59.5 70.5l336 330l-346 338q23 27 69.5 59.5t85.5 50.5l318 -323l311 321q38 -12 88 -45.5t74 -62.5z" />
<glyph unicode="&#xd8;" horiz-adv-x="1593" d="M1204 1354l158 178q37 -9 93 -40t81 -56l-197 -222q129 -183 129 -477q0 -367 -180.5 -572.5t-488.5 -205.5q-278 0 -447 143l-209 -233q-28 22 -69 70t-54 77l209 238q-106 186 -106 483q0 168 51.5 308t142 234t214.5 146t268 52q242 0 405 -123zM1157 1028l-659 -739 q109 -162 301 -162q202 0 305.5 160t103.5 450q0 161 -51 291zM426 453l645 725q-111 133 -272 133q-200 0 -307 -153t-107 -419q0 -173 41 -286z" />
<glyph unicode="&#xd9;" horiz-adv-x="1550" d="M479 1268v-723q0 -418 336 -418q175 0 261.5 115t86.5 305v719q-73 7 -133 18q-6 29 -7 77.5t5 74.5h473q6 -18 6 -58q0 -59 -10 -92q-59 -14 -135 -18v-709q0 -136 -34.5 -244t-104.5 -188.5t-185.5 -124t-269.5 -43.5q-274 0 -405.5 142.5t-131.5 426.5v738 q-100 10 -145 20q-18 63 -18 150h575q6 -25 4.5 -74.5t-8.5 -75.5q-74 -15 -160 -18zM911 1538l-540 207q26 41 84.5 91t101.5 69l418 -211q-7 -35 -26 -84t-38 -72z" />
<glyph unicode="&#xda;" horiz-adv-x="1550" d="M479 1268v-723q0 -418 336 -418q175 0 261.5 115t86.5 305v719q-73 7 -133 18q-6 29 -7 77.5t5 74.5h473q6 -18 6 -58q0 -59 -10 -92q-59 -14 -135 -18v-709q0 -136 -34.5 -244t-104.5 -188.5t-185.5 -124t-269.5 -43.5q-274 0 -405.5 142.5t-131.5 426.5v738 q-100 10 -145 20q-18 63 -18 150h575q6 -25 4.5 -74.5t-8.5 -75.5q-74 -15 -160 -18zM1239 1729l-545 -197q-12 30 -20 80.5t-8 85.5l446 215q35 -29 71.5 -82.5t55.5 -101.5z" />
<glyph unicode="&#xdb;" horiz-adv-x="1550" d="M479 1268v-723q0 -418 336 -418q175 0 261.5 115t86.5 305v719q-73 7 -133 18q-6 29 -7 77.5t5 74.5h473q6 -18 6 -58q0 -59 -10 -92q-59 -14 -135 -18v-709q0 -136 -34.5 -244t-104.5 -188.5t-185.5 -124t-269.5 -43.5q-274 0 -405.5 142.5t-131.5 426.5v738 q-100 10 -145 20q-18 63 -18 150h575q6 -25 4.5 -74.5t-8.5 -75.5q-74 -15 -160 -18zM700 1872h246l289 -215q-10 -32 -40.5 -69t-59.5 -54l-318 158l-338 -168q-20 24 -33.5 68.5t-17.5 80.5z" />
<glyph unicode="&#xdc;" horiz-adv-x="1550" d="M479 1268v-723q0 -418 336 -418q175 0 261.5 115t86.5 305v719q-73 7 -133 18q-6 29 -7 77.5t5 74.5h473q6 -18 6 -58q0 -59 -10 -92q-59 -14 -135 -18v-709q0 -136 -34.5 -244t-104.5 -188.5t-185.5 -124t-269.5 -43.5q-274 0 -405.5 142.5t-131.5 426.5v738 q-100 10 -145 20q-18 63 -18 150h575q6 -25 4.5 -74.5t-8.5 -75.5q-74 -15 -160 -18zM532 1837q67 0 107.5 -34.5t40.5 -98.5q0 -69 -40.5 -106t-107.5 -37q-147 0 -147 143q0 61 40.5 97t106.5 36zM1112 1837q67 0 107.5 -34.5t40.5 -98.5q0 -69 -40.5 -106t-107.5 -37 q-147 0 -147 143q0 61 40.5 97t106.5 36z" />
<glyph unicode="&#xdd;" horiz-adv-x="1345" d="M696 707h21q12 79 59 163l148 279q32 63 82 119q-60 3 -121 18q-23 79 -23 150h469q0 -86 -22 -154q-35 -10 -101 -14l-417 -713v-383q118 -8 198 -22q7 -25 9 -76t-1 -74h-665q7 72 37 143q79 23 172 31v369l-385 723q-60 4 -107 20q-20 66 -24 150h569q0 -69 -25 -154 q-59 -12 -145 -16q49 -52 80 -119l139 -277q40 -83 53 -163zM1135 1729l-545 -197q-12 30 -20.5 80.5t-8.5 85.5l447 215q35 -29 71.5 -82.5t55.5 -101.5z" />
<glyph unicode="&#xde;" horiz-adv-x="1286" d="M690 0h-618q8 86 32 145q75 22 152 29v1092q-63 5 -145 18q-5 29 -5.5 77t3.5 75h563q5 -25 3.5 -74t-7.5 -74q-78 -17 -164 -20v-125q53 4 168 4q166 0 291 -42.5t198.5 -133.5t73.5 -221q0 -112 -45 -199t-120.5 -139t-167.5 -78.5t-193 -26.5q-116 0 -205 17v-152 q110 -8 178 -25q7 -26 10 -74t-2 -73zM504 979v-500q91 -12 205 -12q130 0 202 65t72 201q0 119 -93 186.5t-247 67.5q-61 0 -139 -8z" />
<glyph unicode="&#xdf;" horiz-adv-x="1398" d="M455 0h-389q7 72 30 119q39 22 125 49v643q-68 6 -137 25q-6 29 -7.5 76t3.5 73h145q9 268 147 403.5t386 135.5q77 0 147.5 -13.5t135.5 -43t104 -85.5t39 -131q0 -40 -10 -74t-32 -63.5t-38.5 -47t-46.5 -44.5q-36 -32 -53.5 -50.5t-32.5 -50t-15 -67.5q0 -23 4.5 -43 t17 -37.5t22.5 -30t32.5 -28.5t34 -23.5t40.5 -24.5t40 -24q44 -27 77 -55t66 -68t50.5 -93t17.5 -116q0 -86 -34 -154t-93 -109t-132.5 -62t-156.5 -21q-167 0 -324 80q-8 50 -8 86q0 104 25 170q101 0 180 -27v-120q64 -39 146 -39q76 0 118.5 42t42.5 115 q0 41 -13.5 74.5t-43 61t-54.5 45t-69 43.5q-38 22 -65.5 40t-61 48t-54.5 61t-35.5 75.5t-14.5 94.5t12 91t37.5 75t46 54t55.5 50q44 37 66 71t22 75q0 50 -32.5 82.5t-76 44.5t-96.5 12q-154 0 -222 -111t-68 -323v-936z" />
<glyph unicode="&#xe0;" horiz-adv-x="1071" d="M674 117h-15q-87 -152 -292 -152q-58 0 -109.5 18t-93 52.5t-66 91t-24.5 127.5q0 157 113.5 243.5t285.5 86.5q103 0 178 -35v94q0 193 -186 193q-67 0 -162 -29t-153 -64q-9 24 -9 70q0 90 31 143q54 26 158 45t192 19q184 0 271.5 -87.5t87.5 -287.5v-371 q0 -88 26 -129q58 0 140 21q2 -10 2 -27q0 -54 -29 -114q-39 -23 -114 -41.5t-140 -18.5q-32 19 -57.5 61t-34.5 91zM655 225v209q-63 17 -129 17q-103 0 -160 -44.5t-57 -119.5q0 -74 45 -112t113 -38q59 0 109 24.5t79 63.5zM532 1135l-329 338q33 24 108 41.5t135 17.5 l254 -352q-27 -15 -81 -30t-87 -15z" />
<glyph unicode="&#xe1;" horiz-adv-x="1071" d="M674 117h-15q-87 -152 -292 -152q-58 0 -109.5 18t-93 52.5t-66 91t-24.5 127.5q0 157 113.5 243.5t285.5 86.5q103 0 178 -35v94q0 193 -186 193q-67 0 -162 -29t-153 -64q-9 24 -9 70q0 90 31 143q54 26 158 45t192 19q184 0 271.5 -87.5t87.5 -287.5v-371 q0 -88 26 -129q58 0 140 21q2 -10 2 -27q0 -54 -29 -114q-39 -23 -114 -41.5t-140 -18.5q-32 19 -57.5 61t-34.5 91zM655 225v209q-63 17 -129 17q-103 0 -160 -44.5t-57 -119.5q0 -74 45 -112t113 -38q59 0 109 24.5t79 63.5zM809 1464l-346 -356q-28 12 -65.5 43t-55.5 57 l244 338q42 0 117 -26.5t106 -55.5z" />
<glyph unicode="&#xe2;" horiz-adv-x="1071" d="M674 117h-15q-87 -152 -292 -152q-58 0 -109.5 18t-93 52.5t-66 91t-24.5 127.5q0 157 113.5 243.5t285.5 86.5q103 0 178 -35v94q0 193 -186 193q-67 0 -162 -29t-153 -64q-9 24 -9 70q0 90 31 143q54 26 158 45t192 19q184 0 271.5 -87.5t87.5 -287.5v-371 q0 -88 26 -129q58 0 140 21q2 -10 2 -27q0 -54 -29 -114q-39 -23 -114 -41.5t-140 -18.5q-32 19 -57.5 61t-34.5 91zM655 225v209q-63 17 -129 17q-103 0 -160 -44.5t-57 -119.5q0 -74 45 -112t113 -38q59 0 109 24.5t79 63.5zM406 1505l192 8l256 -288q-18 -29 -57.5 -60.5 t-73.5 -40.5l-227 207l-240 -215q-26 18 -52.5 57t-37.5 72z" />
<glyph unicode="&#xe3;" horiz-adv-x="1071" d="M674 117h-15q-87 -152 -292 -152q-58 0 -109.5 18t-93 52.5t-66 91t-24.5 127.5q0 157 113.5 243.5t285.5 86.5q103 0 178 -35v94q0 193 -186 193q-67 0 -162 -29t-153 -64q-9 24 -9 70q0 90 31 143q54 26 158 45t192 19q184 0 271.5 -87.5t87.5 -287.5v-371 q0 -88 26 -129q58 0 140 21q2 -10 2 -27q0 -54 -29 -114q-39 -23 -114 -41.5t-140 -18.5q-32 19 -57.5 61t-34.5 91zM655 225v209q-63 17 -129 17q-103 0 -160 -44.5t-57 -119.5q0 -74 45 -112t113 -38q59 0 109 24.5t79 63.5zM752 1432q71 0 120 -25q-2 -62 -26.5 -116 t-79.5 -92t-133 -38q-48 0 -97.5 22.5t-95.5 45t-86 22.5q-39 0 -64.5 -23t-33.5 -57q-32 1 -64.5 18.5t-52.5 43.5q15 92 74.5 149.5t163.5 57.5q56 0 104.5 -21.5t90.5 -43t83 -21.5q38 0 63.5 22t33.5 56z" />
<glyph unicode="&#xe4;" horiz-adv-x="1071" d="M674 117h-15q-87 -152 -292 -152q-58 0 -109.5 18t-93 52.5t-66 91t-24.5 127.5q0 157 113.5 243.5t285.5 86.5q103 0 178 -35v94q0 193 -186 193q-67 0 -162 -29t-153 -64q-9 24 -9 70q0 90 31 143q54 26 158 45t192 19q184 0 271.5 -87.5t87.5 -287.5v-371 q0 -88 26 -129q58 0 140 21q2 -10 2 -27q0 -54 -29 -114q-39 -23 -114 -41.5t-140 -18.5q-32 19 -57.5 61t-34.5 91zM655 225v209q-63 17 -129 17q-103 0 -160 -44.5t-57 -119.5q0 -74 45 -112t113 -38q59 0 109 24.5t79 63.5zM264 1430q60 0 96.5 -33.5t36.5 -93.5 q0 -66 -36.5 -103t-96.5 -37q-135 0 -135 140q0 58 37 92.5t98 34.5zM748 1430q60 0 96.5 -33.5t36.5 -93.5q0 -66 -36.5 -103t-96.5 -37q-136 0 -136 140q0 58 37.5 92.5t98.5 34.5z" />
<glyph unicode="&#xe5;" horiz-adv-x="1071" d="M674 117h-15q-87 -152 -292 -152q-58 0 -109.5 18t-93 52.5t-66 91t-24.5 127.5q0 157 113.5 243.5t285.5 86.5q103 0 178 -35v94q0 193 -186 193q-67 0 -162 -29t-153 -64q-9 24 -9 70q0 90 31 143q54 26 158 45t192 19q184 0 271.5 -87.5t87.5 -287.5v-371 q0 -88 26 -129q58 0 140 21q2 -10 2 -27q0 -54 -29 -114q-39 -23 -114 -41.5t-140 -18.5q-32 19 -57.5 61t-34.5 91zM655 225v209q-63 17 -129 17q-103 0 -160 -44.5t-57 -119.5q0 -74 45 -112t113 -38q59 0 109 24.5t79 63.5zM510 1571q106 0 170.5 -56.5t64.5 -156.5 q0 -111 -63.5 -169.5t-171.5 -58.5q-124 0 -185 56t-61 172q0 96 67.5 154.5t178.5 58.5zM512 1462q-50 0 -79.5 -27t-29.5 -77q0 -62 27 -90.5t82 -28.5q46 0 72 30t26 89q0 51 -26 77.5t-72 26.5z" />
<glyph unicode="&#xe6;" horiz-adv-x="1583" d="M651 549v94q0 193 -186 193q-67 0 -162 -29t-153 -64q-9 24 -9 70q0 90 31 143q52 26 156.5 45t191.5 19q122 0 187.5 -36.5t95.5 -104.5h12q38 61 119.5 101t189.5 40q189 0 278 -119.5t89 -337.5q0 -55 -6 -114h-608q9 -142 89.5 -220.5t233.5 -78.5q61 0 146.5 17 t136.5 38q3 -34 -8 -82t-31 -76q-64 -34 -152.5 -58t-181.5 -24q-132 0 -228 53t-137 140h-14q-37 -78 -126.5 -135.5t-217.5 -57.5q-136 0 -224.5 74.5t-88.5 214.5q0 104 55.5 180t144.5 113t199 37q103 0 178 -35zM688 246q-37 84 -43 190q-62 15 -121 15 q-101 0 -158 -46t-57 -120q0 -69 43.5 -108.5t118.5 -39.5q130 0 217 109zM872 600h385q3 38 2 76.5t-13 74t-30.5 63t-51 44t-74.5 16.5q-93 0 -151.5 -75t-66.5 -199z" />
<glyph unicode="&#xe7;" horiz-adv-x="993" d="M430 -164l55 133q-184 20 -292.5 158.5t-108.5 345.5q0 240 147 393.5t381 153.5q163 0 295 -74q6 -30 6 -82q0 -108 -34 -198q-38 0 -90.5 13t-83.5 30v137q-52 22 -97 22q-124 0 -198 -89t-74 -267q0 -185 81 -279t216 -94q63 0 139 16t133 40q3 -33 -8 -78.5 t-31 -75.5q-94 -49 -225 -68l-16 -88q53 -13 93 -53t40 -96q0 -88 -79.5 -147t-186.5 -70q-58 37 -91 96q61 9 100.5 40t39.5 75q0 41 -31 68t-80 38z" />
<glyph unicode="&#xe8;" horiz-adv-x="1044" d="M946 451h-616q7 -142 91 -223t218 -81q66 0 155.5 17t147.5 39q3 -32 -8.5 -79.5t-30.5 -76.5q-62 -34 -151 -58t-185 -24q-150 0 -260.5 67t-166.5 181t-56 260q0 155 61 279t175.5 196t261.5 72q189 0 279.5 -121.5t90.5 -337.5q0 -55 -6 -110zM326 602h395 q5 50 -1.5 96.5t-25.5 87.5t-56.5 66t-90.5 25q-93 0 -152.5 -76t-68.5 -199zM602 1135l-330 338q33 24 108.5 41.5t135.5 17.5l254 -352q-27 -15 -81 -30t-87 -15z" />
<glyph unicode="&#xe9;" horiz-adv-x="1044" d="M946 451h-616q7 -142 91 -223t218 -81q66 0 155.5 17t147.5 39q3 -32 -8.5 -79.5t-30.5 -76.5q-62 -34 -151 -58t-185 -24q-150 0 -260.5 67t-166.5 181t-56 260q0 155 61 279t175.5 196t261.5 72q189 0 279.5 -121.5t90.5 -337.5q0 -55 -6 -110zM326 602h395 q5 50 -1.5 96.5t-25.5 87.5t-56.5 66t-90.5 25q-93 0 -152.5 -76t-68.5 -199zM862 1464l-346 -356q-28 12 -65.5 43t-55.5 57l244 338q42 0 117 -26.5t106 -55.5z" />
<glyph unicode="&#xea;" horiz-adv-x="1044" d="M946 451h-616q7 -142 91 -223t218 -81q66 0 155.5 17t147.5 39q3 -32 -8.5 -79.5t-30.5 -76.5q-62 -34 -151 -58t-185 -24q-150 0 -260.5 67t-166.5 181t-56 260q0 155 61 279t175.5 196t261.5 72q189 0 279.5 -121.5t90.5 -337.5q0 -55 -6 -110zM326 602h395 q5 50 -1.5 96.5t-25.5 87.5t-56.5 66t-90.5 25q-93 0 -152.5 -76t-68.5 -199zM461 1505l192 8l256 -288q-18 -29 -57.5 -60.5t-73.5 -40.5l-227 207l-240 -215q-26 18 -52.5 57t-37.5 72z" />
<glyph unicode="&#xeb;" horiz-adv-x="1044" d="M946 451h-616q7 -142 91 -223t218 -81q66 0 155.5 17t147.5 39q3 -32 -8.5 -79.5t-30.5 -76.5q-62 -34 -151 -58t-185 -24q-150 0 -260.5 67t-166.5 181t-56 260q0 155 61 279t175.5 196t261.5 72q189 0 279.5 -121.5t90.5 -337.5q0 -55 -6 -110zM326 602h395 q5 50 -1.5 96.5t-25.5 87.5t-56.5 66t-90.5 25q-93 0 -152.5 -76t-68.5 -199zM317 1430q60 0 97 -33.5t37 -93.5q0 -66 -37 -103t-97 -37q-135 0 -135 140q0 58 37 92.5t98 34.5zM801 1430q60 0 96.5 -33.5t36.5 -93.5q0 -66 -36.5 -103t-96.5 -37q-135 0 -135 140 q0 58 37 92.5t98 34.5z" />
<glyph unicode="&#xec;" horiz-adv-x="661" d="M219 825h-147q2 35 14 77.5t29 68.5q86 35 207 35q77 0 133 -17v-829q80 -7 153 -33q8 -36 8 -80q0 -23 -4 -47h-549q7 70 31 119q43 25 125 49v657zM352 1135l-329 338q33 24 108 41.5t135 17.5l254 -352q-27 -15 -81 -30t-87 -15z" />
<glyph unicode="&#xed;" horiz-adv-x="661" d="M219 825h-147q2 35 14 77.5t29 68.5q86 35 207 35q77 0 133 -17v-829q80 -7 153 -33q8 -36 8 -80q0 -23 -4 -47h-549q7 70 31 119q43 25 125 49v657zM641 1464l-346 -356q-28 12 -65.5 43t-55.5 57l244 338q42 0 117 -26.5t106 -55.5z" />
<glyph unicode="&#xee;" horiz-adv-x="661" d="M229 1505l193 8l256 -288q-18 -29 -57.5 -60.5t-73.5 -40.5l-228 207l-239 -215q-26 18 -52.5 57t-37.5 72zM219 825h-147q2 35 14 77.5t29 68.5q86 35 207 35q77 0 133 -17v-829q80 -7 153 -33q8 -36 8 -80q0 -23 -4 -47h-549q7 70 31 119q43 25 125 49v657z" />
<glyph unicode="&#xef;" horiz-adv-x="661" d="M121 1430q60 0 96.5 -33.5t36.5 -93.5q0 -66 -36.5 -103t-96.5 -37q-135 0 -135 140q0 58 37 92.5t98 34.5zM551 1430q60 0 96.5 -33.5t36.5 -93.5q0 -66 -36.5 -103t-96.5 -37q-135 0 -135 140q0 58 37 92.5t98 34.5zM219 825h-147q2 35 14 77.5t29 68.5q86 35 207 35 q77 0 133 -17v-829q80 -7 153 -33q8 -36 8 -80q0 -23 -4 -47h-549q7 70 31 119q43 25 125 49v657z" />
<glyph unicode="&#xf0;" horiz-adv-x="1171" d="M793 877h18q-53 183 -193 303l-264 -148q-26 64 -30 154l155 82q-90 50 -252 86q8 37 36 78t59 71q216 -48 360 -131l215 119q19 -18 46.5 -56.5t37.5 -64.5l-166 -94q254 -225 254 -655q0 -312 -132.5 -484t-385.5 -172q-209 0 -329 126t-120 358q0 149 51 266 t153 186.5t241 69.5q155 0 246 -94zM829 725q-104 86 -229 86q-123 0 -191.5 -92.5t-68.5 -245.5q0 -166 61.5 -256t169.5 -90q137 0 202 123t65 342q0 72 -9 133z" />
<glyph unicode="&#xf1;" horiz-adv-x="1284" d="M455 717v-557q92 -12 141 -33q6 -23 8 -61.5t-2 -65.5h-539q7 70 31 119q39 22 125 49v657h-147q2 35 14 77.5t29 68.5q79 35 188 35q68 0 117 -17v-155h26q39 77 123 131.5t209 54.5q55 0 97.5 -7.5t86 -31.5t72 -63.5t46.5 -107.5t18 -161q0 -193 -15 -489 q78 -6 156 -33q8 -36 8 -80q0 -23 -4 -47h-520q8 75 29 119q34 23 106 49v440q0 232 -176 232q-66 0 -128.5 -37t-98.5 -86zM915 1432q72 0 121 -25q-2 -62 -26.5 -116t-79.5 -92t-133 -38q-48 0 -97.5 22.5t-95.5 45t-86 22.5q-39 0 -64.5 -23t-33.5 -57q-32 1 -64.5 18.5 t-52.5 43.5q15 92 74.5 149.5t163.5 57.5q56 0 104.5 -21.5t90.5 -43t83 -21.5q38 0 63 22t33 56z" />
<glyph unicode="&#xf2;" horiz-adv-x="1146" d="M573 1020q224 0 357 -134.5t133 -377.5q0 -256 -132 -399.5t-358 -143.5q-236 0 -362.5 139t-126.5 404q0 233 137.5 372.5t351.5 139.5zM326 508q0 -176 66 -281.5t181 -105.5q122 0 184 102t62 285q0 156 -67.5 257t-178.5 101q-118 0 -182.5 -97t-64.5 -261zM618 1135 l-329 338q33 24 108 41.5t135 17.5l254 -352q-27 -15 -81 -30t-87 -15z" />
<glyph unicode="&#xf3;" horiz-adv-x="1146" d="M573 1020q224 0 357 -134.5t133 -377.5q0 -256 -132 -399.5t-358 -143.5q-236 0 -362.5 139t-126.5 404q0 233 137.5 372.5t351.5 139.5zM326 508q0 -176 66 -281.5t181 -105.5q122 0 184 102t62 285q0 156 -67.5 257t-178.5 101q-118 0 -182.5 -97t-64.5 -261zM874 1464 l-346 -356q-28 12 -65 43t-55 57l243 338q42 0 117 -26.5t106 -55.5z" />
<glyph unicode="&#xf4;" horiz-adv-x="1146" d="M573 1020q224 0 357 -134.5t133 -377.5q0 -256 -132 -399.5t-358 -143.5q-236 0 -362.5 139t-126.5 404q0 233 137.5 372.5t351.5 139.5zM326 508q0 -176 66 -281.5t181 -105.5q122 0 184 102t62 285q0 156 -67.5 257t-178.5 101q-118 0 -182.5 -97t-64.5 -261zM483 1505 l193 8l256 -288q-18 -29 -57.5 -60.5t-73.5 -40.5l-228 207l-239 -215q-26 18 -52.5 57t-37.5 72z" />
<glyph unicode="&#xf5;" horiz-adv-x="1146" d="M573 1020q224 0 357 -134.5t133 -377.5q0 -256 -132 -399.5t-358 -143.5q-236 0 -362.5 139t-126.5 404q0 233 137.5 372.5t351.5 139.5zM326 508q0 -176 66 -281.5t181 -105.5q122 0 184 102t62 285q0 156 -67.5 257t-178.5 101q-118 0 -182.5 -97t-64.5 -261zM821 1432 q72 0 121 -25q-2 -62 -26.5 -116t-80 -92t-133.5 -38q-48 0 -97 22.5t-95 45t-86 22.5q-39 0 -64.5 -23t-33.5 -57q-32 1 -64.5 18.5t-52.5 43.5q15 92 74 149.5t163 57.5q56 0 105 -21.5t91 -43t83 -21.5q38 0 63 22t33 56z" />
<glyph unicode="&#xf6;" horiz-adv-x="1146" d="M315 1430q60 0 97 -33.5t37 -93.5q0 -66 -37 -103t-97 -37q-135 0 -135 140q0 58 37 92.5t98 34.5zM852 1430q60 0 96.5 -33.5t36.5 -93.5q0 -66 -36.5 -103t-96.5 -37q-135 0 -135 140q0 58 37 92.5t98 34.5zM573 1020q224 0 357 -134.5t133 -377.5q0 -256 -132 -399.5 t-358 -143.5q-236 0 -362.5 139t-126.5 404q0 233 137.5 372.5t351.5 139.5zM326 508q0 -176 66 -281.5t181 -105.5q122 0 184 102t62 285q0 156 -67.5 257t-178.5 101q-118 0 -182.5 -97t-64.5 -261z" />
<glyph unicode="&#xf7;" d="M1061 465h-965q0 88 25 178h934q12 -49 12 -113q0 -38 -6 -65zM582 276q59 0 94 -31.5t35 -90.5q0 -63 -35.5 -98.5t-93.5 -35.5q-129 0 -129 134q0 56 36 89t93 33zM582 1079q58 0 93.5 -32t35.5 -91q0 -63 -35.5 -98t-93.5 -35q-129 0 -129 133q0 56 36 89.5t93 33.5z " />
<glyph unicode="&#xf8;" horiz-adv-x="1173" d="M592 1020q150 0 260 -64l111 144q30 -14 68 -41.5t56 -50.5l-116 -150q108 -133 108 -350q0 -256 -131.5 -399.5t-355.5 -143.5q-158 0 -270 64l-136 -174q-22 18 -50 57t-42 70l113 145q-107 138 -107 381q0 233 138.5 372.5t353.5 139.5zM844 508q0 88 -29 170 l-383 -490q64 -67 160 -67q124 0 188 102.5t64 284.5zM336 508q0 -115 29 -195l376 490q-63 63 -149 63q-121 0 -188.5 -97t-67.5 -261z" />
<glyph unicode="&#xf9;" horiz-adv-x="1241" d="M795 260v565h-146q4 83 43 146q75 35 207 35q75 0 131 -17v-686q0 -80 17 -147h151q2 -10 2 -31q0 -63 -24 -109q-54 -18 -150.5 -29.5t-165.5 -11.5q-39 71 -49 170h-14q-39 -75 -120.5 -127.5t-199.5 -52.5q-54 0 -96.5 8t-84.5 32.5t-69 64.5t-44 108.5t-17 161.5 q0 288 10 485h-153q2 35 14 77.5t29 68.5q86 35 208 35q76 0 132 -17v-610q0 -115 40 -173.5t134 -58.5q59 0 118.5 33.5t96.5 79.5zM623 1135l-330 338q33 24 108.5 41.5t135.5 17.5l254 -352q-27 -15 -81 -30t-87 -15z" />
<glyph unicode="&#xfa;" horiz-adv-x="1241" d="M795 260v565h-146q4 83 43 146q75 35 207 35q75 0 131 -17v-686q0 -80 17 -147h151q2 -10 2 -31q0 -63 -24 -109q-54 -18 -150.5 -29.5t-165.5 -11.5q-39 71 -49 170h-14q-39 -75 -120.5 -127.5t-199.5 -52.5q-54 0 -96.5 8t-84.5 32.5t-69 64.5t-44 108.5t-17 161.5 q0 288 10 485h-153q2 35 14 77.5t29 68.5q86 35 208 35q76 0 132 -17v-610q0 -115 40 -173.5t134 -58.5q59 0 118.5 33.5t96.5 79.5zM879 1464l-347 -356q-28 12 -65 43t-55 57l243 338q42 0 117.5 -26.5t106.5 -55.5z" />
<glyph unicode="&#xfb;" horiz-adv-x="1241" d="M795 260v565h-146q4 83 43 146q75 35 207 35q75 0 131 -17v-686q0 -80 17 -147h151q2 -10 2 -31q0 -63 -24 -109q-54 -18 -150.5 -29.5t-165.5 -11.5q-39 71 -49 170h-14q-39 -75 -120.5 -127.5t-199.5 -52.5q-54 0 -96.5 8t-84.5 32.5t-69 64.5t-44 108.5t-17 161.5 q0 288 10 485h-153q2 35 14 77.5t29 68.5q86 35 208 35q76 0 132 -17v-610q0 -115 40 -173.5t134 -58.5q59 0 118.5 33.5t96.5 79.5zM494 1505l192 8l256 -288q-18 -29 -57.5 -60.5t-73.5 -40.5l-227 207l-240 -215q-26 18 -52.5 57t-37.5 72z" />
<glyph unicode="&#xfc;" horiz-adv-x="1241" d="M795 260v565h-146q4 83 43 146q75 35 207 35q75 0 131 -17v-686q0 -80 17 -147h151q2 -10 2 -31q0 -63 -24 -109q-54 -18 -150.5 -29.5t-165.5 -11.5q-39 71 -49 170h-14q-39 -75 -120.5 -127.5t-199.5 -52.5q-54 0 -96.5 8t-84.5 32.5t-69 64.5t-44 108.5t-17 161.5 q0 288 10 485h-153q2 35 14 77.5t29 68.5q86 35 208 35q76 0 132 -17v-610q0 -115 40 -173.5t134 -58.5q59 0 118.5 33.5t96.5 79.5zM344 1430q60 0 96.5 -33.5t36.5 -93.5q0 -66 -36.5 -103t-96.5 -37q-135 0 -135 140q0 58 37 92.5t98 34.5zM827 1430q60 0 97 -33.5 t37 -93.5q0 -66 -37 -103t-97 -37q-135 0 -135 140q0 58 37 92.5t98 34.5z" />
<glyph unicode="&#xfd;" horiz-adv-x="1105" d="M582 166h18q17 90 49 196l84 279q31 106 68 176q-63 11 -107 31q-18 58 -18 137h414q0 -70 -27 -149q-44 -15 -90 -19l-117 -330q-144 -410 -238 -591q-72 -143 -184 -248t-246 -148q-31 29 -59.5 83.5t-32.5 99.5q126 35 223.5 110t145.5 170l-340 846q-46 11 -96 39 q-19 60 -23 137h500q0 -75 -25 -141q-55 -21 -133 -29q47 -69 78 -158l109 -297q31 -87 47 -194zM885 1464l-346 -356q-28 12 -65.5 43t-55.5 57l244 338q42 0 117 -26.5t106 -55.5z" />
<glyph unicode="&#xfe;" horiz-adv-x="1179" d="M412 866q88 154 290 154q58 0 112.5 -15.5t106.5 -52t90 -91.5t61.5 -140.5t23.5 -192.5q0 -256 -139 -409.5t-367 -153.5q-117 0 -187 51v-329q117 -12 201 -41q6 -22 8.5 -60.5t-0.5 -64.5h-600q7 70 31 119q39 22 125 49v1632h-145q4 84 43 147q89 35 206 35 q82 0 131 -18v-350q0 -113 -16 -269h25zM399 729v-575q78 -29 150 -29q153 0 228 98.5t75 272.5q0 173 -61 262.5t-166 89.5q-78 0 -136 -35t-90 -84z" />
<glyph unicode="&#xff;" horiz-adv-x="1105" d="M582 166h18q17 90 49 196l84 279q31 106 68 176q-63 11 -107 31q-18 58 -18 137h414q0 -70 -27 -149q-44 -15 -90 -19l-117 -330q-144 -410 -238 -591q-72 -143 -184 -248t-246 -148q-31 29 -59.5 83.5t-32.5 99.5q126 35 223.5 110t145.5 170l-340 846q-46 11 -96 39 q-19 60 -23 137h500q0 -75 -25 -141q-55 -21 -133 -29q47 -69 78 -158l109 -297q31 -87 47 -194zM340 1430q60 0 96.5 -33.5t36.5 -93.5q0 -66 -36.5 -103t-96.5 -37q-135 0 -135 140q0 58 37 92.5t98 34.5zM823 1430q60 0 96.5 -33.5t36.5 -93.5q0 -66 -36.5 -103 t-96.5 -37q-135 0 -135 140q0 58 37 92.5t98 34.5z" />
<glyph unicode="&#x100;" horiz-adv-x="1599" d="M1550 0h-569q7 72 37 145q50 16 141 29q-41 53 -78 148l-45 118h-536l-47 -129q-29 -86 -68 -145q79 -3 158 -21q9 -26 16.5 -71.5t7.5 -73.5h-530q9 72 41 145q49 18 102 25l533 1292h180l510 -1286q70 -8 121 -24q23 -82 26 -152zM780 1200h-18q-13 -100 -68 -242 l-137 -366h422l-139 371q-51 141 -60 237zM1180 1608h-785q0 89 29 186h750q10 -55 10 -121q0 -37 -4 -65z" />
<glyph unicode="&#x101;" horiz-adv-x="1071" d="M674 117h-15q-87 -152 -292 -152q-58 0 -109.5 18t-93 52.5t-66 91t-24.5 127.5q0 157 113.5 243.5t285.5 86.5q103 0 178 -35v94q0 193 -186 193q-67 0 -162 -29t-153 -64q-9 24 -9 70q0 90 31 143q54 26 158 45t192 19q184 0 271.5 -87.5t87.5 -287.5v-371 q0 -88 26 -129q58 0 140 21q2 -10 2 -27q0 -54 -29 -114q-39 -23 -114 -41.5t-140 -18.5q-32 19 -57.5 61t-34.5 91zM655 225v209q-63 17 -129 17q-103 0 -160 -44.5t-57 -119.5q0 -74 45 -112t113 -38q59 0 109 24.5t79 63.5zM825 1206h-618q0 88 24 174h588 q10 -45 10 -112q0 -34 -4 -62z" />
<glyph unicode="&#x102;" horiz-adv-x="1599" d="M1550 0h-569q7 72 37 145q50 16 141 29q-41 53 -78 148l-45 118h-536l-47 -129q-29 -86 -68 -145q79 -3 158 -21q9 -26 16.5 -71.5t7.5 -73.5h-530q9 72 41 145q49 18 102 25l533 1292h180l510 -1286q70 -8 121 -24q23 -82 26 -152zM780 1200h-18q-13 -100 -68 -242 l-137 -366h422l-139 371q-51 141 -60 237zM559 1892q23 -73 82.5 -112t149.5 -39q89 0 151 35t88 102q105 -4 166 -45q-25 -130 -133.5 -206.5t-278.5 -76.5q-161 0 -264 69t-129 193q24 27 74.5 51.5t93.5 28.5z" />
<glyph unicode="&#x103;" horiz-adv-x="1071" d="M674 117h-15q-87 -152 -292 -152q-58 0 -109.5 18t-93 52.5t-66 91t-24.5 127.5q0 157 113.5 243.5t285.5 86.5q103 0 178 -35v94q0 193 -186 193q-67 0 -162 -29t-153 -64q-9 24 -9 70q0 90 31 143q54 26 158 45t192 19q184 0 271.5 -87.5t87.5 -287.5v-371 q0 -88 26 -129q58 0 140 21q2 -10 2 -27q0 -54 -29 -114q-39 -23 -114 -41.5t-140 -18.5q-32 19 -57.5 61t-34.5 91zM655 225v209q-63 17 -129 17q-103 0 -160 -44.5t-57 -119.5q0 -74 45 -112t113 -38q59 0 109 24.5t79 63.5zM324 1487q20 -95 65.5 -141t120.5 -46 q149 0 195 181q81 -3 145 -41q-19 -144 -107.5 -229t-232.5 -85q-287 0 -336 297q50 50 150 64z" />
<glyph unicode="&#x104;" horiz-adv-x="1599" d="M500 440l-47 -129q-29 -86 -68 -145q79 -3 158 -21q9 -26 16.5 -71.5t7.5 -73.5h-530q9 72 41 145q49 18 102 25l533 1292h180l510 -1286q70 -8 121 -24q26 -80 26 -152h-182q-192 -97 -192 -227q0 -59 33.5 -89t90.5 -30q36 0 60 6q10 -19 18.5 -62t10.5 -73 q-55 -21 -144 -21q-119 0 -204 62.5t-85 177.5q0 83 55.5 147t170.5 95v14h-201q7 72 37 145q50 16 141 29q-41 53 -78 148l-45 118h-536zM780 1200h-18q-13 -100 -68 -242l-137 -366h422l-139 371q-51 141 -60 237z" />
<glyph unicode="&#x105;" horiz-adv-x="1071" d="M674 117h-15q-87 -152 -292 -152q-58 0 -109.5 18t-93 52.5t-66 91t-24.5 127.5q0 157 113.5 243.5t285.5 86.5q103 0 178 -35v94q0 193 -186 193q-67 0 -162 -29t-153 -64q-9 24 -9 70q0 90 31 143q54 26 158 45t192 19q184 0 271.5 -87.5t87.5 -287.5v-371 q0 -88 26 -129q58 0 140 21q2 -10 2 -27q0 -57 -29 -110q-27 -19 -64.5 -42.5t-57 -36t-43 -31t-34.5 -33.5t-18.5 -36.5t-7.5 -46.5q0 -55 30 -79.5t78 -24.5q27 0 51 8q11 -18 20 -60t9 -69q-58 -22 -139 -22q-110 0 -183 56.5t-73 166.5q0 62 43.5 116.5t116.5 77.5v15 q-26 16 -46.5 50.5t-27.5 78.5zM655 225v209q-63 17 -129 17q-103 0 -160 -44.5t-57 -119.5q0 -74 45 -112t113 -38q59 0 109 24.5t79 63.5z" />
<glyph unicode="&#x106;" horiz-adv-x="1343" d="M1008 1069v205q-84 37 -187 37q-98 0 -181 -36.5t-145.5 -106.5t-97.5 -180.5t-35 -250.5q0 -288 124 -433.5t335 -145.5q86 0 200 20.5t202 52.5q3 -34 -8.5 -85.5t-28.5 -82.5q-88 -45 -205.5 -74.5t-232.5 -29.5q-144 0 -265.5 55t-206 152.5t-131.5 234t-47 295.5 q0 179 58.5 327.5t159.5 247t235 152.5t285 54q222 0 399 -86q0 -212 -33 -367q-45 0 -102.5 13t-91.5 32zM1227 1729l-545 -197q-12 30 -20.5 80.5t-8.5 85.5l447 215q35 -29 71.5 -82.5t55.5 -101.5z" />
<glyph unicode="&#x107;" horiz-adv-x="993" d="M705 709v137q-52 22 -97 22q-124 0 -198 -89t-74 -267q0 -185 81 -279t216 -94q63 0 139 16t133 40q3 -33 -8 -78.5t-31 -75.5q-64 -33 -150.5 -54.5t-170.5 -21.5q-210 0 -335.5 142t-125.5 366q0 240 147 393.5t381 153.5q163 0 295 -74q6 -30 6 -82q0 -108 -34 -198 q-38 0 -90.5 13t-83.5 30zM887 1464l-346 -356q-28 12 -65.5 43t-55.5 57l244 338q42 0 117 -26.5t106 -55.5z" />
<glyph unicode="&#x108;" horiz-adv-x="1343" d="M1008 1069v205q-84 37 -187 37q-98 0 -181 -36.5t-145.5 -106.5t-97.5 -180.5t-35 -250.5q0 -288 124 -433.5t335 -145.5q86 0 200 20.5t202 52.5q3 -34 -8.5 -85.5t-28.5 -82.5q-88 -45 -205.5 -74.5t-232.5 -29.5q-144 0 -265.5 55t-206 152.5t-131.5 234t-47 295.5 q0 179 58.5 327.5t159.5 247t235 152.5t285 54q222 0 399 -86q0 -212 -33 -367q-45 0 -102.5 13t-91.5 32zM678 1872h246l288 -215q-10 -32 -40.5 -69t-59.5 -54l-317 158l-338 -168q-20 24 -33.5 68.5t-17.5 80.5z" />
<glyph unicode="&#x109;" horiz-adv-x="993" d="M705 709v137q-52 22 -97 22q-124 0 -198 -89t-74 -267q0 -185 81 -279t216 -94q63 0 139 16t133 40q3 -33 -8 -78.5t-31 -75.5q-64 -33 -150.5 -54.5t-170.5 -21.5q-210 0 -335.5 142t-125.5 366q0 240 147 393.5t381 153.5q163 0 295 -74q6 -30 6 -82q0 -108 -34 -198 q-38 0 -90.5 13t-83.5 30zM471 1505l193 8l256 -288q-18 -29 -58 -60.5t-74 -40.5l-227 207l-239 -215q-26 18 -53 57t-38 72z" />
<glyph unicode="&#x10a;" horiz-adv-x="1343" d="M1008 1069v205q-84 37 -187 37q-98 0 -181 -36.5t-145.5 -106.5t-97.5 -180.5t-35 -250.5q0 -288 124 -433.5t335 -145.5q86 0 200 20.5t202 52.5q3 -34 -8.5 -85.5t-28.5 -82.5q-88 -45 -205.5 -74.5t-232.5 -29.5q-144 0 -265.5 55t-206 152.5t-131.5 234t-47 295.5 q0 179 58.5 327.5t159.5 247t235 152.5t285 54q222 0 399 -86q0 -212 -33 -367q-45 0 -102.5 13t-91.5 32zM801 1847q64 0 103.5 -34.5t39.5 -98.5q0 -71 -39.5 -109t-103.5 -38q-148 0 -148 147q0 61 40.5 97t107.5 36z" />
<glyph unicode="&#x10b;" horiz-adv-x="993" d="M705 709v137q-52 22 -97 22q-124 0 -198 -89t-74 -267q0 -185 81 -279t216 -94q63 0 139 16t133 40q3 -33 -8 -78.5t-31 -75.5q-64 -33 -150.5 -54.5t-170.5 -21.5q-210 0 -335.5 142t-125.5 366q0 240 147 393.5t381 153.5q163 0 295 -74q6 -30 6 -82q0 -108 -34 -198 q-38 0 -90.5 13t-83.5 30zM584 1438q62 0 100.5 -35t38.5 -98q0 -70 -38.5 -108t-100.5 -38q-142 0 -142 146q0 60 39.5 96.5t102.5 36.5z" />
<glyph unicode="&#x10c;" horiz-adv-x="1343" d="M1008 1069v205q-84 37 -187 37q-98 0 -181 -36.5t-145.5 -106.5t-97.5 -180.5t-35 -250.5q0 -288 124 -433.5t335 -145.5q86 0 200 20.5t202 52.5q3 -34 -8.5 -85.5t-28.5 -82.5q-88 -45 -205.5 -74.5t-232.5 -29.5q-144 0 -265.5 55t-206 152.5t-131.5 234t-47 295.5 q0 179 58.5 327.5t159.5 247t235 152.5t285 54q222 0 399 -86q0 -212 -33 -367q-45 0 -102.5 13t-91.5 32zM911 1544h-254l-290 236q23 27 72 53.5t89 34.5l283 -152l260 142q32 -9 70.5 -35.5t56.5 -50.5z" />
<glyph unicode="&#x10d;" horiz-adv-x="993" d="M705 709v137q-52 22 -97 22q-124 0 -198 -89t-74 -267q0 -185 81 -279t216 -94q63 0 139 16t133 40q3 -33 -8 -78.5t-31 -75.5q-64 -33 -150.5 -54.5t-170.5 -21.5q-210 0 -335.5 142t-125.5 366q0 240 147 393.5t381 153.5q163 0 295 -74q6 -30 6 -82q0 -108 -34 -198 q-38 0 -90.5 13t-83.5 30zM668 1135l-195 -9l-272 320q19 23 70 41.5t91 21.5l236 -202l225 209q32 -7 69.5 -27t59.5 -41z" />
<glyph unicode="&#x10e;" horiz-adv-x="1492" d="M256 176v1071q-61 3 -145 15q-13 92 -2 155q290 33 565 33q167 0 304 -44.5t238.5 -131.5t157.5 -225.5t56 -317.5q0 -149 -38.5 -273t-104 -209.5t-154 -144.5t-187 -86.5t-203.5 -27.5q-377 0 -669 12q8 85 32 145q54 20 150 29zM504 1282v-1122q80 -6 180 -6 q228 0 357.5 135.5t129.5 412.5q0 292 -140.5 439t-381.5 147q-89 0 -145 -6zM858 1544h-254l-291 236q23 27 72.5 53.5t89.5 34.5l283 -152l260 142q32 -9 70.5 -35.5t56.5 -50.5z" />
<glyph unicode="&#x10f;" horiz-adv-x="1206" d="M768 969v352h-145q4 84 43 147q89 35 206 35q83 0 132 -18v-1176q0 -91 18 -153h147q2 -10 2 -31q0 -63 -24 -109q-55 -18 -148.5 -29.5t-160.5 -11.5q-38 65 -47 154h-15q-98 -164 -309 -164q-56 0 -108.5 15.5t-103 52t-88 91.5t-60.5 140.5t-23 192.5 q0 254 137.5 408.5t358.5 154.5q118 0 188 -51zM772 250v581q-66 29 -147 29q-148 0 -221.5 -98t-73.5 -270q0 -166 64.5 -258.5t170.5 -92.5q127 0 207 109zM1176 1323l-91 18q9 34 29.5 76t40.5 66q50 8 90 8q78 0 154 -27q-18 -101 -77 -247.5t-110 -229.5 q-64 15 -114 55q24 60 46.5 141t31.5 140z" />
<glyph unicode="&#x110;" horiz-adv-x="1527" d="M281 176v463h-168q0 88 22 156h146v452q-62 3 -146 15q-13 92 -2 155q290 33 565 33q167 0 304 -44.5t238.5 -131.5t157.5 -225.5t56 -317.5q0 -149 -38.5 -273t-104 -209.5t-153.5 -144.5t-186.5 -86.5t-203.5 -27.5q-378 0 -670 12q8 81 33 145q54 20 150 29zM528 1282 v-487h342q6 -24 9.5 -72t-0.5 -84h-351v-479q80 -6 181 -6q228 0 357.5 135.5t129.5 412.5q0 292 -140.5 439t-381.5 147q-90 0 -146 -6z" />
<glyph unicode="&#x111;" horiz-adv-x="1224" d="M776 958v154h-307q0 62 23 129h284v90h-145q4 77 43 137q89 35 207 35q81 0 131 -18v-244h137q8 -36 8 -76q3 -25 -2 -53h-143v-803q0 -91 18 -153h148q2 -10 2 -31q0 -61 -25 -109q-55 -18 -148.5 -29.5t-160.5 -11.5q-38 65 -47 154h-15q-98 -164 -309 -164 q-56 0 -108.5 15t-103 51.5t-88 91t-60.5 139.5t-23 191q0 251 137.5 404t358.5 153q117 0 188 -52zM780 250v571q-66 29 -147 29q-147 0 -221 -97t-74 -266q0 -165 64.5 -255.5t170.5 -90.5q127 0 207 109z" />
<glyph unicode="&#x112;" horiz-adv-x="1273" d="M1167 0h-1095q8 86 32 145q75 22 152 29v1092q-83 7 -145 18q-11 82 -2 152h1038v-334q-96 0 -170 22q-22 84 -25 154h-448v-473h354q3 40 21 100q79 23 165 23v-398q-91 -7 -167 13q-16 62 -19 108h-354v-489h454q7 91 27 170q68 22 182 22v-354zM1063 1608h-784 q0 92 28 186h750q10 -55 10 -121q0 -37 -4 -65z" />
<glyph unicode="&#x113;" horiz-adv-x="1044" d="M946 451h-616q7 -142 91 -223t218 -81q66 0 155.5 17t147.5 39q3 -32 -8.5 -79.5t-30.5 -76.5q-62 -34 -151 -58t-185 -24q-150 0 -260.5 67t-166.5 181t-56 260q0 155 61 279t175.5 196t261.5 72q189 0 279.5 -121.5t90.5 -337.5q0 -55 -6 -110zM326 602h395 q5 50 -1.5 96.5t-25.5 87.5t-56.5 66t-90.5 25q-93 0 -152.5 -76t-68.5 -199zM872 1206h-618q0 84 25 174h587q11 -50 11 -112q0 -27 -5 -62z" />
<glyph unicode="&#x114;" horiz-adv-x="1273" d="M1167 0h-1095q8 86 32 145q75 22 152 29v1092q-83 7 -145 18q-11 82 -2 152h1038v-334q-96 0 -170 22q-22 84 -25 154h-448v-473h354q3 40 21 100q79 23 165 23v-398q-91 -7 -167 13q-16 62 -19 108h-354v-489h454q7 91 27 170q68 22 182 22v-354zM449 1892 q49 -151 231 -151q89 0 151.5 35t88.5 102q104 -4 165 -45q-25 -130 -133 -206.5t-278 -76.5q-161 0 -264 69t-129 193q24 27 74.5 51.5t93.5 28.5z" />
<glyph unicode="&#x115;" horiz-adv-x="1044" d="M946 451h-616q7 -142 91 -223t218 -81q66 0 155.5 17t147.5 39q3 -32 -8.5 -79.5t-30.5 -76.5q-62 -34 -151 -58t-185 -24q-150 0 -260.5 67t-166.5 181t-56 260q0 155 61 279t175.5 196t261.5 72q189 0 279.5 -121.5t90.5 -337.5q0 -55 -6 -110zM326 602h395 q5 50 -1.5 96.5t-25.5 87.5t-56.5 66t-90.5 25q-93 0 -152.5 -76t-68.5 -199zM373 1487q20 -95 65.5 -141t120.5 -46q149 0 195 181q81 -3 145 -41q-19 -144 -107.5 -229t-232.5 -85q-287 0 -336 297q50 50 150 64z" />
<glyph unicode="&#x116;" horiz-adv-x="1273" d="M1167 0h-1095q8 86 32 145q75 22 152 29v1092q-83 7 -145 18q-11 82 -2 152h1038v-334q-96 0 -170 22q-22 84 -25 154h-448v-473h354q3 40 21 100q79 23 165 23v-398q-91 -7 -167 13q-16 62 -19 108h-354v-489h454q7 91 27 170q68 22 182 22v-354zM686 1847 q64 0 103.5 -34.5t39.5 -98.5q0 -71 -39.5 -109t-103.5 -38q-75 0 -111 36t-36 111q0 61 40.5 97t106.5 36z" />
<glyph unicode="&#x117;" horiz-adv-x="1044" d="M946 451h-616q7 -142 91 -223t218 -81q66 0 155.5 17t147.5 39q3 -32 -8.5 -79.5t-30.5 -76.5q-62 -34 -151 -58t-185 -24q-150 0 -260.5 67t-166.5 181t-56 260q0 155 61 279t175.5 196t261.5 72q189 0 279.5 -121.5t90.5 -337.5q0 -55 -6 -110zM326 602h395 q5 50 -1.5 96.5t-25.5 87.5t-56.5 66t-90.5 25q-93 0 -152.5 -76t-68.5 -199zM559 1438q62 0 100.5 -35t38.5 -98q0 -70 -38.5 -108t-100.5 -38q-141 0 -141 146q0 60 39 96.5t102 36.5z" />
<glyph unicode="&#x118;" horiz-adv-x="1273" d="M889 0h-817q8 86 32 145q75 22 152 29v1092q-83 7 -145 18q-11 82 -2 152h1038v-334q-96 0 -170 22q-22 84 -25 154h-448v-473h354q3 40 21 100q79 23 165 23v-398q-91 -7 -167 13q-16 62 -19 108h-354v-489h454q7 91 27 170q68 22 182 22v-354h-90q-194 -96 -194 -227 q0 -59 34 -89t91 -30q35 0 59 6q11 -19 20 -62t9 -73q-56 -21 -144 -21q-119 0 -203.5 62.5t-84.5 177.5q0 82 57.5 149t167.5 93v14z" />
<glyph unicode="&#x119;" horiz-adv-x="1044" d="M946 451h-616q7 -142 91 -223t218 -81q66 0 155.5 17t147.5 39q3 -32 -8.5 -79.5t-30.5 -78.5q-40 -17 -69.5 -31t-69.5 -38.5t-66 -48.5t-44.5 -56.5t-18.5 -67.5q0 -51 31 -77.5t77 -26.5q28 0 52 8q11 -17 19.5 -59t8.5 -70q-58 -22 -133 -22q-108 0 -185 58t-77 161 q0 54 36.5 104.5t94.5 75.5v12q-218 0 -346.5 142t-128.5 364q0 155 61 279t175.5 196t261.5 72q189 0 279.5 -121.5t90.5 -337.5q0 -55 -6 -110zM326 602h395q5 50 -1.5 96.5t-25.5 87.5t-56.5 66t-90.5 25q-93 0 -152.5 -76t-68.5 -199z" />
<glyph unicode="&#x11a;" horiz-adv-x="1273" d="M1167 0h-1095q8 86 32 145q75 22 152 29v1092q-83 7 -145 18q-11 82 -2 152h1038v-334q-96 0 -170 22q-22 84 -25 154h-448v-473h354q3 40 21 100q79 23 165 23v-398q-91 -7 -167 13q-16 62 -19 108h-354v-489h454q7 91 27 170q68 22 182 22v-354zM803 1544h-254 l-291 236q23 27 72.5 53.5t89.5 34.5l282 -152l261 142q32 -9 70.5 -35.5t56.5 -50.5z" />
<glyph unicode="&#x11b;" horiz-adv-x="1044" d="M946 451h-616q7 -142 91 -223t218 -81q66 0 155.5 17t147.5 39q3 -32 -8.5 -79.5t-30.5 -76.5q-62 -34 -151 -58t-185 -24q-150 0 -260.5 67t-166.5 181t-56 260q0 155 61 279t175.5 196t261.5 72q189 0 279.5 -121.5t90.5 -337.5q0 -55 -6 -110zM326 602h395 q5 50 -1.5 96.5t-25.5 87.5t-56.5 66t-90.5 25q-93 0 -152.5 -76t-68.5 -199zM651 1128l-194 -8l-273 320q19 23 70.5 41.5t91.5 21.5l236 -203l225 209q32 -7 69.5 -27t59.5 -40z" />
<glyph unicode="&#x11c;" horiz-adv-x="1523" d="M1298 547v-492q-95 -33 -255 -64.5t-283 -31.5q-309 0 -486.5 197t-177.5 522q0 362 213 580.5t568 218.5q240 0 432 -117q0 -75 -10 -180t-23 -164q-41 0 -104 14.5t-89 28.5v203q-99 55 -223 55q-102 0 -191 -38.5t-158 -112.5t-109 -193.5t-40 -270.5 q0 -284 127.5 -426.5t348.5 -142.5q98 0 221 21v391q-173 4 -271 22q-18 58 -18 150h703q-4 -88 -25 -152q-58 -13 -150 -18zM698 1872h246l289 -215q-10 -32 -40.5 -69t-59.5 -54l-318 158l-338 -168q-20 24 -33.5 68.5t-17.5 80.5z" />
<glyph unicode="&#x11d;" horiz-adv-x="1138" d="M219 -6v14q-36 14 -64 56t-28 92q0 59 34 107.5t87 76.5v12q-135 85 -135 293q0 171 117.5 273t299.5 102q139 0 242 -53q77 43 205 43q55 0 102 -15q29 -69 29 -164h-205q45 -79 45 -186q0 -176 -112 -275.5t-306 -99.5q-79 0 -147 19q-23 -35 -23 -70q0 -50 65 -68 t210 -18q103 0 180 -13t140.5 -44t96.5 -88t33 -140q0 -93 -43 -164.5t-118.5 -116t-173.5 -67t-213 -22.5q-138 0 -246.5 32.5t-175 102t-66.5 166.5q0 83 51 140.5t119 74.5zM354 -41q-84 -49 -84 -143q0 -61 45.5 -106t111 -65t140.5 -20q79 0 145 20.5t108 63.5t42 101 q0 65 -64 97t-216 32q-136 0 -228 20zM348 645q0 -109 48.5 -175.5t133.5 -66.5q89 0 135 65t46 177q0 106 -49.5 173t-131.5 67q-182 0 -182 -240zM449 1505l192 8l256 -288q-18 -29 -57.5 -60.5t-73.5 -40.5l-227 207l-240 -215q-26 18 -52.5 57t-37.5 72z" />
<glyph unicode="&#x11e;" horiz-adv-x="1523" d="M1298 547v-492q-95 -33 -255 -64.5t-283 -31.5q-309 0 -486.5 197t-177.5 522q0 362 213 580.5t568 218.5q240 0 432 -117q0 -75 -10 -180t-23 -164q-41 0 -104 14.5t-89 28.5v203q-99 55 -223 55q-102 0 -191 -38.5t-158 -112.5t-109 -193.5t-40 -270.5 q0 -284 127.5 -426.5t348.5 -142.5q98 0 221 21v391q-173 4 -271 22q-18 58 -18 150h703q-4 -88 -25 -152q-58 -13 -150 -18zM592 1892q49 -151 231 -151q89 0 151.5 35t88.5 102q105 -4 166 -45q-25 -130 -133.5 -206.5t-278.5 -76.5q-161 0 -264 69t-129 193 q24 27 74.5 51.5t93.5 28.5z" />
<glyph unicode="&#x11f;" horiz-adv-x="1138" d="M219 -6v14q-36 14 -64 56t-28 92q0 59 34 107.5t87 76.5v12q-135 85 -135 293q0 171 117.5 273t299.5 102q139 0 242 -53q77 43 205 43q55 0 102 -15q29 -69 29 -164h-205q45 -79 45 -186q0 -176 -112 -275.5t-306 -99.5q-79 0 -147 19q-23 -35 -23 -70q0 -50 65 -68 t210 -18q103 0 180 -13t140.5 -44t96.5 -88t33 -140q0 -93 -43 -164.5t-118.5 -116t-173.5 -67t-213 -22.5q-138 0 -246.5 32.5t-175 102t-66.5 166.5q0 83 51 140.5t119 74.5zM354 -41q-84 -49 -84 -143q0 -61 45.5 -106t111 -65t140.5 -20q79 0 145 20.5t108 63.5t42 101 q0 65 -64 97t-216 32q-136 0 -228 20zM348 645q0 -109 48.5 -175.5t133.5 -66.5q89 0 135 65t46 177q0 106 -49.5 173t-131.5 67q-182 0 -182 -240zM358 1487q20 -95 66 -141t121 -46q148 0 194 181q82 -3 146 -41q-19 -144 -107.5 -229t-232.5 -85q-287 0 -336 297 q50 50 149 64z" />
<glyph unicode="&#x120;" horiz-adv-x="1523" d="M1298 547v-492q-95 -33 -255 -64.5t-283 -31.5q-309 0 -486.5 197t-177.5 522q0 362 213 580.5t568 218.5q240 0 432 -117q0 -75 -10 -180t-23 -164q-41 0 -104 14.5t-89 28.5v203q-99 55 -223 55q-102 0 -191 -38.5t-158 -112.5t-109 -193.5t-40 -270.5 q0 -284 127.5 -426.5t348.5 -142.5q98 0 221 21v391q-173 4 -271 22q-18 58 -18 150h703q-4 -88 -25 -152q-58 -13 -150 -18zM827 1847q64 0 104 -34.5t40 -98.5q0 -71 -40 -109t-104 -38q-75 0 -111 36t-36 111q0 61 40.5 97t106.5 36z" />
<glyph unicode="&#x121;" horiz-adv-x="1138" d="M219 -6v14q-36 14 -64 56t-28 92q0 59 34 107.5t87 76.5v12q-135 85 -135 293q0 171 117.5 273t299.5 102q139 0 242 -53q77 43 205 43q55 0 102 -15q29 -69 29 -164h-205q45 -79 45 -186q0 -176 -112 -275.5t-306 -99.5q-79 0 -147 19q-23 -35 -23 -70q0 -50 65 -68 t210 -18q103 0 180 -13t140.5 -44t96.5 -88t33 -140q0 -93 -43 -164.5t-118.5 -116t-173.5 -67t-213 -22.5q-138 0 -246.5 32.5t-175 102t-66.5 166.5q0 83 51 140.5t119 74.5zM354 -41q-84 -49 -84 -143q0 -61 45.5 -106t111 -65t140.5 -20q79 0 145 20.5t108 63.5t42 101 q0 65 -64 97t-216 32q-136 0 -228 20zM348 645q0 -109 48.5 -175.5t133.5 -66.5q89 0 135 65t46 177q0 106 -49.5 173t-131.5 67q-182 0 -182 -240zM539 1438q62 0 100.5 -35t38.5 -98q0 -70 -38.5 -108t-100.5 -38q-142 0 -142 146q0 60 39.5 96.5t102.5 36.5z" />
<glyph unicode="&#x122;" horiz-adv-x="1523" d="M1298 547v-492q-95 -33 -255 -64.5t-283 -31.5q-309 0 -486.5 197t-177.5 522q0 362 213 580.5t568 218.5q240 0 432 -117q0 -75 -10 -180t-23 -164q-41 0 -104 14.5t-89 28.5v203q-99 55 -223 55q-102 0 -191 -38.5t-158 -112.5t-109 -193.5t-40 -270.5 q0 -284 127.5 -426.5t348.5 -142.5q98 0 221 21v391q-173 4 -271 22q-18 58 -18 150h703q-4 -88 -25 -152q-58 -13 -150 -18zM725 -270l-92 20q7 34 29 79.5t43 70.5q54 8 94 8q95 0 168 -27q-18 -108 -81 -260.5t-120 -238.5q-31 6 -71.5 23.5t-55.5 31.5q63 159 86 293z " />
<glyph unicode="&#x123;" horiz-adv-x="1138" d="M219 -6v14q-36 14 -64 56t-28 92q0 59 34 107.5t87 76.5v12q-135 85 -135 293q0 171 117.5 273t299.5 102q139 0 242 -53q77 43 205 43q55 0 102 -15q29 -69 29 -164h-205q45 -79 45 -186q0 -176 -112 -275.5t-306 -99.5q-79 0 -147 19q-23 -35 -23 -70q0 -50 65 -68 t210 -18q103 0 180 -13t140.5 -44t96.5 -88t33 -140q0 -93 -43 -164.5t-118.5 -116t-173.5 -67t-213 -22.5q-138 0 -246.5 32.5t-175 102t-66.5 166.5q0 83 51 140.5t119 74.5zM354 -41q-84 -49 -84 -143q0 -61 45.5 -106t111 -65t140.5 -20q79 0 145 20.5t108 63.5t42 101 q0 65 -64 97t-216 32q-136 0 -228 20zM348 645q0 -109 48.5 -175.5t133.5 -66.5q89 0 135 65t46 177q0 106 -49.5 173t-131.5 67q-182 0 -182 -240zM709 1593q-22 -62 -46.5 -148.5t-33.5 -137.5l100 -23q-6 -31 -34 -78.5t-54 -72.5q-150 18 -231 71q50 200 153 367 q53 22 146 22z" />
<glyph unicode="&#x124;" horiz-adv-x="1667" d="M1163 655h-659v-483q97 -4 160 -22q7 -26 10 -76t-2 -74h-600q8 86 32 145q75 22 152 29v1092q-83 7 -145 18q-13 91 -2 152h548q5 -25 3.5 -74.5t-7.5 -75.5q-66 -14 -149 -18v-445h659v443q-81 7 -137 18q-6 28 -7.5 77t3.5 75h553q11 -72 -4 -150q-73 -14 -160 -18 v-1096q107 -8 174 -22q10 -42 10 -95q0 -27 -4 -55h-594q3 70 29 145q75 23 137 29v481zM723 1872h246l288 -215q-10 -32 -40.5 -69t-59.5 -54l-317 158l-338 -168q-20 24 -33.5 68.5t-17.5 80.5z" />
<glyph unicode="&#x125;" horiz-adv-x="1277" d="M186 1888h240l289 -215q-11 -31 -37.5 -65t-52.5 -47l-324 161l-346 -172q-16 23 -26.5 65.5t-12.5 76.5zM438 705v-545q94 -12 142 -33q6 -23 8 -61.5t-2 -65.5h-539q7 70 31 119q39 22 125 49v1153h-146q4 84 43 147q89 35 207 35q81 0 131 -18v-355q0 -128 -14 -296 h25q33 82 115 134t206 52q56 0 99 -7.5t86.5 -31.5t72 -63.5t46.5 -107.5t18 -161q0 -255 -15 -489q78 -6 156 -33q8 -36 8 -80q0 -23 -4 -47h-518q8 75 26 119q31 21 109 49v440q0 232 -178 232q-73 0 -137.5 -40t-100.5 -95z" />
<glyph unicode="&#x126;" horiz-adv-x="1693" d="M1178 635h-662v-463q97 -5 160 -22q7 -25 9 -75.5t-3 -74.5h-596q3 64 31 145q76 22 151 29v807h-137q0 74 23 145h114v144q-83 7 -145 18q-12 89 -2 148h549q5 -25 3.5 -72.5t-7.5 -73.5q-66 -14 -150 -18v-146h662v144q-83 7 -138 18q-6 28 -7.5 75t3.5 73h553 q11 -70 -4 -146q-73 -14 -160 -18v-146h134q18 -68 8 -145h-142v-809q100 -7 172 -22q11 -46 11 -95q0 -27 -4 -55h-592q7 71 28 145q81 23 138 29v461zM516 801h662v180h-662v-180z" />
<glyph unicode="&#x127;" horiz-adv-x="1290" d="M442 698v-538q94 -12 142 -33q6 -23 8 -61.5t-2 -65.5h-539q7 70 31 119q39 22 125 49v940h-144q0 56 21 129h123v94h-146q4 77 43 137q89 35 207 35q81 0 131 -18v-248h316q5 -21 7.5 -60t-1.5 -69h-322q0 -73 -14 -283h25q34 82 115.5 134.5t205.5 52.5q55 0 98.5 -7.5 t87 -31t72 -63t46.5 -107t18 -158.5q0 -196 -15 -485q78 -6 156 -33q8 -36 8 -80q0 -23 -4 -47h-518q7 71 27 119q32 21 108 49v434q0 229 -178 229q-71 0 -136.5 -40t-101.5 -93z" />
<glyph unicode="&#x128;" horiz-adv-x="759" d="M684 0h-612q8 86 32 145q75 22 152 29v1092q-83 7 -145 18q-13 91 -2 152h559q5 -25 3.5 -74.5t-7.5 -75.5q-73 -14 -160 -18v-1096q107 -8 174 -22q10 -42 10 -95q0 -27 -4 -55zM672 1841q83 0 135 -24q-2 -104 -75 -183.5t-206 -79.5q-45 0 -91.5 15t-79 32.5t-75 32.5 t-81.5 15q-44 0 -76.5 -26t-40.5 -60q-34 3 -71.5 24t-57.5 47q16 93 87 153t189 60q52 0 99.5 -14t77.5 -31t70.5 -31t80.5 -14q44 0 75 23.5t40 60.5z" />
<glyph unicode="&#x129;" horiz-adv-x="661" d="M219 825h-147q2 35 14 77.5t29 68.5q86 35 207 35q77 0 133 -17v-829q80 -7 153 -33q8 -36 8 -80q0 -23 -4 -47h-549q7 70 31 119q43 25 125 49v657zM565 1432q72 0 121 -25q-2 -62 -26.5 -116t-80 -92t-133.5 -38q-48 0 -97 22.5t-95 45t-86 22.5q-39 0 -64.5 -23 t-33.5 -57q-32 1 -64.5 18.5t-52.5 43.5q15 92 74 149.5t163 57.5q56 0 105 -21.5t91 -43t83 -21.5q38 0 63 22t33 56z" />
<glyph unicode="&#x12a;" horiz-adv-x="759" d="M739 1608h-719q0 89 29 186h684q10 -55 10 -121q0 -37 -4 -65zM684 0h-612q8 86 32 145q75 22 152 29v1092q-83 7 -145 18q-13 91 -2 152h559q5 -25 3.5 -74.5t-7.5 -75.5q-73 -14 -160 -18v-1096q107 -8 174 -22q10 -42 10 -95q0 -27 -4 -55z" />
<glyph unicode="&#x12b;" horiz-adv-x="661" d="M592 1206h-555q0 88 24 174h525q10 -45 10 -112q0 -34 -4 -62zM219 825h-147q2 35 14 77.5t29 68.5q86 35 207 35q77 0 133 -17v-829q80 -7 153 -33q8 -36 8 -80q0 -23 -4 -47h-549q7 70 31 119q43 25 125 49v657z" />
<glyph unicode="&#x12c;" horiz-adv-x="759" d="M684 0h-612q8 86 32 145q75 22 152 29v1092q-83 7 -145 18q-13 91 -2 152h559q5 -25 3.5 -74.5t-7.5 -75.5q-73 -14 -160 -18v-1096q107 -8 174 -22q10 -42 10 -95q0 -27 -4 -55zM147 1892q23 -73 82.5 -112t149.5 -39q89 0 151 35t88 102q105 -4 166 -45 q-25 -130 -133 -206.5t-278 -76.5q-161 0 -264 69t-129 193q24 27 74 51.5t93 28.5z" />
<glyph unicode="&#x12d;" horiz-adv-x="661" d="M137 1487q20 -95 66 -141t121 -46q148 0 194 181q82 -3 146 -41q-19 -144 -107.5 -229t-232.5 -85q-287 0 -336 297q50 50 149 64zM219 825h-147q2 35 14 77.5t29 68.5q86 35 207 35q77 0 133 -17v-829q80 -7 153 -33q8 -36 8 -80q0 -23 -4 -47h-549q7 70 31 119 q43 25 125 49v657z" />
<glyph unicode="&#x12e;" horiz-adv-x="759" d="M504 172q107 -8 174 -22q10 -42 10 -95q0 -27 -4 -55h-133q-195 -97 -195 -227q0 -59 34.5 -89t90.5 -30q39 0 60 6q11 -19 19.5 -61t10.5 -74q-58 -21 -143 -21q-119 0 -204 62.5t-85 177.5q0 84 58.5 149t173.5 93v14h-299q8 86 32 145q75 22 152 29v1092 q-83 7 -145 18q-13 91 -2 152h559q5 -25 3.5 -74.5t-7.5 -75.5q-73 -14 -160 -18v-1096z" />
<glyph unicode="&#x12f;" horiz-adv-x="661" d="M219 825h-147q2 35 14 77.5t29 68.5q86 35 207 35q77 0 133 -17v-829q75 -6 153 -33q8 -36 8 -80q0 -23 -4 -47h-137q-174 -89 -174 -197q0 -51 31.5 -77.5t77.5 -26.5q27 0 51 8q11 -17 19.5 -59t8.5 -70q-58 -22 -133 -22q-108 0 -185 58.5t-77 164.5q0 68 54 128 t147 79v14h-232q7 70 31 119q43 25 125 49v657zM342 1505q65 0 105 -38t40 -105q0 -72 -39.5 -113t-105.5 -41q-72 0 -109.5 39.5t-37.5 114.5q0 64 41 103.5t106 39.5z" />
<glyph unicode="&#x130;" horiz-adv-x="759" d="M684 0h-612q8 86 32 145q75 22 152 29v1092q-83 7 -145 18q-13 91 -2 152h559q5 -25 3.5 -74.5t-7.5 -75.5q-73 -14 -160 -18v-1096q107 -8 174 -22q10 -42 10 -95q0 -27 -4 -55zM383 1847q64 0 103.5 -34.5t39.5 -98.5q0 -71 -39.5 -109t-103.5 -38q-75 0 -111 36 t-36 111q0 61 40.5 97t106.5 36z" />
<glyph unicode="&#x131;" horiz-adv-x="661" d="M219 825h-147q2 35 14 77.5t29 68.5q86 35 207 35q77 0 133 -17v-829q80 -7 153 -33q8 -36 8 -80q0 -23 -4 -47h-549q7 70 31 119q43 25 125 49v657z" />
<glyph unicode="&#x133;" horiz-adv-x="1234" d="M219 825h-147q2 35 14 77.5t29 68.5q86 35 207 35q77 0 133 -17v-829q80 -7 153 -33q8 -36 8 -80q0 -23 -4 -47h-549q7 70 31 119q43 25 125 49v657zM342 1505q65 0 105 -38t40 -105q0 -72 -39.5 -113t-105.5 -41q-72 0 -109.5 39.5t-37.5 114.5q0 64 41 103.5t106 39.5z M858 825h-147q1 33 13.5 76t27.5 70q89 35 209 35q77 0 133 -17v-813q0 -110 -26.5 -209.5t-76 -184t-99.5 -147t-118 -131.5q-36 12 -74 42.5t-59 62.5q45 49 79.5 98t68 114t51.5 143t18 163v698zM981 1505q65 0 105 -38t40 -105q0 -72 -39.5 -113t-105.5 -41 q-72 0 -109.5 39.5t-37.5 114.5q0 64 41 103.5t106 39.5z" />
<glyph unicode="&#x134;" horiz-adv-x="770" d="M547 1268v-789q0 -298 -130 -515t-382 -335q-22 20 -45.5 60t-30.5 71q178 104 259 272t81 400v834q-103 7 -180 18q-13 91 -2 152h594q6 -18 6 -58q0 -59 -10 -92q-73 -14 -160 -18zM303 1872h246l289 -215q-10 -32 -40.5 -69t-60.5 -54l-317 158l-338 -168 q-20 24 -33.5 68.5t-17.5 80.5z" />
<glyph unicode="&#x135;" horiz-adv-x="573" d="M199 1505l192 8l256 -288q-18 -29 -57.5 -60.5t-73.5 -40.5l-227 207l-240 -215q-26 18 -52.5 57t-37.5 72zM197 825h-148q1 33 13.5 76t27.5 70q89 35 209 35q77 0 133 -17v-813q0 -110 -26 -209.5t-75.5 -184t-99.5 -147t-118 -131.5q-36 12 -74 42.5t-59 62.5 q45 49 79.5 98t68 114t51.5 143t18 163v698z" />
<glyph unicode="&#x136;" horiz-adv-x="1456" d="M504 805h129l252 346q52 73 104 115q-104 11 -127 16q-18 65 -18 154h520q-4 -87 -33 -160q-45 -8 -125 -12l-397 -510l475 -590l133 8q0 -40 -11 -90.5t-26 -81.5q-106 -27 -260 -39l-524 694h-92v-483q96 -7 155 -22q8 -26 10.5 -75.5t-1.5 -74.5h-596q8 86 32 145 q75 22 152 29v1092q-83 7 -145 18q-11 82 -2 152h542q6 -25 4.5 -74.5t-8.5 -75.5q-62 -14 -143 -18v-463zM696 -270l-92 20q7 34 29 79.5t43 70.5q54 8 94 8q95 0 168 -27q-18 -108 -81 -260.5t-120 -238.5q-31 6 -71.5 23.5t-55.5 31.5q63 159 86 293z" />
<glyph unicode="&#x137;" horiz-adv-x="1204" d="M438 471v-311q86 -12 140 -33q13 -64 6 -127h-537q7 70 31 119q39 22 125 49v1153h-146q4 84 43 147q89 35 207 35q81 0 131 -18v-875h109l135 142q15 17 42.5 39t47.5 32q-80 15 -117 31q-20 53 -20 131h491q0 -69 -28 -143q-31 -12 -113 -23l-266 -254 q104 -144 211.5 -268.5t140.5 -142.5l119 18q2 -12 2 -33q0 -30 -10 -71.5t-23 -67.5q-96 -35 -176 -43q-22 4 -51.5 24.5t-70 64t-73.5 81t-87 108.5t-85 112t-92 124h-86zM563 -274l-92 18q9 36 29.5 78t40.5 65q46 11 92 11q82 0 158 -27q-18 -100 -76.5 -246 t-108.5 -225q-29 6 -65 23.5t-52 31.5q54 146 74 271z" />
<glyph unicode="&#x138;" horiz-adv-x="1218" d="M219 825h-143q0 35 11.5 77t29.5 69q86 35 207 35q75 0 131 -17v-418h129l114 156q47 62 105 92q-66 11 -115 33q-18 56 -18 133h483q0 -73 -31 -145q-32 -13 -112 -23l-250 -293q91 -126 192 -239.5t133 -132.5l109 16q2 -10 2 -25q0 -32 -10 -76t-25 -69 q-86 -33 -168 -41q-31 6 -77.5 45.5t-112 117t-114.5 140t-130 168.5h-104v-272q77 -7 139 -29q15 -66 4 -127h-535q7 70 31 119q39 22 125 49v657z" />
<glyph unicode="&#x139;" horiz-adv-x="1241" d="M256 174v1092q-83 7 -145 18q-13 91 -2 152h598q5 -24 2.5 -74t-9.5 -76q-87 -14 -196 -18v-1104h465q8 119 26 203q67 24 187 24v-391h-1110q8 86 32 145q75 22 152 29zM834 1729l-545 -197q-12 30 -20.5 80.5t-8.5 85.5l447 215q35 -29 71.5 -82.5t55.5 -101.5z" />
<glyph unicode="&#x13a;" horiz-adv-x="645" d="M709 1751l-525 -190q-10 27 -17 73t-5 76l436 207q33 -27 64.5 -74.5t46.5 -91.5zM203 1321h-146q4 84 43 147q86 35 207 35q81 0 131 -18v-1325q82 -7 158 -33q8 -36 8 -80q0 -23 -4 -47h-553q7 70 31 119q43 25 125 49v1153z" />
<glyph unicode="&#x13b;" horiz-adv-x="1241" d="M256 174v1092q-83 7 -145 18q-13 91 -2 152h598q5 -24 2.5 -74t-9.5 -76q-87 -14 -196 -18v-1104h465q8 119 26 203q67 24 187 24v-391h-1110q8 86 32 145q75 22 152 29zM608 -270l-92 20q7 34 29 79.5t43 70.5q54 8 94 8q95 0 168 -27q-18 -108 -81 -260.5t-120 -238.5 q-31 6 -71.5 23.5t-55.5 31.5q63 159 86 293z" />
<glyph unicode="&#x13c;" horiz-adv-x="645" d="M203 1321h-146q4 84 43 147q86 35 207 35q81 0 131 -18v-1325q82 -7 158 -33q8 -36 8 -80q0 -23 -4 -47h-553q7 70 31 119q43 25 125 49v1153zM240 -274l-93 18q9 36 29.5 78t40.5 65q46 11 92 11q82 0 158 -27q-18 -100 -76 -246t-108 -225q-29 6 -65 23.5t-52 31.5 q54 146 74 271z" />
<glyph unicode="&#x13d;" horiz-adv-x="1241" d="M909 1274l-94 18q9 34 31 78.5t43 71.5q50 8 98 8q91 0 164 -29q-19 -111 -85 -268.5t-124 -243.5q-30 6 -69 24t-56 32q68 183 92 309zM256 174v1092q-83 7 -145 18q-13 91 -2 152h598q5 -24 2.5 -74t-9.5 -76q-87 -14 -196 -18v-1104h465q8 119 26 203q67 24 187 24 v-391h-1110q8 86 32 145q75 22 152 29z" />
<glyph unicode="&#x13e;" horiz-adv-x="645" d="M203 1321h-146q4 84 43 147q86 35 207 35q81 0 131 -18v-1325q82 -7 158 -33q8 -36 8 -80q0 -23 -4 -47h-553q7 70 31 119q43 25 125 49v1153zM631 1323l-90 18q9 35 29 76.5t40 65.5q50 8 90 8q78 0 154 -27q-18 -102 -76.5 -248.5t-109.5 -228.5q-30 7 -64 24t-51 31 q24 60 46.5 141t31.5 140z" />
<glyph unicode="&#x13f;" horiz-adv-x="1241" d="M256 174v1092q-83 7 -145 18q-13 91 -2 152h598q5 -24 2.5 -74t-9.5 -76q-87 -14 -196 -18v-1104h465q8 119 26 203q67 24 187 24v-391h-1110q8 86 32 145q75 22 152 29zM993 897q64 0 104 -34.5t40 -98.5q0 -71 -40 -109.5t-104 -38.5q-147 0 -147 148q0 61 40.5 97 t106.5 36z" />
<glyph unicode="&#x140;" horiz-adv-x="833" d="M207 1321h-146q4 84 43 147q86 35 207 35q81 0 131 -18v-1325q82 -7 158 -33q8 -36 8 -80q0 -23 -4 -47h-553q7 70 31 119q43 25 125 49v1153zM737 854q62 0 101 -35t39 -98q0 -70 -39 -108t-101 -38q-141 0 -141 146q0 60 39 96.5t102 36.5z" />
<glyph unicode="&#x141;" horiz-adv-x="1265" d="M276 174v363l-145 -91q-16 28 -27.5 82t-11.5 93l184 112v533q-79 7 -145 18q-5 31 -6 76.5t4 75.5h598q5 -24 3 -74.5t-9 -75.5q-87 -14 -197 -18v-420l289 178q20 -22 47.5 -68.5t34.5 -72.5l-371 -232v-489h465q9 125 25 203q70 24 188 24v-391h-1110q1 30 11.5 73.5 t21.5 71.5q71 22 151 29z" />
<glyph unicode="&#x142;" horiz-adv-x="710" d="M477 1485v-629l121 74q19 -18 41.5 -55.5t28.5 -63.5l-191 -119v-532q82 -7 158 -33q14 -68 4 -127h-553q7 70 31 119q43 25 125 49v414l-152 -97q-12 23 -22.5 69t-10.5 77l185 117v573h-146q4 84 43 147q86 35 207 35q82 0 131 -18z" />
<glyph unicode="&#x143;" horiz-adv-x="1585" d="M584 1436l483 -879q32 -57 65.5 -146.5t47.5 -154.5h18v1010q-90 8 -154 18q-5 31 -6 77.5t4 74.5h484q6 -18 6 -58q0 -59 -10 -92q-62 -14 -140 -18v-1282h-272l-553 1009q-59 105 -88 219h-18v-1042q100 -8 165 -22q8 -26 10.5 -75.5t-1.5 -74.5h-547q7 76 31 145 q71 22 143 29v1092q-86 8 -143 18q-6 28 -7.5 77.5t2.5 74.5h480zM1270 1729l-545 -197q-12 30 -20.5 80.5t-8.5 85.5l447 215q35 -29 71.5 -82.5t55.5 -101.5z" />
<glyph unicode="&#x144;" horiz-adv-x="1284" d="M455 717v-557q92 -12 141 -33q6 -23 8 -61.5t-2 -65.5h-539q7 70 31 119q39 22 125 49v657h-147q2 35 14 77.5t29 68.5q79 35 188 35q68 0 117 -17v-155h26q39 77 123 131.5t209 54.5q55 0 97.5 -7.5t86 -31.5t72 -63.5t46.5 -107.5t18 -161q0 -193 -15 -489 q78 -6 156 -33q8 -36 8 -80q0 -23 -4 -47h-520q8 75 29 119q34 23 106 49v440q0 232 -176 232q-66 0 -128.5 -37t-98.5 -86zM991 1464l-346 -356q-28 12 -65.5 43t-55.5 57l244 338q42 0 117 -26.5t106 -55.5z" />
<glyph unicode="&#x145;" horiz-adv-x="1585" d="M584 1436l483 -879q32 -57 65.5 -146.5t47.5 -154.5h18v1010q-90 8 -154 18q-5 31 -6 77.5t4 74.5h484q6 -18 6 -58q0 -59 -10 -92q-62 -14 -140 -18v-1282h-272l-553 1009q-59 105 -88 219h-18v-1042q100 -8 165 -22q8 -26 10.5 -75.5t-1.5 -74.5h-547q7 76 31 145 q71 22 143 29v1092q-86 8 -143 18q-6 28 -7.5 77.5t2.5 74.5h480zM743 -270l-92 20q7 34 29 79.5t43 70.5q54 8 94 8q95 0 168 -27q-18 -108 -81 -260.5t-120 -238.5q-31 6 -71.5 23.5t-55.5 31.5q63 159 86 293z" />
<glyph unicode="&#x146;" horiz-adv-x="1284" d="M455 717v-557q92 -12 141 -33q6 -23 8 -61.5t-2 -65.5h-539q7 70 31 119q39 22 125 49v657h-147q2 35 14 77.5t29 68.5q79 35 188 35q68 0 117 -17v-155h26q39 77 123 131.5t209 54.5q55 0 97.5 -7.5t86 -31.5t72 -63.5t46.5 -107.5t18 -161q0 -193 -15 -489 q78 -6 156 -33q8 -36 8 -80q0 -23 -4 -47h-520q8 75 29 119q34 23 106 49v440q0 232 -176 232q-66 0 -128.5 -37t-98.5 -86zM586 -274l-92 18q9 36 29 78t40 65q46 11 92 11q82 0 158 -27q-18 -100 -76 -246t-108 -225q-29 6 -65 23.5t-52 31.5q54 146 74 271z" />
<glyph unicode="&#x147;" horiz-adv-x="1585" d="M584 1436l483 -879q32 -57 65.5 -146.5t47.5 -154.5h18v1010q-90 8 -154 18q-5 31 -6 77.5t4 74.5h484q6 -18 6 -58q0 -59 -10 -92q-62 -14 -140 -18v-1282h-272l-553 1009q-59 105 -88 219h-18v-1042q100 -8 165 -22q8 -26 10.5 -75.5t-1.5 -74.5h-547q7 76 31 145 q71 22 143 29v1092q-86 8 -143 18q-6 28 -7.5 77.5t2.5 74.5h480zM938 1544h-254l-291 236q23 27 72.5 53.5t89.5 34.5l283 -152l260 142q32 -9 70.5 -35.5t56.5 -50.5z" />
<glyph unicode="&#x148;" horiz-adv-x="1284" d="M455 717v-557q92 -12 141 -33q6 -23 8 -61.5t-2 -65.5h-539q7 70 31 119q39 22 125 49v657h-147q2 35 14 77.5t29 68.5q79 35 188 35q68 0 117 -17v-155h26q39 77 123 131.5t209 54.5q55 0 97.5 -7.5t86 -31.5t72 -63.5t46.5 -107.5t18 -161q0 -193 -15 -489 q78 -6 156 -33q8 -36 8 -80q0 -23 -4 -47h-520q8 75 29 119q34 23 106 49v440q0 232 -176 232q-66 0 -128.5 -37t-98.5 -86zM754 1128l-195 -8l-272 320q19 23 70.5 41.5t91.5 21.5l235 -203l225 209q32 -7 69.5 -27t59.5 -40z" />
<glyph unicode="&#x14a;" horiz-adv-x="1566" d="M573 1436l457 -707q41 -63 78 -159.5t49 -166.5h21v863q-94 8 -154 18q-6 28 -7.5 77.5t3.5 74.5h491q7 -21 7 -58q0 -55 -11 -92q-63 -14 -141 -18v-1090q0 -118 -27.5 -227.5t-75 -197t-102.5 -155.5t-119 -122q-25 14 -53 43.5t-41 56.5q77 69 142 193.5t77 238.5 l-585 916q-30 48 -62.5 123.5t-50.5 134.5h-18v-1010q100 -8 165 -22q8 -26 10.5 -75.5t-1.5 -74.5h-547q7 76 31 145q71 22 143 29v1092q-86 8 -143 18q-6 28 -7.5 77.5t2.5 74.5h469z" />
<glyph unicode="&#x14b;" horiz-adv-x="1208" d="M420 834h26q39 77 123 131.5t209 54.5q55 0 97.5 -7.5t86 -31.5t72 -63.5t46.5 -107.5t18 -161q0 -221 -6 -387q-7 -199 -93.5 -367.5t-240.5 -295.5q-34 15 -71.5 46.5t-57.5 63.5q229 212 229 522v377q0 232 -176 232q-66 0 -128.5 -37t-98.5 -86v-557q92 -12 141 -33 q6 -23 8 -61.5t-2 -65.5h-539q7 70 31 119q39 22 125 49v657h-145q0 35 11.5 77t29.5 69q79 35 188 35q68 0 117 -17v-155z" />
<glyph unicode="&#x14c;" horiz-adv-x="1527" d="M1202 1608h-854q0 89 29 186h819q10 -55 10 -121q0 -37 -4 -65zM768 1477q303 0 483.5 -194t180.5 -546q0 -366 -179.5 -572t-484.5 -206q-326 0 -499 198.5t-173 579.5q0 168 51 308t141 234t213.5 146t266.5 52zM362 737q0 -281 108 -445.5t298 -164.5 q196 0 297.5 160.5t101.5 449.5q0 166 -49.5 296.5t-140.5 204t-209 73.5q-196 0 -301 -153.5t-105 -420.5z" />
<glyph unicode="&#x14d;" horiz-adv-x="1146" d="M913 1206h-677q0 88 24 174h647q11 -50 11 -112q0 -27 -5 -62zM573 1020q224 0 357 -134.5t133 -377.5q0 -256 -132 -399.5t-358 -143.5q-236 0 -362.5 139t-126.5 404q0 233 137.5 372.5t351.5 139.5zM326 508q0 -176 66 -281.5t181 -105.5q122 0 184 102t62 285 q0 156 -67.5 257t-178.5 101q-118 0 -182.5 -97t-64.5 -261z" />
<glyph unicode="&#x14e;" horiz-adv-x="1527" d="M768 1477q303 0 483.5 -194t180.5 -546q0 -366 -179.5 -572t-484.5 -206q-326 0 -499 198.5t-173 579.5q0 168 51 308t141 234t213.5 146t266.5 52zM362 737q0 -281 108 -445.5t298 -164.5q196 0 297.5 160.5t101.5 449.5q0 166 -49.5 296.5t-140.5 204t-209 73.5 q-196 0 -301 -153.5t-105 -420.5zM537 1892q49 -151 231 -151q89 0 151.5 35t88.5 102q105 -4 166 -45q-25 -130 -133.5 -206.5t-278.5 -76.5q-161 0 -264 69t-129 193q24 27 74.5 51.5t93.5 28.5z" />
<glyph unicode="&#x14f;" horiz-adv-x="1146" d="M573 1020q224 0 357 -134.5t133 -377.5q0 -256 -132 -399.5t-358 -143.5q-236 0 -362.5 139t-126.5 404q0 233 137.5 372.5t351.5 139.5zM326 508q0 -176 66 -281.5t181 -105.5q122 0 184 102t62 285q0 156 -67.5 257t-178.5 101q-118 0 -182.5 -97t-64.5 -261zM389 1487 q20 -95 65.5 -141t120.5 -46q149 0 195 181q81 -3 145 -41q-19 -144 -107.5 -229t-232.5 -85q-286 0 -335 297q50 50 149 64z" />
<glyph unicode="&#x150;" horiz-adv-x="1527" d="M768 1477q303 0 483.5 -194t180.5 -546q0 -366 -179.5 -572t-484.5 -206q-326 0 -499 198.5t-173 579.5q0 168 51 308t141 234t213.5 146t266.5 52zM362 737q0 -281 108 -445.5t298 -164.5q196 0 297.5 160.5t101.5 449.5q0 166 -49.5 296.5t-140.5 204t-209 73.5 q-196 0 -301 -153.5t-105 -420.5zM901 1833l-405 -320q-29 20 -58 57t-43 70l287 304q56 -9 119 -41.5t100 -69.5zM1423 1833l-405 -320q-29 20 -57.5 57t-42.5 70l286 304q56 -9 119 -41.5t100 -69.5z" />
<glyph unicode="&#x151;" horiz-adv-x="1146" d="M573 1020q224 0 357 -134.5t133 -377.5q0 -256 -132 -399.5t-358 -143.5q-236 0 -362.5 139t-126.5 404q0 233 137.5 372.5t351.5 139.5zM326 508q0 -176 66 -281.5t181 -105.5q122 0 184 102t62 285q0 156 -67.5 257t-178.5 101q-118 0 -182.5 -97t-64.5 -261zM694 1468 l-284 -364q-32 12 -69.5 38.5t-59.5 51.5l196 344q43 0 113 -22.5t104 -47.5zM1116 1468l-285 -364q-32 12 -69.5 38.5t-59.5 51.5l197 344q43 0 113 -22.5t104 -47.5z" />
<glyph unicode="&#x152;" horiz-adv-x="2025" d="M1919 0h-895q-109 -35 -244 -35q-327 0 -504.5 195.5t-177.5 562.5q0 173 50.5 314.5t141 236t215.5 145.5t273 51q145 0 248 -34h870v-334q-96 0 -170 22q-20 79 -24 154h-428v-473h334q4 45 20 100q79 23 166 23v-398q-91 -7 -168 13q-15 57 -18 108h-334v-489h436 q7 91 27 170q68 22 182 22v-354zM1024 172v1075q-97 60 -238 60q-210 0 -318 -150.5t-108 -421.5q0 -287 112.5 -445.5t322.5 -158.5q139 0 229 41z" />
<glyph unicode="&#x153;" horiz-adv-x="1769" d="M1671 446h-622q9 -140 92 -219.5t219 -79.5q67 0 158 17t149 39q5 -32 -7 -79.5t-32 -76.5q-152 -82 -338 -82q-134 0 -223.5 49.5t-126.5 124.5h-14q-38 -76 -129.5 -125t-225.5 -49q-230 0 -358.5 138.5t-128.5 394.5q0 243 135.5 382.5t355.5 139.5q128 0 220.5 -46 t138.5 -120h14q45 73 139 119.5t218 46.5q191 0 281.5 -120.5t90.5 -338.5q0 -57 -6 -115zM326 506q0 -176 66.5 -280.5t182.5 -104.5q120 0 182 102t62 279q0 163 -66.5 263.5t-181.5 100.5q-118 0 -181.5 -97t-63.5 -263zM1274 877q-94 0 -154 -76.5t-71 -200.5h393 q6 49 -0.5 96.5t-24.5 88.5t-55 66.5t-88 25.5z" />
<glyph unicode="&#x154;" horiz-adv-x="1396" d="M256 174v1088q-86 0 -145 12q-13 75 -5 160q281 24 551 24q121 0 221.5 -25t178 -74t121 -129.5t43.5 -185.5q0 -145 -84.5 -247t-218.5 -144q94 -177 188.5 -322.5t126.5 -160.5l121 10q0 -40 -9.5 -90.5t-23.5 -81.5q-108 -31 -248 -39q-47 32 -160 221t-227 426 q-96 0 -182 13v-457q116 -9 162 -22q7 -25 9 -75.5t-3 -74.5h-600q8 86 32 145q75 22 152 29zM504 1290v-514q71 -10 192 -10q124 0 199.5 67t75.5 199q0 128 -95.5 196t-250.5 68q-69 0 -121 -6zM1126 1729l-544 -197q-12 30 -20.5 80.5t-8.5 85.5l446 215 q35 -29 71.5 -82.5t55.5 -101.5z" />
<glyph unicode="&#x155;" horiz-adv-x="860" d="M420 795h26q20 93 93 159t172 66q65 0 98 -16q33 -51 33 -152q0 -47 -8 -74q-62 35 -148 35q-71 0 -132.5 -39.5t-98.5 -114.5v-493q131 -13 200 -41q8 -22 10.5 -60t-1.5 -65h-601q7 70 31 119q39 22 125 49v657h-145q0 35 11.5 77t29.5 69q82 35 188 35q68 0 117 -17 v-194zM858 1464l-346 -356q-28 12 -65.5 43t-55.5 57l244 338q42 0 117 -26.5t106 -55.5z" />
<glyph unicode="&#x156;" horiz-adv-x="1396" d="M256 174v1088q-86 0 -145 12q-13 75 -5 160q281 24 551 24q121 0 221.5 -25t178 -74t121 -129.5t43.5 -185.5q0 -145 -84.5 -247t-218.5 -144q94 -177 188.5 -322.5t126.5 -160.5l121 10q0 -40 -9.5 -90.5t-23.5 -81.5q-108 -31 -248 -39q-47 32 -160 221t-227 426 q-96 0 -182 13v-457q116 -9 162 -22q7 -25 9 -75.5t-3 -74.5h-600q8 86 32 145q75 22 152 29zM504 1290v-514q71 -10 192 -10q124 0 199.5 67t75.5 199q0 128 -95.5 196t-250.5 68q-69 0 -121 -6zM664 -270l-93 20q7 34 29 79.5t43 70.5q54 8 94 8q95 0 168 -27 q-18 -108 -81 -261t-119 -238q-31 6 -71.5 23.5t-55.5 31.5q63 159 86 293z" />
<glyph unicode="&#x157;" horiz-adv-x="860" d="M420 795h26q20 93 93 159t172 66q65 0 98 -16q33 -51 33 -152q0 -47 -8 -74q-62 35 -148 35q-71 0 -132.5 -39.5t-98.5 -114.5v-493q131 -13 200 -41q8 -22 10.5 -60t-1.5 -65h-601q7 70 31 119q39 22 125 49v657h-145q0 35 11.5 77t29.5 69q82 35 188 35q68 0 117 -17 v-194zM248 -274l-92 18q9 36 29 78t40 65q46 11 92 11q82 0 158 -27q-18 -100 -76 -246t-108 -225q-29 6 -65 23.5t-52 31.5q54 146 74 271z" />
<glyph unicode="&#x158;" horiz-adv-x="1396" d="M256 174v1088q-86 0 -145 12q-13 75 -5 160q281 24 551 24q121 0 221.5 -25t178 -74t121 -129.5t43.5 -185.5q0 -145 -84.5 -247t-218.5 -144q94 -177 188.5 -322.5t126.5 -160.5l121 10q0 -40 -9.5 -90.5t-23.5 -81.5q-108 -31 -248 -39q-47 32 -160 221t-227 426 q-96 0 -182 13v-457q116 -9 162 -22q7 -25 9 -75.5t-3 -74.5h-600q8 86 32 145q75 22 152 29zM504 1290v-514q71 -10 192 -10q124 0 199.5 67t75.5 199q0 128 -95.5 196t-250.5 68q-69 0 -121 -6zM805 1544h-254l-291 236q23 27 72.5 53.5t89.5 34.5l283 -152l260 142 q32 -9 70.5 -35.5t56.5 -50.5z" />
<glyph unicode="&#x159;" horiz-adv-x="860" d="M420 795h26q20 93 93 159t172 66q65 0 98 -16q33 -51 33 -152q0 -47 -8 -74q-62 35 -148 35q-71 0 -132.5 -39.5t-98.5 -114.5v-493q131 -13 200 -41q8 -22 10.5 -60t-1.5 -65h-601q7 70 31 119q39 22 125 49v657h-145q0 35 11.5 77t29.5 69q82 35 188 35q68 0 117 -17 v-194zM621 1128l-195 -8l-272 320q19 23 70 41.5t91 21.5l236 -203l225 209q32 -7 69.5 -27t59.5 -40z" />
<glyph unicode="&#x15a;" horiz-adv-x="1185" d="M827 1112v168q-71 39 -172 39q-113 0 -180 -51t-67 -129q0 -68 38 -119.5t98.5 -86t133.5 -66t146 -69.5t133.5 -86t98.5 -126.5t38 -179.5q0 -99 -29.5 -176.5t-79.5 -128t-121.5 -83t-149.5 -46t-169 -13.5q-245 0 -439 78q0 192 29 373q40 0 102 -8.5t99 -20.5v-209 q116 -53 244 -53q131 0 200.5 59.5t69.5 169.5q0 56 -23.5 100t-63.5 74.5t-92 56.5t-109 50t-114 50.5t-109 63.5t-92 83t-63.5 114.5t-23.5 153.5q0 174 130.5 278.5t354.5 104.5q95 0 206 -19t198 -51q0 -71 -10 -169.5t-25 -164.5q-42 0 -97.5 11t-89.5 28zM1071 1729 l-545 -197q-12 30 -20 80.5t-8 85.5l446 215q35 -29 71.5 -82.5t55.5 -101.5z" />
<glyph unicode="&#x15b;" horiz-adv-x="915" d="M606 754v106q-52 23 -106 23q-68 0 -105 -28t-37 -79q0 -44 26.5 -76.5t69 -53.5t93.5 -40.5t102 -45.5t93.5 -59.5t69 -90t26.5 -131.5q0 -83 -32 -145t-88 -98t-124.5 -53.5t-149.5 -17.5q-199 0 -340 78q-10 45 -10 104q0 93 21 158q112 0 188 -24v-127 q65 -41 156 -41q68 0 107.5 33t39.5 92q0 44 -26.5 76t-69.5 52.5t-94.5 39.5t-103.5 44.5t-95 60t-69.5 93t-26.5 135.5q0 126 101 203.5t270 77.5q171 0 315 -62q4 -32 4 -67q0 -86 -23 -176q-109 0 -182 39zM803 1464l-346 -356q-28 12 -65.5 43t-55.5 57l244 338 q42 0 117 -26.5t106 -55.5z" />
<glyph unicode="&#x15c;" horiz-adv-x="1185" d="M827 1112v168q-71 39 -172 39q-113 0 -180 -51t-67 -129q0 -68 38 -119.5t98.5 -86t133.5 -66t146 -69.5t133.5 -86t98.5 -126.5t38 -179.5q0 -99 -29.5 -176.5t-79.5 -128t-121.5 -83t-149.5 -46t-169 -13.5q-245 0 -439 78q0 192 29 373q40 0 102 -8.5t99 -20.5v-209 q116 -53 244 -53q131 0 200.5 59.5t69.5 169.5q0 56 -23.5 100t-63.5 74.5t-92 56.5t-109 50t-114 50.5t-109 63.5t-92 83t-63.5 114.5t-23.5 153.5q0 174 130.5 278.5t354.5 104.5q95 0 206 -19t198 -51q0 -71 -10 -169.5t-25 -164.5q-42 0 -97.5 11t-89.5 28zM502 1872 h246l288 -215q-10 -32 -40.5 -69t-59.5 -54l-318 158l-337 -168q-20 24 -34.5 68.5t-17.5 80.5z" />
<glyph unicode="&#x15d;" horiz-adv-x="915" d="M606 754v106q-52 23 -106 23q-68 0 -105 -28t-37 -79q0 -44 26.5 -76.5t69 -53.5t93.5 -40.5t102 -45.5t93.5 -59.5t69 -90t26.5 -131.5q0 -83 -32 -145t-88 -98t-124.5 -53.5t-149.5 -17.5q-199 0 -340 78q-10 45 -10 104q0 93 21 158q112 0 188 -24v-127 q65 -41 156 -41q68 0 107.5 33t39.5 92q0 44 -26.5 76t-69.5 52.5t-94.5 39.5t-103.5 44.5t-95 60t-69.5 93t-26.5 135.5q0 126 101 203.5t270 77.5q171 0 315 -62q4 -32 4 -67q0 -86 -23 -176q-109 0 -182 39zM389 1505l193 8l256 -288q-18 -29 -57.5 -60.5t-73.5 -40.5 l-228 207l-239 -215q-26 18 -52.5 57t-37.5 72z" />
<glyph unicode="&#x15e;" horiz-adv-x="1185" d="M827 1112v168q-71 39 -172 39q-113 0 -180 -51t-67 -129q0 -68 38 -119.5t98.5 -86t133.5 -66t146 -69.5t133.5 -86t98.5 -126.5t38 -179.5q0 -104 -31 -183.5t-88.5 -130.5t-129 -81t-161.5 -42l-16 -92q65 -11 109 -55.5t44 -112.5q0 -67 -44.5 -121.5t-110 -84.5 t-140.5 -38q-54 37 -96 109q150 32 150 127q0 91 -129 117l57 141q-224 7 -402 78q0 192 29 373q40 0 102 -8.5t99 -20.5v-209q116 -53 244 -53q131 0 200.5 59.5t69.5 169.5q0 56 -23.5 100t-63.5 74.5t-92 56.5t-109 50t-114 50.5t-109 63.5t-92 83t-63.5 114.5 t-23.5 153.5q0 174 130.5 278.5t354.5 104.5q95 0 206 -19t198 -51q0 -71 -10 -169.5t-25 -164.5q-42 0 -97.5 11t-89.5 28z" />
<glyph unicode="&#x15f;" horiz-adv-x="915" d="M606 754v106q-52 23 -106 23q-68 0 -105 -28t-37 -79q0 -44 26.5 -76.5t69 -53.5t93.5 -40.5t102 -45.5t93.5 -59.5t69 -90t26.5 -131.5q0 -139 -83 -214t-220 -94l-17 -86q54 -15 93.5 -54.5t39.5 -94.5q0 -86 -79.5 -146t-186.5 -71q-59 40 -88 96q60 11 99.5 41.5 t39.5 73.5q0 39 -31.5 67t-78.5 39l55 131q-159 12 -277 76q-10 45 -10 104q0 93 21 158q112 0 188 -24v-127q65 -41 156 -41q68 0 107.5 33t39.5 92q0 44 -26.5 76t-69.5 52.5t-94.5 39.5t-103.5 44.5t-95 60t-69.5 93t-26.5 135.5q0 126 101 203.5t270 77.5q171 0 315 -62 q4 -32 4 -67q0 -86 -23 -176q-109 0 -182 39z" />
<glyph unicode="&#x160;" horiz-adv-x="1185" d="M827 1112v168q-71 39 -172 39q-113 0 -180 -51t-67 -129q0 -68 38 -119.5t98.5 -86t133.5 -66t146 -69.5t133.5 -86t98.5 -126.5t38 -179.5q0 -99 -29.5 -176.5t-79.5 -128t-121.5 -83t-149.5 -46t-169 -13.5q-245 0 -439 78q0 192 29 373q40 0 102 -8.5t99 -20.5v-209 q116 -53 244 -53q131 0 200.5 59.5t69.5 169.5q0 56 -23.5 100t-63.5 74.5t-92 56.5t-109 50t-114 50.5t-109 63.5t-92 83t-63.5 114.5t-23.5 153.5q0 174 130.5 278.5t354.5 104.5q95 0 206 -19t198 -51q0 -71 -10 -169.5t-25 -164.5q-42 0 -97.5 11t-89.5 28zM748 1544 h-254l-291 236q23 27 72.5 53.5t89.5 34.5l282 -152l260 142q32 -9 70.5 -35.5t56.5 -50.5z" />
<glyph unicode="&#x161;" horiz-adv-x="915" d="M606 754v106q-52 23 -106 23q-68 0 -105 -28t-37 -79q0 -44 26.5 -76.5t69 -53.5t93.5 -40.5t102 -45.5t93.5 -59.5t69 -90t26.5 -131.5q0 -83 -32 -145t-88 -98t-124.5 -53.5t-149.5 -17.5q-199 0 -340 78q-10 45 -10 104q0 93 21 158q112 0 188 -24v-127 q65 -41 156 -41q68 0 107.5 33t39.5 92q0 44 -26.5 76t-69.5 52.5t-94.5 39.5t-103.5 44.5t-95 60t-69.5 93t-26.5 135.5q0 126 101 203.5t270 77.5q171 0 315 -62q4 -32 4 -67q0 -86 -23 -176q-109 0 -182 39zM575 1128l-194 -8l-272 320q19 23 70 41.5t91 21.5l236 -203 l225 209q32 -7 69.5 -27t59.5 -40z" />
<glyph unicode="&#x162;" horiz-adv-x="1308" d="M512 -164l70 164h-260q3 60 36 143q80 24 172 31v1104h-282q-6 -68 -27 -170q-66 -18 -178 -18v346h1223v-355q-104 0 -181 21q-18 83 -26 176h-281v-1106q123 -8 201 -22q7 -26 10 -76t-2 -74h-260l-20 -115q53 -13 93 -53t40 -96q0 -87 -80 -146.5t-187 -70.5 q-56 36 -90 96q61 9 100.5 40t39.5 75q0 41 -31 68t-80 38z" />
<glyph unicode="&#x163;" horiz-adv-x="761" d="M268 -164l60 141q-85 22 -126.5 96t-41.5 208q0 286 14 546h-147q0 29 9 75t21 71q58 28 117 41l35 227q30 17 87.5 29t102.5 12v-297h291q17 -89 8 -158h-299v-512q0 -93 29 -131.5t102 -38.5q77 0 191 27q2 -10 2 -31q0 -58 -33 -116q-89 -44 -213 -58l-14 -82 q53 -13 93 -53t40 -96q0 -88 -79.5 -147t-186.5 -70q-56 36 -90 96q61 9 100 40t39 75q0 41 -31 68t-80 38z" />
<glyph unicode="&#x164;" horiz-adv-x="1308" d="M778 1278v-1106q123 -8 201 -22q7 -26 10 -76t-2 -74h-665q3 60 36 143q80 24 172 31v1104h-282q-6 -68 -27 -170q-66 -18 -178 -18v346h1223v-355q-104 0 -181 21q-18 83 -26 176h-281zM778 1544h-254l-291 236q23 27 72.5 53.5t89.5 34.5l283 -152l260 142 q32 -9 70.5 -35.5t56.5 -50.5z" />
<glyph unicode="&#x165;" horiz-adv-x="800" d="M662 1378l-89 19q22 82 70 141q33 8 90 8q81 0 154 -26q-17 -94 -70 -227t-100 -206q-56 14 -117 56q44 116 62 235zM174 1014l35 227q30 17 87.5 29t102.5 12v-297h291q17 -89 8 -158h-299v-512q0 -93 29 -131.5t102 -38.5q77 0 191 27q2 -10 2 -31q0 -58 -33 -116 q-123 -60 -266 -60q-134 0 -199 75t-65 241q0 286 14 546h-147q0 29 9 75t21 71q58 28 117 41z" />
<glyph unicode="&#x166;" horiz-adv-x="1353" d="M801 1278v-473h258q7 -25 10 -72t-2 -84h-266v-477q121 -8 200 -22q8 -26 10.5 -75.5t-1.5 -74.5h-666q3 58 37 143q80 24 172 31v475h-258q0 82 24 156h234v473h-283q-7 -76 -26 -170q-66 -18 -178 -18v346h1222v-355q-104 0 -180 21q-20 90 -27 176h-280z" />
<glyph unicode="&#x167;" horiz-adv-x="794" d="M193 1014l34 227q30 17 88 29t103 12v-297h291q17 -89 8 -158h-299v-243h278q7 -22 10 -66t-1 -76h-287v-127q0 -93 29 -131.5t102 -38.5q76 0 190 27q2 -10 2 -31q0 -60 -32 -116q-58 -28 -131 -44t-136 -16q-134 0 -199 75t-65 241v161h-125q0 65 25 142h104 q1 54 11 243h-148q0 28 9.5 74t21.5 72q58 28 117 41z" />
<glyph unicode="&#x168;" horiz-adv-x="1550" d="M479 1268v-723q0 -418 336 -418q175 0 261.5 115t86.5 305v719q-73 7 -133 18q-6 29 -7 77.5t5 74.5h473q6 -18 6 -58q0 -59 -10 -92q-59 -14 -135 -18v-709q0 -136 -34.5 -244t-104.5 -188.5t-185.5 -124t-269.5 -43.5q-274 0 -405.5 142.5t-131.5 426.5v738 q-100 10 -145 20q-18 63 -18 150h575q6 -25 4.5 -74.5t-8.5 -75.5q-74 -15 -160 -18zM1110 1841q83 0 135 -24q-2 -104 -74.5 -183.5t-205.5 -79.5q-57 0 -114.5 24t-111.5 47.5t-102 23.5q-44 0 -76.5 -26t-40.5 -60q-34 3 -71.5 24t-57.5 47q16 92 87.5 152.5t189.5 60.5 q52 0 99.5 -14t77 -31t70 -31t80.5 -14q44 0 75 23.5t40 60.5z" />
<glyph unicode="&#x169;" horiz-adv-x="1241" d="M795 260v565h-146q4 83 43 146q75 35 207 35q75 0 131 -17v-686q0 -80 17 -147h151q2 -10 2 -31q0 -63 -24 -109q-54 -18 -150.5 -29.5t-165.5 -11.5q-39 71 -49 170h-14q-39 -75 -120.5 -127.5t-199.5 -52.5q-54 0 -96.5 8t-84.5 32.5t-69 64.5t-44 108.5t-17 161.5 q0 288 10 485h-153q2 35 14 77.5t29 68.5q86 35 208 35q76 0 132 -17v-610q0 -115 40 -173.5t134 -58.5q59 0 118.5 33.5t96.5 79.5zM827 1432q72 0 121 -25q-2 -62 -26.5 -116t-79.5 -92t-133 -38q-48 0 -97.5 22.5t-95.5 45t-86 22.5q-39 0 -64.5 -23t-33.5 -57 q-32 1 -64.5 18.5t-52.5 43.5q15 92 74.5 149.5t163.5 57.5q56 0 104.5 -21.5t90.5 -43t83 -21.5q38 0 63 22t33 56z" />
<glyph unicode="&#x16a;" horiz-adv-x="1550" d="M479 1268v-723q0 -418 336 -418q175 0 261.5 115t86.5 305v719q-73 7 -133 18q-6 29 -7 77.5t5 74.5h473q6 -18 6 -58q0 -59 -10 -92q-59 -14 -135 -18v-709q0 -136 -34.5 -244t-104.5 -188.5t-185.5 -124t-269.5 -43.5q-274 0 -405.5 142.5t-131.5 426.5v738 q-100 10 -145 20q-18 63 -18 150h575q6 -25 4.5 -74.5t-8.5 -75.5q-74 -15 -160 -18zM1202 1608h-784q0 92 28 186h750q10 -55 10 -121q0 -37 -4 -65z" />
<glyph unicode="&#x16b;" horiz-adv-x="1241" d="M795 260v565h-146q4 83 43 146q75 35 207 35q75 0 131 -17v-686q0 -80 17 -147h151q2 -10 2 -31q0 -63 -24 -109q-54 -18 -150.5 -29.5t-165.5 -11.5q-39 71 -49 170h-14q-39 -75 -120.5 -127.5t-199.5 -52.5q-54 0 -96.5 8t-84.5 32.5t-69 64.5t-44 108.5t-17 161.5 q0 288 10 485h-153q2 35 14 77.5t29 68.5q86 35 208 35q76 0 132 -17v-610q0 -115 40 -173.5t134 -58.5q59 0 118.5 33.5t96.5 79.5zM885 1206h-619q0 84 25 174h588q10 -45 10 -112q0 -34 -4 -62z" />
<glyph unicode="&#x16c;" horiz-adv-x="1550" d="M479 1268v-723q0 -418 336 -418q175 0 261.5 115t86.5 305v719q-73 7 -133 18q-6 29 -7 77.5t5 74.5h473q6 -18 6 -58q0 -59 -10 -92q-59 -14 -135 -18v-709q0 -136 -34.5 -244t-104.5 -188.5t-185.5 -124t-269.5 -43.5q-274 0 -405.5 142.5t-131.5 426.5v738 q-100 10 -145 20q-18 63 -18 150h575q6 -25 4.5 -74.5t-8.5 -75.5q-74 -15 -160 -18zM584 1892q49 -151 231 -151q89 0 151.5 35t88.5 102q105 -4 166 -45q-25 -130 -133.5 -206.5t-278.5 -76.5q-161 0 -264 69t-129 193q24 27 74.5 51.5t93.5 28.5z" />
<glyph unicode="&#x16d;" horiz-adv-x="1241" d="M795 260v565h-146q4 83 43 146q75 35 207 35q75 0 131 -17v-686q0 -80 17 -147h151q2 -10 2 -31q0 -63 -24 -109q-54 -18 -150.5 -29.5t-165.5 -11.5q-39 71 -49 170h-14q-39 -75 -120.5 -127.5t-199.5 -52.5q-54 0 -96.5 8t-84.5 32.5t-69 64.5t-44 108.5t-17 161.5 q0 288 10 485h-153q2 35 14 77.5t29 68.5q86 35 208 35q76 0 132 -17v-610q0 -115 40 -173.5t134 -58.5q59 0 118.5 33.5t96.5 79.5zM391 1487q20 -95 66 -141t121 -46q148 0 194 181q82 -3 146 -41q-19 -144 -107.5 -229t-232.5 -85q-287 0 -336 297q50 50 149 64z" />
<glyph unicode="&#x16e;" horiz-adv-x="1550" d="M479 1268v-723q0 -418 336 -418q175 0 261.5 115t86.5 305v719q-73 7 -133 18q-6 29 -7 77.5t5 74.5h473q6 -18 6 -58q0 -59 -10 -92q-59 -14 -135 -18v-709q0 -136 -34.5 -244t-104.5 -188.5t-185.5 -124t-269.5 -43.5q-274 0 -405.5 142.5t-131.5 426.5v738 q-100 10 -145 20q-18 63 -18 150h575q6 -25 4.5 -74.5t-8.5 -75.5q-74 -15 -160 -18zM823 1972q126 0 199.5 -57t73.5 -164q0 -112 -74.5 -171.5t-202.5 -59.5q-133 0 -202.5 58t-69.5 169q0 106 73 165.5t203 59.5zM821 1849q-53 0 -84.5 -27.5t-31.5 -74.5q0 -51 30 -78 t86 -27q51 0 83 27t32 78q0 50 -31.5 76t-83.5 26z" />
<glyph unicode="&#x16f;" horiz-adv-x="1241" d="M795 260v565h-146q4 83 43 146q75 35 207 35q75 0 131 -17v-686q0 -80 17 -147h151q2 -10 2 -31q0 -63 -24 -109q-54 -18 -150.5 -29.5t-165.5 -11.5q-39 71 -49 170h-14q-39 -75 -120.5 -127.5t-199.5 -52.5q-54 0 -96.5 8t-84.5 32.5t-69 64.5t-44 108.5t-17 161.5 q0 288 10 485h-153q2 35 14 77.5t29 68.5q86 35 208 35q76 0 132 -17v-610q0 -115 40 -173.5t134 -58.5q59 0 118.5 33.5t96.5 79.5zM582 1571q106 0 170.5 -56.5t64.5 -156.5q0 -111 -63.5 -169.5t-171.5 -58.5q-124 0 -185 56t-61 172q0 96 67.5 154.5t178.5 58.5z M584 1462q-50 0 -79.5 -27t-29.5 -77q0 -62 27 -90.5t82 -28.5q46 0 72 30t26 89q0 51 -26 77.5t-72 26.5z" />
<glyph unicode="&#x170;" horiz-adv-x="1550" d="M479 1268v-723q0 -418 336 -418q175 0 261.5 115t86.5 305v719q-73 7 -133 18q-6 29 -7 77.5t5 74.5h473q6 -18 6 -58q0 -59 -10 -92q-59 -14 -135 -18v-709q0 -136 -34.5 -244t-104.5 -188.5t-185.5 -124t-269.5 -43.5q-274 0 -405.5 142.5t-131.5 426.5v738 q-100 10 -145 20q-18 63 -18 150h575q6 -25 4.5 -74.5t-8.5 -75.5q-74 -15 -160 -18zM950 1833l-405 -320q-29 20 -58 57t-43 70l287 304q56 -9 119 -41.5t100 -69.5zM1473 1833l-406 -320q-29 20 -57.5 57t-42.5 70l286 304q57 -9 120 -41.5t100 -69.5z" />
<glyph unicode="&#x171;" horiz-adv-x="1241" d="M795 260v565h-146q4 83 43 146q75 35 207 35q75 0 131 -17v-686q0 -80 17 -147h151q2 -10 2 -31q0 -63 -24 -109q-54 -18 -150.5 -29.5t-165.5 -11.5q-39 71 -49 170h-14q-39 -75 -120.5 -127.5t-199.5 -52.5q-54 0 -96.5 8t-84.5 32.5t-69 64.5t-44 108.5t-17 161.5 q0 288 10 485h-153q2 35 14 77.5t29 68.5q86 35 208 35q76 0 132 -17v-610q0 -115 40 -173.5t134 -58.5q59 0 118.5 33.5t96.5 79.5zM682 1468l-285 -364q-32 12 -69.5 38.5t-59.5 51.5l197 344q43 0 113 -22.5t104 -47.5zM1104 1468l-285 -364q-32 12 -69.5 38.5 t-59.5 51.5l197 344q43 0 113 -22.5t104 -47.5z" />
<glyph unicode="&#x172;" horiz-adv-x="1550" d="M479 1268v-723q0 -418 336 -418q175 0 261.5 115t86.5 305v719q-73 7 -133 18q-6 29 -7 77.5t5 74.5h473q6 -18 6 -58q0 -59 -10 -92q-59 -14 -135 -18v-709q0 -196 -74 -338.5t-221 -206.5q-121 -53 -176 -112.5t-55 -132.5q0 -58 34.5 -88.5t90.5 -30.5q27 0 59 8 q10 -23 19.5 -66.5t9.5 -68.5q-61 -23 -144 -23q-119 0 -204 62.5t-85 177.5q0 67 44 126.5t118 86.5v12q-278 0 -412.5 135t-134.5 428v738q-100 10 -145 20q-18 63 -18 150h575q6 -25 4.5 -74.5t-8.5 -75.5q-74 -15 -160 -18z" />
<glyph unicode="&#x173;" horiz-adv-x="1241" d="M1120 -293q11 -18 20 -60t9 -69q-58 -22 -139 -22q-110 0 -183 56.5t-73 166.5q0 56 36 104.5t107 79.5v12h-37q-39 71 -49 170h-14q-39 -75 -120.5 -127.5t-199.5 -52.5q-54 0 -96.5 8t-84.5 32.5t-69 64.5t-44 108.5t-17 161.5q0 288 10 485h-153q2 35 14 77.5t29 68.5 q86 35 208 35q76 0 132 -17v-610q0 -115 40 -173.5t134 -58.5q59 0 118.5 33.5t96.5 79.5v565h-146q4 83 43 146q75 35 207 35q75 0 131 -17v-686q0 -80 17 -147h151q2 -10 2 -31q0 -63 -24 -109l-17 -6q-198 -88 -198 -207q0 -55 30 -79.5t78 -24.5q27 0 51 8z" />
<glyph unicode="&#x174;" horiz-adv-x="2144" d="M682 199h18q15 168 54 319l233 936h250l223 -940q32 -142 45 -307h19q10 148 55 311l133 502q43 155 90 248q-84 4 -139 18q-21 73 -21 150h472q0 -30 -8 -79t-17 -77q-53 -11 -107 -14l-391 -1293h-227l-219 928q-39 173 -49 334h-19q-16 -195 -53 -340l-233 -922h-252 l-361 1293q-65 8 -106 20q-21 62 -29 150h561q0 -30 -9.5 -77.5t-21.5 -78.5q-60 -10 -157 -14q55 -109 88 -246l125 -504q44 -182 53 -317zM985 1872h246l289 -215q-10 -32 -40.5 -69t-60.5 -54l-317 158l-338 -168q-20 24 -33.5 68.5t-17.5 80.5z" />
<glyph unicode="&#x175;" horiz-adv-x="1640" d="M502 166h20q7 75 37 203l148 612l270 25l143 -637q16 -70 33 -203h18q13 93 43 205l74 274q24 95 60 172q-63 11 -105 31q-20 62 -20 137h403q0 -64 -27 -147q-52 -18 -88 -21l-243 -819l-262 -27l-142 592q-30 128 -37 240h-18q-10 -112 -43 -242l-143 -563l-267 -27 l-233 838q-53 15 -88 39q-20 64 -23 137h469q0 -73 -22 -141q-58 -20 -127 -27q41 -76 63 -164l72 -286q29 -115 35 -201zM735 1505l193 8l256 -288q-18 -29 -57.5 -60.5t-73.5 -40.5l-228 207l-239 -215q-26 18 -52.5 57t-37.5 72z" />
<glyph unicode="&#x176;" horiz-adv-x="1345" d="M696 707h21q12 79 59 163l148 279q32 63 82 119q-60 3 -121 18q-23 79 -23 150h469q0 -86 -22 -154q-35 -10 -101 -14l-417 -713v-383q118 -8 198 -22q7 -25 9 -76t-1 -74h-665q7 72 37 143q79 23 172 31v369l-385 723q-60 4 -107 20q-20 66 -24 150h569q0 -69 -25 -154 q-59 -12 -145 -16q49 -52 80 -119l139 -277q40 -83 53 -163zM575 1872h246l289 -215q-10 -32 -40.5 -69t-59.5 -54l-318 158l-338 -168q-20 24 -33.5 68.5t-17.5 80.5z" />
<glyph unicode="&#x177;" horiz-adv-x="1105" d="M582 166h18q17 90 49 196l84 279q31 106 68 176q-63 11 -107 31q-18 58 -18 137h414q0 -70 -27 -149q-44 -15 -90 -19l-117 -330q-144 -410 -238 -591q-72 -143 -184 -248t-246 -148q-31 29 -59.5 83.5t-32.5 99.5q126 35 223.5 110t145.5 170l-340 846q-46 11 -96 39 q-19 60 -23 137h500q0 -75 -25 -141q-55 -21 -133 -29q47 -69 78 -158l109 -297q31 -87 47 -194zM485 1505l193 8l256 -288q-18 -29 -57.5 -60.5t-73.5 -40.5l-228 207l-239 -215q-26 18 -52.5 57t-37.5 72z" />
<glyph unicode="&#x178;" horiz-adv-x="1345" d="M696 707h21q12 79 59 163l148 279q32 63 82 119q-60 3 -121 18q-23 79 -23 150h469q0 -86 -22 -154q-35 -10 -101 -14l-417 -713v-383q118 -8 198 -22q7 -25 9 -76t-1 -74h-665q7 72 37 143q79 23 172 31v369l-385 723q-60 4 -107 20q-20 66 -24 150h569q0 -69 -25 -154 q-59 -12 -145 -16q49 -52 80 -119l139 -277q40 -83 53 -163zM414 1837q67 0 107 -34.5t40 -98.5q0 -69 -40.5 -106t-106.5 -37q-148 0 -148 143q0 61 40.5 97t107.5 36zM993 1837q67 0 107.5 -34.5t40.5 -98.5q0 -69 -40.5 -106t-107.5 -37q-147 0 -147 143q0 61 40.5 97 t106.5 36z" />
<glyph unicode="&#x179;" horiz-adv-x="1261" d="M106 0v162l750 1089v21h-491q-3 -72 -31 -191q-88 -18 -191 -18v373h1008v-162l-739 -1086v-18h542q7 92 29 199q33 12 89 20t99 8v-397h-1065zM1102 1729l-545 -197q-12 30 -20.5 80.5t-8.5 85.5l447 215q35 -29 71.5 -82.5t55.5 -101.5z" />
<glyph unicode="&#x17a;" horiz-adv-x="980" d="M104 0l-26 113l518 708v19h-281q-9 -65 -41 -148q-39 0 -91.5 8t-78.5 21v264h764l29 -113l-518 -710v-19q189 0 332 19q19 86 45 145q54 15 114 15q38 0 66 -7l-37 -315h-795zM825 1464l-346 -356q-28 12 -65.5 43t-55.5 57l244 338q42 0 117 -26.5t106 -55.5z" />
<glyph unicode="&#x17b;" horiz-adv-x="1261" d="M106 0v162l750 1089v21h-491q-3 -72 -31 -191q-88 -18 -191 -18v373h1008v-162l-739 -1086v-18h542q7 92 29 199q33 12 89 20t99 8v-397h-1065zM664 1847q64 0 103.5 -34.5t39.5 -98.5q0 -71 -39.5 -109t-103.5 -38q-148 0 -148 147q0 61 40.5 97t107.5 36z" />
<glyph unicode="&#x17c;" horiz-adv-x="980" d="M104 0l-26 113l518 708v19h-281q-9 -65 -41 -148q-39 0 -91.5 8t-78.5 21v264h764l29 -113l-518 -710v-19q189 0 332 19q19 86 45 145q54 15 114 15q38 0 66 -7l-37 -315h-795zM516 1438q62 0 100.5 -35t38.5 -98q0 -70 -38.5 -108t-100.5 -38q-141 0 -141 146 q0 60 39 96.5t102 36.5z" />
<glyph unicode="&#x17d;" horiz-adv-x="1261" d="M106 0v162l750 1089v21h-491q-3 -72 -31 -191q-88 -18 -191 -18v373h1008v-162l-739 -1086v-18h542q7 92 29 199q33 12 89 20t99 8v-397h-1065zM774 1544h-254l-291 236q23 27 72.5 53.5t89.5 34.5l283 -152l260 142q32 -9 70.5 -35.5t56.5 -50.5z" />
<glyph unicode="&#x17e;" horiz-adv-x="980" d="M104 0l-26 113l518 708v19h-281q-9 -65 -41 -148q-39 0 -91.5 8t-78.5 21v264h764l29 -113l-518 -710v-19q189 0 332 19q19 86 45 145q54 15 114 15q38 0 66 -7l-37 -315h-795zM610 1128l-194 -8l-273 320q19 23 70.5 41.5t91.5 21.5l236 -203l225 209q32 -7 69.5 -27 t59.5 -40z" />
<glyph unicode="&#x192;" horiz-adv-x="1026" d="M893 401h-295l-27 -321q-9 -109 -47 -190.5t-96 -129t-127 -70t-147 -22.5q-123 0 -234 43q1 61 19 146.5t41 148.5q31 -4 82.5 -19t80.5 -28l-12 -133q18 -12 55 -12q58 0 99.5 58.5t52.5 178.5l33 350h-252q1 31 11.5 77t21.5 75h233l16 166q11 108 49 189t95.5 128.5 t125 70.5t144.5 23q126 0 227 -43q-14 -145 -65 -272q-34 1 -80 16t-72 31l15 111q-24 14 -58 14q-60 0 -102.5 -58.5t-52.5 -180.5l-17 -195h289q4 -29 2 -76t-8 -76z" />
<glyph unicode="&#x1fa;" horiz-adv-x="1599" d="M805 1892q126 0 199 -57t73 -164q0 -89 -47 -144.5t-133 -76.5l506 -1274q70 -8 121 -24q23 -82 26 -152h-569q7 72 37 145q50 16 141 29q-41 53 -78 148l-45 118h-536l-47 -129q-29 -86 -68 -145q79 -3 158 -21q9 -26 16.5 -71.5t7.5 -73.5h-530q9 72 41 145 q49 18 102 25l527 1278q-179 38 -179 219q0 106 73.5 165.5t203.5 59.5zM780 1200h-18q-13 -100 -68 -242l-137 -366h422l-139 371q-51 141 -60 237zM803 1769q-53 0 -85 -27.5t-32 -74.5q0 -51 30.5 -77.5t86.5 -26.5q52 0 83.5 26.5t31.5 77.5q0 50 -31.5 76t-83.5 26z M1102 2120l-545 -197q-12 30 -20.5 80.5t-8.5 85.5l447 215q35 -29 71.5 -82.5t55.5 -101.5z" />
<glyph unicode="&#x1fb;" horiz-adv-x="1071" d="M715 1890l-367 -303q-26 14 -50.5 42t-39.5 57l264 294q44 -7 104.5 -33t88.5 -57zM510 1571q106 0 170.5 -56.5t64.5 -156.5q0 -111 -63.5 -169.5t-171.5 -58.5q-124 0 -185 56t-61 172q0 96 67.5 154.5t178.5 58.5zM512 1462q-50 0 -79.5 -27t-29.5 -77q0 -62 27 -90.5 t82 -28.5q46 0 72 30t26 89q0 51 -26 77.5t-72 26.5zM674 117h-15q-87 -152 -292 -152q-58 0 -109.5 18t-93 52.5t-66 91t-24.5 127.5q0 157 113.5 243.5t285.5 86.5q103 0 178 -35v94q0 193 -186 193q-67 0 -162 -29t-153 -64q-9 24 -9 70q0 90 31 143q54 26 158 45t192 19 q184 0 271.5 -87.5t87.5 -287.5v-371q0 -88 26 -129q58 0 140 21q2 -10 2 -27q0 -54 -29 -114q-39 -23 -114 -41.5t-140 -18.5q-32 19 -57.5 61t-34.5 91zM655 225v209q-63 17 -129 17q-103 0 -160 -44.5t-57 -119.5q0 -74 45 -112t113 -38q59 0 109 24.5t79 63.5z" />
<glyph unicode="&#x1fc;" horiz-adv-x="2004" d="M1241 1278v-483h348q3 40 21 100q79 23 166 23v-398q-94 -8 -168 12q-16 61 -19 107h-348v-477h449q7 97 26 170q68 22 182 22v-354h-1081q4 77 31 145q72 22 143 29v303h-434l-92 -164q-44 -79 -98 -143q80 -7 153 -23q10 -27 17.5 -72.5t7.5 -74.5h-529q9 74 41 143 q44 20 101 27l637 1098q-110 8 -170 20q-6 28 -8 75t4 73h1257v-334q-96 0 -170 22q-22 84 -25 154h-442zM991 1257h-18q-28 -87 -74 -167l-256 -461h348v628zM1544 1729l-545 -197q-12 30 -20 80.5t-8 85.5l446 215q35 -29 71.5 -82.5t55.5 -101.5z" />
<glyph unicode="&#x1fd;" horiz-adv-x="1583" d="M651 549v94q0 193 -186 193q-67 0 -162 -29t-153 -64q-9 24 -9 70q0 90 31 143q52 26 156.5 45t191.5 19q122 0 187.5 -36.5t95.5 -104.5h12q38 61 119.5 101t189.5 40q189 0 278 -119.5t89 -337.5q0 -55 -6 -114h-608q9 -142 89.5 -220.5t233.5 -78.5q61 0 146.5 17 t136.5 38q3 -34 -8 -82t-31 -76q-64 -34 -152.5 -58t-181.5 -24q-132 0 -228 53t-137 140h-14q-37 -78 -126.5 -135.5t-217.5 -57.5q-136 0 -224.5 74.5t-88.5 214.5q0 104 55.5 180t144.5 113t199 37q103 0 178 -35zM688 246q-37 84 -43 190q-62 15 -121 15 q-101 0 -158 -46t-57 -120q0 -69 43.5 -108.5t118.5 -39.5q130 0 217 109zM872 600h385q3 38 2 76.5t-13 74t-30.5 63t-51 44t-74.5 16.5q-93 0 -151.5 -75t-66.5 -199zM1079 1464l-346 -356q-28 12 -65.5 43t-55.5 57l244 338q42 0 117 -26.5t106 -55.5z" />
<glyph unicode="&#x1fe;" horiz-adv-x="1593" d="M1204 1354l158 178q37 -9 93 -40t81 -56l-197 -222q129 -183 129 -477q0 -367 -180.5 -572.5t-488.5 -205.5q-278 0 -447 143l-209 -233q-28 22 -69 70t-54 77l209 238q-106 186 -106 483q0 168 51.5 308t142 234t214.5 146t268 52q242 0 405 -123zM1157 1028l-659 -739 q109 -162 301 -162q202 0 305.5 160t103.5 450q0 161 -51 291zM426 453l645 725q-111 133 -272 133q-200 0 -307 -153t-107 -419q0 -173 41 -286zM1208 1729l-544 -197q-12 30 -20.5 80.5t-8.5 85.5l446 215q35 -29 71.5 -82.5t55.5 -101.5z" />
<glyph unicode="&#x1ff;" horiz-adv-x="1173" d="M592 1020q150 0 260 -64l111 144q30 -14 68 -41.5t56 -50.5l-116 -150q108 -133 108 -350q0 -256 -131.5 -399.5t-355.5 -143.5q-158 0 -270 64l-136 -174q-22 18 -50 57t-42 70l113 145q-107 138 -107 381q0 233 138.5 372.5t353.5 139.5zM844 508q0 88 -29 170 l-383 -490q64 -67 160 -67q124 0 188 102.5t64 284.5zM336 508q0 -115 29 -195l376 490q-63 63 -149 63q-121 0 -188.5 -97t-67.5 -261zM885 1464l-346 -356q-28 12 -65.5 43t-55.5 57l244 338q42 0 117 -26.5t106 -55.5z" />
<glyph unicode="&#x218;" horiz-adv-x="1185" d="M827 1112v168q-71 39 -172 39q-113 0 -180 -51t-67 -129q0 -68 38 -119.5t98.5 -86t133.5 -66t146 -69.5t133.5 -86t98.5 -126.5t38 -179.5q0 -99 -29.5 -176.5t-79.5 -128t-121.5 -83t-149.5 -46t-169 -13.5q-245 0 -439 78q0 192 29 373q40 0 102 -8.5t99 -20.5v-209 q116 -53 244 -53q131 0 200.5 59.5t69.5 169.5q0 56 -23.5 100t-63.5 74.5t-92 56.5t-109 50t-114 50.5t-109 63.5t-92 83t-63.5 114.5t-23.5 153.5q0 174 130.5 278.5t354.5 104.5q95 0 206 -19t198 -51q0 -71 -10 -169.5t-25 -164.5q-42 0 -97.5 11t-89.5 28zM526 -270 l-92 20q7 34 29 79.5t43 70.5q54 8 94 8q95 0 168 -27q-18 -108 -81 -260.5t-120 -238.5q-31 6 -71.5 23.5t-55.5 31.5q63 159 86 293z" />
<glyph unicode="&#x219;" horiz-adv-x="915" d="M606 754v106q-52 23 -106 23q-68 0 -105 -28t-37 -79q0 -44 26.5 -76.5t69 -53.5t93.5 -40.5t102 -45.5t93.5 -59.5t69 -90t26.5 -131.5q0 -83 -32 -145t-88 -98t-124.5 -53.5t-149.5 -17.5q-199 0 -340 78q-10 45 -10 104q0 93 21 158q112 0 188 -24v-127 q65 -41 156 -41q68 0 107.5 33t39.5 92q0 44 -26.5 76t-69.5 52.5t-94.5 39.5t-103.5 44.5t-95 60t-69.5 93t-26.5 135.5q0 126 101 203.5t270 77.5q171 0 315 -62q4 -32 4 -67q0 -86 -23 -176q-109 0 -182 39zM399 -274l-92 18q9 36 29.5 78t40.5 65q46 11 92 11 q82 0 158 -27q-18 -100 -76.5 -246t-108.5 -225q-29 6 -64.5 23t-51.5 32q53 141 73 271z" />
<glyph unicode="&#x21b;" horiz-adv-x="761" d="M174 1014l35 227q30 17 87.5 29t102.5 12v-297h291q17 -89 8 -158h-299v-512q0 -93 29 -131.5t102 -38.5q77 0 191 27q2 -10 2 -31q0 -58 -33 -116q-123 -60 -266 -60q-134 0 -199 75t-65 241q0 286 14 546h-147q0 29 9 75t21 71q58 28 117 41zM346 -274l-92 18 q9 36 29.5 78t40.5 65q46 11 92 11q81 0 157 -27q-18 -100 -76 -246t-108 -225q-29 6 -65 23.5t-52 31.5q54 146 74 271z" />
<glyph unicode="&#x2c6;" horiz-adv-x="911" d="M356 1505l193 8l256 -288q-18 -29 -57.5 -60.5t-73.5 -40.5l-228 207l-239 -215q-26 18 -52.5 57t-37.5 72z" />
<glyph unicode="&#x2c7;" horiz-adv-x="944" d="M575 1128l-194 -8l-272 320q19 23 70 41.5t91 21.5l236 -203l225 209q32 -7 69.5 -27t59.5 -40z" />
<glyph unicode="&#x2d8;" horiz-adv-x="915" d="M270 1487q20 -95 66 -141t121 -46q148 0 194 181q82 -3 146 -41q-19 -144 -107.5 -229t-232.5 -85q-287 0 -336 297q50 50 149 64z" />
<glyph unicode="&#x2d9;" horiz-adv-x="739" d="M371 1438q62 0 100.5 -35t38.5 -98q0 -70 -38.5 -108t-100.5 -38q-142 0 -142 146q0 60 39.5 96.5t102.5 36.5z" />
<glyph unicode="&#x2da;" horiz-adv-x="804" d="M408 1571q106 0 170.5 -56.5t64.5 -156.5q0 -111 -63.5 -169.5t-171.5 -58.5q-124 0 -185 56t-61 172q0 96 67.5 154.5t178.5 58.5zM410 1462q-50 0 -79.5 -27t-29.5 -77q0 -62 27 -90.5t82 -28.5q46 0 72 30t26 89q0 51 -26 77.5t-72 26.5z" />
<glyph unicode="&#x2db;" horiz-adv-x="802" d="M539 -293q11 -17 19.5 -59t8.5 -70q-58 -22 -139 -22q-110 0 -183 56.5t-73 166.5q0 65 55 130t160 99q97 10 207 10q-215 -95 -215 -215q0 -55 30 -79.5t78 -24.5q28 0 52 8z" />
<glyph unicode="&#x2dc;" horiz-adv-x="927" d="M713 1432q72 0 121 -25q-2 -62 -26.5 -116t-80 -92t-133.5 -38q-48 0 -97.5 22.5t-95.5 45t-86 22.5q-39 0 -64.5 -23t-33.5 -57q-32 1 -64.5 18.5t-52.5 43.5q15 92 74.5 149.5t163.5 57.5q56 0 104.5 -21.5t90.5 -43t83 -21.5q38 0 63.5 22t33.5 56z" />
<glyph unicode="&#x2dd;" horiz-adv-x="989" d="M508 1468l-285 -364q-32 12 -69.5 38.5t-59.5 51.5l197 344q43 0 113 -22.5t104 -47.5zM930 1468l-285 -364q-32 12 -69.5 38.5t-59.5 51.5l197 344q43 0 113 -22.5t104 -47.5z" />
<glyph unicode="&#x313;" horiz-adv-x="2" d="M-221 1323l-90 18q9 35 29 76.5t40 65.5q50 8 90 8q78 0 154 -27q-18 -102 -76.5 -248.5t-109.5 -228.5q-30 7 -64 24t-51 31q24 60 46.5 141t31.5 140z" />
<glyph unicode="&#x326;" horiz-adv-x="2" d="M-225 -274l-92 18q9 36 29 78t40 65q46 11 92 11q82 0 158 -27q-18 -100 -76 -246t-108 -225q-29 6 -65 23.5t-52 31.5q54 146 74 271z" />
<glyph unicode="&#x3a9;" horiz-adv-x="1767" d="M989 0v152q128 89 209.5 239.5t81.5 362.5q0 108 -23.5 205.5t-70 179t-126.5 130t-183 48.5q-80 0 -146.5 -30t-112 -81.5t-77 -121.5t-46 -149t-14.5 -165q0 -211 80.5 -372.5t208.5 -245.5v-152h-694v322q103 0 176 -17q20 -67 24 -137h256v18q-136 82 -221.5 229 t-85.5 361q0 157 49 288t135 220.5t207 139t263 49.5q194 0 344 -88t231.5 -244.5t81.5 -356.5q0 -113 -27.5 -212t-74 -172t-97 -124.5t-108.5 -89.5v-18h264q8 83 20 141q82 19 181 19v-328h-705z" />
<glyph unicode="&#x3c0;" horiz-adv-x="1298" d="M86 850q155 151 516 151q343 0 637 -16q14 -58 14 -129q0 -46 -6 -80q-184 11 -217 12q-10 -102 -10 -264q0 -208 16 -287t68 -79q51 0 94 24q3 -39 -9.5 -98t-29.5 -90q-56 -29 -125 -29q-47 0 -82.5 16.5t-60 49.5t-40.5 75.5t-24.5 103t-12 122.5t-3.5 143 q0 159 14 320q-71 8 -182 8q-69 0 -100 -2q6 -123 6 -135v-76q-4 -405 -70 -637q-144 12 -227 74q88 282 88 616q0 79 -6 141q-69 -9 -138.5 -45.5t-113.5 -81.5q-12 34 -12 86q4 73 16 107z" />
<glyph unicode="&#x1e80;" horiz-adv-x="2144" d="M682 199h18q15 168 54 319l233 936h250l223 -940q32 -142 45 -307h19q10 148 55 311l133 502q43 155 90 248q-84 4 -139 18q-21 73 -21 150h472q0 -30 -8 -79t-17 -77q-53 -11 -107 -14l-391 -1293h-227l-219 928q-39 173 -49 334h-19q-16 -195 -53 -340l-233 -922h-252 l-361 1293q-65 8 -106 20q-21 62 -29 150h561q0 -30 -9.5 -77.5t-21.5 -78.5q-60 -10 -157 -14q55 -109 88 -246l125 -504q44 -182 53 -317zM1194 1538l-541 207q26 41 85 91t102 69l417 -211q-7 -36 -25.5 -84.5t-37.5 -71.5z" />
<glyph unicode="&#x1e81;" horiz-adv-x="1640" d="M502 166h20q7 75 37 203l148 612l270 25l143 -637q16 -70 33 -203h18q13 93 43 205l74 274q24 95 60 172q-63 11 -105 31q-20 62 -20 137h403q0 -64 -27 -147q-52 -18 -88 -21l-243 -819l-262 -27l-142 592q-30 128 -37 240h-18q-10 -112 -43 -242l-143 -563l-267 -27 l-233 838q-53 15 -88 39q-20 64 -23 137h469q0 -73 -22 -141q-58 -20 -127 -27q41 -76 63 -164l72 -286q29 -115 35 -201zM852 1135l-330 338q33 24 108.5 41.5t135.5 17.5l254 -352q-27 -15 -81 -30t-87 -15z" />
<glyph unicode="&#x1e82;" horiz-adv-x="2144" d="M682 199h18q15 168 54 319l233 936h250l223 -940q32 -142 45 -307h19q10 148 55 311l133 502q43 155 90 248q-84 4 -139 18q-21 73 -21 150h472q0 -30 -8 -79t-17 -77q-53 -11 -107 -14l-391 -1293h-227l-219 928q-39 173 -49 334h-19q-16 -195 -53 -340l-233 -922h-252 l-361 1293q-65 8 -106 20q-21 62 -29 150h561q0 -30 -9.5 -77.5t-21.5 -78.5q-60 -10 -157 -14q55 -109 88 -246l125 -504q44 -182 53 -317zM1522 1729l-545 -197q-12 30 -20.5 80.5t-8.5 85.5l447 215q35 -29 71.5 -82.5t55.5 -101.5z" />
<glyph unicode="&#x1e83;" horiz-adv-x="1640" d="M502 166h20q7 75 37 203l148 612l270 25l143 -637q16 -70 33 -203h18q13 93 43 205l74 274q24 95 60 172q-63 11 -105 31q-20 62 -20 137h403q0 -64 -27 -147q-52 -18 -88 -21l-243 -819l-262 -27l-142 592q-30 128 -37 240h-18q-10 -112 -43 -242l-143 -563l-267 -27 l-233 838q-53 15 -88 39q-20 64 -23 137h469q0 -73 -22 -141q-58 -20 -127 -27q41 -76 63 -164l72 -286q29 -115 35 -201zM1122 1464l-346 -356q-28 12 -65.5 43t-55.5 57l244 338q42 0 117 -26.5t106 -55.5z" />
<glyph unicode="&#x1e84;" horiz-adv-x="2144" d="M764 1837q67 0 107 -34.5t40 -98.5q0 -69 -40.5 -106t-106.5 -37q-148 0 -148 143q0 61 40.5 97t107.5 36zM1454 1837q67 0 107.5 -34.5t40.5 -98.5q0 -69 -40.5 -106t-107.5 -37q-147 0 -147 143q0 61 40.5 97t106.5 36zM682 199h18q15 168 54 319l233 936h250l223 -940 q32 -142 45 -307h19q10 148 55 311l133 502q43 155 90 248q-84 4 -139 18q-21 73 -21 150h472q0 -30 -8 -79t-17 -77q-53 -11 -107 -14l-391 -1293h-227l-219 928q-39 173 -49 334h-19q-16 -195 -53 -340l-233 -922h-252l-361 1293q-65 8 -106 20q-21 62 -29 150h561 q0 -30 -9.5 -77.5t-21.5 -78.5q-60 -10 -157 -14q55 -109 88 -246l125 -504q44 -182 53 -317z" />
<glyph unicode="&#x1e85;" horiz-adv-x="1640" d="M543 1430q60 0 96.5 -33.5t36.5 -93.5q0 -66 -36.5 -103t-96.5 -37q-135 0 -135 140q0 58 37 92.5t98 34.5zM1116 1430q60 0 96.5 -33.5t36.5 -93.5q0 -66 -36.5 -103t-96.5 -37q-135 0 -135 140q0 58 37 92.5t98 34.5zM502 166h20q7 75 37 203l148 612l270 25l143 -637 q16 -70 33 -203h18q13 93 43 205l74 274q24 95 60 172q-63 11 -105 31q-20 62 -20 137h403q0 -64 -27 -147q-52 -18 -88 -21l-243 -819l-262 -27l-142 592q-30 128 -37 240h-18q-10 -112 -43 -242l-143 -563l-267 -27l-233 838q-53 15 -88 39q-20 64 -23 137h469 q0 -73 -22 -141q-58 -20 -127 -27q41 -76 63 -164l72 -286q29 -115 35 -201z" />
<glyph unicode="&#x1ef2;" horiz-adv-x="1345" d="M696 707h21q12 79 59 163l148 279q32 63 82 119q-60 3 -121 18q-23 79 -23 150h469q0 -86 -22 -154q-35 -10 -101 -14l-417 -713v-383q118 -8 198 -22q7 -25 9 -76t-1 -74h-665q7 72 37 143q79 23 172 31v369l-385 723q-60 4 -107 20q-20 66 -24 150h569q0 -69 -25 -154 q-59 -12 -145 -16q49 -52 80 -119l139 -277q40 -83 53 -163zM768 1538l-541 207q26 41 85 91t102 69l417 -211q-7 -36 -25.5 -84.5t-37.5 -71.5z" />
<glyph unicode="&#x1ef3;" horiz-adv-x="1105" d="M582 166h18q17 90 49 196l84 279q31 106 68 176q-63 11 -107 31q-18 58 -18 137h414q0 -70 -27 -149q-44 -15 -90 -19l-117 -330q-144 -410 -238 -591q-72 -143 -184 -248t-246 -148q-31 29 -59.5 83.5t-32.5 99.5q126 35 223.5 110t145.5 170l-340 846q-46 11 -96 39 q-19 60 -23 137h500q0 -75 -25 -141q-55 -21 -133 -29q47 -69 78 -158l109 -297q31 -87 47 -194zM618 1135l-329 338q33 24 108 41.5t135 17.5l254 -352q-27 -15 -81 -30t-87 -15z" />
<glyph unicode="&#x2000;" horiz-adv-x="1152" />
<glyph unicode="&#x2001;" horiz-adv-x="2304" />
<glyph unicode="&#x2002;" horiz-adv-x="1152" />
<glyph unicode="&#x2003;" horiz-adv-x="2304" />
<glyph unicode="&#x2004;" horiz-adv-x="768" />
<glyph unicode="&#x2005;" horiz-adv-x="576" />
<glyph unicode="&#x2006;" horiz-adv-x="384" />
<glyph unicode="&#x2007;" horiz-adv-x="384" />
<glyph unicode="&#x2008;" horiz-adv-x="288" />
<glyph unicode="&#x2009;" horiz-adv-x="460" />
<glyph unicode="&#x200a;" horiz-adv-x="128" />
<glyph unicode="&#x2010;" horiz-adv-x="770" d="M637 463h-537q0 42 8.5 99.5t20.5 92.5h498q14 -61 14 -129q0 -35 -4 -63z" />
<glyph unicode="&#x2011;" horiz-adv-x="770" d="M637 463h-537q0 42 8.5 99.5t20.5 92.5h498q14 -61 14 -129q0 -35 -4 -63z" />
<glyph unicode="&#x2012;" horiz-adv-x="770" d="M637 463h-537q0 42 8.5 99.5t20.5 92.5h498q14 -61 14 -129q0 -35 -4 -63z" />
<glyph unicode="&#x2013;" horiz-adv-x="1021" d="M948 473h-876q0 94 24 180h846q12 -50 12 -112q0 -41 -6 -68z" />
<glyph unicode="&#x2014;" horiz-adv-x="2045" d="M1942 473h-1850q0 90 25 180h1818q13 -54 13 -112q0 -41 -6 -68z" />
<glyph unicode="&#x2018;" horiz-adv-x="571" d="M459 1466q-38 -91 -77.5 -208t-53.5 -187l102 -24q-8 -33 -36 -84.5t-54 -77.5q-61 6 -132 27t-112 46q33 128 89.5 259t117.5 227q55 22 156 22z" />
<glyph unicode="&#x2019;" horiz-adv-x="569" d="M236 1282l-101 25q11 42 34 89t46 72q53 11 94 11q101 0 174 -27q-23 -129 -91.5 -299t-129.5 -270q-33 9 -67.5 27.5t-49.5 35.5q73 213 91 336z" />
<glyph unicode="&#x201a;" horiz-adv-x="571" d="M215 33l-100 24q12 42 34.5 89.5t45.5 72.5q36 10 98 10q103 0 176 -24q-23 -128 -93.5 -304.5t-131.5 -275.5q-32 8 -68 27.5t-55 36.5q73 202 94 344z" />
<glyph unicode="&#x201b;" horiz-adv-x="569" d="M465 1305l-100 -25q29 -182 88 -350q-22 -13 -65 -29t-73 -20q-54 101 -113.5 266.5t-86.5 298.5q95 27 182 27q47 0 88 -9q47 -53 80 -159z" />
<glyph unicode="&#x201c;" horiz-adv-x="985" d="M453 1466q-39 -93 -77.5 -209.5t-51.5 -185.5l100 -24q-8 -33 -36 -84.5t-54 -77.5q-60 6 -128.5 27t-109.5 46q33 128 89.5 259t117.5 227q55 22 150 22zM874 1466q-38 -91 -77.5 -208t-53.5 -187l103 -24q-8 -33 -37 -84.5t-55 -77.5q-59 6 -128 27t-110 46 q32 126 89 256.5t118 229.5q55 22 151 22z" />
<glyph unicode="&#x201d;" horiz-adv-x="976" d="M236 1282l-101 25q11 42 34 89t46 72q53 11 92 11q99 0 170 -27q-23 -129 -91 -300t-128 -269q-32 9 -65 27.5t-48 35.5q70 194 91 336zM649 1282l-100 25q11 42 34 89t46 72q53 11 92 11q97 0 170 -27q-24 -130 -92 -301t-129 -268q-71 21 -113 63q72 198 92 336z" />
<glyph unicode="&#x201e;" horiz-adv-x="985" d="M213 33l-98 24q31 112 78 162q36 10 92 10q103 0 176 -24q-23 -128 -93.5 -304.5t-131.5 -275.5q-64 18 -117 64q73 202 94 344zM635 33l-98 24q31 113 77 162q36 10 93 10q103 0 176 -24q-23 -128 -94 -304t-132 -276q-30 8 -64 28t-50 36q73 212 92 344z" />
<glyph unicode="&#x2020;" horiz-adv-x="1024" d="M946 827h-325l-29 -1175q-36 -8 -80 -8q-42 0 -82 8l-31 1175h-309q0 83 25 160h280l-10 428q73 23 182 23q26 0 66 -4l-10 -447h317q10 -45 10 -98q0 -38 -4 -62z" />
<glyph unicode="&#x2021;" horiz-adv-x="1024" d="M948 227h-342l-12 -573q-24 -8 -80 -8q-55 0 -82 8l-16 573h-322q0 87 25 160h295l-15 440h-309q0 83 25 160h280l-10 426q73 23 180 23q45 0 68 -4l-10 -445h313q10 -38 10 -98q0 -38 -4 -62h-321l-9 -440h330q10 -45 10 -98q0 -38 -4 -62z" />
<glyph unicode="&#x2022;" horiz-adv-x="1220" d="M608 815q141 0 230.5 -83t89.5 -226q0 -156 -89 -245t-231 -89q-156 0 -237.5 85.5t-81.5 248.5q0 138 89 223.5t230 85.5z" />
<glyph unicode="&#x2026;" horiz-adv-x="1886" d="M315 295q71 0 114.5 -41t43.5 -113q0 -80 -43.5 -123t-114.5 -43q-159 0 -159 166q0 69 44 111.5t115 42.5zM932 295q71 0 114.5 -41t43.5 -113q0 -80 -43.5 -123t-114.5 -43q-160 0 -160 166q0 69 44.5 111.5t115.5 42.5zM1546 295q71 0 114.5 -41t43.5 -113 q0 -80 -43.5 -123t-114.5 -43q-160 0 -160 166q0 69 44.5 111.5t115.5 42.5z" />
<glyph unicode="&#x202f;" horiz-adv-x="460" />
<glyph unicode="&#x2030;" horiz-adv-x="2766" d="M410 1126q163 0 255.5 -82.5t92.5 -236.5q0 -162 -92.5 -249t-255.5 -87q-170 0 -259.5 84.5t-89.5 251.5q0 146 97 232.5t252 86.5zM266 807q0 -94 38.5 -147.5t105.5 -53.5q141 0 141 201q0 82 -37 133t-104 51q-68 0 -106 -49t-38 -135zM1440 1106l-787 -1178 q-36 7 -86 33t-71 47l759 1139q38 -1 93 -13.5t92 -27.5zM1503 618q163 0 255.5 -82.5t92.5 -236.5q0 -162 -92.5 -249t-255.5 -87q-170 0 -259 84.5t-89 251.5q0 146 97 232.5t251 86.5zM1360 299q0 -94 38 -147.5t105 -53.5q71 0 106.5 52t35.5 149q0 82 -37.5 133 t-104.5 51q-68 0 -105.5 -49t-37.5 -135zM2355 618q163 0 255.5 -82.5t92.5 -236.5q0 -162 -92.5 -249t-255.5 -87q-170 0 -259 84.5t-89 251.5q0 146 97 232.5t251 86.5zM2212 299q0 -94 38 -147.5t105 -53.5q71 0 106.5 52t35.5 149q0 82 -37.5 133t-104.5 51 q-68 0 -105.5 -49t-37.5 -135z" />
<glyph unicode="&#x2039;" horiz-adv-x="786" d="M418 520q70 -192 178 -401q-36 -15 -97.5 -28t-103.5 -13q-151 240 -241 442q76 177 213 398q126 36 243 36q-114 -226 -192 -434z" />
<glyph unicode="&#x203a;" horiz-adv-x="786" d="M195 131q113 228 174 389q-81 211 -174 393q92 43 198 43q165 -266 238 -436q-80 -179 -244 -446q-44 3 -100 20t-92 37z" />
<glyph unicode="&#x203e;" horiz-adv-x="1024" d="M-4 1491h1032q10 -44 10 -100q0 -35 -6 -62h-1061q0 85 25 162z" />
<glyph unicode="&#x2044;" horiz-adv-x="307" d="M745 1411l-1024 -1477q-39 7 -85 32t-70 50l999 1436q100 -4 180 -41z" />
<glyph unicode="&#x205f;" horiz-adv-x="576" />
<glyph unicode="&#x2074;" horiz-adv-x="788" d="M625 969v-189q-16 -8 -88 -8q-73 0 -97 8v189h-385v114l338 486h232v-459h110q8 -52 8 -141h-118zM440 1110v172q0 62 9 121h-13l-194 -285v-12q27 4 90 4h108z" />
<glyph unicode="&#x20ac;" horiz-adv-x="1198" d="M879 575h-832q0 67 19 130h133q52 195 208.5 310t380.5 115q194 0 347 -86q6 -38 6 -79q0 -93 -31 -181q-46 0 -105.5 12.5t-95.5 30.5v119q-65 27 -137 27q-121 0 -205 -67.5t-114 -200.5h421q5 -19 7 -60.5t-2 -69.5zM68 457h809q5 -19 6.5 -60t-2.5 -69h-404 q81 -189 314 -189q74 0 167.5 16.5t163.5 43.5q3 -31 -9 -79t-28 -77q-179 -84 -362 -84q-189 0 -327 100.5t-191 268.5h-156q0 66 19 129z" />
<glyph unicode="&#x2113;" horiz-adv-x="1017" d="M225 575v408q0 107 30.5 193t82 139.5t115 81.5t133.5 28q123 0 203.5 -81t80.5 -232q0 -317 -417 -627v-141q0 -110 37.5 -163.5t103.5 -53.5q117 0 221 127q27 -13 62.5 -40.5t54.5 -49.5q-72 -112 -161.5 -158.5t-199.5 -46.5q-169 0 -257.5 104t-88.5 308 q-66 -45 -98 -62q-16 34 -25.5 89.5t-9.5 95.5q86 48 133 81zM453 717q200 183 200 381q0 83 -23.5 124.5t-62.5 41.5q-114 0 -114 -312v-235z" />
<glyph unicode="&#x2122;" horiz-adv-x="2045" d="M547 1335v-391q79 -4 121 -16q4 -17 5.5 -48.5t-1.5 -48.5h-410q4 51 25 95q32 9 98 18v391h-125q-5 -72 -18 -114q-44 -19 -119 -19v234h692v-232q-75 0 -119 8q-13 39 -22 123h-127zM1202 831h-299q0 38 19 97q14 4 82 16v377q-91 13 -93 14q-9 53 -2 101h330l125 -361 q29 -81 37 -143h14q14 78 37 143l131 361h313q8 -43 -2 -103q-72 -10 -92 -10v-381q65 -4 105 -14q6 -27 6 -58q0 -29 -2 -39h-346q3 44 20 97q26 9 74 14v389h-14q-8 -69 -54 -186l-123 -324h-168l-118 332q-38 103 -49 178h-15v-391q53 -4 82 -14q11 -41 2 -95z" />
<glyph unicode="&#x212e;" horiz-adv-x="1800" d="M1712 666h-1296q-10 0 -10 -9v-391q0 -26 18 -47q93 -100 220 -156.5t271 -56.5q153 0 286 63.5t229 176.5h116q-110 -131 -276 -206t-357 -75q-163 0 -312 57t-256 153.5t-170.5 229.5t-63.5 279q0 148 63.5 282.5t170.5 232t255.5 155t312.5 57.5q162 0 310 -57.5 t255 -155t170.5 -232t63.5 -282.5v-18zM1419 721v391q0 30 -22 49q-93 96 -218 150.5t-264 54.5q-142 0 -268.5 -56.5t-220.5 -156.5q-20 -14 -20 -49v-383q0 -10 10 -10h995q8 0 8 10z" />
<glyph unicode="&#x2153;" horiz-adv-x="1896" d="M1561 1411l-1024 -1477q-39 7 -85.5 32t-70.5 50l999 1436q101 -4 181 -41zM483 1399v-672q91 -4 148 -16q10 -38 10 -84q0 -23 -2 -35h-512q3 54 29 117q61 17 131 20v510l-183 -18q4 77 27 133q171 37 352 45zM1464 664q-50 0 -117 -13t-118 -35q-8 85 20 154 q93 37 226 37q127 0 212 -50.5t85 -148.5q0 -73 -42.5 -120.5t-115.5 -61.5v-14q76 -10 126 -58.5t50 -128.5q0 -122 -97 -180.5t-257 -58.5q-132 0 -211 26q-27 59 -27 123q0 29 2 43q49 -22 121 -36.5t127 -14.5q61 0 99 24t38 74q0 62 -63.5 85.5t-225.5 23.5 q-11 72 13 141q135 0 198.5 25t63.5 84q0 80 -107 80z" />
<glyph unicode="&#x2154;" horiz-adv-x="1896" d="M1618 1411l-1024 -1477q-39 7 -85.5 32t-70.5 50l1000 1436q100 -4 180 -41zM102 592v137q33 31 114 97t137 114t103.5 114t47.5 120q0 92 -107 92q-69 0 -125 -27v-96q-64 -23 -155 -23q-17 100 -17 211q152 68 310 68q301 0 301 -213q0 -37 -16.5 -77.5t-40.5 -74.5 t-63 -72.5t-70.5 -65.5t-77.5 -60.5t-70 -50t-62 -40.5v-12q237 4 426 17q0 -90 -14 -158h-621zM1501 664q-50 0 -117 -13t-118 -35q-8 85 20 154q93 37 225 37q127 0 212 -50.5t85 -148.5q0 -73 -42 -120.5t-115 -61.5v-14q76 -10 126 -58.5t50 -128.5q0 -122 -97 -180.5 t-257 -58.5q-132 0 -211 26q-27 59 -27 123q0 29 2 43q49 -22 121 -36.5t127 -14.5q61 0 99 24t38 74q0 62 -63.5 85.5t-225.5 23.5q-11 72 13 141q135 0 198.5 25t63.5 84q0 80 -107 80z" />
<glyph unicode="&#x2202;" horiz-adv-x="1163" d="M844 623q-109 112 -244 112q-83 0 -143 -49t-87.5 -125t-27.5 -168q0 -120 56 -191t155 -71q87 0 151.5 72.5t97 180t42.5 239.5zM831 784h21q-6 125 -30.5 223t-61.5 161t-87.5 104.5t-104 58.5t-115.5 17q-129 0 -260 -60q-7 45 2.5 106t29.5 101q47 17 118 28t130 11 q93 0 179 -28.5t163 -91.5t134 -155t90.5 -227t33.5 -299q0 -161 -32 -298.5t-94.5 -243.5t-162 -166t-225.5 -60q-200 0 -325 119t-125 315q0 136 53 252t158.5 189t242.5 73q100 0 170 -37t98 -92z" />
<glyph unicode="&#x2206;" horiz-adv-x="1382" d="M602 1456h203l526 -1321v-135h-1276v113zM297 160h750l-289 745q-24 64 -47 152t-29 143h-18q-6 -59 -28 -145.5t-48 -151.5z" />
<glyph unicode="&#x220f;" horiz-adv-x="1626" d="M1384 1266v-1438q98 -7 168 -23q11 -46 11 -96q0 -29 -4 -53h-578q3 70 29 145q66 21 137 29v1446h-668v-1448q89 -7 158 -23q7 -26 10 -75t-2 -74h-582q3 64 31 145q71 21 148 29v1434q-100 9 -142 18q-6 26 -7.5 77.5t3.5 76.5h1448q5 -25 3.5 -75.5t-7.5 -76.5 q-48 -13 -156 -18z" />
<glyph unicode="&#x2211;" horiz-adv-x="1292" d="M59 -344v147l568 725l-543 762v146h1122v-351q-94 0 -174 23q-18 79 -26 168h-644v-19q42 -31 94.5 -87t88.5 -109l340 -488l-375 -489q-110 -148 -207 -211v-18h713q7 106 26 182q30 9 88 15.5t99 6.5v-403h-1170z" />
<glyph unicode="&#x2212;" d="M133 641h916q12 -52 12 -115q0 -40 -6 -67h-949q0 81 27 182z" />
<glyph unicode="&#x221a;" horiz-adv-x="1161" d="M49 823l281 70l170 -520q41 -118 53 -287h20q14 148 60 293l381 1249q36 0 98 -13.5t100 -27.5l-528 -1691l-248 -31l-276 799l-133 -33q0 102 22 192z" />
<glyph unicode="&#x221e;" horiz-adv-x="1800" d="M879 406q-212 -226 -439 -226q-166 0 -262 102.5t-96 256.5q0 76 25.5 144t73.5 121t123.5 84.5t168.5 31.5q125 0 233 -56.5t222 -167.5q208 222 438 222q159 0 255.5 -101.5t96.5 -249.5q0 -162 -112 -275.5t-287 -113.5q-226 0 -440 228zM766 528q-91 101 -166 149 t-145 48q-73 0 -120.5 -48t-47.5 -122q0 -80 55 -135t139 -55q74 0 148 45t137 118zM1040 575q85 -98 156 -149t150 -51q77 0 123.5 48.5t46.5 121.5q0 83 -56 135.5t-137 52.5q-70 0 -144 -43t-139 -115z" />
<glyph unicode="&#x222b;" horiz-adv-x="704" d="M707 1645q26 -80 26 -185q-27 25 -69.5 38t-79.5 13q-44 0 -73 -21.5t-43.5 -65.5t-20 -94.5t-5.5 -123.5q0 -148 25 -546t25 -551q0 -100 -17.5 -182t-55.5 -150t-106 -106t-161 -38q-97 0 -170 37q0 32 15 89.5t34 95.5q58 -37 121 -37q37 0 60 18t34.5 58t15.5 87.5 t4 122.5q0 157 -25.5 553.5t-25.5 548.5q0 98 20.5 182t61 150t107 103.5t153.5 37.5q104 0 150 -34z" />
<glyph unicode="&#x2248;" d="M965 461q24 -20 51.5 -58t38.5 -65q-110 -131 -281 -131q-63 0 -121 16.5t-95 35.5t-89 35.5t-104 16.5q-55 0 -109.5 -24t-89.5 -58q-38 62 -49 150q117 113 262 113q61 0 120 -16.5t98 -36t90.5 -36t100.5 -16.5q90 0 177 74zM965 862q24 -20 51.5 -58t38.5 -65 q-110 -131 -281 -131q-63 0 -121 16.5t-95 36t-89 36t-104 16.5q-55 0 -109.5 -24t-89.5 -58q-38 62 -49 149q117 113 262 113q61 0 120 -16.5t98 -36t90.5 -36t100.5 -16.5q90 0 177 74z" />
<glyph unicode="&#x2260;" d="M1022 270h-537l-110 -184q-24 6 -63 28t-56 40l70 116h-201q0 80 27 172h272l131 213h-430q0 87 25 172h501l94 152q79 0 142 -29l-76 -123h205q12 -49 12 -108q0 -37 -6 -64h-307l-131 -213h432q12 -49 12 -108q0 -37 -6 -64z" />
<glyph unicode="&#x2264;" d="M977 1135l-518 -355v-20l512 -342q-9 -25 -55 -79.5t-70 -70.5l-645 443l6 125l610 426q36 -20 84.5 -58.5t75.5 -68.5zM168 170h829q11 -51 11 -107q0 -31 -7 -63h-858q0 80 25 170z" />
<glyph unicode="&#x2265;" d="M973 711l-651 -453q-25 18 -67 71.5t-54 82.5l516 348v18l-527 346q23 27 75 68t89 63l611 -419zM174 170h830q10 -46 10 -107q0 -36 -6 -63h-856q0 91 22 170z" />
<glyph unicode="&#x25aa;" d="M92 0v985h983v-985h-983z" />
<glyph unicode="&#x25ab;" d="M80 0v985h1007v-985h-1007zM299 801v-617h569v617h-569z" />
<glyph unicode="&#x25b8;" d="M147 -66q-14 247 -14 570q0 332 14 547q200 -89 527 -265.5t491 -285.5q-170 -114 -497 -295.5t-521 -270.5z" />
<glyph unicode="&#x25b9;" d="M145 -66q-18 208 -18 570q0 356 18 547q200 -87 531.5 -263t497.5 -286q-167 -114 -497 -295t-532 -273zM346 250q93 41 244.5 122.5t222.5 131.5q-73 46 -225 124.5t-240 116.5q-10 -71 -10 -243q0 -171 8 -252z" />
<glyph unicode="&#x25c2;" d="M1030 -66q-194 89 -519 270.5t-493 295.5q162 109 487.5 285t524.5 266q14 -215 14 -547q0 -323 -14 -570z" />
<glyph unicode="&#x25c3;" d="M1040 -66q-201 90 -530 271.5t-498 296.5q167 110 497.5 286t530.5 263q17 -216 17 -547q0 -334 -17 -570zM840 250q8 81 8 252q0 148 -10 243q-88 -38 -240.5 -116.5t-226.5 -124.5q71 -49 223 -130.5t246 -123.5z" />
<glyph unicode="&#x25ca;" horiz-adv-x="1132" d="M51 692l395 758l238 25l397 -756l-395 -758l-237 -20zM293 737l209 -395q24 -45 44.5 -106.5t28.5 -110.5h21q9 48 31 113t45 110l164 328l-207 409q-51 100 -68 195h-20q-18 -101 -68 -197z" />
<glyph unicode="&#x25cb;" d="M590 1020q231 0 375.5 -138t144.5 -382q0 -166 -72.5 -289t-193 -184.5t-271.5 -61.5q-231 0 -372.5 141.5t-141.5 380.5q0 241 145.5 387t385.5 146zM590 827q-140 0 -224.5 -89t-84.5 -242q0 -154 83.5 -246t217.5 -92q135 0 222 93.5t87 254.5q0 154 -82.5 237.5 t-218.5 83.5z" />
<glyph unicode="&#x25cf;" d="M590 1020q231 0 375.5 -138t144.5 -382q0 -166 -72.5 -289t-193 -184.5t-271.5 -61.5q-231 0 -372.5 141.5t-141.5 380.5q0 241 145.5 387t385.5 146z" />
<glyph unicode="&#xe000;" horiz-adv-x="983" d="M0 983h983v-983h-983v983z" />
<glyph unicode="&#xfb00;" horiz-adv-x="1501" d="M1204 985h273q17 -83 10 -158h-283v-661q120 -12 201 -41q8 -22 10 -60.5t-2 -64.5h-600q7 70 31 119q54 31 127 49v659h-516v-661q122 -13 192 -39q8 -22 10 -61.5t-2 -65.5h-592q7 70 31 119q52 30 125 49v659h-160q2 29 11.5 74t21.5 72q53 26 127 41v63 q0 207 110.5 309.5t293.5 102.5q139 0 264 -43q6 -37 6 -82q0 -104 -31 -199q-37 2 -90 14.5t-80 26.5v131q-30 15 -69 15q-168 0 -168 -250v-117h516v115q0 206 112.5 307.5t302.5 101.5q145 0 267 -43q8 -33 8 -82q0 -88 -31 -198q-38 2 -90.5 14t-81.5 27v131 q-28 14 -74 14q-83 0 -131.5 -60t-48.5 -190v-137z" />
<glyph unicode="&#xfb01;" horiz-adv-x="1404" d="M453 985h239q17 -83 10 -158h-249v-661q121 -13 190 -39q8 -22 10 -61.5t-2 -65.5h-590q7 70 31 119q52 30 125 49v659h-158q0 31 9 76t22 70q53 26 127 41v37q0 234 140.5 346t398.5 112q99 0 216 -21t208 -58q6 -30 6 -82q0 -113 -27 -189q-42 0 -110 13.5t-95 31.5 v117q-85 45 -196 45q-151 0 -228 -74.5t-77 -232.5v-74zM963 168v657h-148q0 35 11.5 78t29.5 68q89 35 209 35q77 0 133 -17v-829q76 -7 154 -33q8 -36 8 -82q0 -21 -4 -45h-549q7 70 31 119q55 32 125 49z" />
<glyph unicode="&#xfb02;" horiz-adv-x="1392" d="M453 985h262q17 -83 10 -158h-272v-661q118 -13 184 -39q6 -22 8.5 -61.5t-0.5 -65.5h-584q7 70 31 119q52 30 125 49v659h-158q0 31 9 76t22 70q53 26 127 41v47q0 224 146 336t403 112q99 0 216 -17t204 -46v-1286q80 -7 157 -33q9 -41 9 -80q0 -23 -4 -47h-549 q7 72 30 119q38 23 121 49v1163q-84 33 -180 33q-152 0 -234.5 -73t-82.5 -222v-84z" />
<glyph unicode="&#xfb03;" horiz-adv-x="2158" d="M1206 985h240q17 -83 10 -158h-250v-661q122 -13 191 -39q8 -22 10 -61.5t-2 -65.5h-590q7 70 31 119q52 30 125 49v659h-516v-661q122 -13 192 -39q8 -22 10 -61.5t-2 -65.5h-592q7 70 31 119q52 30 125 49v659h-160q2 29 11.5 74t21.5 72q53 26 127 41v63 q0 207 110.5 309.5t293.5 102.5q139 0 264 -43q6 -37 6 -82q0 -104 -31 -199q-37 2 -90 14.5t-80 26.5v131q-30 15 -69 15q-168 0 -168 -250v-117h516v66q0 234 140 346t398 112q99 0 216 -21t208 -58q6 -30 6 -82q0 -116 -26 -189q-42 0 -110 13.5t-95 31.5v117 q-85 45 -197 45q-151 0 -228 -74.5t-77 -232.5v-74zM1716 168v657h-147q0 35 11.5 78t29.5 68q89 35 209 35q77 0 133 -17v-829q75 -6 153 -33q9 -41 9 -82q0 -15 -5 -45h-548q7 72 30 119q55 32 125 49z" />
<glyph unicode="&#xfb04;" horiz-adv-x="2146" d="M1206 985h262q18 -86 11 -158h-273v-661q120 -14 185 -39q6 -22 8.5 -61.5t-0.5 -65.5h-584q7 70 31 119q52 30 125 49v659h-516v-661q122 -13 192 -39q8 -22 10 -61.5t-2 -65.5h-592q7 70 31 119q52 30 125 49v659h-160q2 29 11.5 74t21.5 72q53 26 127 41v63 q0 207 110.5 309.5t293.5 102.5q139 0 264 -43q6 -37 6 -82q0 -104 -31 -199q-37 2 -90 14.5t-80 26.5v131q-30 15 -69 15q-168 0 -168 -250v-117h516v76q0 224 146 336t403 112q99 0 215.5 -16.5t203.5 -46.5v-1286q82 -7 158 -33q8 -36 8 -80q0 -23 -4 -47h-549 q7 70 31 119q38 23 121 49v1163q-84 33 -180 33q-152 0 -235 -73t-83 -222v-84z" />
<glyph d="M811 657h-18q-34 -64 -102 -102.5t-167 -38.5q-195 0 -306.5 124t-111.5 318q0 217 126.5 342t338.5 125q492 0 492 -663q0 -390 -152.5 -596.5t-418.5 -206.5q-191 0 -326 61q-25 43 -38 116.5t-5 119.5q77 -43 180 -74.5t178 -31.5q147 0 231 126.5t99 380.5zM809 805 q-3 246 -62 355.5t-178 109.5q-101 0 -157 -81.5t-56 -219.5q0 -132 60 -208.5t170 -76.5q125 0 223 121z" />
<glyph horiz-adv-x="1163" d="M352 1071q108 62 236 62q121 0 229 -54l119 150q33 -8 70.5 -35.5t56.5 -52.5l-131 -156q90 -111 90 -278q0 -182 -96 -306l137 -159q-16 -27 -51.5 -53t-71.5 -33l-125 153q-95 -53 -227 -53q-138 0 -238 53l-127 -157q-34 10 -69.5 36.5t-53.5 53.5l140 164 q-86 116 -86 301q0 153 88 268l-138 164q16 25 54 52t73 36zM360 705q0 -129 63.5 -212t164.5 -83q107 0 166 80t59 215q0 116 -63.5 194t-161.5 78q-107 0 -167.5 -75t-60.5 -197z" />
<glyph horiz-adv-x="786" d="M418 750q71 -196 178 -402q-36 -15 -97.5 -28t-103.5 -13q-150 238 -241 443q75 173 213 397q130 37 243 37q-114 -226 -192 -434z" />
<glyph d="M88 381v164l539 856h268v-850h170q10 -58 10 -115q0 -37 -2 -55h-178v-225q96 -7 176 -23q10 -30 10 -80q0 -25 -4 -53h-602q7 67 33 133q74 18 160 29v219h-580zM668 551v387q0 137 14 221h-20l-363 -600v-20q84 12 233 12h136z" />
<glyph d="M1028 811h-897q0 88 25 178h866q12 -49 12 -112q0 -39 -6 -66zM1028 428h-899q0 81 27 178h866q12 -49 12 -112q0 -39 -6 -66z" />
<glyph horiz-adv-x="1273" d="M952 739h-903q0 64 21 146h110q59 250 245.5 395t430.5 145q210 0 377 -77q0 -181 -29 -336q-47 0 -101 13.5t-91 37.5v166q-76 33 -174 33q-147 0 -257.5 -98.5t-146.5 -278.5h512q6 -21 8 -68t-2 -78zM952 449h-495q48 -144 151 -218.5t240 -74.5q82 0 188.5 20.5 t192.5 50.5q3 -35 -8.5 -87t-28.5 -81q-85 -45 -197 -72.5t-223 -27.5q-218 0 -375.5 134.5t-214.5 355.5h-133q0 63 21 145h876q6 -21 8 -67.5t-2 -77.5z" />
<glyph horiz-adv-x="1398" d="M887 332h-418l-25 -60q-21 -55 -55 -102q72 -8 123 -31q11 -23 19 -65t8 -74h-482q3 72 27 125q47 35 117 55l401 920l209 24l410 -962q44 -3 98 -19q29 -78 35 -143h-156q-92 -47 -135 -97t-43 -110q0 -52 31.5 -78t81.5 -26q31 0 59 8q11 -19 19 -60.5t10 -74.5 q-57 -23 -140 -23q-118 0 -198 60t-80 174q0 72 50.5 130t147.5 83v14h-182q7 73 41 135q56 23 113 31q-34 34 -62 106zM692 895h-20q-7 -54 -54 -176l-96 -244h309l-94 246q-40 112 -45 174z" />
<glyph horiz-adv-x="1011" d="M643 735q27 -27 48.5 -75t21.5 -87q0 -49 -26 -94t-63 -78.5t-74 -65t-63 -66t-26 -68.5q0 -90 129 -90q60 0 104 18v111q32 10 92.5 17t104.5 7q24 -105 24 -254q-65 -20 -178 -35.5t-200 -15.5q-169 0 -262 55.5t-93 155.5q0 47 21.5 91t54.5 76.5t70.5 65t70.5 57.5 t54.5 53t21.5 52q0 52 -33 105q36 22 94.5 41.5t106.5 23.5zM557 1118q66 0 107 -38t41 -105q0 -72 -41 -113t-107 -41q-72 0 -110.5 39.5t-38.5 114.5q0 65 41 104t108 39z" />
<glyph d="M973 1278l-524 -399v-19l518 -385q-9 -26 -55.5 -80.5t-71.5 -68.5l-643 485l6 125l610 467q34 -18 83 -57t77 -68zM166 170h831q11 -51 11 -107q0 -31 -7 -63h-858q0 71 23 170z" />
<glyph horiz-adv-x="1253" d="M662 365q113 228 174 389q-81 211 -174 393q92 43 198 43q165 -266 238 -436q-81 -183 -244 -447q-44 3 -100 20t-92 38zM195 358q112 225 174 390q-81 211 -174 393q92 43 198 43q165 -266 238 -436q-81 -183 -244 -447q-44 3 -100 20t-92 37z" />
<glyph horiz-adv-x="1411" d="M1192 928v-496q0 -219 -130 -346t-374 -127q-457 0 -457 467v494q-79 12 -127 28q-16 59 -16 142h559q4 -27 2 -69t-8 -71q-84 -19 -170 -22v-492q0 -153 58.5 -230t191.5 -77q137 0 205.5 77t68.5 208v514q-76 4 -141 22q-5 30 -6 71t4 69h479q2 -14 2 -46q0 -50 -8 -96 q-57 -16 -133 -20z" />
<glyph horiz-adv-x="1169" d="M543 152q212 0 338 18q13 92 37 160q87 18 161 8v-338h-934q3 62 31 129q46 28 125 51v217l-117 -65q-24 53 -24 149l141 82v365q-69 3 -139 22q-6 28 -7 71.5t3 68.5h585q8 -66 -8 -142q-115 -17 -192 -20v-260l258 151q20 -18 41.5 -57t29.5 -68l-329 -192v-350z" />
<glyph horiz-adv-x="1228" d="M739 418v-246q97 -8 183 -37q19 -68 8 -135h-613q1 26 12.5 64.5t22.5 62.5q62 32 146 49v232l-318 499q-57 15 -100 41q-21 58 -21 142h529q0 -56 -23 -150q-50 -18 -123 -31q42 -33 70 -88l84 -155q35 -63 47 -113h21q16 56 49 113l92 155q32 58 72 90q-58 11 -105 33 q-20 65 -20 146h438q0 -30 -10.5 -77.5t-22.5 -76.5q-45 -20 -98 -23zM535 1571l206 10l295 -295q-16 -30 -54.5 -67t-70.5 -48l-282 224l-269 -221q-29 21 -55 62t-35 77z" />
<glyph horiz-adv-x="1847" d="M414 909q41 -80 63 -170l84 -356q32 -129 37 -207h18q10 96 37 211l176 694l269 27l164 -725q26 -118 32 -207h21q5 78 39 207l88 350q29 108 65 176q-67 15 -108 35q-23 67 -23 146h428q0 -72 -30 -156q-52 -18 -95 -21l-282 -921l-250 -27l-166 711q-25 102 -33 219 h-18q-8 -114 -35 -217l-174 -686l-266 -27l-267 938q-56 13 -100 47q-20 66 -20 140h501q0 -70 -24 -148q-47 -19 -131 -33zM848 1571l207 10l295 -295q-16 -30 -54.5 -67t-70.5 -48l-283 224l-268 -221q-29 21 -55 62t-35 77z" />
<glyph horiz-adv-x="1398" d="M887 332h-418l-25 -60q-21 -55 -55 -102q72 -8 123 -31q11 -23 19 -65t8 -74h-482q3 72 27 125q47 35 117 55l401 920l209 24l410 -962q44 -3 98 -19q29 -78 35 -143h-535q7 73 41 135q56 23 113 31q-34 34 -62 106zM692 895h-20q-7 -54 -54 -176l-96 -244h309l-94 246 q-40 112 -45 174zM715 1206l-344 318q35 27 117.5 48t138.5 21l254 -329q-24 -20 -77 -38t-89 -20z" />
<glyph horiz-adv-x="811" d="M526 928v-756q31 -3 80 -14t76 -21q8 -46 8 -90q0 -33 -2 -47h-559q7 72 31 129q46 28 125 51v748q-73 3 -138 22q-6 28 -7.5 71.5t3.5 68.5h533q3 -25 1.5 -71t-7.5 -71q-63 -16 -144 -20zM666 1503q71 0 127 -26q-2 -63 -28 -117.5t-84 -92.5t-140 -38q-62 0 -153 44 t-144 44q-39 0 -67 -23.5t-36 -56.5q-34 1 -67 19t-54 44q16 93 78.5 151t171.5 58q58 0 109 -21.5t96 -43t90 -21.5q39 0 66 22.5t35 57.5z" />
<glyph horiz-adv-x="925" d="M735 803l-162 121q-42 34 -65 63l-10 -8q25 -47 28 -88l17 -193q-33 -10 -86 -10q-48 0 -90 10l16 193q4 45 23 84l-11 10q-29 -39 -61 -61l-160 -121q-20 23 -46.5 71.5t-35.5 79.5l174 74q51 22 90 29v12q-41 4 -90 25l-168 73q4 29 27 80.5t43 79.5l164 -110 q15 -11 35.5 -30.5t27.5 -31.5l13 8q-22 52 -25 84l-12 183q72 14 168 14l-13 -197q-4 -48 -28 -88l14 -10q30 43 66 65l155 109q57 -54 107 -135l-197 -94q-39 -19 -88 -23v-12q37 -3 88 -25l184 -78q-9 -31 -39 -80.5t-53 -72.5z" />
<glyph d="M1094 1384v-178q-334 -668 -498 -1200q-58 -12 -123 -12q-73 0 -143 12q97 289 239.5 592t307.5 571v19h-512q-1 -34 -10.5 -92t-18.5 -90q-94 -27 -189 -27v405h947z" />
<glyph horiz-adv-x="1345" d="M909 797v137q-73 33 -164 33q-166 0 -263 -103.5t-97 -316.5q0 -216 89.5 -318t244.5 -102q82 0 178 14v244q-120 12 -199 39q-20 66 -20 133h586q-2 -44 -35 -129q-51 -26 -103 -39v-352q-83 -31 -214.5 -54.5t-252.5 -23.5q-245 0 -388.5 150.5t-143.5 400.5 q0 273 172 441.5t455 168.5q222 0 379 -96q4 -36 4 -70q0 -106 -29 -198q-41 1 -101.5 14t-97.5 27zM506 1569q41 -183 203 -183q159 0 211 177q96 -7 159 -43q-22 -147 -117.5 -234.5t-252.5 -87.5q-314 0 -367 303q24 25 71 44t93 24z" />
<glyph horiz-adv-x="1095" d="M397 1171l-28 -340q97 17 168 17q92 0 172.5 -27t143 -78.5t98.5 -134.5t36 -188q0 -116 -44 -206t-120 -144.5t-170 -82.5t-200 -28q-177 0 -318 43q-20 33 -33.5 89t-13.5 102q0 20 4 40q192 -98 363 -98q119 0 195.5 69t76.5 197q0 80 -22.5 136.5t-65 87.5t-95 45 t-120.5 14q-125 0 -270 -29l53 729h782q0 -108 -20 -213h-572z" />
<glyph horiz-adv-x="1228" d="M526 158h373q8 67 35 135q92 18 164 12v-305h-969q7 72 31 129q46 28 125 51v748q-68 3 -138 22q-6 28 -7.5 71.5t3.5 68.5h930v-295q-86 0 -158 20q-30 59 -45 119h-344v-305h256q17 43 41 73q58 20 131 23v-344q-83 -7 -143 10q-17 40 -25 88h-260v-321zM981 1268h-692 q0 82 26 180h658q12 -56 12 -111q0 -42 -4 -69z" />
<glyph horiz-adv-x="1386" d="M526 629h127l170 209q16 22 43 47.5t49 38.5q-59 10 -104 30q-23 61 -23 136h484q0 -61 -29 -146q-43 -16 -110 -24l-310 -349q117 -147 238 -276t153 -145l119 8q2 -12 2 -35q0 -65 -35 -133q-97 -23 -206 -29q-121 55 -473 520h-95v-311q76 -8 148 -35q13 -75 6 -135 h-551q7 72 31 129q46 28 125 51v748q-73 3 -138 22q-6 28 -7.5 71.5t3.5 68.5h510q3 -24 1 -69.5t-7 -74.5q-56 -14 -121 -18v-299zM678 -262l-92 16q9 36 29 79t40 67q36 8 93 8q91 0 159 -23q-18 -100 -78.5 -251.5t-111.5 -233.5q-30 7 -65 24.5t-54 32.5q63 171 80 281z " />
<glyph horiz-adv-x="2" d="M-725 1837q67 0 107 -34.5t40 -98.5q0 -69 -40.5 -106t-106.5 -37q-147 0 -147 143q0 61 40.5 97t106.5 36zM-145 1837q67 0 107 -34.5t40 -98.5q0 -69 -40.5 -106t-106.5 -37q-148 0 -148 143q0 61 40.5 97t107.5 36z" />
<glyph horiz-adv-x="1228" d="M526 158h373q8 67 35 135q92 18 164 12v-305h-969q7 72 31 129q46 28 125 51v748q-68 3 -138 22q-6 28 -7.5 71.5t3.5 68.5h930v-295q-86 0 -158 20q-30 59 -45 119h-344v-305h256q17 43 41 73q58 20 131 23v-344q-83 -7 -143 10q-17 40 -25 88h-260v-321zM649 1513 q63 0 101 -35t38 -98q0 -70 -38 -107.5t-101 -37.5q-141 0 -141 145q0 61 38.5 97t102.5 36z" />
<glyph d="M483 188v727l-297 -38q7 105 39 165q84 28 221.5 55.5t280.5 32.5v-948q125 -11 234 -39q12 -41 12 -92q0 -27 -4 -51h-740q9 62 45 137q92 32 209 51z" />
<glyph horiz-adv-x="1411" d="M1192 928v-496q0 -219 -130 -346t-374 -127q-457 0 -457 467v494q-79 12 -127 28q-16 59 -16 142h559q4 -27 2 -69t-8 -71q-84 -19 -170 -22v-492q0 -153 58.5 -230t191.5 -77q137 0 205.5 77t68.5 208v514q-76 4 -141 22q-5 30 -6 71t4 69h479q2 -14 2 -46q0 -50 -8 -96 q-57 -16 -133 -20zM733 1653q118 0 186 -59t68 -167q0 -111 -70 -170t-190 -59q-119 0 -186.5 58.5t-67.5 164.5q0 108 69.5 170t190.5 62zM733 1536q-50 0 -81 -29.5t-31 -81.5t30 -81t80 -29q48 0 78.5 29t30.5 83t-29 81.5t-78 27.5z" />
<glyph horiz-adv-x="733" d="M86 662q0 66 25 139q86 7 111.5 54t25.5 149v280q0 63 10.5 112.5t36.5 94.5t68.5 76t109 50t154.5 23q0 -33 -9 -81t-22 -74q-64 -9 -92.5 -54.5t-28.5 -136.5v-274q0 -113 -34.5 -182.5t-114.5 -96.5v-14q81 -26 115 -88t34 -174v-324q0 -195 141 -204q10 -82 -8 -154 q-104 4 -175.5 28.5t-111 69t-56.5 100.5t-17 132v321q0 59 -5.5 95.5t-22.5 67.5t-49.5 46t-84.5 19z" />
<glyph horiz-adv-x="1462" d="M571 1090l367 -590q34 -55 68.5 -129.5t44.5 -124.5h18v682q-101 4 -168 22q-7 27 -9 71.5t3 68.5h481q4 -18 4 -50q0 -52 -10 -94q-61 -15 -123 -18v-926l-254 -29l-409 676q-75 122 -105 213h-18v-690q80 -7 153 -35q17 -76 7 -137h-504q8 77 33 129q50 30 124 51v748 q-78 3 -139 22q-6 28 -7.5 71.5t3.5 68.5h440zM690 -262l-92 16q9 36 29.5 79t40.5 67q36 8 92 8q92 0 160 -23q-18 -100 -79 -251t-112 -234q-30 7 -65 24.5t-54 32.5q63 171 80 281z" />
<glyph horiz-adv-x="1392" d="M700 1120q260 0 414 -148.5t154 -418.5q0 -280 -153.5 -437t-414.5 -157q-279 0 -427 151.5t-148 442.5q0 172 75.5 302t205.5 197.5t294 67.5zM377 553q0 -198 86 -316t237 -118q154 0 235 114.5t81 319.5q0 178 -88 294t-228 116q-154 0 -238.5 -110.5t-84.5 -299.5z " />
<glyph horiz-adv-x="1411" d="M1192 928v-496q0 -219 -130 -346t-374 -127q-457 0 -457 467v494q-79 12 -127 28q-16 59 -16 142h559q4 -27 2 -69t-8 -71q-84 -19 -170 -22v-492q0 -153 58.5 -230t191.5 -77q137 0 205.5 77t68.5 208v514q-76 4 -141 22q-5 30 -6 71t4 69h479q2 -14 2 -46q0 -50 -8 -96 q-57 -16 -133 -20zM1077 1268h-692q0 79 27 180h657q12 -56 12 -111q0 -42 -4 -69z" />
<glyph horiz-adv-x="1411" d="M1192 928v-496q0 -219 -130 -346t-374 -127q-457 0 -457 467v494q-79 12 -127 28q-16 59 -16 142h559q4 -27 2 -69t-8 -71q-84 -19 -170 -22v-492q0 -153 58.5 -230t191.5 -77q137 0 205.5 77t68.5 208v514q-76 4 -141 22q-5 30 -6 71t4 69h479q2 -14 2 -46q0 -50 -8 -96 q-57 -16 -133 -20zM776 1206l-344 318q35 27 117.5 48t138.5 21l254 -329q-24 -20 -77 -38t-89 -20z" />
<glyph horiz-adv-x="1392" d="M700 1120q260 0 414 -148.5t154 -418.5q0 -280 -153.5 -437t-414.5 -157q-279 0 -427 151.5t-148 442.5q0 172 75.5 302t205.5 197.5t294 67.5zM377 553q0 -198 86 -316t237 -118q154 0 235 114.5t81 319.5q0 178 -88 294t-228 116q-154 0 -238.5 -110.5t-84.5 -299.5z M502 1569q41 -183 203 -183q158 0 210 177q97 -7 160 -43q-22 -147 -117.5 -234.5t-252.5 -87.5q-314 0 -367 303q24 25 71 44t93 24z" />
<glyph horiz-adv-x="1363" d="M285 182v740q-67 3 -140 16q-5 27 -5.5 72.5t3.5 68.5q263 25 504 25q286 0 455.5 -135t169.5 -394q0 -120 -31 -218t-85 -165t-129.5 -112.5t-161.5 -66.5t-183 -21q-293 0 -553 10q9 82 31 131q61 36 125 49zM526 942v-784q59 -6 133 -6q361 0 361 401 q0 194 -106 294.5t-283 100.5q-67 0 -105 -6zM801 1198l-207 -6l-297 317q18 22 74 43.5t96 24.5l260 -199l248 203q31 -8 70.5 -28.5t60.5 -41.5z" />
<glyph horiz-adv-x="811" d="M526 928v-756q31 -3 80 -14t76 -21q8 -46 8 -90q0 -33 -2 -47h-559q7 72 31 129q46 28 125 51v748q-73 3 -138 22q-6 28 -7.5 71.5t3.5 68.5h533q3 -25 1.5 -71t-7.5 -71q-63 -16 -144 -20z" />
<glyph horiz-adv-x="2" d="M-285 1544h-254l-290 236q23 27 72 53.5t89 34.5l283 -152l260 142q32 -9 70.5 -35.5t56.5 -50.5z" />
<glyph horiz-adv-x="716" d="M332 805q-77 0 -162 18q16 246 16 510q134 0 230 -26q0 -90 -27 -244.5t-57 -257.5z" />
<glyph d="M119 0v184q43 54 131 145.5t166 174.5t155.5 177.5t123.5 189.5t46 176q0 206 -194 206q-100 0 -195 -45v-180q-36 -15 -92 -27t-98 -12q-29 140 -29 348q83 39 194 63.5t226 24.5q97 0 177.5 -20t143 -60t97.5 -106t35 -152q0 -95 -47.5 -203t-103.5 -188t-159.5 -186 t-153 -150.5t-146.5 -127.5q-10 -9 -15 -13v-18h446q8 87 29 174q86 22 182 22v-397h-919z" />
<glyph horiz-adv-x="641" d="M365 -254q-126 202 -185 407.5t-59 385.5q0 378 188 727q32 16 99.5 25t119.5 9q-82 -164 -127 -361t-45 -384q0 -414 181 -733q-30 -24 -79 -45.5t-93 -30.5z" />
<glyph horiz-adv-x="1419" d="M715 1120q190 0 329 -82l134 144q27 -9 69.5 -43.5t57.5 -59.5l-138 -149q119 -144 119 -377q0 -280 -154 -437t-417 -157q-219 0 -361 92l-174 -194q-25 23 -55.5 66t-38.5 73l154 166q-107 150 -107 391q0 172 76.5 302t208 197.5t297.5 67.5zM1038 553q0 117 -41 207 l-508 -547q88 -94 226 -94q157 0 240 115t83 319zM381 553q0 -125 33 -213l501 543q-87 80 -200 80q-159 0 -246.5 -110.5t-87.5 -299.5zM1010 1516l-344 -332q-32 13 -69 44t-56 58l256 324q41 -3 111 -34t102 -60z" />
<glyph horiz-adv-x="724" d="M223 8l51 969q53 16 115 16q36 0 60 -4l71 -981q-50 -14 -141 -14q-87 0 -156 14zM365 1460q68 0 110.5 -39t42.5 -108q0 -75 -42.5 -117.5t-110.5 -42.5q-75 0 -113.5 41t-38.5 119q0 65 42.5 106t109.5 41z" />
<glyph horiz-adv-x="1300" d="M285 182v748q-81 4 -138 18q-6 25 -7 71.5t5 70.5q243 14 480 14q232 0 364.5 -70.5t132.5 -216.5q0 -86 -48.5 -147t-137.5 -82v-15q113 -22 179.5 -85.5t66.5 -157.5q0 -89 -39.5 -155.5t-110.5 -106t-160.5 -59t-197.5 -19.5q-312 0 -543 12q2 28 11.5 70t19.5 61 q57 35 123 49zM526 494v-342q75 -7 136 -7q134 0 201 41t67 133q0 86 -72.5 130.5t-191.5 44.5h-140zM526 950v-307h131q108 0 162.5 38.5t54.5 123.5q0 73 -67.5 110t-181.5 37q-74 0 -99 -2z" />
<glyph horiz-adv-x="636" d="M301 -240q-95 16 -172 72q184 295 184 711q0 186 -40.5 371.5t-118.5 340.5q34 20 89.5 32.5t102.5 12.5q201 -356 201 -735q0 -185 -58.5 -395.5t-187.5 -409.5z" />
<glyph horiz-adv-x="1411" d="M1192 928v-496q0 -219 -130 -346t-374 -127q-457 0 -457 467v494q-79 12 -127 28q-16 59 -16 142h559q4 -27 2 -69t-8 -71q-84 -19 -170 -22v-492q0 -153 58.5 -230t191.5 -77q137 0 205.5 77t68.5 208v514q-76 4 -141 22q-5 30 -6 71t4 69h479q2 -14 2 -46q0 -50 -8 -96 q-57 -16 -133 -20zM526 1569q41 -183 203 -183q159 0 211 177q97 -7 160 -43q-22 -147 -118 -234.5t-253 -87.5q-314 0 -367 303q24 25 71 44t93 24z" />
<glyph horiz-adv-x="1249" d="M418 750q71 -196 178 -402q-36 -15 -97.5 -28t-103.5 -13q-150 238 -241 443q75 173 213 397q130 37 243 37q-114 -226 -192 -434zM881 756q71 -196 178 -402q-36 -15 -97.5 -28t-103.5 -13q-153 243 -242 443q75 173 213 397q130 37 244 37q-114 -226 -192 -434z" />
<glyph horiz-adv-x="811" d="M526 928v-756q31 -3 80 -14t76 -21q8 -46 8 -90q0 -33 -2 -47h-559q7 72 31 129q46 28 125 51v748q-73 3 -138 22q-6 28 -7.5 71.5t3.5 68.5h533q3 -25 1.5 -71t-7.5 -71q-63 -16 -144 -20zM305 1571l207 10l295 -295q-16 -30 -54.5 -67t-70.5 -48l-283 224l-268 -221 q-29 21 -55 62t-35 77z" />
<glyph horiz-adv-x="909" d="M365 182v1016l-295 -37q0 97 36 164q77 26 231.5 54.5t274.5 35.5v-1235q140 -8 215 -24q15 -51 15 -109q0 -31 -2 -47h-705q3 62 37 152q91 22 193 30z" />
<glyph horiz-adv-x="716" d="M332 1323q134 0 215.5 -72.5t81.5 -201.5q0 -136 -82.5 -213.5t-218.5 -77.5q-145 0 -220 74t-75 217q0 123 85 198.5t214 75.5zM211 1049q0 -68 33 -111t88 -43q56 0 86.5 41t30.5 113q0 60 -32.5 98.5t-84.5 38.5q-56 0 -88.5 -37.5t-32.5 -99.5z" />
<glyph horiz-adv-x="1411" d="M1192 928v-496q0 -219 -130 -346t-374 -127q-457 0 -457 467v494q-79 12 -127 28q-16 59 -16 142h559q4 -27 2 -69t-8 -71q-84 -19 -170 -22v-492q0 -153 58.5 -230t191.5 -77q137 0 205.5 77t68.5 208v514q-76 4 -141 22q-5 30 -6 71t4 69h479q2 -14 2 -46q0 -50 -8 -96 q-57 -16 -133 -20zM483 1503q62 0 101 -34t39 -97q0 -67 -39 -104t-101 -37q-139 0 -139 141q0 60 38 95.5t101 35.5zM981 1503q62 0 100.5 -34t38.5 -97q0 -67 -38.5 -104t-100.5 -37q-139 0 -139 141q0 60 38 95.5t101 35.5z" />
<glyph horiz-adv-x="1169" d="M96 0v184q46 54 139.5 145.5t176 174t164.5 177t131 189.5t49 177q0 206 -209 206q-109 0 -215 -49v-180q-34 -17 -90 -28t-99 -11q-30 133 -30 350q200 90 438 90q134 0 237.5 -34t167.5 -111.5t64 -189.5q0 -79 -29 -162.5t-92 -170t-114.5 -150t-146.5 -149.5 t-133.5 -119t-127.5 -106q-12 -10 -17 -14v-18h482q4 82 30 174q86 22 181 22v-397h-957z" />
<glyph horiz-adv-x="1155" d="M526 152q211 0 340 18q7 76 37 160q84 18 160 8v-338h-934q7 72 31 129q46 28 125 51v748q-73 3 -138 22q-6 28 -7.5 71.5t3.5 68.5h584q3 -24 1 -68.5t-7 -73.5q-91 -16 -195 -20v-776z" />
<glyph horiz-adv-x="651" d="M418 1151v-1229q-21 -8 -90 -8q-68 0 -95 8v1215q89 14 185 14z" />
<glyph horiz-adv-x="1398" d="M887 332h-418l-25 -60q-21 -55 -55 -102q72 -8 123 -31q11 -23 19 -65t8 -74h-482q3 72 27 125q47 35 117 55l401 920l209 24l410 -962q44 -3 98 -19q29 -78 35 -143h-535q7 73 41 135q56 23 113 31q-34 34 -62 106zM692 895h-20q-7 -54 -54 -176l-96 -244h309l-94 246 q-40 112 -45 174zM1040 1268h-692q0 79 27 180h657q12 -56 12 -111q0 -42 -4 -69z" />
<glyph horiz-adv-x="714" d="M512 1624v-1812h-410q3 60 25 141q60 16 156 24v1483q-51 2 -136 17q-5 28 -5.5 75t5.5 72h365z" />
<glyph horiz-adv-x="1228" d="M526 158h373q8 67 35 135q92 18 164 12v-305h-969q7 72 31 129q46 28 125 51v748q-68 3 -138 22q-6 28 -7.5 71.5t3.5 68.5h930v-295q-86 0 -158 20q-30 59 -45 119h-344v-305h256q17 43 41 73q58 20 131 23v-344q-83 -7 -143 10q-17 40 -25 88h-260v-321zM399 1503 q62 0 101 -34t39 -97q0 -67 -39 -104t-101 -37q-139 0 -139 141q0 60 38 95.5t101 35.5zM897 1503q62 0 100.5 -34t38.5 -97q0 -67 -38.5 -104t-100.5 -37q-139 0 -139 141q0 60 38 95.5t101 35.5z" />
<glyph d="M686 997h320q12 -43 12 -102q0 -34 -6 -61h-326v-357q-32 -8 -96 -8q-76 0 -107 8v357h-333q0 85 24 163h309v344q104 17 203 17v-361zM166 170h829q13 -50 13 -107q0 -31 -7 -63h-858q0 71 23 170z" />
<glyph horiz-adv-x="1114" d="M719 840v118q-56 29 -133 29q-73 0 -112.5 -34t-39.5 -91q0 -41 24 -73.5t63 -52.5t88.5 -42t102 -41t102 -49t88.5 -66t63 -94t24 -131q0 -118 -61.5 -199.5t-160 -118t-224.5 -36.5q-215 0 -385 90q-8 44 -8 103q0 90 24 178q127 0 215 -33v-143q72 -41 182 -41 q84 0 129 38.5t45 108.5q0 42 -19 74.5t-51 55t-73.5 41t-88 36t-92.5 37t-87.5 46.5t-73.5 61.5t-51 86t-19 115.5q0 147 108 232t288 85q203 0 362 -81q4 -28 4 -66q0 -106 -26 -190q-53 0 -112.5 13.5t-94.5 33.5zM506 -262l-92 16q9 36 29 79t40 67q36 8 92 8 q92 0 160 -23q-18 -100 -78.5 -251.5t-111.5 -233.5q-30 7 -65 24.5t-54 32.5q63 171 80 281z" />
<glyph horiz-adv-x="755" d="M637 649h-537q0 42 8.5 100t20.5 93h498q14 -61 14 -129q0 -36 -4 -64z" />
<glyph horiz-adv-x="1114" d="M719 840v118q-56 29 -133 29q-73 0 -112.5 -34t-39.5 -91q0 -41 24 -73.5t63 -52.5t88.5 -42t102 -41t102 -49t88.5 -66t63 -94t24 -131q0 -118 -61.5 -199.5t-160 -118t-224.5 -36.5q-215 0 -385 90q-8 44 -8 103q0 90 24 178q127 0 215 -33v-143q72 -41 182 -41 q84 0 129 38.5t45 108.5q0 42 -19 74.5t-51 55t-73.5 41t-88 36t-92.5 37t-87.5 46.5t-73.5 61.5t-51 86t-19 115.5q0 147 108 232t288 85q203 0 362 -81q4 -28 4 -66q0 -106 -26 -190q-53 0 -112.5 13.5t-94.5 33.5z" />
<glyph horiz-adv-x="641" d="M348 1239q69 0 110.5 -40.5t41.5 -111.5q0 -75 -41.5 -118t-110.5 -43q-75 0 -115 41.5t-40 119.5q0 68 43 110t112 42zM346 504q71 0 114.5 -41t43.5 -113q0 -80 -43.5 -123t-114.5 -43q-160 0 -160 166q0 69 44.5 111.5t115.5 42.5z" />
<glyph horiz-adv-x="1847" d="M414 909q41 -80 63 -170l84 -356q32 -129 37 -207h18q10 96 37 211l176 694l269 27l164 -725q26 -118 32 -207h21q5 78 39 207l88 350q29 108 65 176q-67 15 -108 35q-23 67 -23 146h428q0 -72 -30 -156q-52 -18 -95 -21l-282 -921l-250 -27l-166 711q-25 102 -33 219 h-18q-8 -114 -35 -217l-174 -686l-266 -27l-267 938q-56 13 -100 47q-20 66 -20 140h501q0 -70 -24 -148q-47 -19 -131 -33z" />
<glyph d="M330 805q-77 0 -162 18q16 246 16 510q134 0 230 -26q0 -90 -27 -244.5t-57 -257.5zM741 805q-76 0 -161 18q16 246 16 510q133 0 229 -26q0 -90 -27 -244.5t-57 -257.5z" />
<glyph horiz-adv-x="2" d="M-2 1608h-784q0 92 28 186h750q10 -55 10 -121q0 -37 -4 -65z" />
<glyph horiz-adv-x="1398" d="M709 1526q118 0 186 -59t68 -167q0 -77 -36.5 -131t-101.5 -79l396 -928q44 -3 98 -19q29 -78 35 -143h-535q7 73 41 135q56 23 113 31q-34 34 -62 106l-24 60h-418l-25 -60q-21 -55 -55 -102q72 -8 123 -31q11 -23 19 -65t8 -74h-482q3 72 27 125q47 35 117 55l395 905 q-147 45 -147 209q0 108 69.5 170t190.5 62zM692 895h-20q-7 -54 -54 -176l-96 -244h309l-94 246q-40 112 -45 174zM709 1409q-50 0 -81.5 -29.5t-31.5 -81.5t30.5 -81t80.5 -29q48 0 78 29t30 83t-28.5 81.5t-77.5 27.5z" />
<glyph horiz-adv-x="1294" d="M678 195h20q10 82 47 184l125 340q40 115 91 190q-75 15 -119 35q-23 67 -23 146h449q0 -64 -33 -156q-45 -16 -98 -23l-373 -919l-225 -27l-361 938q-69 20 -104 47q-23 63 -23 140h543q0 -71 -27 -150q-59 -23 -147 -31q51 -77 88 -184l127 -352q32 -87 43 -178z" />
<glyph horiz-adv-x="1114" d="M719 840v118q-56 29 -133 29q-73 0 -112.5 -34t-39.5 -91q0 -41 24 -73.5t63 -52.5t88.5 -42t102 -41t102 -49t88.5 -66t63 -94t24 -131q0 -151 -95.5 -238.5t-252.5 -109.5l-16 -84q55 -11 96 -53.5t41 -101.5q0 -91 -85 -155.5t-194 -74.5q-50 35 -94 105q61 13 101 45 t40 75q0 78 -116 103l57 137q-173 12 -313 88q-8 44 -8 103q0 90 24 178q127 0 215 -33v-143q72 -41 182 -41q84 0 129 38.5t45 108.5q0 42 -19 74.5t-51 55t-73.5 41t-88 36t-92.5 37t-87.5 46.5t-73.5 61.5t-51 86t-19 115.5q0 147 108 232t288 85q203 0 362 -81 q4 -28 4 -66q0 -106 -26 -190q-53 0 -112.5 13.5t-94.5 33.5z" />
<glyph horiz-adv-x="811" d="M526 928v-756q31 -3 80 -14t76 -21q8 -46 8 -90q0 -33 -2 -47h-559q7 72 31 129q46 28 125 51v748q-73 3 -138 22q-6 28 -7.5 71.5t3.5 68.5h533q3 -25 1.5 -71t-7.5 -71q-63 -16 -144 -20zM434 1206l-344 318q35 27 117.5 48t138.5 21l254 -329q-24 -20 -77 -38t-89 -20 z" />
<glyph horiz-adv-x="1398" d="M887 332h-418l-25 -60q-21 -55 -55 -102q72 -8 123 -31q11 -23 19 -65t8 -74h-482q3 72 27 125q47 35 117 55l401 920l209 24l410 -962q44 -3 98 -19q29 -78 35 -143h-535q7 73 41 135q56 23 113 31q-34 34 -62 106zM692 895h-20q-7 -54 -54 -176l-96 -244h309l-94 246 q-40 112 -45 174zM594 1571l207 10l295 -295q-16 -30 -54.5 -67t-70.5 -48l-283 224l-268 -221q-29 21 -55 62t-35 77z" />
<glyph horiz-adv-x="1183" d="M285 180v748q-78 4 -138 16q-5 28 -5.5 73t5.5 70q241 19 476 19q243 0 369 -78t126 -256q0 -92 -36.5 -163t-99 -113t-139 -63t-163.5 -21q-68 0 -154 8v-246q111 -13 187 -39q8 -25 10 -67t-2 -68h-592q7 72 31 129q46 28 125 51zM522 944v-371q61 -6 144 -6 q100 0 150 45t50 146q0 90 -63 141t-168 51q-67 0 -113 -6z" />
<glyph horiz-adv-x="1419" d="M715 1120q190 0 329 -82l134 144q27 -9 69.5 -43.5t57.5 -59.5l-138 -149q119 -144 119 -377q0 -280 -154 -437t-417 -157q-219 0 -361 92l-174 -194q-25 23 -55.5 66t-38.5 73l154 166q-107 150 -107 391q0 172 76.5 302t208 197.5t297.5 67.5zM1038 553q0 117 -41 207 l-508 -547q88 -94 226 -94q157 0 240 115t83 319zM381 553q0 -125 33 -213l501 543q-87 80 -200 80q-159 0 -246.5 -110.5t-87.5 -299.5z" />
<glyph d="M133 795h916q12 -52 12 -115q0 -41 -6 -68h-949q0 82 27 183z" />
<glyph horiz-adv-x="1398" d="M709 1526q118 0 186 -59t68 -167q0 -77 -36.5 -131t-101.5 -79l396 -928q44 -3 98 -19q29 -78 35 -143h-535q7 73 41 135q56 23 113 31q-34 34 -62 106l-24 60h-418l-25 -60q-21 -55 -55 -102q72 -8 123 -31q11 -23 19 -65t8 -74h-482q3 72 27 125q47 35 117 55l395 905 q-147 45 -147 209q0 108 69.5 170t190.5 62zM692 895h-20q-7 -54 -54 -176l-96 -244h309l-94 246q-40 112 -45 174zM709 1409q-50 0 -81.5 -29.5t-31.5 -81.5t30.5 -81t80.5 -29q48 0 78 29t30 83t-28.5 81.5t-77.5 27.5zM940 1905l-344 -332q-32 13 -69 44t-56 58l256 324 q41 -3 111 -34t102 -60z" />
<glyph horiz-adv-x="1193" d="M836 657h-19q-83 -141 -280 -141q-207 0 -324 123.5t-117 318.5q0 217 132 342t350 125q509 0 509 -663q0 -390 -156.5 -596.5t-430.5 -206.5q-200 0 -344 61q-25 42 -37 116.5t-4 121.5q76 -45 182 -76.5t186 -31.5q156 0 246 126.5t107 380.5zM834 805 q-3 246 -66.5 355.5t-192.5 109.5q-107 0 -167 -82t-60 -219q0 -133 63.5 -209t182.5 -76q135 0 240 121z" />
<glyph horiz-adv-x="1523" d="M1239 928v-756q87 -8 158 -35q8 -46 8 -90q0 -33 -2 -47h-535q6 65 27 129q54 33 111 49v297h-488v-303q29 -3 73 -14t68 -21q17 -76 7 -137h-537q7 72 31 129q46 28 125 51v748q-73 3 -138 22q-6 28 -7.5 71.5t3.5 68.5h510q3 -22 1.5 -69.5t-7.5 -72.5 q-55 -17 -129 -20v-299h488v299q-61 3 -119 22q-6 28 -7.5 71.5t3.5 68.5h506q8 -74 -7 -142q-64 -17 -143 -20zM662 1571l206 10l295 -295q-16 -30 -54.5 -67t-70.5 -48l-282 224l-269 -221q-29 21 -55 62t-35 77z" />
<glyph horiz-adv-x="1177" d="M147 0l-22 119l600 794v21h-365q-15 -86 -47 -158q-37 0 -91 11t-85 24v279h877l22 -127l-600 -793v-18q230 0 414 24q10 74 37 152q31 9 94.5 12t99.5 -2l-24 -338h-910zM700 1198l-206 -6l-297 317q18 22 74 43.5t96 24.5l260 -199l247 203q31 -8 71 -28.5t61 -41.5z " />
<glyph horiz-adv-x="2" d="M-141 1847q64 0 103.5 -34.5t39.5 -98.5q0 -71 -39.5 -109t-103.5 -38q-148 0 -148 147q0 61 40.5 97t107.5 36z" />
<glyph horiz-adv-x="1228" d="M526 158h373q8 67 35 135q92 18 164 12v-305h-969q7 72 31 129q46 28 125 51v748q-68 3 -138 22q-6 28 -7.5 71.5t3.5 68.5h930v-295q-86 0 -158 20q-30 59 -45 119h-344v-305h256q17 43 41 73q58 20 131 23v-344q-83 -7 -143 10q-17 40 -25 88h-260v-321zM698 1206 l-344 318q35 27 117.5 48t138.5 21l254 -329q-24 -20 -77 -38t-89 -20z" />
<glyph horiz-adv-x="1824" d="M412 1425q162 0 255 -93.5t93 -264.5q0 -182 -92.5 -280.5t-255.5 -98.5q-170 0 -259.5 95t-89.5 284q0 162 97.5 260t251.5 98zM1493 1397l-983 -1465q-35 6 -85.5 32t-72.5 48l961 1430q41 -2 93.5 -15t86.5 -30zM272 1067q0 -113 36.5 -176.5t103.5 -63.5 q68 0 103.5 62.5t35.5 177.5q0 98 -36.5 158.5t-102.5 60.5q-67 0 -103.5 -58.5t-36.5 -160.5zM1413 696q162 0 255 -93.5t93 -264.5q0 -182 -92.5 -280.5t-255.5 -98.5q-170 0 -259 95t-89 284q0 162 97 260t251 98zM1274 338q0 -113 36 -176.5t103 -63.5q68 0 103.5 62.5 t35.5 177.5q0 98 -36.5 158.5t-102.5 60.5q-67 0 -103 -58t-36 -161z" />
<glyph d="M395 668v14q-98 37 -160.5 110.5t-62.5 190.5q0 86 38 153.5t102 107t140 59.5t160 20q80 0 151.5 -18t132 -54t96.5 -98.5t36 -144.5q0 -114 -65.5 -197t-159.5 -111v-14q250 -97 250 -336q0 -94 -39.5 -169.5t-107 -123t-153 -73t-180.5 -25.5q-64 0 -125 10.5 t-122 36.5t-106.5 65.5t-74 101.5t-28.5 140q0 135 78 230t200 125zM532 604q-174 -80 -174 -258q0 -61 19.5 -107.5t53 -73t73 -39.5t84.5 -13q42 0 80 11t71.5 34t53.5 64.5t20 96.5q0 54 -17.5 94.5t-63 75.5t-79 54t-109.5 55zM655 766q67 37 101.5 97.5t34.5 129.5 q0 95 -59.5 142t-133.5 47q-31 0 -62.5 -8.5t-63 -26t-51.5 -52.5t-20 -81q0 -45 18 -81t58.5 -66.5t76.5 -50t101 -50.5z" />
<glyph horiz-adv-x="1398" d="M887 332h-418l-25 -60q-21 -55 -55 -102q72 -8 123 -31q11 -23 19 -65t8 -74h-482q3 72 27 125q47 35 117 55l401 920l209 24l410 -962q44 -3 98 -19q29 -78 35 -143h-535q7 73 41 135q56 23 113 31q-34 34 -62 106zM692 895h-20q-7 -54 -54 -176l-96 -244h309l-94 246 q-40 112 -45 174zM451 1503q62 0 100.5 -34t38.5 -97q0 -67 -38.5 -104t-100.5 -37q-140 0 -140 141q0 60 38.5 95.5t101.5 35.5zM948 1503q62 0 100.5 -34t38.5 -97q0 -67 -38.5 -104t-100.5 -37q-139 0 -139 141q0 60 38 95.5t101 35.5z" />
<glyph horiz-adv-x="1914" d="M1145 1446v-318q0 -100 -17 -262h27q29 66 100.5 110t178.5 44q59 0 113.5 -15.5t107 -53t91 -93t62 -142.5t23.5 -196q0 -249 -146 -402t-380 -153q-226 0 -394 86v1280q-78 33 -163 33q-140 0 -216.5 -73.5t-76.5 -221.5v-84h256q17 -83 10 -158h-266v-661 q118 -13 188 -39q6 -22 8.5 -61.5t-0.5 -65.5h-588q7 70 31 119q52 30 125 49v659h-160q2 29 11.5 74t21.5 72q53 26 127 41v47q0 224 140 336t386 112q94 0 205.5 -17t194.5 -46zM1141 733v-590q65 -20 141 -20q152 0 227.5 98.5t75.5 270.5q0 166 -64.5 260t-168.5 94 q-68 0 -123 -32t-88 -81z" />
<glyph horiz-adv-x="1202" d="M842 780v158q-60 25 -133 25q-148 0 -237 -101.5t-89 -306.5q0 -206 90 -304.5t256 -98.5q73 0 166 16t160 41q4 -34 -8.5 -84.5t-32.5 -81.5q-69 -36 -165 -60t-190 -24q-239 0 -387.5 158.5t-148.5 404.5q0 266 166 432t438 166q190 0 340 -86q6 -40 6 -82 q0 -117 -35 -213q-41 0 -100 12.5t-96 28.5zM573 1571l207 10l295 -295q-16 -30 -54.5 -67t-70.5 -48l-282 224l-269 -221q-29 21 -55 62t-35 77z" />
<glyph horiz-adv-x="1345" d="M909 797v137q-73 33 -164 33q-166 0 -263 -103.5t-97 -316.5q0 -216 89.5 -318t244.5 -102q82 0 178 14v244q-120 12 -199 39q-20 66 -20 133h586q-2 -44 -35 -129q-51 -26 -103 -39v-352q-83 -31 -214.5 -54.5t-252.5 -23.5q-245 0 -388.5 150.5t-143.5 400.5 q0 273 172 441.5t455 168.5q222 0 379 -96q4 -36 4 -70q0 -106 -29 -198q-41 1 -101.5 14t-97.5 27zM612 1571l207 10l295 -295q-16 -30 -54.5 -67t-70.5 -48l-282 224l-269 -221q-29 21 -55 62t-35 77z" />
<glyph d="M135 801h907v-391q-42 -11 -100 -11q-60 0 -113 11v211h-720q0 87 26 180z" />
<glyph horiz-adv-x="1847" d="M664 1503q62 0 100.5 -34t38.5 -97q0 -67 -38.5 -104t-100.5 -37q-140 0 -140 141q0 60 38.5 95.5t101.5 35.5zM1257 1503q62 0 101 -34t39 -97q0 -67 -39 -104t-101 -37q-139 0 -139 141q0 60 38 95.5t101 35.5zM414 909q41 -80 63 -170l84 -356q32 -129 37 -207h18 q10 96 37 211l176 694l269 27l164 -725q26 -118 32 -207h21q5 78 39 207l88 350q29 108 65 176q-67 15 -108 35q-23 67 -23 146h428q0 -72 -30 -156q-52 -18 -95 -21l-282 -921l-250 -27l-166 711q-25 102 -33 219h-18q-8 -114 -35 -217l-174 -686l-266 -27l-267 938 q-56 13 -100 47q-20 66 -20 140h501q0 -70 -24 -148q-47 -19 -131 -33z" />
<glyph horiz-adv-x="1161" d="M526 936v-78q40 4 86 4q238 0 361 -69.5t123 -229.5q0 -67 -23.5 -122t-64 -92.5t-96 -62.5t-117.5 -36.5t-131 -11.5q-73 0 -138 8v-82q89 -8 176 -33q8 -25 10.5 -65.5t-1.5 -65.5h-582q7 68 31 125q40 24 125 49v760q-63 3 -138 20q-6 26 -7.5 69.5t3.5 66.5h543 q3 -21 1.5 -65.5t-7.5 -68.5q-43 -11 -154 -20zM522 709v-322q43 -4 129 -4q106 0 158.5 37.5t52.5 128.5q0 80 -66 123t-175 43q-55 0 -99 -6z" />
<glyph horiz-adv-x="651" d="M420 1151v-440q-27 -9 -94 -9q-65 0 -95 9v426q86 14 189 14zM420 379v-457q-36 -8 -94 -8q-55 0 -95 8v440q83 17 189 17z" />
<glyph horiz-adv-x="1249" d="M1149 408h-240l-61 -404q-40 -8 -109 -8q-56 0 -92 8l64 404h-254l-62 -404q-40 -8 -108 -8q-56 0 -92 8l63 404h-211q3 66 29 141h211l49 315h-227q3 64 30 142h226l61 372q93 19 190 19l-59 -391h260l62 372q93 19 190 19l-59 -391h207q2 -14 2 -43q0 -59 -9 -99h-227 l-47 -315h219q3 -24 1.5 -70t-7.5 -71zM528 864l-45 -315h256l49 315h-260z" />
<glyph horiz-adv-x="1081" d="M1038 1384v-178q-343 -673 -508 -1200q-58 -12 -122 -12q-74 0 -144 12q99 290 244 593t315 570v19h-530q-9 -104 -31 -182q-94 -27 -188 -27v405h964z" />
<glyph horiz-adv-x="811" d="M723 1268h-631q0 79 27 180h596q12 -56 12 -111q0 -42 -4 -69zM526 928v-756q31 -3 80 -14t76 -21q8 -46 8 -90q0 -33 -2 -47h-559q7 72 31 129q46 28 125 51v748q-73 3 -138 22q-6 28 -7.5 71.5t3.5 68.5h533q3 -25 1.5 -71t-7.5 -71q-63 -16 -144 -20z" />
<glyph d="M494 182v1016l-308 -39q4 98 39 164q77 27 234.5 56t281.5 36v-1235q132 -3 256 -24q15 -51 15 -109q0 -31 -2 -47h-787q1 30 15.5 75.5t29.5 76.5q99 22 226 30z" />
<glyph horiz-adv-x="1462" d="M571 1090l367 -590q34 -55 68.5 -129.5t44.5 -124.5h18v682q-101 4 -168 22q-7 27 -9 71.5t3 68.5h481q4 -18 4 -50q0 -52 -10 -94q-61 -15 -123 -18v-926l-254 -29l-409 676q-75 122 -105 213h-18v-690q80 -7 153 -35q17 -76 7 -137h-504q8 77 33 129q50 30 124 51v748 q-78 3 -139 22q-6 28 -7.5 71.5t3.5 68.5h440zM846 1198l-207 -6l-297 317q18 22 74 43.5t96 24.5l260 -199l248 203q31 -8 70.5 -28.5t60.5 -41.5z" />
<glyph horiz-adv-x="1114" d="M719 840v118q-56 29 -133 29q-73 0 -112.5 -34t-39.5 -91q0 -41 24 -73.5t63 -52.5t88.5 -42t102 -41t102 -49t88.5 -66t63 -94t24 -131q0 -118 -61.5 -199.5t-160 -118t-224.5 -36.5q-215 0 -385 90q-8 44 -8 103q0 90 24 178q127 0 215 -33v-143q72 -41 182 -41 q84 0 129 38.5t45 108.5q0 42 -19 74.5t-51 55t-73.5 41t-88 36t-92.5 37t-87.5 46.5t-73.5 61.5t-51 86t-19 115.5q0 147 108 232t288 85q203 0 362 -81q4 -28 4 -66q0 -106 -26 -190q-53 0 -112.5 13.5t-94.5 33.5zM473 1571l207 10l295 -295q-16 -30 -54.5 -67t-70.5 -48 l-283 224l-268 -221q-29 21 -55 62t-35 77z" />
<glyph horiz-adv-x="1114" d="M719 840v118q-56 29 -133 29q-73 0 -112.5 -34t-39.5 -91q0 -41 24 -73.5t63 -52.5t88.5 -42t102 -41t102 -49t88.5 -66t63 -94t24 -131q0 -118 -61.5 -199.5t-160 -118t-224.5 -36.5q-215 0 -385 90q-8 44 -8 103q0 90 24 178q127 0 215 -33v-143q72 -41 182 -41 q84 0 129 38.5t45 108.5q0 42 -19 74.5t-51 55t-73.5 41t-88 36t-92.5 37t-87.5 46.5t-73.5 61.5t-51 86t-19 115.5q0 147 108 232t288 85q203 0 362 -81q4 -28 4 -66q0 -106 -26 -190q-53 0 -112.5 13.5t-94.5 33.5zM893 1516l-344 -332q-32 13 -69 44t-56 58l256 324 q41 -3 111 -34t102 -60z" />
<glyph horiz-adv-x="2039" d="M1206 985h236q17 -83 10 -158h-246v-661q122 -13 191 -39q8 -22 10 -61.5t-2 -65.5h-590q7 70 31 119q52 30 125 49v659h-516v-661q122 -13 192 -39q8 -22 10 -61.5t-2 -65.5h-592q7 70 31 119q52 30 125 49v659h-160q2 29 11.5 74t21.5 72q53 26 127 41v63 q0 207 110.5 309.5t293.5 102.5q139 0 264 -43q6 -37 6 -82q0 -104 -31 -199q-37 2 -90 14.5t-80 26.5v131q-30 15 -69 15q-168 0 -168 -250v-117h516v66q0 231 146 344.5t409 113.5q96 0 206 -18t193 -51q6 -30 6 -82q0 -116 -26 -189q-42 0 -110 13.5t-95 31.5v117 q-82 35 -180 35q-152 0 -233 -76t-81 -231v-74zM1698 825h-150q2 35 14 77.5t29 68.5q89 35 209 35q75 0 131 -17v-813q0 -110 -26 -209.5t-75 -183t-98.5 -146t-117.5 -131.5q-37 12 -77 42t-60 61q45 50 80 98.5t69.5 113.5t53 143t18.5 163v698z" />
<glyph horiz-adv-x="2707" d="M1704 1331q-84 33 -180 33q-152 0 -235 -73t-83 -222v-84h256q18 -86 11 -158h-267v-661q120 -14 185 -39q6 -22 8.5 -61.5t-0.5 -65.5h-584q7 70 31 119q52 30 125 49v659h-516v-661q122 -13 192 -39q8 -22 10 -61.5t-2 -65.5h-592q7 70 31 119q52 30 125 49v659h-160 q2 29 11.5 74t21.5 72q53 26 127 41v63q0 207 110.5 309.5t293.5 102.5q139 0 264 -43q6 -37 6 -82q0 -104 -31 -199q-37 2 -90 14.5t-80 26.5v131q-30 15 -69 15q-168 0 -168 -250v-117h516v76q0 224 145 336t404 112q97 0 213.5 -17t203.5 -46v-836h103l137 142 q50 50 96 71q-80 14 -119 31q-20 62 -20 131h492q0 -76 -29 -143q-33 -13 -113 -23l-274 -258q108 -144 217 -266.5t143 -142.5l123 20q2 -12 2 -33q0 -30 -10 -71.5t-23 -67.5q-96 -37 -172 -43q-62 11 -181.5 148.5t-287.5 365.5h-84v-311q84 -11 140 -33q6 -21 7.5 -61 t-1.5 -66h-531q7 70 31 119q38 23 121 49v1163z" />
<glyph horiz-adv-x="2779" d="M1704 1331q-84 33 -180 33q-152 0 -235 -73t-83 -222v-84h254q17 -83 10 -158h-264v-661q120 -14 185 -39q6 -22 8.5 -61.5t-0.5 -65.5h-584q7 70 31 119q52 30 125 49v659h-516v-661q122 -13 192 -39q8 -22 10 -61.5t-2 -65.5h-592q7 70 31 119q52 30 125 49v659h-160 q2 29 11.5 74t21.5 72q53 26 127 41v63q0 207 110.5 309.5t293.5 102.5q139 0 264 -43q6 -37 6 -82q0 -104 -31 -199q-37 2 -90 14.5t-80 26.5v131q-30 15 -69 15q-168 0 -168 -250v-117h516v76q0 224 145 336t404 112q97 0 213.5 -17t203.5 -46v-316q0 -128 -14 -296h25 q33 82 115 134t208 52q55 0 98 -7.5t86.5 -31.5t72.5 -63.5t47 -107.5t18 -161q0 -197 -15 -489q78 -6 156 -33q8 -36 8 -80q0 -23 -4 -47h-520q8 75 29 119q35 23 106 49v440q0 232 -178 232q-72 0 -137.5 -40.5t-100.5 -94.5v-545q92 -12 144 -33q13 -64 6 -127h-535 q7 70 31 119q38 23 121 49v1163z" />
<glyph horiz-adv-x="733" d="M408 725v14q-85 32 -115.5 103t-30.5 198v238q0 107 -34.5 156.5t-116.5 56.5q0 28 13 75t28 72q340 -25 340 -342v-282q0 -52 4.5 -83.5t18.5 -63t44.5 -47.5t79.5 -19q18 -59 18 -139q-95 -6 -130 -51t-35 -152v-328q0 -80 -16 -138.5t-55 -106.5t-111.5 -74.5 t-178.5 -30.5q-19 67 -8 153q65 3 102 51.5t37 131.5v327q0 119 31.5 185.5t114.5 95.5z" />
<glyph horiz-adv-x="1241" d="M455 -164l69 164h-207q7 65 37 127q61 31 144 49v762h-207q-8 -85 -39 -158q-29 -12 -78 -20t-88 -8v338h1067v-336q-95 0 -160 28q-32 69 -43 156h-211v-766q36 -3 94 -14.5t89 -22.5q16 -68 8 -135h-260l-21 -115q53 -13 93 -53t40 -96q0 -88 -79.5 -147t-186.5 -70 q-56 36 -90 96q61 9 100 40t39 75q0 41 -30.5 68t-79.5 38z" />
<glyph horiz-adv-x="1202" d="M842 780v158q-60 25 -133 25q-148 0 -237 -101.5t-89 -306.5q0 -206 90 -304.5t256 -98.5q73 0 166 16t160 41q4 -34 -8.5 -84.5t-32.5 -81.5q-69 -36 -165 -60t-190 -24q-239 0 -387.5 158.5t-148.5 404.5q0 266 166 432t438 166q190 0 340 -86q6 -40 6 -82 q0 -117 -35 -213q-41 0 -100 12.5t-96 28.5zM778 1198l-207 -6l-297 317q18 22 74 43.5t96 24.5l261 -199l247 203q31 -8 70.5 -28.5t60.5 -41.5z" />
<glyph horiz-adv-x="1411" d="M1192 928v-496q0 -219 -130 -346t-374 -127q-457 0 -457 467v494q-79 12 -127 28q-16 59 -16 142h559q4 -27 2 -69t-8 -71q-84 -19 -170 -22v-492q0 -153 58.5 -230t191.5 -77q137 0 205.5 77t68.5 208v514q-76 4 -141 22q-5 30 -6 71t4 69h479q2 -14 2 -46q0 -50 -8 -96 q-57 -16 -133 -20zM993 1503q71 0 127 -26q-2 -63 -28 -117.5t-84 -92.5t-140 -38q-62 0 -153 44t-144 44q-39 0 -66.5 -23.5t-35.5 -56.5q-34 1 -67 19t-54 44q16 93 78.5 151t171.5 58q58 0 109 -21.5t96 -43t90 -21.5q39 0 65.5 22.5t34.5 57.5z" />
<glyph horiz-adv-x="1243" d="M1077 352h-338v-190q112 -7 195 -23q9 -24 11 -71t-3 -68h-657q7 69 37 135q57 15 170 29v188h-334q0 74 22 146h312v63l-48 90h-286q0 75 22 146h191l-213 417q-56 7 -99 21q-24 63 -24 149h538q0 -69 -24 -151q-64 -12 -143 -16q44 -50 73 -117l111 -238 q40 -91 49 -168h20q15 97 54 170l125 240q34 67 77 115q-66 4 -120 20q-21 65 -21 145h449q0 -82 -23 -153q-38 -10 -92 -14l-240 -420h203q6 -21 8 -68t-2 -78h-291l-47 -84v-69h332q6 -21 8 -68t-2 -78z" />
<glyph horiz-adv-x="1400" d="M760 678l108 147q35 52 76 90q-53 10 -94 31q-15 56 -19 144h443q0 -71 -35 -148q-52 -21 -104 -24l-277 -357l316 -391q58 -7 116 -27q11 -25 22 -69.5t11 -73.5h-537q3 59 31 137q41 20 96 33q-44 28 -88 84l-149 186l-137 -184q-36 -52 -76 -86q65 -7 117 -29 q20 -70 20 -141h-514q2 27 14 68.5t25 62.5q46 27 121 43l323 395l-276 338q-67 14 -115 35q-13 27 -22 71t-9 77h517q0 -66 -21 -148q-30 -15 -92 -27q21 -15 46.5 -40t39.5 -44z" />
<glyph horiz-adv-x="1228" d="M526 158h373q8 67 35 135q92 18 164 12v-305h-969q7 72 31 129q46 28 125 51v748q-68 3 -138 22q-6 28 -7.5 71.5t3.5 68.5h930v-295q-86 0 -158 20q-30 59 -45 119h-344v-305h256q17 43 41 73q58 20 131 23v-344q-83 -7 -143 10q-17 40 -25 88h-260v-321z" />
<glyph horiz-adv-x="811" d="M526 928v-756q31 -3 80 -14t76 -21q8 -46 8 -90q0 -33 -2 -47h-559q7 72 31 129q46 28 125 51v748q-73 3 -138 22q-6 28 -7.5 71.5t3.5 68.5h533q3 -25 1.5 -71t-7.5 -71q-63 -16 -144 -20zM201 1569q41 -183 202 -183q159 0 211 177q97 -7 160 -43q-22 -147 -118 -234.5 t-253 -87.5q-313 0 -366 303q24 25 71 44t93 24z" />
<glyph horiz-adv-x="1298" d="M147 1087q201 19 467 19q502 0 502 -320q0 -113 -62.5 -190t-164.5 -115q77 -132 144.5 -232t88.5 -110l111 11q2 -10 2 -27q0 -67 -33 -131q-82 -22 -223 -33q-83 46 -295 487q-70 0 -160 11v-287q83 -9 138 -35q6 -24 8 -66t-2 -69h-539q7 72 31 129q46 28 125 51v748 q-79 4 -138 16q-5 28 -5.5 73t5.5 70zM522 942v-342q67 -6 144 -6q101 0 149.5 42t48.5 138q0 84 -64 128t-173 44q-78 0 -105 -4zM637 -262l-92 16q9 36 29 79t40 67q36 8 93 8q91 0 159 -23q-18 -100 -78.5 -251.5t-111.5 -233.5q-30 7 -65 24.5t-54 32.5q63 171 80 281z " />
<glyph horiz-adv-x="686" d="M387 -233q-119 242 -174 485t-55 457q0 462 194 876q32 17 103.5 28t122.5 11q-89 -187 -135 -424t-46 -473q0 -493 170 -889q-65 -42 -180 -71z" />
<glyph horiz-adv-x="714" d="M195 -188v1812h376q3 -23 0.5 -72t-8.5 -75q-52 -11 -137 -15v-1489q104 -4 168 -24q8 -39 8 -86q0 -27 -4 -51h-403z" />
<glyph horiz-adv-x="1177" d="M147 0l-22 119l600 794v21h-365q-15 -86 -47 -158q-37 0 -91 11t-85 24v279h877l22 -127l-600 -793v-18q230 0 414 24q10 74 37 152q31 9 94.5 12t99.5 -2l-24 -338h-910zM608 1513q63 0 101.5 -35t38.5 -98q0 -70 -38.5 -107.5t-101.5 -37.5q-141 0 -141 145 q0 61 38.5 97t102.5 36z" />
<glyph horiz-adv-x="1462" d="M571 1090l367 -590q34 -55 68.5 -129.5t44.5 -124.5h18v682q-101 4 -168 22q-7 27 -9 71.5t3 68.5h481q4 -18 4 -50q0 -52 -10 -94q-61 -15 -123 -18v-926l-254 -29l-409 676q-75 122 -105 213h-18v-690q80 -7 153 -35q17 -76 7 -137h-504q8 77 33 129q50 30 124 51v748 q-78 3 -139 22q-6 28 -7.5 71.5t3.5 68.5h440zM1018 1503q71 0 127 -26q-2 -63 -28 -117.5t-84 -92.5t-140 -38q-62 0 -153 44t-144 44q-39 0 -66.5 -23.5t-35.5 -56.5q-34 1 -67 19t-54 44q16 93 78.5 151t171.5 58q58 0 109 -21.5t96 -43t90 -21.5q39 0 65.5 22.5 t34.5 57.5z" />
<glyph horiz-adv-x="1392" d="M700 1120q260 0 414 -148.5t154 -418.5q0 -280 -153.5 -437t-414.5 -157q-279 0 -427 151.5t-148 442.5q0 172 75.5 302t205.5 197.5t294 67.5zM377 553q0 -198 86 -316t237 -118q154 0 235 114.5t81 319.5q0 178 -88 294t-228 116q-154 0 -238.5 -110.5t-84.5 -299.5z M999 1516l-344 -332q-32 13 -69 44t-56 58l256 324q41 -3 111 -34t102 -60z" />
</font>
</defs>
</svg>
