<?xml version="1.0" standalone="no"?>
<!DOCTYPE svg PUBLIC "-//W3C//DTD SVG 1.1//EN" "http://www.w3.org/Graphics/SVG/1.1/DTD/svg11.dtd" >
<svg xmlns="http://www.w3.org/2000/svg">
<metadata>
This is a custom SVG webfont generated by Font Squirrel.
Copyright   : Copyright  1993 Esselte Letraset Ltd All rights reserved
</metadata>
<defs>
<font id="TypeEmbellishmentsOneLETPlain" horiz-adv-x="1655" >
<font-face units-per-em="2048" ascent="1638" descent="-410" />
<missing-glyph horiz-adv-x="500" />
<glyph unicode="!" horiz-adv-x="1554" d="M1268 205q-43 3 -79.5 19.5t-82.5 56.5q-2 -23 -6.5 -32.5t-18.5 -23.5q-18 67 -75 137q-60 78 -74 107t-31 102q74 -15 102 -30t105 -76q72 -59 139 -78q-16 -12 -27 -16.5t-28 -5.5q70 -83 76 -160zM387 932q0 -87 23.5 -173.5t62.5 -146.5q26 61 40.5 86t51.5 72 q80 -86 170 -86q3 0 39 4q2 17 2 35q0 98 -84 172q42 35 73.5 53.5t84.5 38.5q-56 39 -145.5 62.5t-174.5 23.5q105 102 203.5 167.5t190.5 95.5t194 30q98 0 175 -37t121 -102.5t44 -145.5q0 -55 -27.5 -101t-75 -72.5t-104.5 -26.5q-70 0 -128 43t-58 94q0 25 15.5 42 t39.5 17q20 0 34.5 -12.5t14.5 -32.5q0 -34 -41 -45q8 -30 43.5 -49.5t79.5 -19.5q73 0 121.5 48.5t48.5 120.5q0 58 -29 105t-79 72q-13 -30 -13 -60q0 -3 2 -14.5t3 -24.5q-31 10 -48 21.5t-61 48.5q-46 45 -80 60.5t-82 15.5q-62 0 -137 -27.5t-145.5 -73.5t-116.5 -102 q170 -27 297 -131q-97 -19 -187 -82q64 -68 70 -166q59 51 126 79t134 28q63 0 117 -28.5t85.5 -75.5t31.5 -99q0 -51 -30 -90t-69 -39q-23 0 -39 13.5t-16 35.5q0 20 13.5 32.5t33.5 12.5q26 0 43 -29q16 16 21.5 28.5t5.5 37.5q0 56 -37 96t-100 53q-2 -10 -2 -22 q0 -19 10 -49q-14 1 -94 35q-31 12 -66 12q-105 0 -211 -121q-72 -78 -72 -158q0 -34 13 -67q10 -24 13 -32.5t15 -39.5q0 -4 7 -25q-27 13 -48 13q-12 0 -22 -4q13 -63 53 -99.5t96 -36.5q38 0 64 27q-29 15 -29 43q0 19 14 33t31 14q22 0 36.5 -15.5t14.5 -39.5 q0 -40 -39 -69t-90 -29q-53 0 -101 32t-75.5 85t-27.5 116q0 67 28.5 134t79.5 124q-49 5 -88 21.5t-80 50.5q-61 -87 -82 -187q-51 63 -82 135t-47 162q-52 -43 -98.5 -113.5t-75 -147t-28.5 -134.5q0 -31 6 -57t26 -56t43 -55q35 -38 48.5 -58.5t19.5 -47.5q-38 4 -39 4 q-31 0 -59 -15q27 -48 75 -78t103 -30q73 0 121.5 49.5t48.5 122.5q0 45 -20 81t-52 42q-11 -41 -43 -41q-16 0 -30.5 14.5t-14.5 34.5q0 25 16 40t43 15q34 0 66.5 -26.5t52 -69.5t19.5 -90q0 -88 -59 -149.5t-144 -61.5q-81 0 -145.5 44t-101 123t-36.5 177 q0 148 69.5 289t221.5 299zM455 1004q-41 6 -74 6q-32 0 -46 -3t-36 -12q-7 97 -27.5 148.5t-76.5 124.5q53 -41 88 -60.5t73 -28.5t107 -16q-17 -47 -17 -76q0 -15 9 -83z" />
<glyph unicode="&#xf021;" horiz-adv-x="1554" d="M1268 205q-43 3 -79.5 19.5t-82.5 56.5q-2 -23 -6.5 -32.5t-18.5 -23.5q-18 67 -75 137q-60 78 -74 107t-31 102q74 -15 102 -30t105 -76q72 -59 139 -78q-16 -12 -27 -16.5t-28 -5.5q70 -83 76 -160zM387 932q0 -87 23.5 -173.5t62.5 -146.5q26 61 40.5 86t51.5 72 q80 -86 170 -86q3 0 39 4q2 17 2 35q0 98 -84 172q42 35 73.5 53.5t84.5 38.5q-56 39 -145.5 62.5t-174.5 23.5q105 102 203.5 167.5t190.5 95.5t194 30q98 0 175 -37t121 -102.5t44 -145.5q0 -55 -27.5 -101t-75 -72.5t-104.5 -26.5q-70 0 -128 43t-58 94q0 25 15.5 42 t39.5 17q20 0 34.5 -12.5t14.5 -32.5q0 -34 -41 -45q8 -30 43.5 -49.5t79.5 -19.5q73 0 121.5 48.5t48.5 120.5q0 58 -29 105t-79 72q-13 -30 -13 -60q0 -3 2 -14.5t3 -24.5q-31 10 -48 21.5t-61 48.5q-46 45 -80 60.5t-82 15.5q-62 0 -137 -27.5t-145.5 -73.5t-116.5 -102 q170 -27 297 -131q-97 -19 -187 -82q64 -68 70 -166q59 51 126 79t134 28q63 0 117 -28.5t85.5 -75.5t31.5 -99q0 -51 -30 -90t-69 -39q-23 0 -39 13.5t-16 35.5q0 20 13.5 32.5t33.5 12.5q26 0 43 -29q16 16 21.5 28.5t5.5 37.5q0 56 -37 96t-100 53q-2 -10 -2 -22 q0 -19 10 -49q-14 1 -94 35q-31 12 -66 12q-105 0 -211 -121q-72 -78 -72 -158q0 -34 13 -67q10 -24 13 -32.5t15 -39.5q0 -4 7 -25q-27 13 -48 13q-12 0 -22 -4q13 -63 53 -99.5t96 -36.5q38 0 64 27q-29 15 -29 43q0 19 14 33t31 14q22 0 36.5 -15.5t14.5 -39.5 q0 -40 -39 -69t-90 -29q-53 0 -101 32t-75.5 85t-27.5 116q0 67 28.5 134t79.5 124q-49 5 -88 21.5t-80 50.5q-61 -87 -82 -187q-51 63 -82 135t-47 162q-52 -43 -98.5 -113.5t-75 -147t-28.5 -134.5q0 -31 6 -57t26 -56t43 -55q35 -38 48.5 -58.5t19.5 -47.5q-38 4 -39 4 q-31 0 -59 -15q27 -48 75 -78t103 -30q73 0 121.5 49.5t48.5 122.5q0 45 -20 81t-52 42q-11 -41 -43 -41q-16 0 -30.5 14.5t-14.5 34.5q0 25 16 40t43 15q34 0 66.5 -26.5t52 -69.5t19.5 -90q0 -88 -59 -149.5t-144 -61.5q-81 0 -145.5 44t-101 123t-36.5 177 q0 148 69.5 289t221.5 299zM455 1004q-41 6 -74 6q-32 0 -46 -3t-36 -12q-7 97 -27.5 148.5t-76.5 124.5q53 -41 88 -60.5t73 -28.5t107 -16q-17 -47 -17 -76q0 -15 9 -83z" />
<glyph unicode="&#x22;" horiz-adv-x="1448" d="M823 918q0 65 47 108v29q0 109 127 131q-28 62 -28 98q0 45 32 77t78 32q42 0 71.5 -28.5t29.5 -68.5t-33 -65q20 -26 20 -53q0 -34 -12.5 -50t-44.5 -34q18 -27 18 -50q0 -58 -67 -79q10 -24 10 -41q0 -65 -49 -99q56 -25 100 -49q76 -39 111 -39q19 0 32 14t13 33v21 q-20 -4 -23 -4q-21 0 -38 17t-17 40q0 28 19 46t47 18q37 0 61.5 -32t24.5 -79q0 -82 -62 -139.5t-153 -57.5q-79 0 -181 54q-89 -254 -186 -408q-181 -287 -424 -287q-101 0 -163.5 56.5t-86.5 169.5q40 -30 70 -42t70 -12q98 0 188 69t175 206t169 346q-132 70 -201 70 q-34 0 -54.5 -17.5t-20.5 -46.5q1 -3 1.5 -6.5t0.5 -9.5q28 14 47 14q25 0 42 -19.5t17 -45.5q0 -28 -19 -48t-49 -20q-45 0 -75.5 45t-30.5 111q0 44 30.5 83t79.5 63t103 24q79 0 184 -45zM840 729q-59 -168 -168 -350q-56 -93 -104 -149.5t-97.5 -90t-108.5 -47.5 q21 -2 39 -2q85 0 174.5 90.5t190.5 278.5q67 126 92 190q5 13 8.5 21t7 17t7.5 20zM588 907q126 -13 295 -98q26 -12 70 -34.5t81 -41.5q76 -37 119 -37q23 0 57 17q-51 3 -102 30q-13 7 -203 97q-101 49 -151 65.5t-97 16.5q-34 0 -69 -15zM1032 1204q49 1 81 29t32 59 q0 29 -17.5 47.5t-46.5 18.5q-30 0 -55 -23t-25 -53q0 -27 31 -78zM901 1061q34 18 111 29q47 5 69 11.5t35 22.5q21 26 21 47q0 12 -7 23q-28 -18 -120 -31q-49 -7 -80 -31t-31 -55q0 -8 2 -16zM854 936q51 23 104 29q56 5 80.5 10.5t36.5 17.5q23 23 23 47q0 16 -11 33 q-16 -4 -14 -4l-65 -10q-76 -12 -111.5 -38.5t-42.5 -84.5zM862 903q100 -44 135 -67q43 28 43 75q0 17 -6 31q-27 -10 -82 -14q-49 -3 -90 -25z" />
<glyph unicode="&#xf022;" horiz-adv-x="1448" d="M823 918q0 65 47 108v29q0 109 127 131q-28 62 -28 98q0 45 32 77t78 32q42 0 71.5 -28.5t29.5 -68.5t-33 -65q20 -26 20 -53q0 -34 -12.5 -50t-44.5 -34q18 -27 18 -50q0 -58 -67 -79q10 -24 10 -41q0 -65 -49 -99q56 -25 100 -49q76 -39 111 -39q19 0 32 14t13 33v21 q-20 -4 -23 -4q-21 0 -38 17t-17 40q0 28 19 46t47 18q37 0 61.5 -32t24.5 -79q0 -82 -62 -139.5t-153 -57.5q-79 0 -181 54q-89 -254 -186 -408q-181 -287 -424 -287q-101 0 -163.5 56.5t-86.5 169.5q40 -30 70 -42t70 -12q98 0 188 69t175 206t169 346q-132 70 -201 70 q-34 0 -54.5 -17.5t-20.5 -46.5q1 -3 1.5 -6.5t0.5 -9.5q28 14 47 14q25 0 42 -19.5t17 -45.5q0 -28 -19 -48t-49 -20q-45 0 -75.5 45t-30.5 111q0 44 30.5 83t79.5 63t103 24q79 0 184 -45zM840 729q-59 -168 -168 -350q-56 -93 -104 -149.5t-97.5 -90t-108.5 -47.5 q21 -2 39 -2q85 0 174.5 90.5t190.5 278.5q67 126 92 190q5 13 8.5 21t7 17t7.5 20zM588 907q126 -13 295 -98q26 -12 70 -34.5t81 -41.5q76 -37 119 -37q23 0 57 17q-51 3 -102 30q-13 7 -203 97q-101 49 -151 65.5t-97 16.5q-34 0 -69 -15zM1032 1204q49 1 81 29t32 59 q0 29 -17.5 47.5t-46.5 18.5q-30 0 -55 -23t-25 -53q0 -27 31 -78zM901 1061q34 18 111 29q47 5 69 11.5t35 22.5q21 26 21 47q0 12 -7 23q-28 -18 -120 -31q-49 -7 -80 -31t-31 -55q0 -8 2 -16zM854 936q51 23 104 29q56 5 80.5 10.5t36.5 17.5q23 23 23 47q0 16 -11 33 q-16 -4 -14 -4l-65 -10q-76 -12 -111.5 -38.5t-42.5 -84.5zM862 903q100 -44 135 -67q43 28 43 75q0 17 -6 31q-27 -10 -82 -14q-49 -3 -90 -25z" />
<glyph unicode="#" horiz-adv-x="1534" d="M852 688l367 367q14 14 14 37q0 22 -14 36q-15 15 -35 15q-23 0 -37 -15l-367 -366l-366 366q-15 15 -37 15q-23 0 -37 -15q-14 -17 -14 -36q0 -21 16 -37l365 -367l-365 -364q-16 -18 -16 -37q0 -21 16 -37q11 -14 35 -14q22 0 37 14l366 366l367 -366q14 -14 37 -14 q20 0 35 14q14 14 14 37q0 21 -14 37zM774 1337l-22 -346l-95 80l56 -102l-127 71l194 -194l195 194l-125 -69l22 110l-69 -92l-25 348h-4zM1401 686v4l-320 25l80 94l-104 -55l73 129l-194 -193l197 -196l-72 124l108 -24l-92 70zM123 686l352 -22l-80 -97l105 58l-72 -131 l195 194l-195 197l68 -125l-109 22l92 -67l-356 -25v-4zM778 33h6l21 354l94 -80l-55 103l131 -72l-195 192l-196 -194l125 72l-25 -111l70 92zM367 737l53 158l-64 63l-77 -231zM362 637l-83 10l73 -225l64 61zM731 1104l8 84l-229 -76l63 -61zM825 1102l160 -53l59 59 l-229 78zM1190 739l86 -8l-78 223l-61 -63zM1276 649l-86 -10l-51 -152l61 -61zM737 199l-8 77l-156 50l-55 -58zM823 195l221 73l-61 62l-154 -54zM760 20l-17 109l-282 82l-62 -59l-116 41l-41 116l63 64l-88 278l-100 15q-21 0 -21 20q0 10 5.5 17.5t15.5 7.5l100 12 l94 281l-69 65l41 117l116 41l68 -70l274 92l13 94q4 23 20 23q9 0 19 -6t10 -14l10 -97l277 -92l69 70l119 -41l39 -117l-64 -63l93 -285l71 -8q23 0 23 -23q0 -10 -6 -17t-15 -7l-78 -13l-90 -280l66 -64l-39 -116l-119 -41l-61 61l-281 -84l-12 -106q0 -23 -23 -23 q-22 0 -22 20zM780 725q17 0 27 -10t10 -27q0 -14 -10.5 -25.5t-26.5 -11.5q-14 0 -25.5 11.5t-11.5 25.5q0 17 11 27t26 10z" />
<glyph unicode="&#xf023;" horiz-adv-x="1534" d="M852 688l367 367q14 14 14 37q0 22 -14 36q-15 15 -35 15q-23 0 -37 -15l-367 -366l-366 366q-15 15 -37 15q-23 0 -37 -15q-14 -17 -14 -36q0 -21 16 -37l365 -367l-365 -364q-16 -18 -16 -37q0 -21 16 -37q11 -14 35 -14q22 0 37 14l366 366l367 -366q14 -14 37 -14 q20 0 35 14q14 14 14 37q0 21 -14 37zM774 1337l-22 -346l-95 80l56 -102l-127 71l194 -194l195 194l-125 -69l22 110l-69 -92l-25 348h-4zM1401 686v4l-320 25l80 94l-104 -55l73 129l-194 -193l197 -196l-72 124l108 -24l-92 70zM123 686l352 -22l-80 -97l105 58l-72 -131 l195 194l-195 197l68 -125l-109 22l92 -67l-356 -25v-4zM778 33h6l21 354l94 -80l-55 103l131 -72l-195 192l-196 -194l125 72l-25 -111l70 92zM367 737l53 158l-64 63l-77 -231zM362 637l-83 10l73 -225l64 61zM731 1104l8 84l-229 -76l63 -61zM825 1102l160 -53l59 59 l-229 78zM1190 739l86 -8l-78 223l-61 -63zM1276 649l-86 -10l-51 -152l61 -61zM737 199l-8 77l-156 50l-55 -58zM823 195l221 73l-61 62l-154 -54zM760 20l-17 109l-282 82l-62 -59l-116 41l-41 116l63 64l-88 278l-100 15q-21 0 -21 20q0 10 5.5 17.5t15.5 7.5l100 12 l94 281l-69 65l41 117l116 41l68 -70l274 92l13 94q4 23 20 23q9 0 19 -6t10 -14l10 -97l277 -92l69 70l119 -41l39 -117l-64 -63l93 -285l71 -8q23 0 23 -23q0 -10 -6 -17t-15 -7l-78 -13l-90 -280l66 -64l-39 -116l-119 -41l-61 61l-281 -84l-12 -106q0 -23 -23 -23 q-22 0 -22 20zM780 725q17 0 27 -10t10 -27q0 -14 -10.5 -25.5t-26.5 -11.5q-14 0 -25.5 11.5t-11.5 25.5q0 17 11 27t26 10z" />
<glyph unicode="$" horiz-adv-x="1782" d="M1018 391q-34 -6 -44 -8t-34 -6q-142 -15 -266 -15q-103 0 -172 4.5t-122.5 14.5t-103.5 29q-84 34 -132 101.5t-48 147.5q0 39 10 76q62 -39 87.5 -49t62.5 -10q38 0 90 10q35 6 51 6q50 0 111 -61q0 7 -0.5 11.5t-1.5 8.5q0 45 20 80.5t56.5 56.5t83.5 21q92 0 157 -86 q-82 -25 -82 -90q0 -44 50.5 -70t138.5 -26q99 0 176.5 39t105.5 102q-50 -25 -90 -25q-76 0 -126 52.5t-50 130.5q0 90 64.5 148t163.5 58q74 0 134 -34t95 -93.5t35 -130.5q0 -22 -2 -36q47 -13 73 -44t29 -77q8 2 21 2q53 0 91 -37t38 -88q0 -60 -42 -96.5t-112 -36.5 q-21 0 -35 2q4 24 4 20q0 27 -39 27q-1 0 -132 -17.5t-193 -17.5q-47 0 -121 6zM158 643q3 -86 74 -141t198 -70q126 -14 242 -14h53q-85 33 -141.5 68.5t-112.5 95.5q-27 31 -45.5 43t-40.5 12q-9 0 -74 -14q-12 -2 -45 -2q-53 0 -108 22zM735 729q-40 23 -71 23 q-43 0 -74 -32t-31 -77q0 -59 41.5 -109t111 -80t148.5 -30q126 0 230 76q-109 -21 -181 -21q-98 0 -162.5 45.5t-64.5 114.5q0 50 53 90zM1198 741q-18 22 -18 39q0 31 34 31q27 0 48.5 -25.5t21.5 -60.5q0 -53 -40 -102.5t-132 -108.5q113 13 192.5 89.5t79.5 170.5 q0 58 -28 107t-75.5 77.5t-104.5 28.5q-71 0 -121.5 -44.5t-50.5 -108.5q0 -52 34.5 -86.5t87.5 -34.5q44 0 72 28zM1104 487q87 0 184 27q105 32 147 58.5t42 60.5q0 43 -56 55q-43 -74 -131 -131q-41 -25 -73.5 -36.5t-112.5 -33.5zM1550 426q37 3 59.5 23.5t22.5 52.5 q0 30 -22.5 49.5t-57.5 19.5q-36 0 -131 -41q-134 -60 -321 -63q-44 -16 -64 -21q56 -6 94 -6q64 0 118 6.5t153 24.5q69 14 92 14q29 0 42.5 -13.5t14.5 -45.5z" />
<glyph unicode="&#xf024;" horiz-adv-x="1782" d="M1018 391q-34 -6 -44 -8t-34 -6q-142 -15 -266 -15q-103 0 -172 4.5t-122.5 14.5t-103.5 29q-84 34 -132 101.5t-48 147.5q0 39 10 76q62 -39 87.5 -49t62.5 -10q38 0 90 10q35 6 51 6q50 0 111 -61q0 7 -0.5 11.5t-1.5 8.5q0 45 20 80.5t56.5 56.5t83.5 21q92 0 157 -86 q-82 -25 -82 -90q0 -44 50.5 -70t138.5 -26q99 0 176.5 39t105.5 102q-50 -25 -90 -25q-76 0 -126 52.5t-50 130.5q0 90 64.5 148t163.5 58q74 0 134 -34t95 -93.5t35 -130.5q0 -22 -2 -36q47 -13 73 -44t29 -77q8 2 21 2q53 0 91 -37t38 -88q0 -60 -42 -96.5t-112 -36.5 q-21 0 -35 2q4 24 4 20q0 27 -39 27q-1 0 -132 -17.5t-193 -17.5q-47 0 -121 6zM158 643q3 -86 74 -141t198 -70q126 -14 242 -14h53q-85 33 -141.5 68.5t-112.5 95.5q-27 31 -45.5 43t-40.5 12q-9 0 -74 -14q-12 -2 -45 -2q-53 0 -108 22zM735 729q-40 23 -71 23 q-43 0 -74 -32t-31 -77q0 -59 41.5 -109t111 -80t148.5 -30q126 0 230 76q-109 -21 -181 -21q-98 0 -162.5 45.5t-64.5 114.5q0 50 53 90zM1198 741q-18 22 -18 39q0 31 34 31q27 0 48.5 -25.5t21.5 -60.5q0 -53 -40 -102.5t-132 -108.5q113 13 192.5 89.5t79.5 170.5 q0 58 -28 107t-75.5 77.5t-104.5 28.5q-71 0 -121.5 -44.5t-50.5 -108.5q0 -52 34.5 -86.5t87.5 -34.5q44 0 72 28zM1104 487q87 0 184 27q105 32 147 58.5t42 60.5q0 43 -56 55q-43 -74 -131 -131q-41 -25 -73.5 -36.5t-112.5 -33.5zM1550 426q37 3 59.5 23.5t22.5 52.5 q0 30 -22.5 49.5t-57.5 19.5q-36 0 -131 -41q-134 -60 -321 -63q-44 -16 -64 -21q56 -6 94 -6q64 0 118 6.5t153 24.5q69 14 92 14q29 0 42.5 -13.5t14.5 -45.5z" />
<glyph unicode="%" horiz-adv-x="2310" d="M1661 45q-112 0 -223 -47q-108 -44 -144 -55t-65 -11q-41 0 -67.5 21t-26.5 51q0 19 16 45t16 41q0 26 -21 41.5t-54 15.5q-29 0 -49.5 -16.5t-20.5 -38.5q0 -19 8 -31q25 -39 25 -53q0 -25 -30.5 -39t-84.5 -14q-80 0 -178 32.5t-176 86.5q-121 79 -121 164 q0 34 20.5 56.5t53.5 22.5q28 0 98 -26q57 -22 117 -36.5t127.5 -22t146.5 -7.5q218 0 425 75.5t372.5 207.5t260.5 298.5t95 340.5q0 106 -45 170l-6 -4q37 -57 37 -135q0 -92 -49.5 -203.5t-140 -221t-203.5 -194.5q-335 -256 -730 -256q-187 0 -333 51q-164 62 -164 187 q0 78 75 131t189 53q40 0 152 -14q174 -21 245 -21q72 0 112 23t40 63q0 25 -17.5 41.5t-46.5 16.5q-12 0 -20 -3q16 44 53.5 69.5t85.5 25.5q39 0 73.5 -19.5t53.5 -53t19 -71.5q0 -67 -54 -118.5t-164 -81t-266 -29.5q-41 0 -58.5 -7.5t-17.5 -27.5q0 -53 164 -53 q134 0 251.5 46.5t188 124t70.5 165.5q0 50 -26.5 84.5t-75.5 50.5q41 33 92 33q44 0 84 -23t63 -63t23 -82q0 -17 -2 -31q127 68 216 196.5t89 245.5q0 33 -15.5 57.5t-35.5 24.5t-47 -18q-37 -21 -62 -21q-33 0 -56.5 23.5t-23.5 56.5q0 42 33 70.5t80 28.5q58 0 104 -40 t72.5 -113t26.5 -165q0 -73 -14 -150t-44.5 -156.5t-70.5 -147.5q-83 -148 -170 -228q94 -3 145 -59q-12 4 -28 4q-33 0 -72 -19t-72 -51l-76 -73q-88 -89 -213 -89q-1 0 -59.5 5.5t-60.5 5.5q-17 0 -28 -8.5t-11 -20.5q0 -28 41 -31l63 -2q66 -3 117 -51zM600 365 q-90 43 -178 43q-110 0 -240 -93q-22 -14 -45 -14q-17 0 -29 11t-12 30q0 50 74.5 92.5t161.5 42.5q73 0 136 -26.5t132 -85.5z" />
<glyph unicode="&#xf025;" horiz-adv-x="2310" d="M1661 45q-112 0 -223 -47q-108 -44 -144 -55t-65 -11q-41 0 -67.5 21t-26.5 51q0 19 16 45t16 41q0 26 -21 41.5t-54 15.5q-29 0 -49.5 -16.5t-20.5 -38.5q0 -19 8 -31q25 -39 25 -53q0 -25 -30.5 -39t-84.5 -14q-80 0 -178 32.5t-176 86.5q-121 79 -121 164 q0 34 20.5 56.5t53.5 22.5q28 0 98 -26q57 -22 117 -36.5t127.5 -22t146.5 -7.5q218 0 425 75.5t372.5 207.5t260.5 298.5t95 340.5q0 106 -45 170l-6 -4q37 -57 37 -135q0 -92 -49.5 -203.5t-140 -221t-203.5 -194.5q-335 -256 -730 -256q-187 0 -333 51q-164 62 -164 187 q0 78 75 131t189 53q40 0 152 -14q174 -21 245 -21q72 0 112 23t40 63q0 25 -17.5 41.5t-46.5 16.5q-12 0 -20 -3q16 44 53.5 69.5t85.5 25.5q39 0 73.5 -19.5t53.5 -53t19 -71.5q0 -67 -54 -118.5t-164 -81t-266 -29.5q-41 0 -58.5 -7.5t-17.5 -27.5q0 -53 164 -53 q134 0 251.5 46.5t188 124t70.5 165.5q0 50 -26.5 84.5t-75.5 50.5q41 33 92 33q44 0 84 -23t63 -63t23 -82q0 -17 -2 -31q127 68 216 196.5t89 245.5q0 33 -15.5 57.5t-35.5 24.5t-47 -18q-37 -21 -62 -21q-33 0 -56.5 23.5t-23.5 56.5q0 42 33 70.5t80 28.5q58 0 104 -40 t72.5 -113t26.5 -165q0 -73 -14 -150t-44.5 -156.5t-70.5 -147.5q-83 -148 -170 -228q94 -3 145 -59q-12 4 -28 4q-33 0 -72 -19t-72 -51l-76 -73q-88 -89 -213 -89q-1 0 -59.5 5.5t-60.5 5.5q-17 0 -28 -8.5t-11 -20.5q0 -28 41 -31l63 -2q66 -3 117 -51zM600 365 q-90 43 -178 43q-110 0 -240 -93q-22 -14 -45 -14q-17 0 -29 11t-12 30q0 50 74.5 92.5t161.5 42.5q73 0 136 -26.5t132 -85.5z" />
<glyph unicode="&#x26;" horiz-adv-x="1554" d="M287 1159q46 -2 81 -18.5t81 -55.5q2 33 22 56q11 -36 26.5 -64t51.5 -76q58 -75 73.5 -104.5t30.5 -103.5q-45 10 -73.5 20t-54 27.5t-79.5 60.5q-77 60 -139 78q23 20 55 22q-69 79 -75 158zM1165 434q0 96 -22 179.5t-62 140.5q-23 -58 -40 -85.5t-54 -72.5 q-75 84 -170 84q-18 0 -37 -4q-2 -17 -2 -33q0 -52 20 -91.5t64 -80.5q-44 -36 -72.5 -53t-84.5 -41q54 -36 144 -60t175 -24q-82 -79 -155 -133.5t-146.5 -91t-144 -52.5t-142.5 -16q-96 0 -174.5 36.5t-122 101.5t-43.5 145q0 55 27.5 102t75 73.5t104.5 26.5 q47 0 90 -19.5t69.5 -51.5t26.5 -66q0 -26 -15.5 -42.5t-39.5 -16.5q-19 0 -34 13t-15 32q0 32 41 43q-6 32 -41.5 52t-81.5 20q-72 0 -121 -49t-49 -121q0 -57 28 -103t79 -74q14 27 14 58q0 -1 -4 41q26 -7 49.5 -22.5t56.5 -47.5q49 -43 83 -59.5t81 -16.5q62 0 138 28.5 t148 76t114 98.5q-174 27 -297 129q98 19 186 84q-35 40 -51.5 78.5t-20.5 87.5q-54 -51 -123.5 -79t-134.5 -28q-63 0 -116.5 28t-85 75t-31.5 100q0 51 29 90t69 39q23 0 39 -14t16 -35q0 -20 -14 -32.5t-33 -12.5q-29 0 -43 27q-26 -25 -26 -64q0 -57 35.5 -96t99.5 -53 q4 10 4 22q0 21 -12 47q19 -2 96 -33q24 -12 65 -12q108 0 211 119q70 79 70 160q0 37 -12 67q-6 18 -12 34.5t-15 35.5q0 2 -0.5 4.5l-1 5t-2 7t-2.5 8.5q27 -11 47 -11q12 0 23 2q-14 65 -53.5 101.5t-96.5 36.5q-39 0 -63 -27q26 -17 26 -45q0 -20 -12.5 -32.5 t-32.5 -12.5t-35.5 16.5t-15.5 38.5q0 38 40 68t91 30q54 0 101 -32t74.5 -85t27.5 -116q0 -65 -28 -134.5t-79 -125.5q96 -6 166 -70q65 88 84 187q101 -122 129 -297q52 42 99 112.5t75.5 147t28.5 135.5q0 50 -15 83t-61 83q-39 44 -49.5 60.5t-20.5 47.5q42 -4 41 -4 q31 0 58 13q-25 49 -72.5 79.5t-103.5 30.5q-49 0 -87.5 -23t-60.5 -62t-22 -87q0 -44 20.5 -80.5t50.5 -42.5q13 39 43 39q19 0 32 -14t13 -33q0 -25 -17 -41t-42 -16q-52 0 -94.5 58.5t-42.5 129.5q0 88 58.5 149.5t144.5 61.5q80 0 144.5 -44.5t101 -124t36.5 -177.5 q0 -150 -69 -288.5t-224 -297.5zM1100 360q41 -4 74 -4q49 0 81 13q9 -96 29 -146.5t76 -124.5q-71 57 -123 76.5t-145 28.5q14 35 14 76q0 7 -2 33t-4 48z" />
<glyph unicode="&#xf026;" horiz-adv-x="1554" d="M287 1159q46 -2 81 -18.5t81 -55.5q2 33 22 56q11 -36 26.5 -64t51.5 -76q58 -75 73.5 -104.5t30.5 -103.5q-45 10 -73.5 20t-54 27.5t-79.5 60.5q-77 60 -139 78q23 20 55 22q-69 79 -75 158zM1165 434q0 96 -22 179.5t-62 140.5q-23 -58 -40 -85.5t-54 -72.5 q-75 84 -170 84q-18 0 -37 -4q-2 -17 -2 -33q0 -52 20 -91.5t64 -80.5q-44 -36 -72.5 -53t-84.5 -41q54 -36 144 -60t175 -24q-82 -79 -155 -133.5t-146.5 -91t-144 -52.5t-142.5 -16q-96 0 -174.5 36.5t-122 101.5t-43.5 145q0 55 27.5 102t75 73.5t104.5 26.5 q47 0 90 -19.5t69.5 -51.5t26.5 -66q0 -26 -15.5 -42.5t-39.5 -16.5q-19 0 -34 13t-15 32q0 32 41 43q-6 32 -41.5 52t-81.5 20q-72 0 -121 -49t-49 -121q0 -57 28 -103t79 -74q14 27 14 58q0 -1 -4 41q26 -7 49.5 -22.5t56.5 -47.5q49 -43 83 -59.5t81 -16.5q62 0 138 28.5 t148 76t114 98.5q-174 27 -297 129q98 19 186 84q-35 40 -51.5 78.5t-20.5 87.5q-54 -51 -123.5 -79t-134.5 -28q-63 0 -116.5 28t-85 75t-31.5 100q0 51 29 90t69 39q23 0 39 -14t16 -35q0 -20 -14 -32.5t-33 -12.5q-29 0 -43 27q-26 -25 -26 -64q0 -57 35.5 -96t99.5 -53 q4 10 4 22q0 21 -12 47q19 -2 96 -33q24 -12 65 -12q108 0 211 119q70 79 70 160q0 37 -12 67q-6 18 -12 34.5t-15 35.5q0 2 -0.5 4.5l-1 5t-2 7t-2.5 8.5q27 -11 47 -11q12 0 23 2q-14 65 -53.5 101.5t-96.5 36.5q-39 0 -63 -27q26 -17 26 -45q0 -20 -12.5 -32.5 t-32.5 -12.5t-35.5 16.5t-15.5 38.5q0 38 40 68t91 30q54 0 101 -32t74.5 -85t27.5 -116q0 -65 -28 -134.5t-79 -125.5q96 -6 166 -70q65 88 84 187q101 -122 129 -297q52 42 99 112.5t75.5 147t28.5 135.5q0 50 -15 83t-61 83q-39 44 -49.5 60.5t-20.5 47.5q42 -4 41 -4 q31 0 58 13q-25 49 -72.5 79.5t-103.5 30.5q-49 0 -87.5 -23t-60.5 -62t-22 -87q0 -44 20.5 -80.5t50.5 -42.5q13 39 43 39q19 0 32 -14t13 -33q0 -25 -17 -41t-42 -16q-52 0 -94.5 58.5t-42.5 129.5q0 88 58.5 149.5t144.5 61.5q80 0 144.5 -44.5t101 -124t36.5 -177.5 q0 -150 -69 -288.5t-224 -297.5zM1100 360q41 -4 74 -4q49 0 81 13q9 -96 29 -146.5t76 -124.5q-71 57 -123 76.5t-145 28.5q14 35 14 76q0 7 -2 33t-4 48z" />
<glyph unicode="'" horiz-adv-x="2421" d="M1399 1221q-70 10 -144 10q-145 0 -302 -25t-285 -69q-107 -38 -182 -77.5t-142 -92.5t-133 -127q0 55 -10 88.5t-33 64.5q-38 57 -43.5 68t-5.5 31q0 17 31 90q20 43 20 80q0 30 -16 59q41 0 84.5 -24t78.5 -68q50 91 187 129q90 28 108 37t43 39q19 -27 19 -68 q0 -60 -39 -106q28 5 55 20t86 61q57 43 83.5 54.5t62.5 11.5q58 0 96.5 -23.5t42.5 -62.5q44 10 84 10q69 0 136 -29t118 -81zM1669 1102q-54 -8 -88.5 -24t-77.5 -50q-31 -24 -53 -24q-5 0 -23 8q-61 39 -90 39q-30 0 -61 -17q64 -41 93.5 -86.5t29.5 -101.5 q0 -61 -30.5 -109.5t-80.5 -66.5q-3 91 -100 153q-46 -100 -176 -100q24 56 24 92q0 83 -66 139t-163 56q-85 0 -179 -31.5t-177 -85.5q48 -14 86 -14q72 0 151 24q35 13 46 17t21 6t27 2q26 0 42 -14t40 -46q17 -23 26 -34t20.5 -19t29.5 -8q12 0 33 10q-24 -80 -115 -104 q16 -44 16 -80q0 -66 -41.5 -118.5t-111.5 -76.5q-9 68 -27.5 106t-58.5 70q-51 -79 -146 -79q-26 0 -67 14q35 23 35 59q0 34 -26 58t-62 24q-58 0 -107 -41.5t-78.5 -109t-29.5 -144.5q0 -265 278 -424l-26 -39q-100 57 -169 131.5t-105 163t-36 185.5q0 114 45 220.5 t129 197.5t205 161q68 40 158.5 74.5t197 60.5t205.5 38t207 12q138 0 268 -23q49 -9 83.5 -20.5t74.5 -30.5zM1786 901q63 1 102 18.5t39 45.5q0 31 -47 41q-23 6 -30.5 11.5t-28.5 29.5q-101 120 -328 161q35 2 80 2q169 0 307 -32.5t237.5 -91.5t154.5 -143t55 -183 q0 -117 -74 -211t-197 -133q0 65 49 110q-50 4 -85 41.5t-35 89.5q0 34 22 74q19 -67 70 -67q20 0 32.5 11t12.5 30l-2 47q0 15 8 28l24 39q17 26 17 64q0 55 -43 90q-15 -61 -63.5 -97t-116.5 -36q-90 0 -160 61z" />
<glyph unicode="&#xf027;" horiz-adv-x="2421" d="M1399 1221q-70 10 -144 10q-145 0 -302 -25t-285 -69q-107 -38 -182 -77.5t-142 -92.5t-133 -127q0 55 -10 88.5t-33 64.5q-38 57 -43.5 68t-5.5 31q0 17 31 90q20 43 20 80q0 30 -16 59q41 0 84.5 -24t78.5 -68q50 91 187 129q90 28 108 37t43 39q19 -27 19 -68 q0 -60 -39 -106q28 5 55 20t86 61q57 43 83.5 54.5t62.5 11.5q58 0 96.5 -23.5t42.5 -62.5q44 10 84 10q69 0 136 -29t118 -81zM1669 1102q-54 -8 -88.5 -24t-77.5 -50q-31 -24 -53 -24q-5 0 -23 8q-61 39 -90 39q-30 0 -61 -17q64 -41 93.5 -86.5t29.5 -101.5 q0 -61 -30.5 -109.5t-80.5 -66.5q-3 91 -100 153q-46 -100 -176 -100q24 56 24 92q0 83 -66 139t-163 56q-85 0 -179 -31.5t-177 -85.5q48 -14 86 -14q72 0 151 24q35 13 46 17t21 6t27 2q26 0 42 -14t40 -46q17 -23 26 -34t20.5 -19t29.5 -8q12 0 33 10q-24 -80 -115 -104 q16 -44 16 -80q0 -66 -41.5 -118.5t-111.5 -76.5q-9 68 -27.5 106t-58.5 70q-51 -79 -146 -79q-26 0 -67 14q35 23 35 59q0 34 -26 58t-62 24q-58 0 -107 -41.5t-78.5 -109t-29.5 -144.5q0 -265 278 -424l-26 -39q-100 57 -169 131.5t-105 163t-36 185.5q0 114 45 220.5 t129 197.5t205 161q68 40 158.5 74.5t197 60.5t205.5 38t207 12q138 0 268 -23q49 -9 83.5 -20.5t74.5 -30.5zM1786 901q63 1 102 18.5t39 45.5q0 31 -47 41q-23 6 -30.5 11.5t-28.5 29.5q-101 120 -328 161q35 2 80 2q169 0 307 -32.5t237.5 -91.5t154.5 -143t55 -183 q0 -117 -74 -211t-197 -133q0 65 49 110q-50 4 -85 41.5t-35 89.5q0 34 22 74q19 -67 70 -67q20 0 32.5 11t12.5 30l-2 47q0 15 8 28l24 39q17 26 17 64q0 55 -43 90q-15 -61 -63.5 -97t-116.5 -36q-90 0 -160 61z" />
<glyph unicode="(" horiz-adv-x="4037" d="M2454 694q3 177 63 289q10 18 10 29q0 16 -16 16q-25 0 -70 -61q-46 -61 -72.5 -154t-27.5 -192q-132 -94 -258 -213q83 -95 149 -187l-53 -45q-66 83 -160 172q-38 -33 -87 -86t-74 -86l-52 45q68 94 150 187q-132 122 -260 213q0 98 -26.5 191.5t-72.5 154.5 q-44 61 -71 61q-15 0 -15 -16q0 -12 11 -29q57 -112 61 -289q-65 44 -293 162q-59 130 -174 213q-33 25 -51 25q-14 0 -14 -15q0 -10 12 -22q66 -66 90 -158q-100 33 -200.5 51.5t-186.5 18.5q-25 0 -25 -17q0 -10 23 -16q100 -19 154.5 -33t112 -34.5t120.5 -49.5 q136 -64 235 -133q-88 -91 -227 -111q-29 -6 -29 -16q0 -16 33.5 -26.5t81.5 -10.5q70 0 136.5 25t105.5 67q39 -26 70 -53.5t71 -73.5q-143 -67 -303 -67q-218 0 -420 133q54 10 84.5 39t30.5 70q0 42 -33 81t-89.5 68t-133.5 46t-162 17q-109 0 -198.5 -28.5t-141 -77 t-51.5 -106.5q0 -37 19.5 -59.5t50.5 -22.5q26 0 45 18q39 -23 39 -76q0 -39 -32.5 -67.5t-76.5 -28.5q-66 0 -113 53.5t-47 128.5q0 85 54 156t153.5 118.5t231.5 63.5q105 115 220 169t253 54q115 0 272 -47q16 -6 29 -6q16 0 16 14q0 18 -16 41t-39 41q70 5 67 5 q58 0 116.5 -10t113.5 -27t106 -43q219 -116 219 -314q0 -102 -59 -164q23 -19 186 -182q98 103 185 182q-58 61 -58 164q0 199 217 314q55 28 108.5 44t112 26t115.5 10q4 0 22 -1.5t48 -3.5q-27 -22 -42 -43.5t-15 -38.5q0 -14 18 -14q10 0 29 6q156 47 270 47 q138 0 254.5 -54.5t218.5 -168.5q130 -16 230.5 -63.5t155 -118t54.5 -156.5q0 -75 -46.5 -128.5t-112.5 -53.5q-45 0 -77 28.5t-32 67.5q0 56 39 76q18 -18 43 -18q32 0 52 23t20 59q0 59 -52 107t-141.5 76.5t-197.5 28.5q-109 0 -207.5 -29t-155.5 -78t-57 -105 q0 -41 31.5 -69.5t82.5 -39.5q-202 -133 -419 -133q-161 0 -302 67q40 46 69.5 72t72.5 55q39 -42 104.5 -67t134.5 -25q68 0 97 15q18 9 18 22q0 10 -29 16q-135 19 -225 111q101 72 236 133q62 29 120.5 49.5t111.5 34t153 33.5q22 5 22 16q0 17 -22 17q-85 0 -185 -18.5 t-204 -51.5q27 92 90 158q14 14 14 22q0 15 -16 15q-14 0 -52 -25q-56 -41 -99 -93t-75 -120q-167 -88 -204 -108t-88 -54z" />
<glyph unicode="&#xf028;" horiz-adv-x="4037" d="M2454 694q3 177 63 289q10 18 10 29q0 16 -16 16q-25 0 -70 -61q-46 -61 -72.5 -154t-27.5 -192q-132 -94 -258 -213q83 -95 149 -187l-53 -45q-66 83 -160 172q-38 -33 -87 -86t-74 -86l-52 45q68 94 150 187q-132 122 -260 213q0 98 -26.5 191.5t-72.5 154.5 q-44 61 -71 61q-15 0 -15 -16q0 -12 11 -29q57 -112 61 -289q-65 44 -293 162q-59 130 -174 213q-33 25 -51 25q-14 0 -14 -15q0 -10 12 -22q66 -66 90 -158q-100 33 -200.5 51.5t-186.5 18.5q-25 0 -25 -17q0 -10 23 -16q100 -19 154.5 -33t112 -34.5t120.5 -49.5 q136 -64 235 -133q-88 -91 -227 -111q-29 -6 -29 -16q0 -16 33.5 -26.5t81.5 -10.5q70 0 136.5 25t105.5 67q39 -26 70 -53.5t71 -73.5q-143 -67 -303 -67q-218 0 -420 133q54 10 84.5 39t30.5 70q0 42 -33 81t-89.5 68t-133.5 46t-162 17q-109 0 -198.5 -28.5t-141 -77 t-51.5 -106.5q0 -37 19.5 -59.5t50.5 -22.5q26 0 45 18q39 -23 39 -76q0 -39 -32.5 -67.5t-76.5 -28.5q-66 0 -113 53.5t-47 128.5q0 85 54 156t153.5 118.5t231.5 63.5q105 115 220 169t253 54q115 0 272 -47q16 -6 29 -6q16 0 16 14q0 18 -16 41t-39 41q70 5 67 5 q58 0 116.5 -10t113.5 -27t106 -43q219 -116 219 -314q0 -102 -59 -164q23 -19 186 -182q98 103 185 182q-58 61 -58 164q0 199 217 314q55 28 108.5 44t112 26t115.5 10q4 0 22 -1.5t48 -3.5q-27 -22 -42 -43.5t-15 -38.5q0 -14 18 -14q10 0 29 6q156 47 270 47 q138 0 254.5 -54.5t218.5 -168.5q130 -16 230.5 -63.5t155 -118t54.5 -156.5q0 -75 -46.5 -128.5t-112.5 -53.5q-45 0 -77 28.5t-32 67.5q0 56 39 76q18 -18 43 -18q32 0 52 23t20 59q0 59 -52 107t-141.5 76.5t-197.5 28.5q-109 0 -207.5 -29t-155.5 -78t-57 -105 q0 -41 31.5 -69.5t82.5 -39.5q-202 -133 -419 -133q-161 0 -302 67q40 46 69.5 72t72.5 55q39 -42 104.5 -67t134.5 -25q68 0 97 15q18 9 18 22q0 10 -29 16q-135 19 -225 111q101 72 236 133q62 29 120.5 49.5t111.5 34t153 33.5q22 5 22 16q0 17 -22 17q-85 0 -185 -18.5 t-204 -51.5q27 92 90 158q14 14 14 22q0 15 -16 15q-14 0 -52 -25q-56 -41 -99 -93t-75 -120q-167 -88 -204 -108t-88 -54z" />
<glyph unicode=")" horiz-adv-x="2769" d="M1157 1153q125 63 238.5 91t240.5 28q202 0 381.5 -71t286 -188t106.5 -249q0 -90 -44.5 -164t-122 -118t-170.5 -44q-51 0 -105 17q135 -84 241.5 -119t217.5 -35q138 0 246 43l-39 -174q-55 -8 -101 -8q-130 0 -288.5 62.5t-311.5 172.5q-24 -93 -83 -162t-145 -106 t-187 -37q-120 0 -231 58t-197 165q-39 53 -79 132t-112 282q-45 135 -90.5 220t-95.5 128q-56 53 -97 53q-25 0 -43 -16t-18 -41q0 -42 68 -147q63 -95 63 -183q0 -106 -60 -194t-165.5 -139.5t-229.5 -51.5q-61 0 -135 15q77 14 116.5 59t39.5 115q0 37 -16.5 108 t-16.5 136q0 91 43 173t122 146t181 99.5t213 35.5q193 0 379 -92zM1800 471q35 -27 58 -27q31 0 51 22.5t20 53.5q0 22 -10.5 38t-36.5 36l-565 465q-49 37 -74 37q-29 0 -49 -21t-20 -49q0 -37 45 -74z" />
<glyph unicode="&#xf029;" horiz-adv-x="2769" d="M1157 1153q125 63 238.5 91t240.5 28q202 0 381.5 -71t286 -188t106.5 -249q0 -90 -44.5 -164t-122 -118t-170.5 -44q-51 0 -105 17q135 -84 241.5 -119t217.5 -35q138 0 246 43l-39 -174q-55 -8 -101 -8q-130 0 -288.5 62.5t-311.5 172.5q-24 -93 -83 -162t-145 -106 t-187 -37q-120 0 -231 58t-197 165q-39 53 -79 132t-112 282q-45 135 -90.5 220t-95.5 128q-56 53 -97 53q-25 0 -43 -16t-18 -41q0 -42 68 -147q63 -95 63 -183q0 -106 -60 -194t-165.5 -139.5t-229.5 -51.5q-61 0 -135 15q77 14 116.5 59t39.5 115q0 37 -16.5 108 t-16.5 136q0 91 43 173t122 146t181 99.5t213 35.5q193 0 379 -92zM1800 471q35 -27 58 -27q31 0 51 22.5t20 53.5q0 22 -10.5 38t-36.5 36l-565 465q-49 37 -74 37q-29 0 -49 -21t-20 -49q0 -37 45 -74z" />
<glyph unicode="*" horiz-adv-x="1612" d="M96 -27v1420h1420v-1420h-1420zM123 0h1366v1366h-1366v-1366zM145 25q15 19 21 36t6 41v25q31 4 60 16t83 47l-5 -10l-3 -6q-32 -49 -42 -71t-15 -52h-25q-41 0 -80 -26zM1300 1169q4 5 6.5 8t4.5 7q33 51 41.5 68.5t13.5 43.5q1 4 3 10t3 11q12 -2 27 -2q32 0 65 18 q-18 -45 -18 -82v-14q-35 -7 -57.5 -17t-71.5 -40zM127 682q0 139 53.5 264.5t145.5 217.5t216.5 145t262.5 53q139 0 265 -53.5t217 -144.5t144.5 -217t53.5 -265q0 -138 -53 -262.5t-145 -216.5t-217.5 -145.5t-264.5 -53.5q-138 0 -262 53t-217 146t-146 217t-53 262z M152 1346q22 -16 37.5 -21.5t39.5 -5.5h25q4 -33 15 -58.5t48 -84.5q-4 3 -8 4.5t-8 3.5q-42 29 -65 40t-58 17v25q0 41 -26 80zM1294 190q7 -3 11 -6t6 -4q61 -38 75.5 -44.5t36.5 -10.5l10 -2.5t11 -3.5q-2 -13 -2 -27q0 -32 18 -65q-45 18 -82 18h-14q-6 34 -16.5 57 t-40.5 72zM287 670q19 17 27.5 34.5t15.5 45.5q10 -13 18 -21l35 -47q27 -35 52 -49.5t61 -14.5q109 0 245 136q138 135 138 243q0 40 -17 65.5t-63 53.5q-19 12 -27.5 18.5t-12.5 10.5t-16 20q30 5 44.5 12t39.5 29q-21 16 -38.5 21.5t-49.5 5.5q-84 0 -125 -74 q60 -3 60 -49q0 -20 -16 -34.5t-37 -14.5q-26 0 -43 18.5t-17 48.5q0 56 57.5 100t129.5 44q59 0 104 -27t69.5 -74t24.5 -110q0 -75 -46 -162.5t-130 -173.5q-53 -54 -112.5 -93.5t-121.5 -59t-116 -19.5q-145 0 -195 141q1 -175 79.5 -323t213.5 -234t293 -86 q132 0 250 62.5t202 173t117 252.5q-50 -105 -127 -105q-30 0 -48.5 16.5t-18.5 41.5q0 22 13.5 36.5t35.5 14.5q19 0 31 -13t12 -34v-17q37 15 59.5 53t22.5 86q0 37 -25 76q-23 -18 -32.5 -35.5t-16.5 -50.5q-6 6 -10.5 11t-7.5 8q-1 4 -12 19.5t-23 33.5q-46 70 -107 70 q-53 0 -119 -37.5t-128 -100.5q-138 -138 -138 -250q0 -64 54 -100l28 -20q27 -20 47 -37q-25 -8 -41 -17.5t-34 -27.5q33 -29 79 -29q47 0 84 23t52 57q-6 -2 -17 -2q-20 0 -33.5 12.5t-13.5 32.5q0 21 14.5 36t36.5 15q26 0 42 -17.5t16 -47.5q0 -39 -24.5 -72.5 t-66 -53.5t-90.5 -20q-87 0 -144.5 59.5t-57.5 149.5q0 81 46.5 168t133.5 172q178 172 334 172q177 0 211 -176q4 50 4 53q0 120 -49.5 235t-134 202.5t-192.5 137.5t-224 50q-130 0 -251 -65t-204.5 -179t-107.5 -248q19 52 53 80.5t76 28.5q29 0 48 -16.5t19 -43.5 q0 -21 -14 -37t-35 -16q-47 0 -47 47q1 4 1.5 6.5t0.5 8.5q-78 -24 -78 -127q0 -30 4 -44.5t21 -41.5zM383 258q1 34 9 59.5t26.5 49t50.5 51.5q-31 4 -63 20q50 22 108 62q92 66 127.5 85t108.5 40q-14 -57 -38 -103t-85 -131q-31 -44 -40 -58t-24 -48q-15 24 -22 55 q-73 -73 -158 -82zM868 743q28 100 111 218q13 17 32 44.5t21 30.5q8 16 10.5 20t6.5 11q0 2 2 7t4 11q13 -25 20 -63q43 43 74 58.5t84 21.5q-13 -55 -29.5 -86t-52.5 -68q39 -10 59 -24q-43 -19 -114 -68q-137 -93 -228 -113zM1079 543q-10 -39 -10 -66t14 -69 q-48 12 -69 12q-23 0 -70 -12q10 35 10 65t-10 74q49 -10 82 -10q29 0 53 6zM537 958q37 -14 71 -14q32 0 68 14q-12 -36 -12 -67q0 -33 12 -70q-52 15 -78 15q-27 0 -61 -11q16 36 16 64q0 26 -16 69zM772 721h76v-76h-76v76z" />
<glyph unicode="&#xf02a;" horiz-adv-x="1612" d="M96 -27v1420h1420v-1420h-1420zM123 0h1366v1366h-1366v-1366zM145 25q15 19 21 36t6 41v25q31 4 60 16t83 47l-5 -10l-3 -6q-32 -49 -42 -71t-15 -52h-25q-41 0 -80 -26zM1300 1169q4 5 6.5 8t4.5 7q33 51 41.5 68.5t13.5 43.5q1 4 3 10t3 11q12 -2 27 -2q32 0 65 18 q-18 -45 -18 -82v-14q-35 -7 -57.5 -17t-71.5 -40zM127 682q0 139 53.5 264.5t145.5 217.5t216.5 145t262.5 53q139 0 265 -53.5t217 -144.5t144.5 -217t53.5 -265q0 -138 -53 -262.5t-145 -216.5t-217.5 -145.5t-264.5 -53.5q-138 0 -262 53t-217 146t-146 217t-53 262z M152 1346q22 -16 37.5 -21.5t39.5 -5.5h25q4 -33 15 -58.5t48 -84.5q-4 3 -8 4.5t-8 3.5q-42 29 -65 40t-58 17v25q0 41 -26 80zM1294 190q7 -3 11 -6t6 -4q61 -38 75.5 -44.5t36.5 -10.5l10 -2.5t11 -3.5q-2 -13 -2 -27q0 -32 18 -65q-45 18 -82 18h-14q-6 34 -16.5 57 t-40.5 72zM287 670q19 17 27.5 34.5t15.5 45.5q10 -13 18 -21l35 -47q27 -35 52 -49.5t61 -14.5q109 0 245 136q138 135 138 243q0 40 -17 65.5t-63 53.5q-19 12 -27.5 18.5t-12.5 10.5t-16 20q30 5 44.5 12t39.5 29q-21 16 -38.5 21.5t-49.5 5.5q-84 0 -125 -74 q60 -3 60 -49q0 -20 -16 -34.5t-37 -14.5q-26 0 -43 18.5t-17 48.5q0 56 57.5 100t129.5 44q59 0 104 -27t69.5 -74t24.5 -110q0 -75 -46 -162.5t-130 -173.5q-53 -54 -112.5 -93.5t-121.5 -59t-116 -19.5q-145 0 -195 141q1 -175 79.5 -323t213.5 -234t293 -86 q132 0 250 62.5t202 173t117 252.5q-50 -105 -127 -105q-30 0 -48.5 16.5t-18.5 41.5q0 22 13.5 36.5t35.5 14.5q19 0 31 -13t12 -34v-17q37 15 59.5 53t22.5 86q0 37 -25 76q-23 -18 -32.5 -35.5t-16.5 -50.5q-6 6 -10.5 11t-7.5 8q-1 4 -12 19.5t-23 33.5q-46 70 -107 70 q-53 0 -119 -37.5t-128 -100.5q-138 -138 -138 -250q0 -64 54 -100l28 -20q27 -20 47 -37q-25 -8 -41 -17.5t-34 -27.5q33 -29 79 -29q47 0 84 23t52 57q-6 -2 -17 -2q-20 0 -33.5 12.5t-13.5 32.5q0 21 14.5 36t36.5 15q26 0 42 -17.5t16 -47.5q0 -39 -24.5 -72.5 t-66 -53.5t-90.5 -20q-87 0 -144.5 59.5t-57.5 149.5q0 81 46.5 168t133.5 172q178 172 334 172q177 0 211 -176q4 50 4 53q0 120 -49.5 235t-134 202.5t-192.5 137.5t-224 50q-130 0 -251 -65t-204.5 -179t-107.5 -248q19 52 53 80.5t76 28.5q29 0 48 -16.5t19 -43.5 q0 -21 -14 -37t-35 -16q-47 0 -47 47q1 4 1.5 6.5t0.5 8.5q-78 -24 -78 -127q0 -30 4 -44.5t21 -41.5zM383 258q1 34 9 59.5t26.5 49t50.5 51.5q-31 4 -63 20q50 22 108 62q92 66 127.5 85t108.5 40q-14 -57 -38 -103t-85 -131q-31 -44 -40 -58t-24 -48q-15 24 -22 55 q-73 -73 -158 -82zM868 743q28 100 111 218q13 17 32 44.5t21 30.5q8 16 10.5 20t6.5 11q0 2 2 7t4 11q13 -25 20 -63q43 43 74 58.5t84 21.5q-13 -55 -29.5 -86t-52.5 -68q39 -10 59 -24q-43 -19 -114 -68q-137 -93 -228 -113zM1079 543q-10 -39 -10 -66t14 -69 q-48 12 -69 12q-23 0 -70 -12q10 35 10 65t-10 74q49 -10 82 -10q29 0 53 6zM537 958q37 -14 71 -14q32 0 68 14q-12 -36 -12 -67q0 -33 12 -70q-52 15 -78 15q-27 0 -61 -11q16 36 16 64q0 26 -16 69zM772 721h76v-76h-76v76z" />
<glyph unicode="+" horiz-adv-x="2699" d="M1772 1104q16 0 16 8q0 16 -82 16q-136 0 -265.5 -33t-254 -100t-256.5 -174q-32 -27 -76.5 -64t-85.5 -71q-78 -63 -135.5 -90t-114.5 -27q-80 0 -135 56t-55 141q0 66 41 131.5t125 130.5q94 73 212 122t262.5 74t313.5 25q403 0 692 -149q88 22 164 22q65 0 123 -12.5 t112 -36t101 -58.5t78 -75q53 -65 53 -100q0 -41 -57 -41q-29 0 -62 8q4 -38 4 -43q0 -72 -34 -128.5t-93.5 -88t-138.5 -31.5q-100 0 -169.5 57.5t-69.5 139.5q0 60 35 98.5t91 38.5q48 0 78.5 -29.5t30.5 -79.5v-6q-12 2 -29 2q-29 0 -47 -19.5t-18 -49.5q0 -36 26.5 -59 t67.5 -23t74 20.5t52 56.5t19 80q0 60 -33 109t-92 76.5t-133 27.5q-140 0 -256 -90q-74 -54 -202 -219q-55 -68 -123 -158q-46 -58 -87 -105t-75 -77t-66 -49q-106 -70 -215 -70q-67 0 -125 34.5t-92.5 93.5t-34.5 126q0 120 93 248t256 230q133 82 295 135q121 37 297 49z M784 526q-79 -79 -197.5 -158t-246 -141t-223.5 -84l-21 72q146 37 331.5 145t303.5 224zM571 1016q16 2 29 3t22 2t25 1q76 0 131 -21q10 -4 21 -4q18 0 18 17q0 19 -47 61q77 -12 150 -12q131 0 213 33q32 12 32 30q0 39 -149 39q-78 0 -157 -15t-154 -45t-132 -67 q-12 -6 -12 -14t10 -8zM1686 860q-77 64 -146 64q-106 0 -149 -111q86 -36 86 -117q0 -80 -72 -127q-31 107 -115 107q-44 0 -70 -25.5t-40 -81.5q110 -28 110 -129q0 -55 -44.5 -108.5t-108.5 -75.5q-23 -7 -23 -16q3 -15 21 -15q66 0 161 74q69 49 170 172q43 49 179 229 q69 91 124 146t109 84q114 63 223 63q85 0 154.5 -32t108 -86.5t38.5 -122.5q0 -147 -157 -199h16q51 0 95.5 27.5t71 75t26.5 102.5q0 67 -39 127q61 -29 100 -29q27 0 27 23q0 16 -23 49q-62 72 -166.5 115.5t-212.5 43.5q-124 0 -241.5 -58t-212.5 -169z" />
<glyph unicode="&#xf02b;" horiz-adv-x="2699" d="M1772 1104q16 0 16 8q0 16 -82 16q-136 0 -265.5 -33t-254 -100t-256.5 -174q-32 -27 -76.5 -64t-85.5 -71q-78 -63 -135.5 -90t-114.5 -27q-80 0 -135 56t-55 141q0 66 41 131.5t125 130.5q94 73 212 122t262.5 74t313.5 25q403 0 692 -149q88 22 164 22q65 0 123 -12.5 t112 -36t101 -58.5t78 -75q53 -65 53 -100q0 -41 -57 -41q-29 0 -62 8q4 -38 4 -43q0 -72 -34 -128.5t-93.5 -88t-138.5 -31.5q-100 0 -169.5 57.5t-69.5 139.5q0 60 35 98.5t91 38.5q48 0 78.5 -29.5t30.5 -79.5v-6q-12 2 -29 2q-29 0 -47 -19.5t-18 -49.5q0 -36 26.5 -59 t67.5 -23t74 20.5t52 56.5t19 80q0 60 -33 109t-92 76.5t-133 27.5q-140 0 -256 -90q-74 -54 -202 -219q-55 -68 -123 -158q-46 -58 -87 -105t-75 -77t-66 -49q-106 -70 -215 -70q-67 0 -125 34.5t-92.5 93.5t-34.5 126q0 120 93 248t256 230q133 82 295 135q121 37 297 49z M784 526q-79 -79 -197.5 -158t-246 -141t-223.5 -84l-21 72q146 37 331.5 145t303.5 224zM571 1016q16 2 29 3t22 2t25 1q76 0 131 -21q10 -4 21 -4q18 0 18 17q0 19 -47 61q77 -12 150 -12q131 0 213 33q32 12 32 30q0 39 -149 39q-78 0 -157 -15t-154 -45t-132 -67 q-12 -6 -12 -14t10 -8zM1686 860q-77 64 -146 64q-106 0 -149 -111q86 -36 86 -117q0 -80 -72 -127q-31 107 -115 107q-44 0 -70 -25.5t-40 -81.5q110 -28 110 -129q0 -55 -44.5 -108.5t-108.5 -75.5q-23 -7 -23 -16q3 -15 21 -15q66 0 161 74q69 49 170 172q43 49 179 229 q69 91 124 146t109 84q114 63 223 63q85 0 154.5 -32t108 -86.5t38.5 -122.5q0 -147 -157 -199h16q51 0 95.5 27.5t71 75t26.5 102.5q0 67 -39 127q61 -29 100 -29q27 0 27 23q0 16 -23 49q-62 72 -166.5 115.5t-212.5 43.5q-124 0 -241.5 -58t-212.5 -169z" />
<glyph unicode="," horiz-adv-x="3369" d="M930 283l45 2q95 9 163.5 17t160 22t150 25t179.5 34l318 61q43 9 126 24t148.5 25.5t142.5 20.5q146 21 271 21q169 0 317.5 -36t236 -95.5t87.5 -129.5q0 -26 -17 -44.5t-43 -18.5q-22 0 -38.5 15.5t-16.5 35.5q0 14 10 37q8 16 8 27q0 41 -112 84q-166 65 -387 65 q-113 0 -254 -18q-101 -13 -251.5 -38t-221.5 -40l-310 -64q-265 -54 -598 -92.5t-528 -38.5q-88 0 -151 4q-55 1 -111 5t-115 8l-43 4l10 67q143 -24 289 -24q107 0 215 14.5t207 43t211 77.5q93 41 175 87.5t151.5 97.5t124.5 106q51 53 84 97t48 84.5t15 80.5 q0 84 -59 128t-168 44q-64 0 -133.5 -14.5t-139.5 -42t-140 -66.5t-132 -88q-82 -64 -129 -131.5t-47 -122.5q0 -39 30.5 -62.5t82.5 -23.5q62 0 119.5 15t133.5 51q146 65 236 155q41 41 41 80q0 37 -47 37q-51 0 -117 -27.5t-130 -72.5t-114 -101l-36 29q54 66 122 116.5 t141 79.5t138 29q44 0 71 -24t27 -64q0 -75 -108 -170q-99 -85 -233.5 -140.5t-246.5 -55.5q-78 0 -122.5 39t-44.5 106q0 72 58 157.5t155 157.5q93 69 188 115t191 72t180 26q89 0 157 -27.5t104 -79t36 -118.5q0 -104 -75 -212t-222 -214q-75 -55 -154.5 -100.5 t-155.5 -78.5t-153 -54zM1739 696q53 36 89.5 83.5t64 112.5t49.5 165q9 39 21.5 56t35.5 17q22 0 35.5 -19t13.5 -48q0 -62 -39 -139.5t-104.5 -147.5t-132.5 -104zM1817 600l-17 35q103 52 200 130t175.5 172t140.5 208q22 39 37 52t37 13q24 0 39.5 -17.5t15.5 -41.5 q0 -45 -54 -120.5t-148 -160.5q-100 -88 -212.5 -159t-213.5 -111zM1833 502v45l27 14q141 73 243.5 119.5t204.5 81.5q136 48 268 77t222 29q116 0 116 -63q0 -26 -18.5 -38t-61.5 -15q-55 -4 -87.5 -7t-73.5 -6q-102 -8 -158 -18q-119 -19 -287 -70q-215 -66 -395 -149z M1630 543q0 30 18.5 50.5t49.5 20.5q28 0 47.5 -17t19.5 -44q0 -28 -21 -47t-50 -19q-61 0 -64 56zM1485 465q0 21 12 35t33 14q20 0 32.5 -12.5t12.5 -30.5q0 -21 -14 -33t-33 -12q-18 0 -30.5 11.5t-12.5 27.5zM1393 381q-15 0 -24 9t-9 24q0 17 11 28t28 11 q14 0 25.5 -9.5t11.5 -25.5t-13 -26.5t-30 -10.5z" />
<glyph unicode="&#xf02c;" horiz-adv-x="3369" d="M930 283l45 2q95 9 163.5 17t160 22t150 25t179.5 34l318 61q43 9 126 24t148.5 25.5t142.5 20.5q146 21 271 21q169 0 317.5 -36t236 -95.5t87.5 -129.5q0 -26 -17 -44.5t-43 -18.5q-22 0 -38.5 15.5t-16.5 35.5q0 14 10 37q8 16 8 27q0 41 -112 84q-166 65 -387 65 q-113 0 -254 -18q-101 -13 -251.5 -38t-221.5 -40l-310 -64q-265 -54 -598 -92.5t-528 -38.5q-88 0 -151 4q-55 1 -111 5t-115 8l-43 4l10 67q143 -24 289 -24q107 0 215 14.5t207 43t211 77.5q93 41 175 87.5t151.5 97.5t124.5 106q51 53 84 97t48 84.5t15 80.5 q0 84 -59 128t-168 44q-64 0 -133.5 -14.5t-139.5 -42t-140 -66.5t-132 -88q-82 -64 -129 -131.5t-47 -122.5q0 -39 30.5 -62.5t82.5 -23.5q62 0 119.5 15t133.5 51q146 65 236 155q41 41 41 80q0 37 -47 37q-51 0 -117 -27.5t-130 -72.5t-114 -101l-36 29q54 66 122 116.5 t141 79.5t138 29q44 0 71 -24t27 -64q0 -75 -108 -170q-99 -85 -233.5 -140.5t-246.5 -55.5q-78 0 -122.5 39t-44.5 106q0 72 58 157.5t155 157.5q93 69 188 115t191 72t180 26q89 0 157 -27.5t104 -79t36 -118.5q0 -104 -75 -212t-222 -214q-75 -55 -154.5 -100.5 t-155.5 -78.5t-153 -54zM1739 696q53 36 89.5 83.5t64 112.5t49.5 165q9 39 21.5 56t35.5 17q22 0 35.5 -19t13.5 -48q0 -62 -39 -139.5t-104.5 -147.5t-132.5 -104zM1817 600l-17 35q103 52 200 130t175.5 172t140.5 208q22 39 37 52t37 13q24 0 39.5 -17.5t15.5 -41.5 q0 -45 -54 -120.5t-148 -160.5q-100 -88 -212.5 -159t-213.5 -111zM1833 502v45l27 14q141 73 243.5 119.5t204.5 81.5q136 48 268 77t222 29q116 0 116 -63q0 -26 -18.5 -38t-61.5 -15q-55 -4 -87.5 -7t-73.5 -6q-102 -8 -158 -18q-119 -19 -287 -70q-215 -66 -395 -149z M1630 543q0 30 18.5 50.5t49.5 20.5q28 0 47.5 -17t19.5 -44q0 -28 -21 -47t-50 -19q-61 0 -64 56zM1485 465q0 21 12 35t33 14q20 0 32.5 -12.5t12.5 -30.5q0 -21 -14 -33t-33 -12q-18 0 -30.5 11.5t-12.5 27.5zM1393 381q-15 0 -24 9t-9 24q0 17 11 28t28 11 q14 0 25.5 -9.5t11.5 -25.5t-13 -26.5t-30 -10.5z" />
<glyph unicode="-" d="M100 41q50 74 127 173t133 161q-2 77 -8 153.5t-16 143.5q-68 0 -123 41.5t-86 117.5t-31 179q0 167 64 356q39 -43 110 -82q25 -11 92 -47q100 -51 154.5 -129.5t54.5 -171.5q0 -77 -41 -140t-116 -102q32 -89 53 -194q81 87 183.5 182.5t189.5 159.5q-29 49 -29 102 q0 105 72 200.5t190 147.5q153 68 375 68q53 0 111 -6q-33 -224 -91 -348q-44 -91 -106 -156t-138 -100t-157 -35q-59 0 -107.5 20.5t-89.5 61.5q-48 -41 -116 -109q-120 -120 -222 -239q-42 -51 -79 -97q-37 -45 -68 -88q176 153 340 240q220 114 408 114q119 0 214 -42.5 t149 -118t54 -166.5q0 -79 -38.5 -145t-105.5 -105t-146 -39q-112 0 -188.5 71t-76.5 173q0 59 29.5 110t79.5 81t106 30q52 0 94.5 -24.5t68.5 -65t26 -88.5q0 -66 -45.5 -114t-106.5 -48q-56 0 -95.5 38.5t-39.5 92.5q0 45 28 78t70 33q34 0 57 -23t23 -55q0 -43 -35 -43 q-30 0 -30 31q0 12 8 19t20 7q7 0 9 -2q-18 41 -54 41q-29 0 -48 -24t-19 -58q0 -44 31 -75t75 -31q51 0 87 38.5t36 92.5q0 41 -22.5 76t-59 55t-80.5 20q-76 0 -130 -55.5t-54 -132.5q0 -94 70 -157.5t172 -63.5q69 0 129 35t94.5 95t34.5 128q0 84 -52.5 153.5 t-143.5 108.5t-204 39q-157 0 -335.5 -83t-354.5 -241q-180 -160 -229 -282q-67 21 -105 59zM168 1325q-20 -65 -30.5 -139t-10.5 -144q0 -111 26.5 -189.5t73 -120.5t105.5 -42q-13 106 -58 262q85 -113 134 -241q127 89 127 211q0 58 -24.5 115.5t-66.5 99.5 q-27 30 -57 49.5t-125 73.5q-56 30 -94 65zM449 477q-22 111 -60 219t-78 178q68 -252 74 -473l33 39t31 37zM141 53q35 -39 56 -53q9 20 22 44.5t32 54.5t56 83q45 65 81.5 114t87 109t83.5 97q82 92 124.5 136t139.5 134q71 67 93 86t59 47q-40 -23 -96.5 -65.5 t-112.5 -91.5q-174 -150 -328 -326q-57 -67 -106 -126.5t-102 -126.5t-89 -116zM856 850q142 106 324 194q-86 -59 -179 -135q-79 -63 -116 -100q59 -68 162 -68q108 0 213.5 82t176 218.5t85.5 289.5h-45q-74 0 -147.5 -10.5t-139 -30t-121.5 -47.5q-110 -57 -171.5 -138 t-61.5 -165q0 -40 20 -90z" />
<glyph unicode="." horiz-adv-x="3369" d="M2441 283q-229 64 -463 233q-147 106 -222 214t-75 212t79.5 164.5t215.5 60.5q65 0 136 -14.5t140.5 -41t143 -67t139.5 -90.5q100 -73 157.5 -158t57.5 -157q0 -68 -45.5 -106.5t-124.5 -38.5q-112 0 -244.5 55t-232.5 141q-108 95 -108 170q0 41 26.5 64.5t69.5 23.5 q65 0 138.5 -29t142 -79.5t122.5 -116.5l-36 -29q-49 55 -114.5 100.5t-131.5 73t-117 27.5q-45 0 -45 -37q0 -39 41 -80q83 -86 233 -155q139 -66 256 -66q51 0 82 23t31 63q0 53 -47.5 121.5t-130.5 132.5q-57 46 -130.5 87.5t-142 68t-138 41t-134.5 14.5 q-109 0 -167 -44t-58 -128q0 -40 15 -80.5t48 -85.5t84 -96q164 -164 449 -291q164 -72 313.5 -103.5t321.5 -31.5q145 0 286 24l13 -67l-45 -4q-54 -3 -111.5 -7t-114.5 -6q-61 -4 -149 -4q-194 0 -528 38.5t-601 92.5l-307 64q-71 15 -223 40.5t-252 37.5q-141 18 -254 18 q-222 0 -385 -65q-115 -44 -115 -84q0 -5 11 -27q10 -35 10 -37q0 -20 -17.5 -35.5t-39.5 -15.5q-25 0 -41.5 18t-16.5 45q0 52 50 99.5t140.5 84t204.5 57t246 20.5q125 0 271 -21q77 -10 141.5 -20t148 -25.5t127.5 -24.5l316 -61q351 -71 655 -98zM1630 696l-31 -24 q-69 35 -133.5 104t-104.5 147t-40 140q0 29 14 48t37 19q21 0 33.5 -15.5t21.5 -57.5q32 -141 79.5 -224.5t123.5 -136.5zM1552 600q-103 41 -214 111t-210 159q-94 83 -149 159t-55 122q0 24 15.5 41.5t41.5 17.5q22 0 37.5 -14.5t34.5 -50.5q92 -166 225 -298t291 -212z M1538 502q-185 84 -397 149q-75 24 -149.5 42t-137.5 28q-52 10 -158 18q-26 2 -67 5.5t-94 7.5q-80 6 -80 53q0 63 116 63q92 0 223 -29t267 -77q183 -65 448 -201l29 -14v-45zM1739 543q-1 -25 -18 -40.5t-46 -15.5t-50 19t-21 47q0 26 19.5 43.5t49.5 17.5t48 -20.5 t18 -50.5zM1886 465q0 -17 -12.5 -28t-30.5 -11q-19 0 -33 12t-14 33q0 17 12 30t31 13q20 0 33.5 -13.5t13.5 -35.5zM1976 381q-16 0 -28.5 10.5t-12.5 26.5q0 15 10 25t25 10q17 0 28 -11t11 -28q0 -33 -33 -33z" />
<glyph unicode="&#xf02e;" horiz-adv-x="3369" d="M2441 283q-229 64 -463 233q-147 106 -222 214t-75 212t79.5 164.5t215.5 60.5q65 0 136 -14.5t140.5 -41t143 -67t139.5 -90.5q100 -73 157.5 -158t57.5 -157q0 -68 -45.5 -106.5t-124.5 -38.5q-112 0 -244.5 55t-232.5 141q-108 95 -108 170q0 41 26.5 64.5t69.5 23.5 q65 0 138.5 -29t142 -79.5t122.5 -116.5l-36 -29q-49 55 -114.5 100.5t-131.5 73t-117 27.5q-45 0 -45 -37q0 -39 41 -80q83 -86 233 -155q139 -66 256 -66q51 0 82 23t31 63q0 53 -47.5 121.5t-130.5 132.5q-57 46 -130.5 87.5t-142 68t-138 41t-134.5 14.5 q-109 0 -167 -44t-58 -128q0 -40 15 -80.5t48 -85.5t84 -96q164 -164 449 -291q164 -72 313.5 -103.5t321.5 -31.5q145 0 286 24l13 -67l-45 -4q-54 -3 -111.5 -7t-114.5 -6q-61 -4 -149 -4q-194 0 -528 38.5t-601 92.5l-307 64q-71 15 -223 40.5t-252 37.5q-141 18 -254 18 q-222 0 -385 -65q-115 -44 -115 -84q0 -5 11 -27q10 -35 10 -37q0 -20 -17.5 -35.5t-39.5 -15.5q-25 0 -41.5 18t-16.5 45q0 52 50 99.5t140.5 84t204.5 57t246 20.5q125 0 271 -21q77 -10 141.5 -20t148 -25.5t127.5 -24.5l316 -61q351 -71 655 -98zM1630 696l-31 -24 q-69 35 -133.5 104t-104.5 147t-40 140q0 29 14 48t37 19q21 0 33.5 -15.5t21.5 -57.5q32 -141 79.5 -224.5t123.5 -136.5zM1552 600q-103 41 -214 111t-210 159q-94 83 -149 159t-55 122q0 24 15.5 41.5t41.5 17.5q22 0 37.5 -14.5t34.5 -50.5q92 -166 225 -298t291 -212z M1538 502q-185 84 -397 149q-75 24 -149.5 42t-137.5 28q-52 10 -158 18q-26 2 -67 5.5t-94 7.5q-80 6 -80 53q0 63 116 63q92 0 223 -29t267 -77q183 -65 448 -201l29 -14v-45zM1739 543q-1 -25 -18 -40.5t-46 -15.5t-50 19t-21 47q0 26 19.5 43.5t49.5 17.5t48 -20.5 t18 -50.5zM1886 465q0 -17 -12.5 -28t-30.5 -11q-19 0 -33 12t-14 33q0 17 12 30t31 13q20 0 33.5 -13.5t13.5 -35.5zM1976 381q-16 0 -28.5 10.5t-12.5 26.5q0 15 10 25t25 10q17 0 28 -11t11 -28q0 -33 -33 -33z" />
<glyph unicode="/" horiz-adv-x="2511" d="M2064 612q61 27 125 27q66 0 117.5 -21t81 -58t29.5 -81q0 -49 -30 -89t-87 -71.5t-133 -48.5q-54 -89 -153 -134.5t-232 -45.5q-142 0 -291.5 52.5t-274 141.5t-197.5 195.5t-73 208.5q0 169 205 184q77 8 100.5 14.5t42.5 24.5q29 26 29 76q0 24 -10 60q96 -73 96 -203 q0 -78 -31.5 -138t-88 -94t-126.5 -34q-78 0 -153 34q20 -85 96 -173t188 -161t240 -116t244 -43q241 0 354 151q-36 -10 -94 -10q-184 0 -315.5 78t-131.5 186q0 74 66.5 120t171.5 46q138 0 235 -78zM848 635q-101 -49 -209 -49q-73 0 -132 20t-138 70q-100 63 -151.5 85 t-111.5 32q32 32 66.5 51t85.5 33q-41 64 -41 143q0 26 8 84l17 86q4 24 4 49q0 76 -38.5 125.5t-111.5 65.5q50 4 56 4q100 0 193.5 -56.5t154 -151t73.5 -206.5q36 44 72.5 66.5t87.5 37.5q-45 -119 -45 -204q0 -206 160 -285zM215 100q43 -39 90 -39t90 35.5t68 93.5 l41 101q83 207 272 207q144 0 258 -150l-8 -6q-67 78 -147 78q-135 0 -179 -168l-28 -111q-24 -99 -85 -154t-147 -55q-80 0 -137.5 42.5t-87.5 125.5zM2089 592q109 -94 109 -209q0 -34 -17 -78q96 21 151.5 68t55.5 108q0 58 -55.5 93.5t-143.5 35.5q-50 0 -100 -18z M2064 582q-98 -50 -98 -127q0 -61 55 -95l-6 -14q-73 33 -73 113q0 85 96 139q-95 64 -203 64q-96 0 -154.5 -39.5t-58.5 -100.5q0 -60 57 -114t153 -85.5t204 -31.5q63 0 114 10q19 51 19 84q0 101 -105 197zM1341 950q-5 -51 -39 -80.5t-118 -52.5q-66 -14 -89 -24 t-42 -29q-49 -43 -49 -111q1 -4 1.5 -8t0.5 -12q45 -25 90 -25q59 0 110 37q-40 8 -63 37q14 -2 28 -2q106 0 158 80q-35 -12 -57 -12q-14 0 -35 6q53 14 82 52t29 93q0 20 -7 51zM817 637q-121 25 -221 125q-62 64 -97.5 135t-74.5 209q-25 93 -58.5 155.5t-79 98 t-110.5 53.5q114 -67 131 -205l17 -100q5 -48 43 -113q-41 18 -57.5 30t-41.5 42q14 -112 85.5 -195t187.5 -120q-45 -23 -90 -23q-9 0 -41 4q54 -49 136.5 -77.5t172.5 -28.5q52 0 98 10zM258 51q45 -35 109 -35q77 0 137 47q-10 -44 -45 -81q78 18 122.5 92.5t49.5 195.5 q19 -44 24 -88q3 5 4.5 9t2.5 6l24 90q20 71 70 111t121 40q9 0 17.5 -0.5t18.5 -1.5q-47 25 -94 25q-128 0 -221 -164l-51 -86q-51 -88 -104 -130t-117 -42q-21 0 -68 12z" />
<glyph unicode="&#xf02f;" horiz-adv-x="2511" d="M2064 612q61 27 125 27q66 0 117.5 -21t81 -58t29.5 -81q0 -49 -30 -89t-87 -71.5t-133 -48.5q-54 -89 -153 -134.5t-232 -45.5q-142 0 -291.5 52.5t-274 141.5t-197.5 195.5t-73 208.5q0 169 205 184q77 8 100.5 14.5t42.5 24.5q29 26 29 76q0 24 -10 60q96 -73 96 -203 q0 -78 -31.5 -138t-88 -94t-126.5 -34q-78 0 -153 34q20 -85 96 -173t188 -161t240 -116t244 -43q241 0 354 151q-36 -10 -94 -10q-184 0 -315.5 78t-131.5 186q0 74 66.5 120t171.5 46q138 0 235 -78zM848 635q-101 -49 -209 -49q-73 0 -132 20t-138 70q-100 63 -151.5 85 t-111.5 32q32 32 66.5 51t85.5 33q-41 64 -41 143q0 26 8 84l17 86q4 24 4 49q0 76 -38.5 125.5t-111.5 65.5q50 4 56 4q100 0 193.5 -56.5t154 -151t73.5 -206.5q36 44 72.5 66.5t87.5 37.5q-45 -119 -45 -204q0 -206 160 -285zM215 100q43 -39 90 -39t90 35.5t68 93.5 l41 101q83 207 272 207q144 0 258 -150l-8 -6q-67 78 -147 78q-135 0 -179 -168l-28 -111q-24 -99 -85 -154t-147 -55q-80 0 -137.5 42.5t-87.5 125.5zM2089 592q109 -94 109 -209q0 -34 -17 -78q96 21 151.5 68t55.5 108q0 58 -55.5 93.5t-143.5 35.5q-50 0 -100 -18z M2064 582q-98 -50 -98 -127q0 -61 55 -95l-6 -14q-73 33 -73 113q0 85 96 139q-95 64 -203 64q-96 0 -154.5 -39.5t-58.5 -100.5q0 -60 57 -114t153 -85.5t204 -31.5q63 0 114 10q19 51 19 84q0 101 -105 197zM1341 950q-5 -51 -39 -80.5t-118 -52.5q-66 -14 -89 -24 t-42 -29q-49 -43 -49 -111q1 -4 1.5 -8t0.5 -12q45 -25 90 -25q59 0 110 37q-40 8 -63 37q14 -2 28 -2q106 0 158 80q-35 -12 -57 -12q-14 0 -35 6q53 14 82 52t29 93q0 20 -7 51zM817 637q-121 25 -221 125q-62 64 -97.5 135t-74.5 209q-25 93 -58.5 155.5t-79 98 t-110.5 53.5q114 -67 131 -205l17 -100q5 -48 43 -113q-41 18 -57.5 30t-41.5 42q14 -112 85.5 -195t187.5 -120q-45 -23 -90 -23q-9 0 -41 4q54 -49 136.5 -77.5t172.5 -28.5q52 0 98 10zM258 51q45 -35 109 -35q77 0 137 47q-10 -44 -45 -81q78 18 122.5 92.5t49.5 195.5 q19 -44 24 -88q3 5 4.5 9t2.5 6l24 90q20 71 70 111t121 40q9 0 17.5 -0.5t18.5 -1.5q-47 25 -94 25q-128 0 -221 -164l-51 -86q-51 -88 -104 -130t-117 -42q-21 0 -68 12z" />
<glyph unicode="0" horiz-adv-x="2509" d="M465 1214q-7 0 -17.5 1.5l-17.5 2.5t-13 2t-14 1q-41 0 -66.5 -19.5t-25.5 -50.5q0 -30 24.5 -49t65.5 -19t118 30.5t253 119.5q226 113 459 113q64 0 219.5 -6.5t224.5 -6.5q75 0 125 4t104 14.5t96 25.5t103 42q34 15 51 15q29 0 50 -33l22 -35q69 -113 115 -182 q72 -105 72 -127q0 -13 -8 -21t-19 -8q-14 0 -35 16q-102 88 -143 115q-82 57 -158.5 84t-151.5 27q-113 0 -204 -48t-147 -135t-66 -202q67 70 123.5 98.5t126.5 28.5q88 0 157.5 -40t109.5 -109.5t40 -157.5q0 -127 -88 -261t-248 -249q-118 -84 -260.5 -143t-300 -89.5 t-326.5 -30.5q-130 0 -258 20t-238 57t-192 89q-31 19 -31 41q0 29 31 29q17 0 29.5 -0.5t25.5 -1.5q119 0 226 63q144 88 204 346q37 156 83 258.5t100.5 160t117 81t138.5 23.5q234 0 315 -240q15 110 45 183t83 125.5t144 99.5q-49 2 -110 2q-136 0 -297 -24t-277 -64 q-331 -114 -437 -143t-191 -29q-83 0 -139 41t-56 100q0 56 50.5 94.5t123.5 38.5q56 0 114 -19t58 -38q0 -11 -12 -11zM1937 709q0 92 -58 153.5t-148 61.5q-63 0 -121.5 -33t-96.5 -88l-149 -219q-214 -317 -524 -437q-31 -12 -45 -12q-17 0 -17 12t25 23q196 88 356 270 q148 168 148 308q0 74 -33 134.5t-91.5 94t-131.5 33.5q-72 0 -137.5 -34.5t-112.5 -98.5q-41 -55 -65.5 -113.5t-51.5 -173.5q-29 -127 -55.5 -199.5t-64 -124t-95.5 -98.5q-18 -13 -24.5 -21t-6.5 -20q0 -22 25 -37q58 -37 176 -59.5t252 -22.5q192 0 382 58t339 157.5 t237 227.5t88 258z" />
<glyph unicode="&#xf030;" horiz-adv-x="2509" d="M465 1214q-7 0 -17.5 1.5l-17.5 2.5t-13 2t-14 1q-41 0 -66.5 -19.5t-25.5 -50.5q0 -30 24.5 -49t65.5 -19t118 30.5t253 119.5q226 113 459 113q64 0 219.5 -6.5t224.5 -6.5q75 0 125 4t104 14.5t96 25.5t103 42q34 15 51 15q29 0 50 -33l22 -35q69 -113 115 -182 q72 -105 72 -127q0 -13 -8 -21t-19 -8q-14 0 -35 16q-102 88 -143 115q-82 57 -158.5 84t-151.5 27q-113 0 -204 -48t-147 -135t-66 -202q67 70 123.5 98.5t126.5 28.5q88 0 157.5 -40t109.5 -109.5t40 -157.5q0 -127 -88 -261t-248 -249q-118 -84 -260.5 -143t-300 -89.5 t-326.5 -30.5q-130 0 -258 20t-238 57t-192 89q-31 19 -31 41q0 29 31 29q17 0 29.5 -0.5t25.5 -1.5q119 0 226 63q144 88 204 346q37 156 83 258.5t100.5 160t117 81t138.5 23.5q234 0 315 -240q15 110 45 183t83 125.5t144 99.5q-49 2 -110 2q-136 0 -297 -24t-277 -64 q-331 -114 -437 -143t-191 -29q-83 0 -139 41t-56 100q0 56 50.5 94.5t123.5 38.5q56 0 114 -19t58 -38q0 -11 -12 -11zM1937 709q0 92 -58 153.5t-148 61.5q-63 0 -121.5 -33t-96.5 -88l-149 -219q-214 -317 -524 -437q-31 -12 -45 -12q-17 0 -17 12t25 23q196 88 356 270 q148 168 148 308q0 74 -33 134.5t-91.5 94t-131.5 33.5q-72 0 -137.5 -34.5t-112.5 -98.5q-41 -55 -65.5 -113.5t-51.5 -173.5q-29 -127 -55.5 -199.5t-64 -124t-95.5 -98.5q-18 -13 -24.5 -21t-6.5 -20q0 -22 25 -37q58 -37 176 -59.5t252 -22.5q192 0 382 58t339 157.5 t237 227.5t88 258z" />
<glyph unicode="1" horiz-adv-x="1626" d="M623 1329l8 -26l-8 -11l-7 -32l7 -66l20 -35l82 -98l12 -4l60 -60l61 47l-41 95l-2 86l12 22l21 -82l35 -75v-13l8 -8l80 53l47 25l65 16l15 -2l18 -14l12 -17l7 -28l4 -51l-4 -174l-15 -76l-12 227l-21 64l-16 20l-22 6l-35 -4l-51 -20l-64 -37l31 -62l88 -127l115 -149 l-175 190l-94 125l-55 -47l35 -37l18 -10l101 -92h10l20 -31h13l32 -26l-8 -21h19l32 -20l4 -13l31 -24l51 -51l207 108l103 35l30 2l13 -8l10 -27l-10 -82l-84 -346l-29 -82l-29 -55l47 155v9l19 63v17l37 180v104l-13 25l-34 6l-39 -8l-168 -82l-49 -27l61 -55l6 -14 l80 -103l-4 -16l12 -2l21 -47l8 -13l16 -102l-6 -18l4 -15l-14 -35l-8 25l-49 88l-21 2l8 29l-22 -4l-31 47l-51 41v12l-51 35l104 -131v-13l10 -2l41 -63l-2 -10l21 -23l49 -123l-4 -12l14 -66l-18 -47l-6 13l4 10l-4 18l-37 74l-27 33l-20 35l-58 65l-61 72l-2 8l8 4 l-35 16l-8 21h-8l-66 55l4 8l-24 13l-4 16l-19 4l-33 35l-79 -51l90 -49l198 -142l95 -86l6 -16l-74 66l-188 131l-99 59l-53 27l-154 -93l-108 -51l-58 -18l-32 6l-19 12l-10 23l-10 43l4 94l29 106l-17 -4l-123 7l-63 -3l-82 -12l-113 -37l10 15l138 67h22l6 6l97 -2 l10 -6l121 -10l90 158l-37 18l-10 16l-15 -6l-45 19l-61 12l-86 4l-23 -10l-8 6l2 14l17 7l41 32l16 6l12 15l90 49l74 -4l6 -10l23 -2l92 -50l16 25l-84 72l-71 75l-19 29l-12 53l14 50l23 40l41 46zM1380 1225l88 43l-106 -113l-78 -119l-47 -116l-12 -17l-45 -160 l-15 -32l-2 16l39 209l-2 12l31 72l-4 6l14 61l12 5l-2 18l19 16v13l14 10l16 22l64 43l10 -2zM815 207l19 -8l112 -52l55 -28v-10l21 2l6 -11l70 -26l22 -2l39 4l49 14l62 35l22 -4l-125 -76l-116 -47l-56 2l-63 18l-17 9h-14l-51 22l-19 2l-8 12l-18 -8l-8 2l-2 9l6 8 l-2 6h-6l-9 -14l-88 12l-37 -2l-124 -39l47 43l86 55l14 2l6 15l49 28l21 6l10 11zM709 883l-19 -23l47 -26l4 -11l99 -59zM604 750l-55 -93l-33 -65l98 -27l185 -63l61 -31l82 57l-24 9l-29 36l-37 29h-18l-11 16l-80 46l-12 16l-14 4l-47 25l-11 12zM508 565l-16 -59 l-5 -55l7 -43l14 -50l18 -16l27 -10l39 4l65 24l181 101l-183 69z" />
<glyph unicode="&#xf031;" horiz-adv-x="1626" d="M623 1329l8 -26l-8 -11l-7 -32l7 -66l20 -35l82 -98l12 -4l60 -60l61 47l-41 95l-2 86l12 22l21 -82l35 -75v-13l8 -8l80 53l47 25l65 16l15 -2l18 -14l12 -17l7 -28l4 -51l-4 -174l-15 -76l-12 227l-21 64l-16 20l-22 6l-35 -4l-51 -20l-64 -37l31 -62l88 -127l115 -149 l-175 190l-94 125l-55 -47l35 -37l18 -10l101 -92h10l20 -31h13l32 -26l-8 -21h19l32 -20l4 -13l31 -24l51 -51l207 108l103 35l30 2l13 -8l10 -27l-10 -82l-84 -346l-29 -82l-29 -55l47 155v9l19 63v17l37 180v104l-13 25l-34 6l-39 -8l-168 -82l-49 -27l61 -55l6 -14 l80 -103l-4 -16l12 -2l21 -47l8 -13l16 -102l-6 -18l4 -15l-14 -35l-8 25l-49 88l-21 2l8 29l-22 -4l-31 47l-51 41v12l-51 35l104 -131v-13l10 -2l41 -63l-2 -10l21 -23l49 -123l-4 -12l14 -66l-18 -47l-6 13l4 10l-4 18l-37 74l-27 33l-20 35l-58 65l-61 72l-2 8l8 4 l-35 16l-8 21h-8l-66 55l4 8l-24 13l-4 16l-19 4l-33 35l-79 -51l90 -49l198 -142l95 -86l6 -16l-74 66l-188 131l-99 59l-53 27l-154 -93l-108 -51l-58 -18l-32 6l-19 12l-10 23l-10 43l4 94l29 106l-17 -4l-123 7l-63 -3l-82 -12l-113 -37l10 15l138 67h22l6 6l97 -2 l10 -6l121 -10l90 158l-37 18l-10 16l-15 -6l-45 19l-61 12l-86 4l-23 -10l-8 6l2 14l17 7l41 32l16 6l12 15l90 49l74 -4l6 -10l23 -2l92 -50l16 25l-84 72l-71 75l-19 29l-12 53l14 50l23 40l41 46zM1380 1225l88 43l-106 -113l-78 -119l-47 -116l-12 -17l-45 -160 l-15 -32l-2 16l39 209l-2 12l31 72l-4 6l14 61l12 5l-2 18l19 16v13l14 10l16 22l64 43l10 -2zM815 207l19 -8l112 -52l55 -28v-10l21 2l6 -11l70 -26l22 -2l39 4l49 14l62 35l22 -4l-125 -76l-116 -47l-56 2l-63 18l-17 9h-14l-51 22l-19 2l-8 12l-18 -8l-8 2l-2 9l6 8 l-2 6h-6l-9 -14l-88 12l-37 -2l-124 -39l47 43l86 55l14 2l6 15l49 28l21 6l10 11zM709 883l-19 -23l47 -26l4 -11l99 -59zM604 750l-55 -93l-33 -65l98 -27l185 -63l61 -31l82 57l-24 9l-29 36l-37 29h-18l-11 16l-80 46l-12 16l-14 4l-47 25l-11 12zM508 565l-16 -59 l-5 -55l7 -43l14 -50l18 -16l27 -10l39 4l65 24l181 101l-183 69z" />
<glyph unicode="2" horiz-adv-x="1745" d="M1411 1286l16 -10l-18 -68l-18 -32v-17l-50 -106l-55 -60l-88 -55l-14 -2l-19 -16l-16 8l-2 -15l-12 -8h-13l-14 -12l-6 -53l18 10l21 -2l39 12l61 4l39 -4l31 -29l69 -178l-94 60l-49 10l-37 -2l-10 4l-8 -8l-45 -4l-54 -17l-32 -131l114 17l113 6l154 -10l79 -21 l62 -29l41 -34l35 -56l-66 51l-49 25l-68 23l-125 18h-192l-107 -14l-43 -103l-55 -90l-22 -22l-31 -15h-17l-32 23l-117 127l-100 -35l-232 -107l-127 -86l-8 -2l29 33l102 68l88 47l154 67l82 29l-47 62l-187 -109l-84 -61l-10 -2l-92 -78l-8 -15l-17 -6l-4 -12l-18 -12 l-148 -179l6 29l78 144l13 10v14l84 121l24 25l35 49l29 28h16l8 23l21 10l53 55l-43 -22l-78 -53l-74 -68l-6 14l39 88v9l53 82l9 4l28 32l109 76l-58 51l-43 17h-12l-22 -15l-41 -59l-35 -72l-45 -153l-25 -150l-10 -2l4 60l39 188l22 72l48 108l36 64l17 14l18 4l27 -14 l92 -105l45 25l57 96l68 137v13l10 14l-4 8l35 117l-2 41l-14 12l-37 2l-39 -10l-21 8l146 45l12 8l18 -4l3 7l30 10l15 -6l4 -15l-27 -80l-31 -53l-6 -20l-186 -310l90 54l16 -2l6 16l23 6l137 70l27 6l100 51h15l4 12l12 2l65 35l-4 31l-80 -53l-110 -62l-47 -16l133 88 l35 18l63 50l-10 36l-29 35l-30 8l-48 -22l-59 -62l-55 -67l-51 -82l-13 -4l19 43l49 72l90 110l66 51l30 15l17 -2l14 -13l18 -49l13 -53l57 43l78 80l39 51l-43 -94l-25 -31l-102 -80l2 -28l90 49l10 -4l6 4v8l58 39l12 2l6 12l8 4l11 -2l4 19l59 47l6 12l10 4l17 21z M297 193l133 2l45 -17l31 -4l2 -18l18 8l127 -35l84 -6l25 2l31 12l41 31l10 -2l-6 -10l-109 -105h-12l-4 -14l-64 -37l-35 -6l-125 49l-28 18l-148 50h-69l-41 -15l-107 -71l66 67l114 90l11 -6zM1092 889l-70 -39l-88 -43l-43 -27l72 25l14 -6l16 14l19 4l35 17l10 -5 l26 9zM1065 694l-29 -8l-16 -8l-100 -25l-5 6l-6 -18l-39 -20l-16 20v-16l-8 -11l-15 4l-57 -32l-35 -11l-59 -32l51 -62l115 37l184 43zM1020 539l-90 -19l-187 -55l95 -86l32 -14l33 2l31 20l37 45z" />
<glyph unicode="&#xf032;" horiz-adv-x="1745" d="M1411 1286l16 -10l-18 -68l-18 -32v-17l-50 -106l-55 -60l-88 -55l-14 -2l-19 -16l-16 8l-2 -15l-12 -8h-13l-14 -12l-6 -53l18 10l21 -2l39 12l61 4l39 -4l31 -29l69 -178l-94 60l-49 10l-37 -2l-10 4l-8 -8l-45 -4l-54 -17l-32 -131l114 17l113 6l154 -10l79 -21 l62 -29l41 -34l35 -56l-66 51l-49 25l-68 23l-125 18h-192l-107 -14l-43 -103l-55 -90l-22 -22l-31 -15h-17l-32 23l-117 127l-100 -35l-232 -107l-127 -86l-8 -2l29 33l102 68l88 47l154 67l82 29l-47 62l-187 -109l-84 -61l-10 -2l-92 -78l-8 -15l-17 -6l-4 -12l-18 -12 l-148 -179l6 29l78 144l13 10v14l84 121l24 25l35 49l29 28h16l8 23l21 10l53 55l-43 -22l-78 -53l-74 -68l-6 14l39 88v9l53 82l9 4l28 32l109 76l-58 51l-43 17h-12l-22 -15l-41 -59l-35 -72l-45 -153l-25 -150l-10 -2l4 60l39 188l22 72l48 108l36 64l17 14l18 4l27 -14 l92 -105l45 25l57 96l68 137v13l10 14l-4 8l35 117l-2 41l-14 12l-37 2l-39 -10l-21 8l146 45l12 8l18 -4l3 7l30 10l15 -6l4 -15l-27 -80l-31 -53l-6 -20l-186 -310l90 54l16 -2l6 16l23 6l137 70l27 6l100 51h15l4 12l12 2l65 35l-4 31l-80 -53l-110 -62l-47 -16l133 88 l35 18l63 50l-10 36l-29 35l-30 8l-48 -22l-59 -62l-55 -67l-51 -82l-13 -4l19 43l49 72l90 110l66 51l30 15l17 -2l14 -13l18 -49l13 -53l57 43l78 80l39 51l-43 -94l-25 -31l-102 -80l2 -28l90 49l10 -4l6 4v8l58 39l12 2l6 12l8 4l11 -2l4 19l59 47l6 12l10 4l17 21z M297 193l133 2l45 -17l31 -4l2 -18l18 8l127 -35l84 -6l25 2l31 12l41 31l10 -2l-6 -10l-109 -105h-12l-4 -14l-64 -37l-35 -6l-125 49l-28 18l-148 50h-69l-41 -15l-107 -71l66 67l114 90l11 -6zM1092 889l-70 -39l-88 -43l-43 -27l72 25l14 -6l16 14l19 4l35 17l10 -5 l26 9zM1065 694l-29 -8l-16 -8l-100 -25l-5 6l-6 -18l-39 -20l-16 20v-16l-8 -11l-15 4l-57 -32l-35 -11l-59 -32l51 -62l115 37l184 43zM1020 539l-90 -19l-187 -55l95 -86l32 -14l33 2l31 20l37 45z" />
<glyph unicode="3" horiz-adv-x="2263" d="M2154 1225q-44 -48 -73 -87t-40 -73.5t-11 -77.5q0 -42 10 -110q10 -62 10 -95q0 -82 -52.5 -155.5t-142 -116.5t-190.5 -43q-93 0 -207 57q-16 8 -26 8q-27 0 -27 -34q0 -25 17 -66.5t40 -77.5q59 -83 148.5 -136.5t169.5 -53.5q44 0 65 21.5t27 74.5q3 39 11 63t26 42 q41 41 104 41q66 0 108 -43.5t42 -110.5q0 -59 -37 -108.5t-101.5 -78t-142.5 -28.5q-184 0 -350 127q-35 28 -57.5 50t-48.5 54.5t-56 82.5t-47 81q-33 60 -59 60q-15 0 -27 -9t-29 -39q-105 -172 -215 -253.5t-239 -81.5q-90 0 -185 22q-71 18 -121 28.5t-88 10.5 q-86 0 -184 -94q-27 -25 -37 -32t-20 -7q-19 0 -19 26q0 52 35.5 120t87.5 112q14 11 34.5 30t45.5 40q28 25 40.5 41.5t22 42t23.5 77.5q17 60 45 91.5t82 50.5q28 9 47 15.5t51 16.5q48 17 48 45q0 30 -48 46q-29 9 -42.5 14t-25 16t-18 22t-30.5 54q-39 77 -83.5 111 t-109.5 34q-92 0 -166 -65q-19 -16 -28 -16q-15 0 -15 18q0 36 51 102q106 137 302 158q38 4 60 11.5t28 21.5q21 35 41 46t51 11q81 0 195.5 -31t193.5 -75q56 -32 95 -63t84 -80.5t101 -121.5q51 -65 103 -65q94 0 94 137q0 74 24 107.5t78 33.5q29 0 89 -20q21 -8 40 -8 q20 0 34 10t32 37q88 139 207 139q36 0 76.5 -12.5t66 -31.5t25.5 -38q0 -10 -13 -22zM610 1067q0 -19 14.5 -30t45.5 -21q183 -53 270 -107q39 -25 80.5 -60t81 -75.5t67.5 -79.5q17 -24 31 -24q21 0 21 28q0 32 -23 90t-55 103q-73 107 -183 167t-233 60q-64 0 -90 -12 t-27 -39zM578 373q0 -26 45.5 -47t105.5 -21q91 0 180.5 40t145 102t55.5 128q0 35 -27 35q-10 0 -26 -16q-73 -67 -176 -113t-263 -80q-26 -5 -33 -9.5t-7 -18.5zM1870 872q1 10 2 21.5t2 21.5t1.5 14.5t0.5 10.5q0 8 -5 13t-11 5q-14 0 -37 -24t-37 -53 q-36 -69 -72 -105.5t-78 -51.5t-96 -17q-18 0 -49 6t-43 6q-25 0 -25 -23q0 -32 66 -61t135 -29q121 0 184.5 58t63.5 118q0 14 -1 33.5t-2 35.5q0 5 0.5 9.5t0.5 11.5z" />
<glyph unicode="&#xf033;" horiz-adv-x="2263" d="M2154 1225q-44 -48 -73 -87t-40 -73.5t-11 -77.5q0 -42 10 -110q10 -62 10 -95q0 -82 -52.5 -155.5t-142 -116.5t-190.5 -43q-93 0 -207 57q-16 8 -26 8q-27 0 -27 -34q0 -25 17 -66.5t40 -77.5q59 -83 148.5 -136.5t169.5 -53.5q44 0 65 21.5t27 74.5q3 39 11 63t26 42 q41 41 104 41q66 0 108 -43.5t42 -110.5q0 -59 -37 -108.5t-101.5 -78t-142.5 -28.5q-184 0 -350 127q-35 28 -57.5 50t-48.5 54.5t-56 82.5t-47 81q-33 60 -59 60q-15 0 -27 -9t-29 -39q-105 -172 -215 -253.5t-239 -81.5q-90 0 -185 22q-71 18 -121 28.5t-88 10.5 q-86 0 -184 -94q-27 -25 -37 -32t-20 -7q-19 0 -19 26q0 52 35.5 120t87.5 112q14 11 34.5 30t45.5 40q28 25 40.5 41.5t22 42t23.5 77.5q17 60 45 91.5t82 50.5q28 9 47 15.5t51 16.5q48 17 48 45q0 30 -48 46q-29 9 -42.5 14t-25 16t-18 22t-30.5 54q-39 77 -83.5 111 t-109.5 34q-92 0 -166 -65q-19 -16 -28 -16q-15 0 -15 18q0 36 51 102q106 137 302 158q38 4 60 11.5t28 21.5q21 35 41 46t51 11q81 0 195.5 -31t193.5 -75q56 -32 95 -63t84 -80.5t101 -121.5q51 -65 103 -65q94 0 94 137q0 74 24 107.5t78 33.5q29 0 89 -20q21 -8 40 -8 q20 0 34 10t32 37q88 139 207 139q36 0 76.5 -12.5t66 -31.5t25.5 -38q0 -10 -13 -22zM610 1067q0 -19 14.5 -30t45.5 -21q183 -53 270 -107q39 -25 80.5 -60t81 -75.5t67.5 -79.5q17 -24 31 -24q21 0 21 28q0 32 -23 90t-55 103q-73 107 -183 167t-233 60q-64 0 -90 -12 t-27 -39zM578 373q0 -26 45.5 -47t105.5 -21q91 0 180.5 40t145 102t55.5 128q0 35 -27 35q-10 0 -26 -16q-73 -67 -176 -113t-263 -80q-26 -5 -33 -9.5t-7 -18.5zM1870 872q1 10 2 21.5t2 21.5t1.5 14.5t0.5 10.5q0 8 -5 13t-11 5q-14 0 -37 -24t-37 -53 q-36 -69 -72 -105.5t-78 -51.5t-96 -17q-18 0 -49 6t-43 6q-25 0 -25 -23q0 -32 66 -61t135 -29q121 0 184.5 58t63.5 118q0 14 -1 33.5t-2 35.5q0 5 0.5 9.5t0.5 11.5z" />
<glyph unicode="4" horiz-adv-x="2263" d="M109 1225q-13 12 -13 22q0 19 25.5 38t66 31.5t76.5 12.5q119 0 207 -139q21 -30 33.5 -38.5t30.5 -8.5q21 0 40 8q62 20 91 20q54 0 78 -33.5t24 -107.5q0 -137 94 -137q53 0 101 65q89 113 146.5 167t135.5 98q82 44 195 75t194 31q32 0 51.5 -11t38.5 -46 q9 -14 30.5 -21.5t60.5 -11.5q98 -11 173 -49.5t128 -108.5q51 -66 51 -102q0 -18 -15 -18q-9 0 -28 16q-77 65 -168 65q-65 0 -109 -34t-84 -111q-26 -51 -36 -65t-25 -21.5t-53 -19.5q-25 -7 -36 -18t-11 -28q0 -28 47 -45q32 -10 53 -17l45 -15q56 -20 84 -52t43 -90 q14 -52 23.5 -77.5t22 -42t40.5 -41.5q14 -11 34.5 -30t45.5 -40q51 -42 87 -109.5t36 -122.5q0 -26 -19 -26q-10 0 -15.5 3.5t-41.5 35.5q-98 94 -186 94q-38 0 -89 -11t-118 -28q-95 -22 -185 -22q-62 0 -120.5 19t-117 62t-109.5 104.5t-107 149.5q-16 28 -28 38t-28 10 q-26 0 -59 -60q-58 -106 -102 -162.5t-107 -105.5q-78 -60 -170 -93.5t-182 -33.5q-119 0 -200 62.5t-81 152.5q0 66 43 110t107 44q65 0 106 -41q29 -29 37 -105q5 -38 14.5 -58t28.5 -29t47 -9q83 0 171.5 53.5t146.5 136.5q59 83 59 144q0 34 -29 34q-11 0 -24 -8 q-114 -57 -207 -57q-102 0 -191 43t-141.5 115.5t-52.5 156.5q0 33 10 95q8 55 8 110q0 64 -24.5 111.5t-97.5 126.5zM1651 1067q0 28 -25.5 39.5t-89.5 11.5q-124 0 -234 -60.5t-182 -166.5q-33 -49 -56.5 -104.5t-23.5 -88.5q0 -12 6 -20t15 -8q16 0 33 24 q44 61 109.5 121.5t119.5 93.5q87 54 270 107q58 18 58 51zM1683 373q0 14 -6 18.5t-32 9.5q-105 21 -185 48.5t-143.5 64t-110.5 80.5q-16 16 -28 16q-25 0 -25 -35q0 -66 56 -128.5t145 -102t180 -39.5q59 0 104 21.5t45 46.5zM393 872q0 -5 0.5 -9.5t0.5 -11.5 q0 -13 -1 -32t-2 -37q0 -61 63 -118.5t185 -57.5q47 0 93.5 13.5t77 34.5t30.5 42q0 23 -25 23q-12 0 -43 -6t-49 -6q-86 3 -140.5 39t-105.5 135q-16 32 -38 54.5t-36 22.5q-16 0 -16 -18q0 -3 1.5 -12t2.5 -19t1.5 -17t0.5 -20z" />
<glyph unicode="&#xf034;" horiz-adv-x="2263" d="M109 1225q-13 12 -13 22q0 19 25.5 38t66 31.5t76.5 12.5q119 0 207 -139q21 -30 33.5 -38.5t30.5 -8.5q21 0 40 8q62 20 91 20q54 0 78 -33.5t24 -107.5q0 -137 94 -137q53 0 101 65q89 113 146.5 167t135.5 98q82 44 195 75t194 31q32 0 51.5 -11t38.5 -46 q9 -14 30.5 -21.5t60.5 -11.5q98 -11 173 -49.5t128 -108.5q51 -66 51 -102q0 -18 -15 -18q-9 0 -28 16q-77 65 -168 65q-65 0 -109 -34t-84 -111q-26 -51 -36 -65t-25 -21.5t-53 -19.5q-25 -7 -36 -18t-11 -28q0 -28 47 -45q32 -10 53 -17l45 -15q56 -20 84 -52t43 -90 q14 -52 23.5 -77.5t22 -42t40.5 -41.5q14 -11 34.5 -30t45.5 -40q51 -42 87 -109.5t36 -122.5q0 -26 -19 -26q-10 0 -15.5 3.5t-41.5 35.5q-98 94 -186 94q-38 0 -89 -11t-118 -28q-95 -22 -185 -22q-62 0 -120.5 19t-117 62t-109.5 104.5t-107 149.5q-16 28 -28 38t-28 10 q-26 0 -59 -60q-58 -106 -102 -162.5t-107 -105.5q-78 -60 -170 -93.5t-182 -33.5q-119 0 -200 62.5t-81 152.5q0 66 43 110t107 44q65 0 106 -41q29 -29 37 -105q5 -38 14.5 -58t28.5 -29t47 -9q83 0 171.5 53.5t146.5 136.5q59 83 59 144q0 34 -29 34q-11 0 -24 -8 q-114 -57 -207 -57q-102 0 -191 43t-141.5 115.5t-52.5 156.5q0 33 10 95q8 55 8 110q0 64 -24.5 111.5t-97.5 126.5zM1651 1067q0 28 -25.5 39.5t-89.5 11.5q-124 0 -234 -60.5t-182 -166.5q-33 -49 -56.5 -104.5t-23.5 -88.5q0 -12 6 -20t15 -8q16 0 33 24 q44 61 109.5 121.5t119.5 93.5q87 54 270 107q58 18 58 51zM1683 373q0 14 -6 18.5t-32 9.5q-105 21 -185 48.5t-143.5 64t-110.5 80.5q-16 16 -28 16q-25 0 -25 -35q0 -66 56 -128.5t145 -102t180 -39.5q59 0 104 21.5t45 46.5zM393 872q0 -5 0.5 -9.5t0.5 -11.5 q0 -13 -1 -32t-2 -37q0 -61 63 -118.5t185 -57.5q47 0 93.5 13.5t77 34.5t30.5 42q0 23 -25 23q-12 0 -43 -6t-49 -6q-86 3 -140.5 39t-105.5 135q-16 32 -38 54.5t-36 22.5q-16 0 -16 -18q0 -3 1.5 -12t2.5 -19t1.5 -17t0.5 -20z" />
<glyph unicode="5" horiz-adv-x="3160" d="M1501 1190q143 73 189 96q99 48 199 81.5t195.5 50t180.5 16.5q132 0 250 -35t206 -100t135.5 -150t47.5 -184q0 -48 -20 -107q180 -98 180 -250q0 -78 -52.5 -142.5t-147 -106t-216.5 -50.5q-8 -118 -94.5 -182t-241.5 -64q-86 0 -199 28t-227.5 76t-226.5 118 q-49 -24 -105.5 -52.5t-89.5 -44.5q-155 -76 -260 -123t-194.5 -77.5t-155 -43t-125.5 -12.5q-132 0 -243 54.5t-175.5 148.5t-64.5 209q0 85 47 180q-197 82 -197 250q0 82 50.5 150t147 116.5t234.5 75.5q1 76 45 134.5t125 90t185 31.5q90 0 190.5 -21t210 -62t217.5 -99 zM1188 1016q11 5 51 28t72 39q85 45 102 58q-131 85 -290.5 138.5t-286.5 53.5q-125 0 -200.5 -58.5t-78.5 -156.5q52 8 113 8q120 0 259.5 -29t258.5 -81zM565 1081q29 -72 107.5 -113.5t187.5 -41.5q122 0 213 45q-229 110 -455 110h-53zM1362 803q-197 121 -250 147 q-139 -51 -250 -51q-123 0 -210.5 47.5t-114.5 132.5q-123 -14 -215.5 -56.5t-144.5 -109t-52 -141.5q0 -71 50 -133t132 -92q42 58 96 92l13 -14q-56 -47 -82 -86q78 -25 151 -25h23q15 106 94.5 165.5t206.5 59.5q163 0 313 -61q24 11 62 30t78 37q4 3 100 58zM537 518 q79 2 169 18t174 43t156 64q-140 64 -248 64q-107 0 -173 -50t-78 -139zM1628 301q-27 17 -86.5 54t-106.5 67t-63 41q-67 -37 -148 -72.5t-150.5 -59t-138 -37t-122.5 -13.5q-120 0 -198.5 54t-102.5 154q-15 0 -21.5 -0.5t-13.5 -1.5q-63 0 -158 27q-47 -83 -47 -170 q0 -106 60.5 -193.5t165.5 -138.5t227 -51q72 0 146 16t176 52q150 59 253 110l150 74q86 42 118.5 58.5t59.5 29.5zM537 489q21 -86 94 -133t178 -47q71 0 148.5 18t179.5 60q137 54 204 94q-40 29 -131 78q-70 38 -135 66q-132 -62 -272.5 -97.5t-265.5 -38.5zM1442 1122 q-16 -9 -33 -17.5t-34.5 -17.5t-35.5 -18q-8 -4 -54 -28.5t-71 -34.5q149 -63 279 -136q29 16 56.5 30.5t43.5 23.5q32 16 56 27.5t39 19.5q-164 102 -246 151zM1640 633q-41 23 -71.5 42t-76 47t-95.5 60q-34 -20 -111 -59q-37 -20 -127 -61q114 -38 275 -130 q52 23 206 101zM1968 461q-46 24 -115 58.5t-106 53.5q-14 9 -29 17.5l-45 25.5q-17 -8 -36.5 -17.5t-67.5 -33.5q-60 -31 -107 -51q24 -16 135 -82q36 -21 82 -48.5t52 -31.5q33 17 48.5 24.5t28 13.5t43.5 20q74 31 117 51zM2005 803q-138 60 -285 151q-24 -15 -96 -49 q-66 -33 -96 -53q81 -43 135 -76l60 -36t57 -35q20 8 60.5 27.5t62.5 27.5q16 7 46 19.5t56 23.5zM1536 1171q152 -87 197 -114q21 -15 29.5 -20t29.5 -19q312 145 485 145q158 0 263 -78q46 -30 69 -67t31 -92q127 -18 223 -62q19 59 19 97q0 93 -46.5 174t-130.5 141.5 t-195 94.5t-239 34q-162 0 -379 -68q-124 -40 -356 -166zM2083 834q151 53 256 74.5t203 21.5q38 0 69 -2q-14 64 -58.5 110.5t-114.5 71.5t-154 25q-175 0 -463 -136q20 -13 45 -29t86 -55q104 -67 131 -81zM2640 340q125 0 233 55q80 38 121 95.5t41 125.5t-42.5 124 t-119.5 91q-36 -77 -88 -114l-14 18q52 41 82 105q-55 27 -101 40t-112 19q-14 -92 -89 -146.5t-186 -54.5q-74 0 -155.5 22.5t-165.5 65.5q-59 -24 -113 -49q-20 -10 -52.5 -24.5t-63.5 -30.5q30 -19 49.5 -30.5t48.5 -28.5q17 -9 77 -45.5t117 -69.5q102 35 181 35 q67 0 128.5 -15.5t108 -42.5t77.5 -64t38 -81zM2615 305q-20 -2 -49 -2q-139 0 -283.5 36t-273.5 101q-34 -10 -131 -53q-89 -39 -119 -55q183 -116 334.5 -176t261.5 -60q76 0 134.5 26.5t92 73.5t33.5 109zM2116 813q64 -40 133 -63t129 -23q94 0 156.5 46.5t76.5 127.5 q-26 2 -61 2q-180 0 -434 -90zM2613 338q-21 78 -106.5 126t-202.5 48q-77 0 -164 -23q98 -64 236 -106.5t237 -44.5z" />
<glyph unicode="&#xf035;" horiz-adv-x="3160" d="M1501 1190q143 73 189 96q99 48 199 81.5t195.5 50t180.5 16.5q132 0 250 -35t206 -100t135.5 -150t47.5 -184q0 -48 -20 -107q180 -98 180 -250q0 -78 -52.5 -142.5t-147 -106t-216.5 -50.5q-8 -118 -94.5 -182t-241.5 -64q-86 0 -199 28t-227.5 76t-226.5 118 q-49 -24 -105.5 -52.5t-89.5 -44.5q-155 -76 -260 -123t-194.5 -77.5t-155 -43t-125.5 -12.5q-132 0 -243 54.5t-175.5 148.5t-64.5 209q0 85 47 180q-197 82 -197 250q0 82 50.5 150t147 116.5t234.5 75.5q1 76 45 134.5t125 90t185 31.5q90 0 190.5 -21t210 -62t217.5 -99 zM1188 1016q11 5 51 28t72 39q85 45 102 58q-131 85 -290.5 138.5t-286.5 53.5q-125 0 -200.5 -58.5t-78.5 -156.5q52 8 113 8q120 0 259.5 -29t258.5 -81zM565 1081q29 -72 107.5 -113.5t187.5 -41.5q122 0 213 45q-229 110 -455 110h-53zM1362 803q-197 121 -250 147 q-139 -51 -250 -51q-123 0 -210.5 47.5t-114.5 132.5q-123 -14 -215.5 -56.5t-144.5 -109t-52 -141.5q0 -71 50 -133t132 -92q42 58 96 92l13 -14q-56 -47 -82 -86q78 -25 151 -25h23q15 106 94.5 165.5t206.5 59.5q163 0 313 -61q24 11 62 30t78 37q4 3 100 58zM537 518 q79 2 169 18t174 43t156 64q-140 64 -248 64q-107 0 -173 -50t-78 -139zM1628 301q-27 17 -86.5 54t-106.5 67t-63 41q-67 -37 -148 -72.5t-150.5 -59t-138 -37t-122.5 -13.5q-120 0 -198.5 54t-102.5 154q-15 0 -21.5 -0.5t-13.5 -1.5q-63 0 -158 27q-47 -83 -47 -170 q0 -106 60.5 -193.5t165.5 -138.5t227 -51q72 0 146 16t176 52q150 59 253 110l150 74q86 42 118.5 58.5t59.5 29.5zM537 489q21 -86 94 -133t178 -47q71 0 148.5 18t179.5 60q137 54 204 94q-40 29 -131 78q-70 38 -135 66q-132 -62 -272.5 -97.5t-265.5 -38.5zM1442 1122 q-16 -9 -33 -17.5t-34.5 -17.5t-35.5 -18q-8 -4 -54 -28.5t-71 -34.5q149 -63 279 -136q29 16 56.5 30.5t43.5 23.5q32 16 56 27.5t39 19.5q-164 102 -246 151zM1640 633q-41 23 -71.5 42t-76 47t-95.5 60q-34 -20 -111 -59q-37 -20 -127 -61q114 -38 275 -130 q52 23 206 101zM1968 461q-46 24 -115 58.5t-106 53.5q-14 9 -29 17.5l-45 25.5q-17 -8 -36.5 -17.5t-67.5 -33.5q-60 -31 -107 -51q24 -16 135 -82q36 -21 82 -48.5t52 -31.5q33 17 48.5 24.5t28 13.5t43.5 20q74 31 117 51zM2005 803q-138 60 -285 151q-24 -15 -96 -49 q-66 -33 -96 -53q81 -43 135 -76l60 -36t57 -35q20 8 60.5 27.5t62.5 27.5q16 7 46 19.5t56 23.5zM1536 1171q152 -87 197 -114q21 -15 29.5 -20t29.5 -19q312 145 485 145q158 0 263 -78q46 -30 69 -67t31 -92q127 -18 223 -62q19 59 19 97q0 93 -46.5 174t-130.5 141.5 t-195 94.5t-239 34q-162 0 -379 -68q-124 -40 -356 -166zM2083 834q151 53 256 74.5t203 21.5q38 0 69 -2q-14 64 -58.5 110.5t-114.5 71.5t-154 25q-175 0 -463 -136q20 -13 45 -29t86 -55q104 -67 131 -81zM2640 340q125 0 233 55q80 38 121 95.5t41 125.5t-42.5 124 t-119.5 91q-36 -77 -88 -114l-14 18q52 41 82 105q-55 27 -101 40t-112 19q-14 -92 -89 -146.5t-186 -54.5q-74 0 -155.5 22.5t-165.5 65.5q-59 -24 -113 -49q-20 -10 -52.5 -24.5t-63.5 -30.5q30 -19 49.5 -30.5t48.5 -28.5q17 -9 77 -45.5t117 -69.5q102 35 181 35 q67 0 128.5 -15.5t108 -42.5t77.5 -64t38 -81zM2615 305q-20 -2 -49 -2q-139 0 -283.5 36t-273.5 101q-34 -10 -131 -53q-89 -39 -119 -55q183 -116 334.5 -176t261.5 -60q76 0 134.5 26.5t92 73.5t33.5 109zM2116 813q64 -40 133 -63t129 -23q94 0 156.5 46.5t76.5 127.5 q-26 2 -61 2q-180 0 -434 -90zM2613 338q-21 78 -106.5 126t-202.5 48q-77 0 -164 -23q98 -64 236 -106.5t237 -44.5z" />
<glyph unicode="6" horiz-adv-x="2535" d="M209 612l8 -8l21 -10l22 -16q-1 0 49 -25q3 0 13 -6q12 4 14 4l5 -2.5l11 -5.5q17 -7 17 -8l6 -7q-7 0 31 -12l43 -14l43 -4l90 -23l18 4l66 -10l86 12q4 0 8 -2l12 4l19 2l24 11l64 16l26 14q10 2 12 2h3l8 7l43 16l33 24q5 5 24 15v2q10 10 19 10q9 15 14 19l26 10 q2 1 4.5 2.5t8.5 5.5q14 8 33 27q-20 24 -52 32q-22 3 -28 9l-25 18l-14 4l-23 8l-39 8l-3 1.5t-9 3.5q-15 -5 -12 -5l-37 -14l-31 -12q-7 -2 -28.5 -8.5t-32.5 -10.5q-30 -8 -29 -8l-70 -6l-8 -2h-14q-25 0 -57 2q-25 0 -39 2h-13q-5 0 -8 -0.5t-6 -1.5q-18 0 -66 10 q-27 5 -69 21q-2 2 -8 2v0v0l-27 -10l-14 -4l-31 -17l-12 -4l-19 -10l-65 -37q-18 -9 -35 -25zM283 944q8 -10 18 -20l10 -17q5 -7 27 -20q5 -9 16 -15v-4v0q8 0 21 -10q2 -2 14 -6v-6q16 -4 17 -4l40 -25q6 0 21 -6v-4q10 -2 27 -8q4 0 12 -4l14 4q13 2 21.5 4t21.5 5.5 t17 4.5l49 14l35 9l18 4l43 2l25 6l22 -2h51l33 -6l21 4h12q16 0 24 -2l37 -6l17 -2l30 -11l23 8l24 9q5 2 17 10h4q1 11 6 15.5t25 13.5q9 13 15 17t24 9l12 4v6q-6 4 -9.5 5.5t-7.5 3.5l-20 16q-8 6 -39 12q-25 6 -94 27l-2 10q-3 1 -5.5 1.5t-6.5 0.5q-14 4 -19 4v0 l-18 -2l-19 6l-43 9l-10 4q-9 6 -29 6v0h-10l-100 10q-4 -2 -10 -2q-7 0 -11 2q-10 -4 -20 -4h-2l-21 2l-82 -8h-18h-2q-6 0 -8 -0.5t-4 -1.5l-43 -6l-13 -4l-16 4l-12 -4q-4 -4 -23 -7l-39 -14l-65 -18q-17 -4 -43 -23zM571 768q23 -6 31 -6l47 -4l49 -8l43 4h17h10v-6 q10 1 18 1.5t15 0.5l22 6l47 8q11 2 29 8h-12l-43 6h-15l-16 4q-10 0 -25 2l-51 4l-65 -4q-2 1 -3.5 1.5t-2.5 0.5q-3 0 -5 -0.5t-4 -1.5l-4 2l-20 -4h-19q-26 -3 -43 -14zM1059 805q49 -21 65 -25l29 -10l27 -14l32 -15q5 -4 15 -8l16 12q3 5 7 8.5t5 4.5l37 16l37 27 q3 0 12 6v4l13 8q-9 6 -13 6l-51 21l-39 26l-32 15q-14 4 -13 4q-3 0 -30 -23q-11 -7 -50 -26l-45 -23q-12 -4 -22 -14zM1284 696q17 -10 23 -10l16 -2l33 -16l20 14l37 14l25 17l47 16l12 6q8 4 16 6q-22 11 -40 15q-33 7 -35 8l-25 12q-3 3 -12 6l-12 -8l-15 -10l-41 -23 l-8 -6q-6 -6 -14 -12q-14 -6 -27 -21v-6zM1409 643q24 -8 25 -10l18 -15l16 -8l25 -14l8 -2l19 -12l22 -9l37 -18q6 0 14 -2q16 -3 62 -23q10 -4 21.5 -9.5t17.5 -8.5q32 -11 67 -20l51 -15l-8 2l45 -10l32.5 -7.5t33.5 -8.5q26 -5 35 -7.5t10 -3.5l18 4q3 4 52 7q28 4 45 8 q30 12 34 12l25 4q11 0 37 17q9 6 39 22q29 17 39 21v4q6 2 16 12l8 8h4v6h4v4l3 2l-9 9l-18 14q0 1 -1.5 4t-2.5 6h-6q-24 24 -62 37q-43 20 -43 35q-3 1 -6 1.5t-4 0.5l-41 18l-14 7q-7 -5 -11 -5l-10 -2q-4 0 -12 -4l-2 2l-17 -2q-48 -8 -57 -8l-70 -4l-30 -4l-45 4 l-39 -2l-58 6q-36 4 -32 4l-29 10q-1 0 -39 7q-6 1 -11 1.5t-13 0.5q-13 0 -21 4q-12 6 -18 6h-2l-138 -64l-10 -6h-1t-3 -2v-4zM1495 844l12 -8q26 -19 47 -27l35 -12l39 -17l29 8l24 5l33 10l68 10l59 10q8 2 25 2q12 0 18 -6l4 4l6 -4q11 2 25 2t18 -2l25 -6l66 -8 q4 0 7 -0.5t7 -1.5v-6l65 -23q4 1 6.5 1.5t4.5 0.5q7 0 24 -10q6 4 10.5 6l4.5 2l22 14q-1 0 16 7v2l7 4l2 -4l14 8q39 23 82 74l8 12q-30 30 -65 49v4q-14 4 -13 4l-59 29l-43 12l-21 6q4 0 -24 4l-35 5l-37 2q-5 1 -9 2.5t-5 1.5l-29 -6l-53 -3l-43 -14l-66 -14l-34 -12 l-31 -9q-18 -2 -33 -10l-68 -33l-90 -37q-2 0 -37 -20q-4 -2 -7 -3t-11 -5zM1700 758q41 -16 63 -19q40 -4 58 -8q35 -5 37 -6q12 -4 10 -4l18 -2l23 -4l24 4h21l35 8l28 -6q2 0 6 4q-21 12 -75 27l-50 10l-24 2l-33 6q-4 2 -10 2q-20 0 -94 -6q-20 -3 -37 -8zM1579 1321 l-8 -29l-8 -16q-5 -8 -13 -23.5t-16 -27.5l-23 -37q-1 -1 -3 -3.5t-5 -8.5l-20 -27l-19 -19l-10 -18l-45 -45q-10 -10 -16 -18h-7q-4 -14 -20 -27l-2 -4q-9 -5 -14 -14h-7v-5q-3 -2 -5.5 -4t-4.5 -4l-26 -22q-11 -8 -15 -17q12 -4 13 -4l24 -14l8 -2l1.5 -1.5t0.5 -2.5 q6 -6 13 -6l28 -13l27 -16l25 -12q6 0 12 -7l139 60l82 31l12 4q4 1 13.5 4t29.5 10q14 5 18 6t11 4q33 13 84.5 25t81.5 14l51 2l7.5 2t23.5 4q4 2 6.5 2.5t5.5 1.5l12 3l2 -3q12 1 26 2t19 1q10 0 31 -7h2q6 -2 15 -2q8 0 16 2q6 0 12 2l2 -4l2 4q2 -1 5 -1.5t3.5 -0.5 h0.5l36 2q1 0 17 -4q11 -4 35 -8q21 -3 24 -6l10 -2l21 -4q4 0 6.5 -0.5t5.5 -1.5v-8q9 -3 12 -7l17 -4l22 -10q15 -7 15 -8l12 -14l20 -19q6 -4 9 -10q22 -7 22 -25q-8 -4 -10 -6q-12 -10 -16 -10q-8 -10 -9 -10l-10 -8l-8 -11l-25 -24l-6 -11l-6 -6l-8 -10l-45 -24 l-14 -11l-27 -12l-21 -12l-20 -8q-6 -4 -14 -7v-6q7 0 24 -12q3 0 12 -6v-4h5q9 -6 10 -6l12 -2q1 -2 27 -19q-4 0 28 -16q13 -8 31 -23v-4q3 -1 6 -2.5t6 -3.5l9 -4.5t4 -2.5t2 -1l28 -29q3 -3 15 -6q0 -8 -2 -10l-6 -6l-13 -19q-3 -6 -12 -12l-37 -25l-3 -3l-5 -5 q-9 -6 -12 -6l-33 -14l-33 -17q-24 -8 -55 -16l-53 -17l-48 -8l-55 -12q-35 -8 -86 -8h-147l-17 -2l-22 4l-25 4l-16 6l-60 8q-10 0 -49 13q-21 7 -41 12q-4 1 -8 2.5t-6 1.5l-25 12l-155 62q-4 2 -10 5.5t-27 14.5q-6 6 -10 6l-31 13l-21 8v0v0q-8 0 -10 -2q-13 -6 -57 -37 q-32 -25 -31 -25l-16 -16l-54 -41q-6 -6 -12 -6q-6 -15 -12 -21l-27 -30l-26 -21q0 3 -29 -39l-29 -35l-30 -59l-19 -25l-12 -47l-10 -22q-2 -5 -4 -14t-7 -25q7 -6 7 -8q0 -5 -0.5 -9t-1.5 -10q0 -11 -1 -20t-2 -13q-2 -10 -2.5 -14t-1.5 -6l2 -12l2 -19q1 -3 2 -7t1 -5 l12 -21l6 -34l22 -47q3 -5 3 -13h10q7 -10 8 -16q4 -8 6 -17l37 -38v-5q7 0 12 -8q6 -6 6 -8l9 -4q4 0 14 -16l18 -9q9 -6 13 -6l20 -6l78 -35l16 -2l21 -6l55 -6q10 -4 21 -4h2l28 8l23 -4l18 4l35 6l57 23l19 4l65 31q28 11 31 14l35 24q2 0 12 7q2 -2 2 -4v-3 q-11 -18 -33 -36q-4 -3 -9.5 -7t-11 -7.5t-15.5 -10.5q-21 -11 -22 -12t-3 -2l-20 -8l-35 -17l-17 -6l-59 -23l-43 -10l-47 -20l-47 -8q-56 -9 -51 -9q1 0 -23 4q-12 3 -33 3q-45 3 -53 6l-39 14l-84 31q-17 7 -22 14l-29 31l-51 45q-11 8 -15 16l-30 55l-23 39 q-7 18 -13.5 58t-6.5 57q0 23 2 37l4 63q2 6 5.5 20.5t8.5 31.5q10 30 12 32l35 58l21 37l30 39l25 36l53 56q4 4 4.5 5t6.5 5h4v4h4v4h4v4q10 10 12 13l14 8l39 37q11 5 13 6v4h4v4h6v6l12 6q22 12 29 19q8 7 47 34v2q10 9 16 9v4q9 3 27 18q2 2 4.5 4t5.5 4q-11 6 -12 7 q-20 8 -39 10l-4 8l-49 -27q-12 -10 -51 -32q-15 -9 -56 -29q-25 -15 -31 -18.5t-8 -4.5q-32 -8 -26 -8l-13 -8l-67 -23l-35 -18l-57 -18l-60 -27q-47 -14 -84 -14l-2 2q-19 -8 -51 -11l-47 -4l-27 2q-12 0 -18 2l-174 25q-24 3 -27 6l-20 12l-76 27q-7 3 -14.5 6.5 t-12.5 5.5l-18 13l-25 12q-17 11 -45 37q30 36 66 55v4q4 4 6 5t4 3q3 2 6.5 4t5.5 3v4l13 6q4 2 8 5t8 5l33 23l51 28l41 25q12 6 22 10v4l15 6q-32 10 -41 17l-25 16l-41 16q-2 2 -9 7.5t-17 11.5q-6 4 -6 12q-33 21 -54 43q-6 7 -11 14t-9 11q-12 9 -12 12q0 4 2 6l8 8 l37 19l100 57q4 3 109 43q102 37 139 39q18 0 22 2q22 4 21 4l10 -2l129 12l82 -4l27 4l41 -6l49 -6l30 -10h21q2 0 22 -4q15 -4 35.5 -8t30.5 -7q34 -7 55 -16l21 -10l71 -29q8 -3 15 -8q6 6 14 6v6q19 22 41 27v4q6 6 6 14q12 9 17 9v4q6 4 7.5 5.5l2.5 2.5l31 35 q10 13 12 22h6v6q8 8 8 13l6 12l8 16l11 21q3 3 24 55q11 20 11 35l6 29q0 9 24 14l31 10h8l8 6q11 4 37 17q6 2 14 6t15 6.5t10 3.5q0 -24 -6 -45z" />
<glyph unicode="&#xf036;" horiz-adv-x="2535" d="M209 612l8 -8l21 -10l22 -16q-1 0 49 -25q3 0 13 -6q12 4 14 4l5 -2.5l11 -5.5q17 -7 17 -8l6 -7q-7 0 31 -12l43 -14l43 -4l90 -23l18 4l66 -10l86 12q4 0 8 -2l12 4l19 2l24 11l64 16l26 14q10 2 12 2h3l8 7l43 16l33 24q5 5 24 15v2q10 10 19 10q9 15 14 19l26 10 q2 1 4.5 2.5t8.5 5.5q14 8 33 27q-20 24 -52 32q-22 3 -28 9l-25 18l-14 4l-23 8l-39 8l-3 1.5t-9 3.5q-15 -5 -12 -5l-37 -14l-31 -12q-7 -2 -28.5 -8.5t-32.5 -10.5q-30 -8 -29 -8l-70 -6l-8 -2h-14q-25 0 -57 2q-25 0 -39 2h-13q-5 0 -8 -0.5t-6 -1.5q-18 0 -66 10 q-27 5 -69 21q-2 2 -8 2v0v0l-27 -10l-14 -4l-31 -17l-12 -4l-19 -10l-65 -37q-18 -9 -35 -25zM283 944q8 -10 18 -20l10 -17q5 -7 27 -20q5 -9 16 -15v-4v0q8 0 21 -10q2 -2 14 -6v-6q16 -4 17 -4l40 -25q6 0 21 -6v-4q10 -2 27 -8q4 0 12 -4l14 4q13 2 21.5 4t21.5 5.5 t17 4.5l49 14l35 9l18 4l43 2l25 6l22 -2h51l33 -6l21 4h12q16 0 24 -2l37 -6l17 -2l30 -11l23 8l24 9q5 2 17 10h4q1 11 6 15.5t25 13.5q9 13 15 17t24 9l12 4v6q-6 4 -9.5 5.5t-7.5 3.5l-20 16q-8 6 -39 12q-25 6 -94 27l-2 10q-3 1 -5.5 1.5t-6.5 0.5q-14 4 -19 4v0 l-18 -2l-19 6l-43 9l-10 4q-9 6 -29 6v0h-10l-100 10q-4 -2 -10 -2q-7 0 -11 2q-10 -4 -20 -4h-2l-21 2l-82 -8h-18h-2q-6 0 -8 -0.5t-4 -1.5l-43 -6l-13 -4l-16 4l-12 -4q-4 -4 -23 -7l-39 -14l-65 -18q-17 -4 -43 -23zM571 768q23 -6 31 -6l47 -4l49 -8l43 4h17h10v-6 q10 1 18 1.5t15 0.5l22 6l47 8q11 2 29 8h-12l-43 6h-15l-16 4q-10 0 -25 2l-51 4l-65 -4q-2 1 -3.5 1.5t-2.5 0.5q-3 0 -5 -0.5t-4 -1.5l-4 2l-20 -4h-19q-26 -3 -43 -14zM1059 805q49 -21 65 -25l29 -10l27 -14l32 -15q5 -4 15 -8l16 12q3 5 7 8.5t5 4.5l37 16l37 27 q3 0 12 6v4l13 8q-9 6 -13 6l-51 21l-39 26l-32 15q-14 4 -13 4q-3 0 -30 -23q-11 -7 -50 -26l-45 -23q-12 -4 -22 -14zM1284 696q17 -10 23 -10l16 -2l33 -16l20 14l37 14l25 17l47 16l12 6q8 4 16 6q-22 11 -40 15q-33 7 -35 8l-25 12q-3 3 -12 6l-12 -8l-15 -10l-41 -23 l-8 -6q-6 -6 -14 -12q-14 -6 -27 -21v-6zM1409 643q24 -8 25 -10l18 -15l16 -8l25 -14l8 -2l19 -12l22 -9l37 -18q6 0 14 -2q16 -3 62 -23q10 -4 21.5 -9.5t17.5 -8.5q32 -11 67 -20l51 -15l-8 2l45 -10l32.5 -7.5t33.5 -8.5q26 -5 35 -7.5t10 -3.5l18 4q3 4 52 7q28 4 45 8 q30 12 34 12l25 4q11 0 37 17q9 6 39 22q29 17 39 21v4q6 2 16 12l8 8h4v6h4v4l3 2l-9 9l-18 14q0 1 -1.5 4t-2.5 6h-6q-24 24 -62 37q-43 20 -43 35q-3 1 -6 1.5t-4 0.5l-41 18l-14 7q-7 -5 -11 -5l-10 -2q-4 0 -12 -4l-2 2l-17 -2q-48 -8 -57 -8l-70 -4l-30 -4l-45 4 l-39 -2l-58 6q-36 4 -32 4l-29 10q-1 0 -39 7q-6 1 -11 1.5t-13 0.5q-13 0 -21 4q-12 6 -18 6h-2l-138 -64l-10 -6h-1t-3 -2v-4zM1495 844l12 -8q26 -19 47 -27l35 -12l39 -17l29 8l24 5l33 10l68 10l59 10q8 2 25 2q12 0 18 -6l4 4l6 -4q11 2 25 2t18 -2l25 -6l66 -8 q4 0 7 -0.5t7 -1.5v-6l65 -23q4 1 6.5 1.5t4.5 0.5q7 0 24 -10q6 4 10.5 6l4.5 2l22 14q-1 0 16 7v2l7 4l2 -4l14 8q39 23 82 74l8 12q-30 30 -65 49v4q-14 4 -13 4l-59 29l-43 12l-21 6q4 0 -24 4l-35 5l-37 2q-5 1 -9 2.5t-5 1.5l-29 -6l-53 -3l-43 -14l-66 -14l-34 -12 l-31 -9q-18 -2 -33 -10l-68 -33l-90 -37q-2 0 -37 -20q-4 -2 -7 -3t-11 -5zM1700 758q41 -16 63 -19q40 -4 58 -8q35 -5 37 -6q12 -4 10 -4l18 -2l23 -4l24 4h21l35 8l28 -6q2 0 6 4q-21 12 -75 27l-50 10l-24 2l-33 6q-4 2 -10 2q-20 0 -94 -6q-20 -3 -37 -8zM1579 1321 l-8 -29l-8 -16q-5 -8 -13 -23.5t-16 -27.5l-23 -37q-1 -1 -3 -3.5t-5 -8.5l-20 -27l-19 -19l-10 -18l-45 -45q-10 -10 -16 -18h-7q-4 -14 -20 -27l-2 -4q-9 -5 -14 -14h-7v-5q-3 -2 -5.5 -4t-4.5 -4l-26 -22q-11 -8 -15 -17q12 -4 13 -4l24 -14l8 -2l1.5 -1.5t0.5 -2.5 q6 -6 13 -6l28 -13l27 -16l25 -12q6 0 12 -7l139 60l82 31l12 4q4 1 13.5 4t29.5 10q14 5 18 6t11 4q33 13 84.5 25t81.5 14l51 2l7.5 2t23.5 4q4 2 6.5 2.5t5.5 1.5l12 3l2 -3q12 1 26 2t19 1q10 0 31 -7h2q6 -2 15 -2q8 0 16 2q6 0 12 2l2 -4l2 4q2 -1 5 -1.5t3.5 -0.5 h0.5l36 2q1 0 17 -4q11 -4 35 -8q21 -3 24 -6l10 -2l21 -4q4 0 6.5 -0.5t5.5 -1.5v-8q9 -3 12 -7l17 -4l22 -10q15 -7 15 -8l12 -14l20 -19q6 -4 9 -10q22 -7 22 -25q-8 -4 -10 -6q-12 -10 -16 -10q-8 -10 -9 -10l-10 -8l-8 -11l-25 -24l-6 -11l-6 -6l-8 -10l-45 -24 l-14 -11l-27 -12l-21 -12l-20 -8q-6 -4 -14 -7v-6q7 0 24 -12q3 0 12 -6v-4h5q9 -6 10 -6l12 -2q1 -2 27 -19q-4 0 28 -16q13 -8 31 -23v-4q3 -1 6 -2.5t6 -3.5l9 -4.5t4 -2.5t2 -1l28 -29q3 -3 15 -6q0 -8 -2 -10l-6 -6l-13 -19q-3 -6 -12 -12l-37 -25l-3 -3l-5 -5 q-9 -6 -12 -6l-33 -14l-33 -17q-24 -8 -55 -16l-53 -17l-48 -8l-55 -12q-35 -8 -86 -8h-147l-17 -2l-22 4l-25 4l-16 6l-60 8q-10 0 -49 13q-21 7 -41 12q-4 1 -8 2.5t-6 1.5l-25 12l-155 62q-4 2 -10 5.5t-27 14.5q-6 6 -10 6l-31 13l-21 8v0v0q-8 0 -10 -2q-13 -6 -57 -37 q-32 -25 -31 -25l-16 -16l-54 -41q-6 -6 -12 -6q-6 -15 -12 -21l-27 -30l-26 -21q0 3 -29 -39l-29 -35l-30 -59l-19 -25l-12 -47l-10 -22q-2 -5 -4 -14t-7 -25q7 -6 7 -8q0 -5 -0.5 -9t-1.5 -10q0 -11 -1 -20t-2 -13q-2 -10 -2.5 -14t-1.5 -6l2 -12l2 -19q1 -3 2 -7t1 -5 l12 -21l6 -34l22 -47q3 -5 3 -13h10q7 -10 8 -16q4 -8 6 -17l37 -38v-5q7 0 12 -8q6 -6 6 -8l9 -4q4 0 14 -16l18 -9q9 -6 13 -6l20 -6l78 -35l16 -2l21 -6l55 -6q10 -4 21 -4h2l28 8l23 -4l18 4l35 6l57 23l19 4l65 31q28 11 31 14l35 24q2 0 12 7q2 -2 2 -4v-3 q-11 -18 -33 -36q-4 -3 -9.5 -7t-11 -7.5t-15.5 -10.5q-21 -11 -22 -12t-3 -2l-20 -8l-35 -17l-17 -6l-59 -23l-43 -10l-47 -20l-47 -8q-56 -9 -51 -9q1 0 -23 4q-12 3 -33 3q-45 3 -53 6l-39 14l-84 31q-17 7 -22 14l-29 31l-51 45q-11 8 -15 16l-30 55l-23 39 q-7 18 -13.5 58t-6.5 57q0 23 2 37l4 63q2 6 5.5 20.5t8.5 31.5q10 30 12 32l35 58l21 37l30 39l25 36l53 56q4 4 4.5 5t6.5 5h4v4h4v4h4v4q10 10 12 13l14 8l39 37q11 5 13 6v4h4v4h6v6l12 6q22 12 29 19q8 7 47 34v2q10 9 16 9v4q9 3 27 18q2 2 4.5 4t5.5 4q-11 6 -12 7 q-20 8 -39 10l-4 8l-49 -27q-12 -10 -51 -32q-15 -9 -56 -29q-25 -15 -31 -18.5t-8 -4.5q-32 -8 -26 -8l-13 -8l-67 -23l-35 -18l-57 -18l-60 -27q-47 -14 -84 -14l-2 2q-19 -8 -51 -11l-47 -4l-27 2q-12 0 -18 2l-174 25q-24 3 -27 6l-20 12l-76 27q-7 3 -14.5 6.5 t-12.5 5.5l-18 13l-25 12q-17 11 -45 37q30 36 66 55v4q4 4 6 5t4 3q3 2 6.5 4t5.5 3v4l13 6q4 2 8 5t8 5l33 23l51 28l41 25q12 6 22 10v4l15 6q-32 10 -41 17l-25 16l-41 16q-2 2 -9 7.5t-17 11.5q-6 4 -6 12q-33 21 -54 43q-6 7 -11 14t-9 11q-12 9 -12 12q0 4 2 6l8 8 l37 19l100 57q4 3 109 43q102 37 139 39q18 0 22 2q22 4 21 4l10 -2l129 12l82 -4l27 4l41 -6l49 -6l30 -10h21q2 0 22 -4q15 -4 35.5 -8t30.5 -7q34 -7 55 -16l21 -10l71 -29q8 -3 15 -8q6 6 14 6v6q19 22 41 27v4q6 6 6 14q12 9 17 9v4q6 4 7.5 5.5l2.5 2.5l31 35 q10 13 12 22h6v6q8 8 8 13l6 12l8 16l11 21q3 3 24 55q11 20 11 35l6 29q0 9 24 14l31 10h8l8 6q11 4 37 17q6 2 14 6t15 6.5t10 3.5q0 -24 -6 -45z" />
<glyph unicode="7" horiz-adv-x="4041" d="M1602 479q-3 -70 -43 -118t-95 -48q-65 0 -147 68q-84 72 -125 98h-991v43h932q-206 138 -410 202t-440 64q-68 0 -181 -10l-6 15q213 98 383 155t346 88q248 45 465 45q182 0 305 -22t186.5 -64.5t63.5 -103.5q0 -43 -38.5 -76.5t-112 -54.5t-176.5 -27q73 -21 176 -63 q74 -29 176 -74t149 -72q107 56 328 146q109 44 176 63q-153 9 -240.5 51.5t-87.5 106.5q0 61 63.5 103.5t186 64.5t303.5 22q221 0 465 -45q177 -31 347.5 -88t383.5 -155l-6 -15q-112 10 -180 10q-117 0 -226 -16t-209 -46.5t-209.5 -84.5t-205.5 -119h932v-43h-991 q-41 -25 -127 -98q-80 -68 -146 -68q-56 0 -95 48t-42 118h-837zM1933 522q-14 7 -63.5 29t-87.5 39q-102 44 -287 110q79 -87 104 -178h334zM1458 813q-116 81 -170 178l-35 -14q33 -56 70 -97.5t104 -91.5zM1403 768q-92 27 -204 51t-213.5 39.5t-219.5 27.5t-201 13 l-4 -39q124 -1 265.5 -16.5t291.5 -44.5t271 -66zM1128 616q48 25 116 39.5t138 14.5q8 0 15 -0.5t16 -1.5l-10 37q-9 1 -17 1.5t-14 0.5q-137 0 -258 -56zM2107 522h334q28 98 105 178q-176 -62 -287 -110q-89 -40 -152 -68zM2583 813l28 -25q65 49 105 91.5t69 97.5 l-32 14q-58 -99 -170 -178zM2638 768l14 -35q122 37 272 66t290.5 44.5t265.5 16.5l-5 39q-82 -1 -200 -13t-218.5 -27.5t-210.5 -39t-208 -51.5zM2912 616l15 35q-121 56 -258 56q-8 0 -15 -0.5t-16 -1.5l-10 -37q9 1 16 1.5t14 0.5q70 0 139 -14.5t115 -39.5z" />
<glyph unicode="&#xf037;" horiz-adv-x="4041" d="M1602 479q-3 -70 -43 -118t-95 -48q-65 0 -147 68q-84 72 -125 98h-991v43h932q-206 138 -410 202t-440 64q-68 0 -181 -10l-6 15q213 98 383 155t346 88q248 45 465 45q182 0 305 -22t186.5 -64.5t63.5 -103.5q0 -43 -38.5 -76.5t-112 -54.5t-176.5 -27q73 -21 176 -63 q74 -29 176 -74t149 -72q107 56 328 146q109 44 176 63q-153 9 -240.5 51.5t-87.5 106.5q0 61 63.5 103.5t186 64.5t303.5 22q221 0 465 -45q177 -31 347.5 -88t383.5 -155l-6 -15q-112 10 -180 10q-117 0 -226 -16t-209 -46.5t-209.5 -84.5t-205.5 -119h932v-43h-991 q-41 -25 -127 -98q-80 -68 -146 -68q-56 0 -95 48t-42 118h-837zM1933 522q-14 7 -63.5 29t-87.5 39q-102 44 -287 110q79 -87 104 -178h334zM1458 813q-116 81 -170 178l-35 -14q33 -56 70 -97.5t104 -91.5zM1403 768q-92 27 -204 51t-213.5 39.5t-219.5 27.5t-201 13 l-4 -39q124 -1 265.5 -16.5t291.5 -44.5t271 -66zM1128 616q48 25 116 39.5t138 14.5q8 0 15 -0.5t16 -1.5l-10 37q-9 1 -17 1.5t-14 0.5q-137 0 -258 -56zM2107 522h334q28 98 105 178q-176 -62 -287 -110q-89 -40 -152 -68zM2583 813l28 -25q65 49 105 91.5t69 97.5 l-32 14q-58 -99 -170 -178zM2638 768l14 -35q122 37 272 66t290.5 44.5t265.5 16.5l-5 39q-82 -1 -200 -13t-218.5 -27.5t-210.5 -39t-208 -51.5zM2912 616l15 35q-121 56 -258 56q-8 0 -15 -0.5t-16 -1.5l-10 -37q9 1 16 1.5t14 0.5q70 0 139 -14.5t115 -39.5z" />
<glyph unicode="8" horiz-adv-x="3230" d="M2204 666q-165 -140 -244 -242q-72 98 -184 215q-39 -39 -142 -133q56 -53 120.5 -106.5t113.5 -88.5q-54 -60 -136.5 -179t-125.5 -200q-29 56 -131 191q-98 122 -140 166q38 25 81.5 60t109.5 93q-88 76 -178 183q-82 -74 -150 -189q-33 38 -102.5 103.5t-145.5 132.5 q-161 -94 -301 -94q-66 0 -105.5 24.5t-39.5 67.5q0 35 27.5 59.5t64.5 24.5q30 0 55 -19q-27 6 -37 6q-38 0 -62 -19.5t-24 -49.5q0 -68 117 -68q136 0 285 90q-101 90 -213.5 161t-217 110t-180.5 39q-86 0 -143 -44t-57 -110q0 -45 26.5 -78t63.5 -33q38 0 63 43 q21 -22 21 -57q51 34 51 94q0 23 -10 45q35 -35 35 -73q0 -46 -36 -79.5t-85 -33.5q-63 0 -108.5 49.5t-45.5 118.5q0 54 33 97.5t91.5 69t129.5 25.5q80 0 160.5 -18.5t162 -54t166.5 -88.5t175 -127q106 78 227 213q68 -116 170 -228q66 75 137 142q-44 48 -123 116 t-151 119q-82 58 -135.5 82.5t-94.5 24.5q-46 0 -68.5 -26.5t-23.5 -82.5q-4 32 -4 39q0 45 40 73.5t106 28.5q36 0 87 -14t108.5 -40.5t105.5 -57.5q104 120 213 295q59 -102 243 -306q96 65 163.5 94t125.5 29q36 0 65.5 -13.5t46.5 -37t17 -53.5q0 -24 -14 -49l4 28 q0 43 -31 70t-80 27q-64 0 -159 -45q-56 -29 -121 -76q-70 -50 -111 -84q-22 -18 -35 -29l-26 -22t-35 -29q26 -21 91 -84t99 -104q19 18 82 89t92 109q36 -40 72.5 -74t76 -66t79.5 -60q67 60 147.5 111.5t167.5 90.5t171 60.5t155 21.5q105 0 173 -54.5t68 -139.5 q0 -69 -46 -117.5t-111 -48.5q-54 0 -92.5 36t-38.5 85q0 18 10 47q3 -47 17 -71.5t46 -43.5q-2 10 -2 23q0 10 2 20q36 -31 80 -31q48 0 76.5 30t28.5 81q0 70 -60.5 114t-154.5 44q-180 0 -430 -152q-103 -62 -179 -127q62 -47 151 -81t153 -34q48 0 77 20.5t29 51.5 q0 24 -19 38.5t-51 14.5q-23 0 -61 -12q32 33 72 33q34 0 58 -21.5t24 -52.5q0 -48 -52 -78.5t-133 -30.5q-74 0 -158 23t-165 68zM1415 1124q63 -40 127.5 -90t91.5 -78q32 27 63 52t58 49q-49 51 -105 117.5t-98 123.5q-90 -120 -137 -174zM1868 735q19 -18 85 -94t79 -94 q38 38 143 137q-72 40 -205 164q-6 -7 -102 -113zM1034 735q174 -150 207 -186q42 54 86 98q-82 92 -158 201q-96 -87 -135 -113zM1444 338q121 -138 213 -260q78 109 117 158q-126 92 -228 192q-23 -24 -102 -90zM1425 717q122 -135 191 -193q93 85 139 135 q-67 82 -186 197q-66 -57 -144 -139zM1206 498l21 32q-57 64 -169 154.5t-231 169.5q-194 127 -360 145q145 -52 242 -106t217 -148q122 -97 211 -178q28 -24 69 -69zM1640 51q-28 42 -97.5 128.5t-117.5 139.5l-34 -20q143 -156 227 -287zM1794 270l29 37q-87 64 -168 144 q-62 58 -102.5 97.5t-87 88t-107.5 119.5q-79 91 -125 159l-33 -36q70 -91 126.5 -157.5t133.5 -146.5q86 -89 175 -171t159 -134zM2011 524q-37 45 -115 135q-93 107 -220.5 224.5t-233.5 189.5q-63 44 -123.5 77.5t-113 51t-111.5 27.5q129 -36 282 -146 q53 -39 115.5 -91.5t120.5 -108t133 -133.5q87 -92 176 -197q24 -26 57 -66zM1606 1384l-29 -47q131 -174 211 -252l41 31q-59 61 -115 127.5t-108 140.5zM2558 594q-108 14 -220 69.5t-210 147.5q-42 42 -105 96l-26 -33q71 -77 165.5 -141t197 -101t198.5 -38z" />
<glyph unicode="&#xf038;" horiz-adv-x="3230" d="M2204 666q-165 -140 -244 -242q-72 98 -184 215q-39 -39 -142 -133q56 -53 120.5 -106.5t113.5 -88.5q-54 -60 -136.5 -179t-125.5 -200q-29 56 -131 191q-98 122 -140 166q38 25 81.5 60t109.5 93q-88 76 -178 183q-82 -74 -150 -189q-33 38 -102.5 103.5t-145.5 132.5 q-161 -94 -301 -94q-66 0 -105.5 24.5t-39.5 67.5q0 35 27.5 59.5t64.5 24.5q30 0 55 -19q-27 6 -37 6q-38 0 -62 -19.5t-24 -49.5q0 -68 117 -68q136 0 285 90q-101 90 -213.5 161t-217 110t-180.5 39q-86 0 -143 -44t-57 -110q0 -45 26.5 -78t63.5 -33q38 0 63 43 q21 -22 21 -57q51 34 51 94q0 23 -10 45q35 -35 35 -73q0 -46 -36 -79.5t-85 -33.5q-63 0 -108.5 49.5t-45.5 118.5q0 54 33 97.5t91.5 69t129.5 25.5q80 0 160.5 -18.5t162 -54t166.5 -88.5t175 -127q106 78 227 213q68 -116 170 -228q66 75 137 142q-44 48 -123 116 t-151 119q-82 58 -135.5 82.5t-94.5 24.5q-46 0 -68.5 -26.5t-23.5 -82.5q-4 32 -4 39q0 45 40 73.5t106 28.5q36 0 87 -14t108.5 -40.5t105.5 -57.5q104 120 213 295q59 -102 243 -306q96 65 163.5 94t125.5 29q36 0 65.5 -13.5t46.5 -37t17 -53.5q0 -24 -14 -49l4 28 q0 43 -31 70t-80 27q-64 0 -159 -45q-56 -29 -121 -76q-70 -50 -111 -84q-22 -18 -35 -29l-26 -22t-35 -29q26 -21 91 -84t99 -104q19 18 82 89t92 109q36 -40 72.5 -74t76 -66t79.5 -60q67 60 147.5 111.5t167.5 90.5t171 60.5t155 21.5q105 0 173 -54.5t68 -139.5 q0 -69 -46 -117.5t-111 -48.5q-54 0 -92.5 36t-38.5 85q0 18 10 47q3 -47 17 -71.5t46 -43.5q-2 10 -2 23q0 10 2 20q36 -31 80 -31q48 0 76.5 30t28.5 81q0 70 -60.5 114t-154.5 44q-180 0 -430 -152q-103 -62 -179 -127q62 -47 151 -81t153 -34q48 0 77 20.5t29 51.5 q0 24 -19 38.5t-51 14.5q-23 0 -61 -12q32 33 72 33q34 0 58 -21.5t24 -52.5q0 -48 -52 -78.5t-133 -30.5q-74 0 -158 23t-165 68zM1415 1124q63 -40 127.5 -90t91.5 -78q32 27 63 52t58 49q-49 51 -105 117.5t-98 123.5q-90 -120 -137 -174zM1868 735q19 -18 85 -94t79 -94 q38 38 143 137q-72 40 -205 164q-6 -7 -102 -113zM1034 735q174 -150 207 -186q42 54 86 98q-82 92 -158 201q-96 -87 -135 -113zM1444 338q121 -138 213 -260q78 109 117 158q-126 92 -228 192q-23 -24 -102 -90zM1425 717q122 -135 191 -193q93 85 139 135 q-67 82 -186 197q-66 -57 -144 -139zM1206 498l21 32q-57 64 -169 154.5t-231 169.5q-194 127 -360 145q145 -52 242 -106t217 -148q122 -97 211 -178q28 -24 69 -69zM1640 51q-28 42 -97.5 128.5t-117.5 139.5l-34 -20q143 -156 227 -287zM1794 270l29 37q-87 64 -168 144 q-62 58 -102.5 97.5t-87 88t-107.5 119.5q-79 91 -125 159l-33 -36q70 -91 126.5 -157.5t133.5 -146.5q86 -89 175 -171t159 -134zM2011 524q-37 45 -115 135q-93 107 -220.5 224.5t-233.5 189.5q-63 44 -123.5 77.5t-113 51t-111.5 27.5q129 -36 282 -146 q53 -39 115.5 -91.5t120.5 -108t133 -133.5q87 -92 176 -197q24 -26 57 -66zM1606 1384l-29 -47q131 -174 211 -252l41 31q-59 61 -115 127.5t-108 140.5zM2558 594q-108 14 -220 69.5t-210 147.5q-42 42 -105 96l-26 -33q71 -77 165.5 -141t197 -101t198.5 -38z" />
<glyph unicode="9" horiz-adv-x="1702" d="M606 168q0 42 -17 72.5t-63 76.5q-92 97 -120.5 148.5t-28.5 97.5q0 64 34.5 120.5t92 89t125.5 32.5q31 0 86 -12q-121 116 -121 276q0 20 6 53q-24 -20 -76 -78q-90 -101 -147.5 -142.5t-108.5 -41.5q-40 0 -66 23.5t-26 60.5q0 73 100 113q41 18 72 18q10 0 10 -6 q0 -7 -14 -16q-51 -34 -51 -60q0 -28 33 -28q28 0 82 45q28 23 56.5 55t96.5 117q72 89 116.5 132t98.5 72q84 48 148 48q19 0 32 -11t13 -28q0 -33 -45 -41q-88 -15 -133.5 -53.5t-45.5 -96.5q0 -77 71 -119.5t239 -68.5q178 -26 254 -46.5t135 -62.5q76 -53 119 -138 t43 -183q0 -166 -108.5 -280.5t-319.5 -174.5q-76 -62 -168.5 -107.5t-192 -68.5t-199.5 -23q-88 0 -136 12t-48 33q0 15 23 23q64 26 91 48t44 61q-218 24 -357 133.5t-139 257.5q0 48 22 95t56.5 77t67.5 30q23 0 38 -15t15 -36q0 -17 -8 -29t-31 -30q-59 -53 -59 -121 q0 -48 26 -96.5t74 -89.5q105 -91 309 -117zM696 1262q-43 -69 -43 -164q0 -73 29 -138.5t84.5 -117t126.5 -80.5q69 106 199 106q62 0 120 -26t99.5 -70t64.5 -102t23 -127q0 -159 -131 -318q270 126 270 361q0 82 -36 155.5t-99 114.5q-41 28 -75.5 41.5t-89 25 t-151.5 25.5q-124 20 -183 34.5t-109 41.5q-52 27 -82.5 74t-30.5 102q0 27 14 62zM1331 526q0 75 -32 140.5t-87.5 103t-119.5 37.5q-69 0 -115.5 -40.5t-46.5 -96.5q0 -22 24 -101q23 -66 23 -135q0 -71 -32.5 -140.5t-92.5 -125.5q-13 -10 -14 -10q-7 0 -7 6l2 3t3 7 q79 118 79 246q0 88 -37.5 163.5t-101 118.5t-139.5 43q-53 0 -99 -24.5t-73 -66t-27 -89.5q0 -43 16 -76t60 -81q89 -94 109 -123q39 -57 39 -115q0 -63 -52 -133q-10 -17 -10 -21q0 -18 72 -18q136 0 269 52.5t237 148.5q72 67 112.5 154t40.5 173z" />
<glyph unicode="&#xf039;" horiz-adv-x="1702" d="M606 168q0 42 -17 72.5t-63 76.5q-92 97 -120.5 148.5t-28.5 97.5q0 64 34.5 120.5t92 89t125.5 32.5q31 0 86 -12q-121 116 -121 276q0 20 6 53q-24 -20 -76 -78q-90 -101 -147.5 -142.5t-108.5 -41.5q-40 0 -66 23.5t-26 60.5q0 73 100 113q41 18 72 18q10 0 10 -6 q0 -7 -14 -16q-51 -34 -51 -60q0 -28 33 -28q28 0 82 45q28 23 56.5 55t96.5 117q72 89 116.5 132t98.5 72q84 48 148 48q19 0 32 -11t13 -28q0 -33 -45 -41q-88 -15 -133.5 -53.5t-45.5 -96.5q0 -77 71 -119.5t239 -68.5q178 -26 254 -46.5t135 -62.5q76 -53 119 -138 t43 -183q0 -166 -108.5 -280.5t-319.5 -174.5q-76 -62 -168.5 -107.5t-192 -68.5t-199.5 -23q-88 0 -136 12t-48 33q0 15 23 23q64 26 91 48t44 61q-218 24 -357 133.5t-139 257.5q0 48 22 95t56.5 77t67.5 30q23 0 38 -15t15 -36q0 -17 -8 -29t-31 -30q-59 -53 -59 -121 q0 -48 26 -96.5t74 -89.5q105 -91 309 -117zM696 1262q-43 -69 -43 -164q0 -73 29 -138.5t84.5 -117t126.5 -80.5q69 106 199 106q62 0 120 -26t99.5 -70t64.5 -102t23 -127q0 -159 -131 -318q270 126 270 361q0 82 -36 155.5t-99 114.5q-41 28 -75.5 41.5t-89 25 t-151.5 25.5q-124 20 -183 34.5t-109 41.5q-52 27 -82.5 74t-30.5 102q0 27 14 62zM1331 526q0 75 -32 140.5t-87.5 103t-119.5 37.5q-69 0 -115.5 -40.5t-46.5 -96.5q0 -22 24 -101q23 -66 23 -135q0 -71 -32.5 -140.5t-92.5 -125.5q-13 -10 -14 -10q-7 0 -7 6l2 3t3 7 q79 118 79 246q0 88 -37.5 163.5t-101 118.5t-139.5 43q-53 0 -99 -24.5t-73 -66t-27 -89.5q0 -43 16 -76t60 -81q89 -94 109 -123q39 -57 39 -115q0 -63 -52 -133q-10 -17 -10 -21q0 -18 72 -18q136 0 269 52.5t237 148.5q72 67 112.5 154t40.5 173z" />
<glyph unicode=":" horiz-adv-x="2404" d="M1602 1100q30 68 50.5 110.5t34 72t39.5 83.5q64 -2 236.5 -13.5t347.5 -25.5q-75 -55 -160.5 -139t-171.5 -189l-53 -4q-87 19 -183.5 39t-125.5 25q71 -122 174 -205l-90 -92h-43q-130 85 -246 188q18 -34 57 -92q67 -89 158 -188l-84 -84h-47q-54 28 -109 65t-101 74 t-81 74q68 -111 132 -189t145 -145l-172 -152h-45q-87 50 -199 133q-99 75 -170 140q50 -95 122 -183.5t179 -191.5l16 -14l-180 -187l-59 -10q-111 56 -271 160q-140 92 -221 170q-102 -77 -321 -281q-64 28 -64 90l97.5 84.5t80.5 67.5q29 24 164 127q0 363 105 641 l213 47l43 -41q0 -75 14 -180t37 -189q14 271 57 463l2 12l164 43l45 -43q5 -134 45 -251q12 105 24 181t27 146l97 21l39 -35q4 -64 14.5 -119.5t30.5 -114.5h8q15 148 57 301l105 27l37 -35q-7 -60 -7 -104q0 -39 7 -88zM109 129q5 -20 26 -41q130 122 252 220t295 216 q274 183 395 258q149 88 221 127q25 14 44.5 25t50.5 29q163 90 254 133q-57 -20 -60 -21q-18 -7 -123 -61q-26 -13 -80 -41q-103 -52 -155 -80q-148 -75 -352 -203q-88 -55 -135.5 -85t-78.5 -50.5t-86.5 -59.5t-109.5 -79q-230 -177 -358 -287zM752 1087l-195 -45 q-32 -101 -51 -182q-13 -64 -27 -188.5t-18 -239.5q64 52 168 121q130 85 180 115q-27 102 -42 218.5t-15 200.5zM840 594q-8 -5 -113 -80q-175 -125 -229 -172q43 -47 149 -119q176 -120 320 -196l24 -13l168 179q-79 70 -188 202q-70 85 -131 199zM1141 866 q-66 158 -66 328l-147 -39q-18 -79 -33 -209q-12 -108 -18 -235q32 21 81 51q31 17 96.5 54.5t86.5 49.5zM1278 330l152 131q-170 166 -265 344q-64 -41 -151 -96q-82 -52 -129 -86q59 -62 207 -172q91 -71 186 -121zM1184 889q76 41 172 88q-20 54 -33 135t-14 137l-78 -16 q-12 -69 -28.5 -196t-18.5 -148zM1509 596l74 74q-105 108 -205 258q-37 -22 -174 -103q39 -43 82 -78.5t105.5 -77.5t117.5 -73zM1421 1010q50 25 88 42.5t62 30.5q-12 59 -12 123q0 19 4 103l-84 -23q-37 -120 -58 -276zM1430 956q50 -44 123 -97.5t118 -82.5l72 72 q-102 94 -158 190q-85 -42 -155 -82zM1935 1016q139 178 293 303q-98 6 -189 10t-174.5 8t-127.5 6q-15 -29 -33 -66.5t-35.5 -74t-44.5 -92.5q147 66 340 135q119 43 205 55q-112 -40 -289 -118q-185 -86 -227 -107q112 -19 282 -59z" />
<glyph unicode="&#xf03a;" horiz-adv-x="2404" d="M1602 1100q30 68 50.5 110.5t34 72t39.5 83.5q64 -2 236.5 -13.5t347.5 -25.5q-75 -55 -160.5 -139t-171.5 -189l-53 -4q-87 19 -183.5 39t-125.5 25q71 -122 174 -205l-90 -92h-43q-130 85 -246 188q18 -34 57 -92q67 -89 158 -188l-84 -84h-47q-54 28 -109 65t-101 74 t-81 74q68 -111 132 -189t145 -145l-172 -152h-45q-87 50 -199 133q-99 75 -170 140q50 -95 122 -183.5t179 -191.5l16 -14l-180 -187l-59 -10q-111 56 -271 160q-140 92 -221 170q-102 -77 -321 -281q-64 28 -64 90l97.5 84.5t80.5 67.5q29 24 164 127q0 363 105 641 l213 47l43 -41q0 -75 14 -180t37 -189q14 271 57 463l2 12l164 43l45 -43q5 -134 45 -251q12 105 24 181t27 146l97 21l39 -35q4 -64 14.5 -119.5t30.5 -114.5h8q15 148 57 301l105 27l37 -35q-7 -60 -7 -104q0 -39 7 -88zM109 129q5 -20 26 -41q130 122 252 220t295 216 q274 183 395 258q149 88 221 127q25 14 44.5 25t50.5 29q163 90 254 133q-57 -20 -60 -21q-18 -7 -123 -61q-26 -13 -80 -41q-103 -52 -155 -80q-148 -75 -352 -203q-88 -55 -135.5 -85t-78.5 -50.5t-86.5 -59.5t-109.5 -79q-230 -177 -358 -287zM752 1087l-195 -45 q-32 -101 -51 -182q-13 -64 -27 -188.5t-18 -239.5q64 52 168 121q130 85 180 115q-27 102 -42 218.5t-15 200.5zM840 594q-8 -5 -113 -80q-175 -125 -229 -172q43 -47 149 -119q176 -120 320 -196l24 -13l168 179q-79 70 -188 202q-70 85 -131 199zM1141 866 q-66 158 -66 328l-147 -39q-18 -79 -33 -209q-12 -108 -18 -235q32 21 81 51q31 17 96.5 54.5t86.5 49.5zM1278 330l152 131q-170 166 -265 344q-64 -41 -151 -96q-82 -52 -129 -86q59 -62 207 -172q91 -71 186 -121zM1184 889q76 41 172 88q-20 54 -33 135t-14 137l-78 -16 q-12 -69 -28.5 -196t-18.5 -148zM1509 596l74 74q-105 108 -205 258q-37 -22 -174 -103q39 -43 82 -78.5t105.5 -77.5t117.5 -73zM1421 1010q50 25 88 42.5t62 30.5q-12 59 -12 123q0 19 4 103l-84 -23q-37 -120 -58 -276zM1430 956q50 -44 123 -97.5t118 -82.5l72 72 q-102 94 -158 190q-85 -42 -155 -82zM1935 1016q139 178 293 303q-98 6 -189 10t-174.5 8t-127.5 6q-15 -29 -33 -66.5t-35.5 -74t-44.5 -92.5q147 66 340 135q119 43 205 55q-112 -40 -289 -118q-185 -86 -227 -107q112 -19 282 -59z" />
<glyph unicode=";" horiz-adv-x="1614" d="M629 1180q-9 4 -26 11t-32 13q-71 23 -170 23q-39 0 -99.5 -20.5t-113.5 -49.5q101 95 252 98q88 0 181 -36q-19 36 -57 76t-66 40q-30 11 -82 11q-79 -10 -125 -31q-59 -25 -105.5 -86t-68.5 -121q-2 -14 -2 -35q0 -19 6 -39q11 28 38 48t56 20q41 -19 116.5 -37 t125.5 -18q20 0 50 23.5t70 63t52 46.5zM653 1165q-12 -7 -54 -51t-77.5 -72t-68.5 -28q-48 0 -122.5 19.5t-127.5 41.5q-41 -5 -54.5 -31t-23.5 -73q-29 49 -29 114v31q68 177 193 223q66 24 135 27q41 0 80 -10q37 -1 77 -47.5t70 -102.5q8 -4 18.5 -9t24.5 -13 q54 -47 89.5 -89.5t67.5 -136t40 -241.5q33 80 94 123q5 69 55 139q43 22 110 45.5t116 30.5q50 -3 124.5 -41t102.5 -72q25 -59 25 -98q0 -23 -2 -35q-23 34 -38.5 49.5t-43.5 15.5h-19q-42 -40 -104.5 -90t-102.5 -67q-45 7 -81 17.5t-66.5 29.5t-50.5 51q-28 -12 -46 -31 t-40 -55q-8 -21 -17 -45t-14.5 -46.5t-5.5 -51.5q-4 -57 -14.5 -103.5t-24 -77.5t-40.5 -77t-50 -84q-40 -65 -75.5 -106.5t-70.5 -69.5t-94 -68l-20 63q104 53 194 162q17 20 17 78q-21 35 -43 60.5t-52 37.5q-29 -45 -77.5 -66t-122.5 -34q-19 10 -50 31.5t-63.5 48.5 t-50 42t-43.5 38q-4 1 -7.5 1.5t-9.5 0.5q-13 0 -26.5 -7t-20.5 -14t-19.5 -25.5t-14.5 -21.5q-3 13 -3 35q0 45 23 98q40 44 117 78.5t121 34.5q48 0 96 -20t121 -56q46 -61 55 -139q73 -53 100 -135q40 55 84 137q17 67 22.5 106.5t7.5 78t7 106.5q0 80 -20 163t-66 158 q-51 82 -121 125zM1272 1034q-50 -9 -112.5 -31t-106.5 -42q-39 -49 -39 -109q119 72 229 102q49 7 74 7q23 0 61 -11.5t58 -31.5q-28 12 -46 16t-55 4q-55 0 -84 -6q-109 -34 -219 -101q15 -31 71.5 -58.5t100.5 -33.5q37 20 97.5 69.5t95.5 84.5q8 4 26 4q48 0 74 -31 q0 27 -18 64q-26 32 -93 64t-114 40zM352 618q-31 -5 -71 -20t-80 -39.5t-56 -44.5q-18 -31 -18 -61q27 30 74 30q10 0 26 -4q36 -36 98.5 -86t94.5 -67q43 5 101 33.5t71 58.5q-117 70 -219 100q-29 6 -86 6q-50 0 -99 -20q20 19 55 31t64 12q32 0 74 -6q117 -35 229 -103 v4q0 49 -39 105q-20 9 -61.5 25.5t-88.5 29.5t-69 16z" />
<glyph unicode="&#xf03b;" horiz-adv-x="1614" d="M629 1180q-9 4 -26 11t-32 13q-71 23 -170 23q-39 0 -99.5 -20.5t-113.5 -49.5q101 95 252 98q88 0 181 -36q-19 36 -57 76t-66 40q-30 11 -82 11q-79 -10 -125 -31q-59 -25 -105.5 -86t-68.5 -121q-2 -14 -2 -35q0 -19 6 -39q11 28 38 48t56 20q41 -19 116.5 -37 t125.5 -18q20 0 50 23.5t70 63t52 46.5zM653 1165q-12 -7 -54 -51t-77.5 -72t-68.5 -28q-48 0 -122.5 19.5t-127.5 41.5q-41 -5 -54.5 -31t-23.5 -73q-29 49 -29 114v31q68 177 193 223q66 24 135 27q41 0 80 -10q37 -1 77 -47.5t70 -102.5q8 -4 18.5 -9t24.5 -13 q54 -47 89.5 -89.5t67.5 -136t40 -241.5q33 80 94 123q5 69 55 139q43 22 110 45.5t116 30.5q50 -3 124.5 -41t102.5 -72q25 -59 25 -98q0 -23 -2 -35q-23 34 -38.5 49.5t-43.5 15.5h-19q-42 -40 -104.5 -90t-102.5 -67q-45 7 -81 17.5t-66.5 29.5t-50.5 51q-28 -12 -46 -31 t-40 -55q-8 -21 -17 -45t-14.5 -46.5t-5.5 -51.5q-4 -57 -14.5 -103.5t-24 -77.5t-40.5 -77t-50 -84q-40 -65 -75.5 -106.5t-70.5 -69.5t-94 -68l-20 63q104 53 194 162q17 20 17 78q-21 35 -43 60.5t-52 37.5q-29 -45 -77.5 -66t-122.5 -34q-19 10 -50 31.5t-63.5 48.5 t-50 42t-43.5 38q-4 1 -7.5 1.5t-9.5 0.5q-13 0 -26.5 -7t-20.5 -14t-19.5 -25.5t-14.5 -21.5q-3 13 -3 35q0 45 23 98q40 44 117 78.5t121 34.5q48 0 96 -20t121 -56q46 -61 55 -139q73 -53 100 -135q40 55 84 137q17 67 22.5 106.5t7.5 78t7 106.5q0 80 -20 163t-66 158 q-51 82 -121 125zM1272 1034q-50 -9 -112.5 -31t-106.5 -42q-39 -49 -39 -109q119 72 229 102q49 7 74 7q23 0 61 -11.5t58 -31.5q-28 12 -46 16t-55 4q-55 0 -84 -6q-109 -34 -219 -101q15 -31 71.5 -58.5t100.5 -33.5q37 20 97.5 69.5t95.5 84.5q8 4 26 4q48 0 74 -31 q0 27 -18 64q-26 32 -93 64t-114 40zM352 618q-31 -5 -71 -20t-80 -39.5t-56 -44.5q-18 -31 -18 -61q27 30 74 30q10 0 26 -4q36 -36 98.5 -86t94.5 -67q43 5 101 33.5t71 58.5q-117 70 -219 100q-29 6 -86 6q-50 0 -99 -20q20 19 55 31t64 12q32 0 74 -6q117 -35 229 -103 v4q0 49 -39 105q-20 9 -61.5 25.5t-88.5 29.5t-69 16z" />
<glyph unicode="&#x3c;" horiz-adv-x="1313" d="M791 563h313q115 -3 115 -135v-135h-95v135q0 28 -12.5 44.5t-34.5 16.5h-92v-475l-162 99l-161 -99l-160 99l-174 -99v475h-90q-21 0 -34.5 -17.5t-13.5 -43.5l-2 -135h-92v135q0 132 115 135h328l43 119l-43 117h-328q-115 3 -115 135v135h92l2 -135q0 -26 14 -44 t34 -18h90v478l174 -97l160 97l161 -97l162 97v-478h92q21 0 34 17t13 45v135h95v-135q0 -132 -115 -135h-313l-46 -119zM891 489h-125l-53 129l26 64l-26 61l53 129h125v347l-68 -43l-161 92l-160 -92l-80 43v-347h141l53 -127l-28 -63l28 -66l-53 -127h-141v-344l80 45 l160 -94l161 94l68 -45v344zM659 502l-51 -127q-19 -42 -37.5 -62t-50.5 -20h-74v74h60q28 0 43.5 12.5t28.5 44.5l59 143l22 -57l33 59l62 -147q13 -29 27.5 -42t41.5 -13h43v-74h-61q-33 0 -50.5 19.5t-35.5 62.5zM705 684l-41 -98l-43 98l43 98zM664 852l-27 -57l-59 143 q-12 31 -27 44t-45 13h-57v74h71q32 0 51 -21t37 -61l56 -131l55 131q16 41 34.5 61.5t51.5 20.5h61v-74h-43q-29 0 -43 -13t-26 -42l-62 -147zM938 739q42 0 71 -18.5t29 -44.5t-28.5 -45t-71.5 -19q-40 0 -69 19t-29 45t29 44.5t69 18.5zM369 739q42 0 71 -18.5t29 -44.5 t-28.5 -45t-71.5 -19q-41 0 -70 19t-29 45t29 44.5t70 18.5z" />
<glyph unicode="&#xf03c;" horiz-adv-x="1313" d="M791 563h313q115 -3 115 -135v-135h-95v135q0 28 -12.5 44.5t-34.5 16.5h-92v-475l-162 99l-161 -99l-160 99l-174 -99v475h-90q-21 0 -34.5 -17.5t-13.5 -43.5l-2 -135h-92v135q0 132 115 135h328l43 119l-43 117h-328q-115 3 -115 135v135h92l2 -135q0 -26 14 -44 t34 -18h90v478l174 -97l160 97l161 -97l162 97v-478h92q21 0 34 17t13 45v135h95v-135q0 -132 -115 -135h-313l-46 -119zM891 489h-125l-53 129l26 64l-26 61l53 129h125v347l-68 -43l-161 92l-160 -92l-80 43v-347h141l53 -127l-28 -63l28 -66l-53 -127h-141v-344l80 45 l160 -94l161 94l68 -45v344zM659 502l-51 -127q-19 -42 -37.5 -62t-50.5 -20h-74v74h60q28 0 43.5 12.5t28.5 44.5l59 143l22 -57l33 59l62 -147q13 -29 27.5 -42t41.5 -13h43v-74h-61q-33 0 -50.5 19.5t-35.5 62.5zM705 684l-41 -98l-43 98l43 98zM664 852l-27 -57l-59 143 q-12 31 -27 44t-45 13h-57v74h71q32 0 51 -21t37 -61l56 -131l55 131q16 41 34.5 61.5t51.5 20.5h61v-74h-43q-29 0 -43 -13t-26 -42l-62 -147zM938 739q42 0 71 -18.5t29 -44.5t-28.5 -45t-71.5 -19q-40 0 -69 19t-29 45t29 44.5t69 18.5zM369 739q42 0 71 -18.5t29 -44.5 t-28.5 -45t-71.5 -19q-41 0 -70 19t-29 45t29 44.5t70 18.5z" />
<glyph unicode="=" horiz-adv-x="2421" d="M1024 1221q105 110 252 110q40 0 86 -10q4 38 41.5 62t95.5 24q37 0 63 -11.5t83 -54.5q60 -47 86 -61t57 -20q-41 45 -41 106q0 41 18 68q18 -21 30.5 -30.5t34 -17t89.5 -28.5q133 -37 184 -129q39 45 82 68.5t82 23.5q-16 -33 -16 -59q0 -37 20 -80q31 -73 31 -90 q0 -22 -7.5 -36t-41.5 -63q-25 -36 -33 -67.5t-8 -85.5q-64 71 -132.5 125t-144 94t-182.5 78q-127 44 -284 69t-302 25q-77 0 -143 -10zM752 1102q39 19 75 30.5t84 20.5q128 23 267 23q109 0 209 -12t206 -37.5t196.5 -60.5t156.5 -75q121 -70 205.5 -161.5t130 -199.5 t45.5 -218q0 -97 -36.5 -186.5t-106.5 -163.5t-169 -130l-24 39q91 53 153 118t93.5 143.5t31.5 162.5q0 60 -17.5 112.5t-48 93.5t-69.5 65t-80 24q-36 0 -62 -24t-26 -58q0 -38 35 -59q-43 -14 -68 -14q-94 0 -145 79q-40 -34 -59 -71.5t-27 -104.5q-72 24 -114 76 t-42 119q0 32 19 80q-95 25 -117 104q20 -10 33 -10q24 0 34.5 10.5t40.5 50.5q28 34 43 47t39 13q18 0 27.5 -2t26 -8t41.5 -15q80 -24 151 -24q39 0 88 14q-83 54 -177.5 85.5t-180.5 31.5q-96 0 -162 -56t-66 -139q0 -41 25 -92q-132 0 -178 100q-50 -31 -74.5 -68 t-25.5 -85q-49 18 -79 67t-30 109q0 57 29 102t94 86q-33 17 -62 17q-30 0 -92 -39q-12 -8 -22 -8q-19 0 -53 24q-43 34 -77.5 50t-88.5 24zM637 901q-73 -61 -162 -61q-68 0 -116.5 36t-63.5 97q-41 -33 -41 -90q0 -40 14 -64l25 -39q10 -17 10 -28l-2 -47q0 -41 43 -41 q50 0 70 67q22 -40 22 -74q0 -53 -34 -90t-87 -41q50 -46 50 -110q-121 39 -195 133t-74 211q0 99 54.5 182.5t155 143t238 92t304.5 32.5q45 0 80 -2q-224 -41 -328 -161q-18 -23 -27 -29t-32 -12q-47 -11 -47 -41q0 -28 39 -45.5t104 -18.5z" />
<glyph unicode="&#xf03d;" horiz-adv-x="2421" d="M1024 1221q105 110 252 110q40 0 86 -10q4 38 41.5 62t95.5 24q37 0 63 -11.5t83 -54.5q60 -47 86 -61t57 -20q-41 45 -41 106q0 41 18 68q18 -21 30.5 -30.5t34 -17t89.5 -28.5q133 -37 184 -129q39 45 82 68.5t82 23.5q-16 -33 -16 -59q0 -37 20 -80q31 -73 31 -90 q0 -22 -7.5 -36t-41.5 -63q-25 -36 -33 -67.5t-8 -85.5q-64 71 -132.5 125t-144 94t-182.5 78q-127 44 -284 69t-302 25q-77 0 -143 -10zM752 1102q39 19 75 30.5t84 20.5q128 23 267 23q109 0 209 -12t206 -37.5t196.5 -60.5t156.5 -75q121 -70 205.5 -161.5t130 -199.5 t45.5 -218q0 -97 -36.5 -186.5t-106.5 -163.5t-169 -130l-24 39q91 53 153 118t93.5 143.5t31.5 162.5q0 60 -17.5 112.5t-48 93.5t-69.5 65t-80 24q-36 0 -62 -24t-26 -58q0 -38 35 -59q-43 -14 -68 -14q-94 0 -145 79q-40 -34 -59 -71.5t-27 -104.5q-72 24 -114 76 t-42 119q0 32 19 80q-95 25 -117 104q20 -10 33 -10q24 0 34.5 10.5t40.5 50.5q28 34 43 47t39 13q18 0 27.5 -2t26 -8t41.5 -15q80 -24 151 -24q39 0 88 14q-83 54 -177.5 85.5t-180.5 31.5q-96 0 -162 -56t-66 -139q0 -41 25 -92q-132 0 -178 100q-50 -31 -74.5 -68 t-25.5 -85q-49 18 -79 67t-30 109q0 57 29 102t94 86q-33 17 -62 17q-30 0 -92 -39q-12 -8 -22 -8q-19 0 -53 24q-43 34 -77.5 50t-88.5 24zM637 901q-73 -61 -162 -61q-68 0 -116.5 36t-63.5 97q-41 -33 -41 -90q0 -40 14 -64l25 -39q10 -17 10 -28l-2 -47q0 -41 43 -41 q50 0 70 67q22 -40 22 -74q0 -53 -34 -90t-87 -41q50 -46 50 -110q-121 39 -195 133t-74 211q0 99 54.5 182.5t155 143t238 92t304.5 32.5q45 0 80 -2q-224 -41 -328 -161q-18 -23 -27 -29t-32 -12q-47 -11 -47 -41q0 -28 39 -45.5t104 -18.5z" />
<glyph unicode="&#x3e;" horiz-adv-x="2466" d="M852 834q39 14 63 14q38 0 76 -17.5t63 -52t25 -78.5q0 -33 -19 -61.5t-52 -28.5q-19 0 -31 19q-74 -27 -74 -82q0 -39 30 -62.5t66 -23.5q22 0 54 10q59 22 94 78t35 127q0 74 -35.5 132.5t-96 90t-128.5 31.5q-96 0 -182 -47.5t-208 -155.5q-70 -61 -105.5 -79.5 t-86.5 -33.5q6 26 6 39q0 35 -23.5 65t-68.5 30q-37 0 -68.5 -27t-31.5 -74q0 -51 43 -91t116 -40q79 0 154 46t174 138q93 88 147 88q21 0 31 -8t10 -22q0 -13 -22 -27q20 -14 37 -14q19 0 39 13.5t20 39.5q0 44 -51 64zM2126 612q-52 12 -109 50t-120.5 95t-77.5 68 q-71 57 -144 81t-131 24q-68 0 -128.5 -32t-97 -90t-36.5 -134q0 -94 57 -153.5t125 -59.5q39 0 68 22t29 64q0 28 -19 49.5t-55 32.5q-12 -19 -29 -19q-28 0 -50 24.5t-22 65.5q0 67 52.5 107.5t111.5 40.5q35 0 62 -14q-49 -21 -49 -64q0 -25 19.5 -40t39.5 -15 q16 0 35 16q-21 14 -21 27q0 30 39 30q28 0 60.5 -17t89.5 -71q60 -59 113 -99.5t105.5 -62.5t106.5 -22q75 0 118.5 40t43.5 91q0 32 -16 55t-40 34.5t-46 11.5q-44 0 -68 -30.5t-24 -64.5q0 -16 8 -41zM2068 694q9 33 30 58.5t50.5 39t59.5 13.5q60 0 111 -40.5t51 -113.5 q0 -79 -63.5 -133.5t-154.5 -54.5q-78 0 -152 37t-132 90q-77 70 -99 89.5t-47 35.5q-45 -53 -98 -53q-42 0 -78.5 26.5t-40.5 89.5q-33 -6 -47 -24.5t-14 -40.5q0 -16 7 -24.5t13 -8.5q11 0 21 10q58 -9 95.5 -51t37.5 -94q0 -63 -46 -101t-110 -38q-86 0 -155.5 67 t-73.5 191q-1 -83 -35.5 -140.5t-87.5 -87.5t-106 -30q-71 0 -114.5 40t-43.5 99q0 50 38 93t95 52q13 -10 20 -10q23 0 23 33q0 54 -61 65q-8 -65 -43 -90.5t-76 -25.5q-55 0 -99 53q-41 -28 -147 -125q-59 -54 -132 -90.5t-151 -36.5q-91 0 -154 54.5t-63 133.5 q0 73 51 113.5t111 40.5q46 0 86 -27.5t51 -83.5q44 24 101 76q97 85 156 126t126 65q71 26 142 26q92 0 159.5 -39.5t106.5 -94.5t47 -99q12 44 53 98.5t109 94.5t151 40q71 0 140 -26q66 -23 128.5 -65t153.5 -126q58 -50 100 -76z" />
<glyph unicode="&#xf03e;" horiz-adv-x="2466" d="M852 834q39 14 63 14q38 0 76 -17.5t63 -52t25 -78.5q0 -33 -19 -61.5t-52 -28.5q-19 0 -31 19q-74 -27 -74 -82q0 -39 30 -62.5t66 -23.5q22 0 54 10q59 22 94 78t35 127q0 74 -35.5 132.5t-96 90t-128.5 31.5q-96 0 -182 -47.5t-208 -155.5q-70 -61 -105.5 -79.5 t-86.5 -33.5q6 26 6 39q0 35 -23.5 65t-68.5 30q-37 0 -68.5 -27t-31.5 -74q0 -51 43 -91t116 -40q79 0 154 46t174 138q93 88 147 88q21 0 31 -8t10 -22q0 -13 -22 -27q20 -14 37 -14q19 0 39 13.5t20 39.5q0 44 -51 64zM2126 612q-52 12 -109 50t-120.5 95t-77.5 68 q-71 57 -144 81t-131 24q-68 0 -128.5 -32t-97 -90t-36.5 -134q0 -94 57 -153.5t125 -59.5q39 0 68 22t29 64q0 28 -19 49.5t-55 32.5q-12 -19 -29 -19q-28 0 -50 24.5t-22 65.5q0 67 52.5 107.5t111.5 40.5q35 0 62 -14q-49 -21 -49 -64q0 -25 19.5 -40t39.5 -15 q16 0 35 16q-21 14 -21 27q0 30 39 30q28 0 60.5 -17t89.5 -71q60 -59 113 -99.5t105.5 -62.5t106.5 -22q75 0 118.5 40t43.5 91q0 32 -16 55t-40 34.5t-46 11.5q-44 0 -68 -30.5t-24 -64.5q0 -16 8 -41zM2068 694q9 33 30 58.5t50.5 39t59.5 13.5q60 0 111 -40.5t51 -113.5 q0 -79 -63.5 -133.5t-154.5 -54.5q-78 0 -152 37t-132 90q-77 70 -99 89.5t-47 35.5q-45 -53 -98 -53q-42 0 -78.5 26.5t-40.5 89.5q-33 -6 -47 -24.5t-14 -40.5q0 -16 7 -24.5t13 -8.5q11 0 21 10q58 -9 95.5 -51t37.5 -94q0 -63 -46 -101t-110 -38q-86 0 -155.5 67 t-73.5 191q-1 -83 -35.5 -140.5t-87.5 -87.5t-106 -30q-71 0 -114.5 40t-43.5 99q0 50 38 93t95 52q13 -10 20 -10q23 0 23 33q0 54 -61 65q-8 -65 -43 -90.5t-76 -25.5q-55 0 -99 53q-41 -28 -147 -125q-59 -54 -132 -90.5t-151 -36.5q-91 0 -154 54.5t-63 133.5 q0 73 51 113.5t111 40.5q46 0 86 -27.5t51 -83.5q44 24 101 76q97 85 156 126t126 65q71 26 142 26q92 0 159.5 -39.5t106.5 -94.5t47 -99q12 44 53 98.5t109 94.5t151 40q71 0 140 -26q66 -23 128.5 -65t153.5 -126q58 -50 100 -76z" />
<glyph unicode="?" horiz-adv-x="1554" d="M1268 1159q-3 -40 -21 -78.5t-55 -79.5q30 -2 55 -22q-62 -18 -139 -78q-72 -58 -103.5 -74.5t-103.5 -33.5q17 76 32 105.5t73 102.5q57 74 75 140q23 -23 25 -56q48 40 82.5 56t79.5 18zM387 434q-105 109 -168 204t-93 187.5t-30 194.5q0 72 21 136.5t58.5 111 t90.5 72.5t113 26q56 0 103 -28t73.5 -77t26.5 -106q0 -72 -42 -130t-96 -58q-26 0 -42.5 15.5t-16.5 41.5q0 19 14 33t31 14q31 0 43 -39q31 6 51.5 42t20.5 81q0 49 -22.5 87.5t-61 61.5t-86.5 23q-55 0 -103.5 -30t-74.5 -80q28 -13 59 -13q1 0 39 4q-6 -28 -17.5 -46 t-50.5 -62q-44 -51 -59.5 -84t-15.5 -82q0 -59 28.5 -135.5t75.5 -146.5t98 -113q30 176 129 297q13 -57 31 -97.5t51 -89.5q73 64 168 70q-50 56 -79 125t-29 135q0 63 27.5 116t75.5 85t101 32q50 0 89.5 -29.5t39.5 -68.5q0 -24 -14.5 -39.5t-36.5 -15.5q-17 0 -31 13 t-14 32q0 27 29 45q-26 27 -64 27q-56 0 -95.5 -36.5t-53.5 -101.5q10 -2 22 -2q20 0 48 11q-7 -18 -7 -25q-4 -11 -9 -23t-9.5 -23.5t-9.5 -23.5q-13 -32 -13 -67q0 -79 72 -160q104 -119 211 -119q41 0 66 12q74 31 94 33q-10 -27 -10 -47q0 -12 2 -22q65 14 101 53t36 96 q0 40 -27 64q-17 -27 -43 -27q-19 0 -33 12t-14 33t16 35t39 14q40 0 69.5 -39.5t29.5 -89.5q0 -53 -31.5 -100t-85.5 -75t-117 -28q-66 0 -134 27.5t-126 79.5q-6 -98 -70 -166q88 -65 187 -84q-122 -101 -297 -129q44 -53 114.5 -99.5t146.5 -75t138 -28.5q48 0 82 16.5 t80 59.5q37 33 60 48t49 22q-1 -15 -3 -25.5t-2 -15.5q0 -28 13 -58q52 27 80 73.5t28 103.5q0 74 -48 122t-122 48q-45 0 -80 -20t-43 -52q41 -11 41 -43q0 -20 -14.5 -32.5t-34.5 -12.5q-24 0 -39.5 17t-15.5 42q0 51 58 94t128 43q57 0 104.5 -26.5t75 -73.5t27.5 -102 q0 -80 -43.5 -145t-121 -101.5t-175.5 -36.5q-71 0 -141 16t-144 52.5t-143.5 88t-159.5 136.5q85 0 175.5 24t144.5 60q-56 24 -83.5 40.5t-74.5 53.5q44 40 64 80.5t20 91.5q0 16 -2 33q-18 4 -39 4q-92 0 -170 -84q-39 50 -52.5 73.5t-39.5 84.5q-40 -60 -63 -146 t-23 -174zM455 360q-9 -63 -9 -81q0 -33 17 -76q-92 -9 -144.5 -28.5t-123.5 -76.5q40 53 59.5 88t30 79.5t14.5 103.5q33 -13 82 -13q33 0 74 4z" />
<glyph unicode="&#xf03f;" horiz-adv-x="1554" d="M1268 1159q-3 -40 -21 -78.5t-55 -79.5q30 -2 55 -22q-62 -18 -139 -78q-72 -58 -103.5 -74.5t-103.5 -33.5q17 76 32 105.5t73 102.5q57 74 75 140q23 -23 25 -56q48 40 82.5 56t79.5 18zM387 434q-105 109 -168 204t-93 187.5t-30 194.5q0 72 21 136.5t58.5 111 t90.5 72.5t113 26q56 0 103 -28t73.5 -77t26.5 -106q0 -72 -42 -130t-96 -58q-26 0 -42.5 15.5t-16.5 41.5q0 19 14 33t31 14q31 0 43 -39q31 6 51.5 42t20.5 81q0 49 -22.5 87.5t-61 61.5t-86.5 23q-55 0 -103.5 -30t-74.5 -80q28 -13 59 -13q1 0 39 4q-6 -28 -17.5 -46 t-50.5 -62q-44 -51 -59.5 -84t-15.5 -82q0 -59 28.5 -135.5t75.5 -146.5t98 -113q30 176 129 297q13 -57 31 -97.5t51 -89.5q73 64 168 70q-50 56 -79 125t-29 135q0 63 27.5 116t75.5 85t101 32q50 0 89.5 -29.5t39.5 -68.5q0 -24 -14.5 -39.5t-36.5 -15.5q-17 0 -31 13 t-14 32q0 27 29 45q-26 27 -64 27q-56 0 -95.5 -36.5t-53.5 -101.5q10 -2 22 -2q20 0 48 11q-7 -18 -7 -25q-4 -11 -9 -23t-9.5 -23.5t-9.5 -23.5q-13 -32 -13 -67q0 -79 72 -160q104 -119 211 -119q41 0 66 12q74 31 94 33q-10 -27 -10 -47q0 -12 2 -22q65 14 101 53t36 96 q0 40 -27 64q-17 -27 -43 -27q-19 0 -33 12t-14 33t16 35t39 14q40 0 69.5 -39.5t29.5 -89.5q0 -53 -31.5 -100t-85.5 -75t-117 -28q-66 0 -134 27.5t-126 79.5q-6 -98 -70 -166q88 -65 187 -84q-122 -101 -297 -129q44 -53 114.5 -99.5t146.5 -75t138 -28.5q48 0 82 16.5 t80 59.5q37 33 60 48t49 22q-1 -15 -3 -25.5t-2 -15.5q0 -28 13 -58q52 27 80 73.5t28 103.5q0 74 -48 122t-122 48q-45 0 -80 -20t-43 -52q41 -11 41 -43q0 -20 -14.5 -32.5t-34.5 -12.5q-24 0 -39.5 17t-15.5 42q0 51 58 94t128 43q57 0 104.5 -26.5t75 -73.5t27.5 -102 q0 -80 -43.5 -145t-121 -101.5t-175.5 -36.5q-71 0 -141 16t-144 52.5t-143.5 88t-159.5 136.5q85 0 175.5 24t144.5 60q-56 24 -83.5 40.5t-74.5 53.5q44 40 64 80.5t20 91.5q0 16 -2 33q-18 4 -39 4q-92 0 -170 -84q-39 50 -52.5 73.5t-39.5 84.5q-40 -60 -63 -146 t-23 -174zM455 360q-9 -63 -9 -81q0 -33 17 -76q-92 -9 -144.5 -28.5t-123.5 -76.5q40 53 59.5 88t30 79.5t14.5 103.5q33 -13 82 -13q33 0 74 4z" />
<glyph unicode="@" horiz-adv-x="2570" d="M694 1204q57 97 137.5 143t194.5 46q100 0 185 -40.5t143.5 -115.5t81.5 -174q84 37 172 37q93 0 172.5 -36t126.5 -96.5t47 -133.5q0 -34 -17 -72q54 -51 54 -115q0 -19 -9 -43q20 -9 46 -26q16 37 16 75q0 36 -16 72l12 4q26 -45 26 -100q0 -32 -10 -68 q116 -75 212.5 -171t152 -189.5t55.5 -163.5q0 -30 -14 -47t-39 -17q-28 0 -53 19q20 29 20 61q0 94 -106.5 237t-243.5 230q-133 -182 -441 -182q-222 0 -423 92q-97 46 -180.5 105t-252.5 200q-145 124 -235.5 172.5t-175.5 48.5q-72 0 -125.5 -26t-102.5 -86l-8 8 q104 145 262 145q57 0 125.5 -21t144 -64.5t160.5 -108.5l173 -131q186 -141 354.5 -208t335.5 -67q83 0 148.5 15t114.5 45t95 82q-12 10 -43 30q-86 -129 -303 -129q-99 0 -211 32.5t-228 95t-235 151.5l-172 131q-259 197 -457 197q-46 0 -84.5 -11t-78.5 -37 q26 128 111 209.5t190 81.5q103 0 196 -86zM713 1182q37 -51 37 -86q0 -22 -8 -33.5t-21 -11.5q-18 0 -31.5 26.5t-13.5 57.5q0 11 6 39q-68 55 -160 55q-91 0 -166.5 -48.5t-124.5 -138.5q73 35 160 35q112 0 236 -51q95 -36 186.5 -88.5t230.5 -149.5l195 -133 q131 -88 238 -129t213 -41q87 0 151.5 26t95.5 75q-64 35 -135 63q-37 -10 -76 -10q-71 0 -133.5 22.5t-62.5 47.5q0 26 53 26q114 0 236 -49q46 26 67 76q-41 22 -82.5 32t-105.5 13v14h31q86 0 167 -37q1 10 3 23t2 16q0 62 -44 113t-121 81t-167 30q-58 0 -127 -19 q-7 -46 -27.5 -74t-44.5 -28t-24 28q0 50 61 88q-40 138 -140.5 213.5t-242.5 75.5q-192 0 -311 -149zM1921 735q-26 -49 -74 -65l13 -6q25 -11 47.5 -22.5t34.5 -16.5l12 -7q6 26 6 39q0 49 -39 78z" />
<glyph unicode="&#xf040;" horiz-adv-x="2570" d="M694 1204q57 97 137.5 143t194.5 46q100 0 185 -40.5t143.5 -115.5t81.5 -174q84 37 172 37q93 0 172.5 -36t126.5 -96.5t47 -133.5q0 -34 -17 -72q54 -51 54 -115q0 -19 -9 -43q20 -9 46 -26q16 37 16 75q0 36 -16 72l12 4q26 -45 26 -100q0 -32 -10 -68 q116 -75 212.5 -171t152 -189.5t55.5 -163.5q0 -30 -14 -47t-39 -17q-28 0 -53 19q20 29 20 61q0 94 -106.5 237t-243.5 230q-133 -182 -441 -182q-222 0 -423 92q-97 46 -180.5 105t-252.5 200q-145 124 -235.5 172.5t-175.5 48.5q-72 0 -125.5 -26t-102.5 -86l-8 8 q104 145 262 145q57 0 125.5 -21t144 -64.5t160.5 -108.5l173 -131q186 -141 354.5 -208t335.5 -67q83 0 148.5 15t114.5 45t95 82q-12 10 -43 30q-86 -129 -303 -129q-99 0 -211 32.5t-228 95t-235 151.5l-172 131q-259 197 -457 197q-46 0 -84.5 -11t-78.5 -37 q26 128 111 209.5t190 81.5q103 0 196 -86zM713 1182q37 -51 37 -86q0 -22 -8 -33.5t-21 -11.5q-18 0 -31.5 26.5t-13.5 57.5q0 11 6 39q-68 55 -160 55q-91 0 -166.5 -48.5t-124.5 -138.5q73 35 160 35q112 0 236 -51q95 -36 186.5 -88.5t230.5 -149.5l195 -133 q131 -88 238 -129t213 -41q87 0 151.5 26t95.5 75q-64 35 -135 63q-37 -10 -76 -10q-71 0 -133.5 22.5t-62.5 47.5q0 26 53 26q114 0 236 -49q46 26 67 76q-41 22 -82.5 32t-105.5 13v14h31q86 0 167 -37q1 10 3 23t2 16q0 62 -44 113t-121 81t-167 30q-58 0 -127 -19 q-7 -46 -27.5 -74t-44.5 -28t-24 28q0 50 61 88q-40 138 -140.5 213.5t-242.5 75.5q-192 0 -311 -149zM1921 735q-26 -49 -74 -65l13 -6q25 -11 47.5 -22.5t34.5 -16.5l12 -7q6 26 6 39q0 49 -39 78z" />
<glyph unicode="A" horiz-adv-x="2482" d="M1077 682l-98 -57l-98 57l98 59zM1339 840l-98 -60l-98 60l98 57zM1503 936l-98 59l229 135l99 -57zM1339 526l-98 -57l-98 57l98 60zM1602 682l-99 -57l-98 57l98 59zM1765 780l-98 60l227 135l99 -57zM1077 995l-98 -59l-229 137l98 57zM1241 1092l-229 137l229 137 l229 -137zM1929 682l228 137l229 -137l-229 -135zM1765 586l228 -137l-99 -60l-227 137zM1503 430l230 -137l-99 -60l-229 138zM815 840l-98 -60l-230 138l99 57zM553 682l-227 -135l-232 135l230 137zM1241 272l229 -135l-229 -137l-229 137zM979 430l98 -59l-229 -138 l-98 60zM815 526l-229 -137l-97 60l228 137z" />
<glyph unicode="&#xf041;" horiz-adv-x="2482" d="M1077 682l-98 -57l-98 57l98 59zM1339 840l-98 -60l-98 60l98 57zM1503 936l-98 59l229 135l99 -57zM1339 526l-98 -57l-98 57l98 60zM1602 682l-99 -57l-98 57l98 59zM1765 780l-98 60l227 135l99 -57zM1077 995l-98 -59l-229 137l98 57zM1241 1092l-229 137l229 137 l229 -137zM1929 682l228 137l229 -137l-229 -135zM1765 586l228 -137l-99 -60l-227 137zM1503 430l230 -137l-99 -60l-229 138zM815 840l-98 -60l-230 138l99 57zM553 682l-227 -135l-232 135l230 137zM1241 272l229 -135l-229 -137l-229 137zM979 430l98 -59l-229 -138 l-98 60zM815 526l-229 -137l-97 60l228 137z" />
<glyph unicode="B" horiz-adv-x="2376" d="M1188 1366l1091 -684l-743 -465h-408l-86 55h152l66 41h-281l-84 56h451l67 41h-584l-84 55h754l66 39h-883l-86 55h1057l65 41h-1188l-86 55h1362l64 41h-1446l90 56h1444l22 14l-38 25h-1362l86 55h1187l-65 41h-1057l88 55h881l-66 41h-749l88 55h577l-67 39h-445 l86 56h271l-64 41h-139l63 47l-75 49h-146zM981 1233h152l-883 -551l850 -532h327l-239 -150l-1094 682z" />
<glyph unicode="&#xf042;" horiz-adv-x="2376" d="M1188 1366l1091 -684l-743 -465h-408l-86 55h152l66 41h-281l-84 56h451l67 41h-584l-84 55h754l66 39h-883l-86 55h1057l65 41h-1188l-86 55h1362l64 41h-1446l90 56h1444l22 14l-38 25h-1362l86 55h1187l-65 41h-1057l88 55h881l-66 41h-749l88 55h577l-67 39h-445 l86 56h271l-64 41h-139l63 47l-75 49h-146zM981 1233h152l-883 -551l850 -532h327l-239 -150l-1094 682z" />
<glyph unicode="C" horiz-adv-x="1315" d="M1219 68q-51 34 -83 75t-54.5 94.5t-53.5 161.5q-58 201 -90 291q-24 58 -63 122.5t-76 102.5q-42 43 -77.5 69t-77 42t-107.5 29q99 -54 145.5 -96.5t82.5 -118.5t91 -242q69 -208 129 -312.5t156 -183.5q-38 -2 -63 -4t-34 -2q-248 0 -423 269q-78 118 -118 153 t-114 53q64 25 105 25q59 0 107 -26t95 -85q-31 153 -85.5 262t-128.5 166.5t-158 57.5q-85 0 -129.5 -45t-59.5 -142q-41 87 -41 162q0 102 52 182t145.5 124t210.5 44q89 0 166 -25t149.5 -78.5t147.5 -137.5q38 94 77.5 134.5t112.5 59.5q-4 -43 -4 -84q0 -18 9 -120.5 t9 -129.5q0 -90 -0.5 -154.5t-1.5 -142.5q-4 -232 -4 -270q0 -166 56 -280z" />
<glyph unicode="&#xf043;" horiz-adv-x="1315" d="M1219 68q-51 34 -83 75t-54.5 94.5t-53.5 161.5q-58 201 -90 291q-24 58 -63 122.5t-76 102.5q-42 43 -77.5 69t-77 42t-107.5 29q99 -54 145.5 -96.5t82.5 -118.5t91 -242q69 -208 129 -312.5t156 -183.5q-38 -2 -63 -4t-34 -2q-248 0 -423 269q-78 118 -118 153 t-114 53q64 25 105 25q59 0 107 -26t95 -85q-31 153 -85.5 262t-128.5 166.5t-158 57.5q-85 0 -129.5 -45t-59.5 -142q-41 87 -41 162q0 102 52 182t145.5 124t210.5 44q89 0 166 -25t149.5 -78.5t147.5 -137.5q38 94 77.5 134.5t112.5 59.5q-4 -43 -4 -84q0 -18 9 -120.5 t9 -129.5q0 -90 -0.5 -154.5t-1.5 -142.5q-4 -232 -4 -270q0 -166 56 -280z" />
<glyph unicode="D" horiz-adv-x="1315" d="M94 68q58 114 58 280q0 77 -5 270q0 105 -0.5 166t-1.5 131q0 5 9.5 112t9.5 138q0 41 -4 84q73 -19 113.5 -59.5t76.5 -134.5q75 84 147.5 137.5t149.5 78.5t166 25q118 0 210.5 -44t144 -124t51.5 -182q0 -45 -8 -78t-31 -84q-13 97 -58.5 142t-130.5 45 q-129 0 -227 -127t-146 -359q48 59 95.5 85t107.5 26q41 0 105 -25q-53 -12 -83 -29.5t-59 -52t-90 -124.5q-177 -269 -424 -269q-8 0 -33 2t-63 4q95 77 155.5 182.5t129.5 313.5q55 166 91 242t82.5 118.5t145.5 96.5q-92 -17 -147 -47.5t-115 -92.5q-35 -38 -72.5 -98.5 t-66.5 -126.5q-26 -68 -90 -291q-42 -147 -80 -214t-113 -117z" />
<glyph unicode="&#xf044;" horiz-adv-x="1315" d="M94 68q58 114 58 280q0 77 -5 270q0 105 -0.5 166t-1.5 131q0 5 9.5 112t9.5 138q0 41 -4 84q73 -19 113.5 -59.5t76.5 -134.5q75 84 147.5 137.5t149.5 78.5t166 25q118 0 210.5 -44t144 -124t51.5 -182q0 -45 -8 -78t-31 -84q-13 97 -58.5 142t-130.5 45 q-129 0 -227 -127t-146 -359q48 59 95.5 85t107.5 26q41 0 105 -25q-53 -12 -83 -29.5t-59 -52t-90 -124.5q-177 -269 -424 -269q-8 0 -33 2t-63 4q95 77 155.5 182.5t129.5 313.5q55 166 91 242t82.5 118.5t145.5 96.5q-92 -17 -147 -47.5t-115 -92.5q-35 -38 -72.5 -98.5 t-66.5 -126.5q-26 -68 -90 -291q-42 -147 -80 -214t-113 -117z" />
<glyph unicode="E" horiz-adv-x="2466" d="M612 373l-516 311l498 295l514 -309zM1731 295l-496 -295l-477 283l497 301zM1876 383l-473 287l493 297l476 -283zM1751 1057l-496 -297l-518 305l498 301z" />
<glyph unicode="&#xf045;" horiz-adv-x="2466" d="M612 373l-516 311l498 295l514 -309zM1731 295l-496 -295l-477 283l497 301zM1876 383l-473 287l493 297l476 -283zM1751 1057l-496 -297l-518 305l498 301z" />
<glyph unicode="F" horiz-adv-x="2468" d="M324 547l-228 135l228 137l227 -137zM778 272l-227 138l227 137l228 -137zM1006 137l227 135l227 -135l-227 -137zM1688 547l229 -137l-229 -138l-228 138zM2144 547l-227 135l227 137l228 -137zM1460 954l228 138l229 -138l-229 -135zM1460 1229l-227 -137l-227 137 l227 137zM1006 954l-228 -135l-227 135l227 138zM1233 547l-227 135l227 137l227 -137z" />
<glyph unicode="&#xf046;" horiz-adv-x="2468" d="M324 547l-228 135l228 137l227 -137zM778 272l-227 138l227 137l228 -137zM1006 137l227 135l227 -135l-227 -137zM1688 547l229 -137l-229 -138l-228 138zM2144 547l-227 135l227 137l228 -137zM1460 954l228 138l229 -138l-229 -135zM1460 1229l-227 -137l-227 137 l227 137zM1006 954l-228 -135l-227 135l227 138zM1233 547l-227 135l227 137l227 -137z" />
<glyph unicode="G" horiz-adv-x="1321" d="M455 309q-33 8 -56 8q-62 0 -131 -45q-29 39 -42.5 76.5t-14.5 87.5q101 217 301 217q54 0 101 -21t83.5 -62t55 -93.5t18.5 -114.5q0 -128 -78.5 -236t-204.5 -153q113 72 171.5 165t58.5 200q0 68 -27.5 125t-75.5 90t-106 33q-68 0 -114 -38.5t-46 -94.5 q0 -43 24 -74.5t83 -69.5zM1079 967q56 -16 90.5 -51.5t55.5 -98.5h-15q-84 0 -143 -104q16 40 16 73q0 37 -26.5 59.5t-69.5 22.5q-79 0 -134.5 -72.5t-55.5 -177.5q0 -40 16 -116q-41 83 -41 149q0 133 88.5 224.5t218.5 91.5zM811 1083q-8 1 -22 1q-65 0 -104.5 -31 t-39.5 -72q0 -38 24 -66.5t64 -40.5q-65 -6 -105.5 -42t-64.5 -109q-14 72 -56 111.5t-101 39.5q-74 0 -144 -81q2 12 2 28q0 65 -40 115t-128 92q35 -6 58 -6q55 0 97 39t42 90q0 93 -100 180q65 -33 124 -33q108 0 154 95q-8 -28 -8 -50q0 -53 35.5 -89.5t87.5 -36.5 q69 0 114 61q-10 -31 -10 -51q0 -89 121 -144zM627 1040q0 47 -24.5 88t-65 66t-86.5 25q-58 0 -101 -47t-43 -109q0 -45 24.5 -86t64.5 -65.5t85 -24.5q40 0 74 21t53 55.5t19 76.5z" />
<glyph unicode="&#xf047;" horiz-adv-x="1321" d="M455 309q-33 8 -56 8q-62 0 -131 -45q-29 39 -42.5 76.5t-14.5 87.5q101 217 301 217q54 0 101 -21t83.5 -62t55 -93.5t18.5 -114.5q0 -128 -78.5 -236t-204.5 -153q113 72 171.5 165t58.5 200q0 68 -27.5 125t-75.5 90t-106 33q-68 0 -114 -38.5t-46 -94.5 q0 -43 24 -74.5t83 -69.5zM1079 967q56 -16 90.5 -51.5t55.5 -98.5h-15q-84 0 -143 -104q16 40 16 73q0 37 -26.5 59.5t-69.5 22.5q-79 0 -134.5 -72.5t-55.5 -177.5q0 -40 16 -116q-41 83 -41 149q0 133 88.5 224.5t218.5 91.5zM811 1083q-8 1 -22 1q-65 0 -104.5 -31 t-39.5 -72q0 -38 24 -66.5t64 -40.5q-65 -6 -105.5 -42t-64.5 -109q-14 72 -56 111.5t-101 39.5q-74 0 -144 -81q2 12 2 28q0 65 -40 115t-128 92q35 -6 58 -6q55 0 97 39t42 90q0 93 -100 180q65 -33 124 -33q108 0 154 95q-8 -28 -8 -50q0 -53 35.5 -89.5t87.5 -36.5 q69 0 114 61q-10 -31 -10 -51q0 -89 121 -144zM627 1040q0 47 -24.5 88t-65 66t-86.5 25q-58 0 -101 -47t-43 -109q0 -45 24.5 -86t64.5 -65.5t85 -24.5q40 0 74 21t53 55.5t19 76.5z" />
<glyph unicode="H" horiz-adv-x="1321" d="M866 309q59 38 83 69.5t24 74.5q0 36 -21.5 67t-57.5 48.5t-83 17.5q-58 0 -106 -33t-75.5 -90t-27.5 -125q0 -71 26.5 -137t79 -124t126.5 -104q-81 30 -147 89t-102 136.5t-36 163.5q0 124 73.5 207.5t186.5 83.5q200 0 301 -217q-2 -36 -7.5 -62.5t-19 -53 t-30.5 -48.5q-69 45 -131 45q-25 0 -56 -8zM242 967q128 0 216.5 -91.5t88.5 -224.5q0 -71 -41 -149q18 73 18 116q0 70 -26 127t-69.5 90t-94.5 33q-41 0 -68.5 -22.5t-27.5 -59.5q0 -33 16 -73q-62 104 -143 104h-15q23 65 56.5 99.5t89.5 50.5zM510 1083q121 55 121 144 q0 20 -10 51q42 -61 112 -61q51 0 88 37t37 89q0 8 -8 50q46 -95 154 -95q57 0 124 33q-100 -87 -100 -180q0 -50 42 -89.5t97 -39.5q24 0 58 6q-89 -43 -129.5 -92.5t-40.5 -114.5q1 -6 1.5 -11t0.5 -17q-70 81 -142 81q-61 0 -103.5 -40.5t-55.5 -110.5 q-22 72 -63.5 108.5t-104.5 42.5q39 12 62.5 40.5t23.5 66.5q0 42 -38 72.5t-104 30.5q-14 0 -22 -1zM692 1040q0 -64 42.5 -108.5t105.5 -44.5q45 0 85 24.5t64.5 65.5t24.5 86q0 64 -43 110t-103 46q-46 0 -86.5 -25t-65 -66t-24.5 -88z" />
<glyph unicode="&#xf048;" horiz-adv-x="1321" d="M866 309q59 38 83 69.5t24 74.5q0 36 -21.5 67t-57.5 48.5t-83 17.5q-58 0 -106 -33t-75.5 -90t-27.5 -125q0 -71 26.5 -137t79 -124t126.5 -104q-81 30 -147 89t-102 136.5t-36 163.5q0 124 73.5 207.5t186.5 83.5q200 0 301 -217q-2 -36 -7.5 -62.5t-19 -53 t-30.5 -48.5q-69 45 -131 45q-25 0 -56 -8zM242 967q128 0 216.5 -91.5t88.5 -224.5q0 -71 -41 -149q18 73 18 116q0 70 -26 127t-69.5 90t-94.5 33q-41 0 -68.5 -22.5t-27.5 -59.5q0 -33 16 -73q-62 104 -143 104h-15q23 65 56.5 99.5t89.5 50.5zM510 1083q121 55 121 144 q0 20 -10 51q42 -61 112 -61q51 0 88 37t37 89q0 8 -8 50q46 -95 154 -95q57 0 124 33q-100 -87 -100 -180q0 -50 42 -89.5t97 -39.5q24 0 58 6q-89 -43 -129.5 -92.5t-40.5 -114.5q1 -6 1.5 -11t0.5 -17q-70 81 -142 81q-61 0 -103.5 -40.5t-55.5 -110.5 q-22 72 -63.5 108.5t-104.5 42.5q39 12 62.5 40.5t23.5 66.5q0 42 -38 72.5t-104 30.5q-14 0 -22 -1zM692 1040q0 -64 42.5 -108.5t105.5 -44.5q45 0 85 24.5t64.5 65.5t24.5 86q0 64 -43 110t-103 46q-46 0 -86.5 -25t-65 -66t-24.5 -88z" />
<glyph unicode="I" horiz-adv-x="1372" d="M776 780q-108 78 -168 189q-76 146 -76 286q0 10 2 27t3 37q-37 6 -56 6q-79 0 -151 -40t-127 -114l-13 9l9 96q143 90 260 90q84 0 159.5 -31t131 -84t88 -124.5t32.5 -149.5q0 -89 -49 -186q56 -41 144 -41q120 0 178 102q-78 18 -78 66q0 18 8 33t31 48q24 33 24 60 q0 34 -25 56t-63 22q-19 0 -36.5 -8t-27 -22.5t-9.5 -29.5q0 -46 59 -65q-46 0 -73 22t-27 62q0 33 26.5 55.5t65.5 22.5q77 0 145 -80q32 39 64 39q22 0 36.5 -13.5t14.5 -32.5q0 -18 -18 -36q6 12 6 24q0 25 -19 25q-16 0 -28.5 -15t-12.5 -34q0 -7 1.5 -26.5l3 -39 t1.5 -24.5q0 -66 -32 -123t-89 -89t-124 -32q-86 0 -164 47q-62 -101 -178 -172l4 -19q77 23 137 23q79 0 135.5 -46.5t56.5 -113.5q0 -32 -26 -82q-31 -55 -31 -82q0 -33 27 -55t63 -22q6 1 11 1.5t16 0.5q-46 -29 -105 -29q-68 0 -116.5 38.5t-48.5 96.5q0 28 24 88 q14 35 14 62q0 25 -18.5 47t-50.5 35.5t-70 13.5q-5 0 -35 -4q-22 -32 -22 -53q0 -16 7.5 -35.5t24 -49.5t21.5 -40q39 -78 39 -131q0 -63 -36.5 -117.5t-99.5 -86.5t-134 -32q-91 0 -179 60t-88 122q0 29 21.5 46.5t54.5 17.5q43 0 88 -27q-32 4 -33 4q-35 0 -55 -15 t-20 -42q0 -48 47 -87.5t104 -39.5q33 0 59.5 20.5t26.5 49.5q0 39 -55 108q-49 62 -65.5 91.5t-16.5 56.5q0 67 92 92q86 20 119.5 42.5t38.5 61.5q-23 33 -53 33q-17 0 -84 -25q-66 -20 -109 -20q-56 0 -104.5 31.5t-76.5 86t-28 119.5q0 78 43 127q-12 -24 -12 -55 q0 -46 27 -80.5t61 -34.5q20 0 40 10.5t60 39.5q71 51 111 51q44 0 80 -41q14 -21 22 -70q15 -85 47 -123q126 49 201 170zM578 1309q-7 -41 -7 -70q0 -81 28 -163t77.5 -151t116.5 -116q47 96 47 176q0 70 -34 136t-94 116t-134 72zM473 608q-21 15 -47 15q-14 0 -66 -9 q-14 -2 -34 -2q-37 0 -74 27q12 -4 27 -4t26.5 4t25.5 10.5t17 7.5q-38 19 -86 19h-47q-61 0 -94 72q11 -77 63.5 -127t120.5 -50q52 0 90 15q40 15 78 22zM524 485q-47 -36 -123 -53q-41 -9 -58 -24t-17 -43q0 -40 45 -97q10 -13 20 -26.5t19 -26.5q49 -65 49 -113 q0 -17 -10 -32q32 29 32 75q0 51 -57 119q44 -20 72 -61q-3 38 -17 63q-5 11 -10 19.5t-10 17.5q-27 43 -27 74q0 33 53 69q23 16 39 39zM788 494q17 -30 17 -50q0 -16 -25 -77q-12 -46 -12 -62q0 -50 40.5 -83.5t100.5 -33.5q-45 19 -71.5 59t-26.5 91q1 4 1.5 7.5 t0.5 12.5q10 -15 17 -21.5t32 -19.5q-9 12 -15 23.5t-12 33.5t-14 56q-11 40 -33 64z" />
<glyph unicode="&#xf049;" horiz-adv-x="1372" d="M776 780q-108 78 -168 189q-76 146 -76 286q0 10 2 27t3 37q-37 6 -56 6q-79 0 -151 -40t-127 -114l-13 9l9 96q143 90 260 90q84 0 159.5 -31t131 -84t88 -124.5t32.5 -149.5q0 -89 -49 -186q56 -41 144 -41q120 0 178 102q-78 18 -78 66q0 18 8 33t31 48q24 33 24 60 q0 34 -25 56t-63 22q-19 0 -36.5 -8t-27 -22.5t-9.5 -29.5q0 -46 59 -65q-46 0 -73 22t-27 62q0 33 26.5 55.5t65.5 22.5q77 0 145 -80q32 39 64 39q22 0 36.5 -13.5t14.5 -32.5q0 -18 -18 -36q6 12 6 24q0 25 -19 25q-16 0 -28.5 -15t-12.5 -34q0 -7 1.5 -26.5l3 -39 t1.5 -24.5q0 -66 -32 -123t-89 -89t-124 -32q-86 0 -164 47q-62 -101 -178 -172l4 -19q77 23 137 23q79 0 135.5 -46.5t56.5 -113.5q0 -32 -26 -82q-31 -55 -31 -82q0 -33 27 -55t63 -22q6 1 11 1.5t16 0.5q-46 -29 -105 -29q-68 0 -116.5 38.5t-48.5 96.5q0 28 24 88 q14 35 14 62q0 25 -18.5 47t-50.5 35.5t-70 13.5q-5 0 -35 -4q-22 -32 -22 -53q0 -16 7.5 -35.5t24 -49.5t21.5 -40q39 -78 39 -131q0 -63 -36.5 -117.5t-99.5 -86.5t-134 -32q-91 0 -179 60t-88 122q0 29 21.5 46.5t54.5 17.5q43 0 88 -27q-32 4 -33 4q-35 0 -55 -15 t-20 -42q0 -48 47 -87.5t104 -39.5q33 0 59.5 20.5t26.5 49.5q0 39 -55 108q-49 62 -65.5 91.5t-16.5 56.5q0 67 92 92q86 20 119.5 42.5t38.5 61.5q-23 33 -53 33q-17 0 -84 -25q-66 -20 -109 -20q-56 0 -104.5 31.5t-76.5 86t-28 119.5q0 78 43 127q-12 -24 -12 -55 q0 -46 27 -80.5t61 -34.5q20 0 40 10.5t60 39.5q71 51 111 51q44 0 80 -41q14 -21 22 -70q15 -85 47 -123q126 49 201 170zM578 1309q-7 -41 -7 -70q0 -81 28 -163t77.5 -151t116.5 -116q47 96 47 176q0 70 -34 136t-94 116t-134 72zM473 608q-21 15 -47 15q-14 0 -66 -9 q-14 -2 -34 -2q-37 0 -74 27q12 -4 27 -4t26.5 4t25.5 10.5t17 7.5q-38 19 -86 19h-47q-61 0 -94 72q11 -77 63.5 -127t120.5 -50q52 0 90 15q40 15 78 22zM524 485q-47 -36 -123 -53q-41 -9 -58 -24t-17 -43q0 -40 45 -97q10 -13 20 -26.5t19 -26.5q49 -65 49 -113 q0 -17 -10 -32q32 29 32 75q0 51 -57 119q44 -20 72 -61q-3 38 -17 63q-5 11 -10 19.5t-10 17.5q-27 43 -27 74q0 33 53 69q23 16 39 39zM788 494q17 -30 17 -50q0 -16 -25 -77q-12 -46 -12 -62q0 -50 40.5 -83.5t100.5 -33.5q-45 19 -71.5 59t-26.5 91q1 4 1.5 7.5 t0.5 12.5q10 -15 17 -21.5t32 -19.5q-9 12 -15 23.5t-12 33.5t-14 56q-11 40 -33 64z" />
<glyph unicode="J" horiz-adv-x="1372" d="M596 780q79 -123 201 -170q37 44 47 123q8 50 24 70q32 41 78 41q42 0 111 -51q47 -33 63.5 -41.5t36.5 -8.5q35 0 61.5 34.5t26.5 80.5q0 31 -12 55q45 -49 45 -127q0 -65 -28 -119.5t-77 -86t-104 -31.5q-48 0 -108 20q-71 25 -84 25q-32 0 -56 -33q6 -38 40 -61 t118 -43q92 -25 92 -92q0 -27 -14 -54t-68 -94q-55 -69 -55 -108q0 -29 27 -49.5t61 -20.5q55 0 103.5 39.5t48.5 87.5q0 26 -21 41.5t-57 15.5q1 0 -31 -4q45 27 86 27q35 0 56.5 -17.5t21.5 -46.5q0 -40 -41 -83t-104.5 -71t-122.5 -28q-70 0 -133 32t-99.5 86.5 t-36.5 117.5q0 54 37 131q53 92 53 125q0 25 -22 53q-30 4 -35 4q-58 0 -98.5 -28.5t-40.5 -67.5q0 -27 14 -62q25 -55 25 -88q0 -58 -48.5 -96.5t-117.5 -38.5q-60 0 -103 29q10 0 15 -0.5t10 -1.5q37 0 63.5 22.5t26.5 54.5q0 27 -31 82q-5 10 -12 26t-10.5 28t-3.5 28 q0 66 57 113t135 47q60 0 137 -23l7 19q-121 74 -181 172q-75 -47 -161 -47q-104 0 -176 70t-72 174q0 5 1.5 24.5l3 39t1.5 26.5q0 19 -12 34t-27 15q-21 0 -21 -25q0 -3 7 -24q-17 18 -17 36q0 19 14.5 32.5t34.5 13.5q35 0 66 -39q65 80 143 80q41 0 68 -22t27 -56 q0 -39 -27 -61.5t-76 -22.5q62 20 62 65q0 26 -22 43t-54 17q-37 0 -62.5 -22.5t-25.5 -55.5q0 -24 26 -60q37 -51 37 -81q0 -49 -78 -66q59 -102 179 -102q87 0 143 41q-47 98 -47 186q0 78 32 148.5t89.5 125t132.5 85t157 30.5q114 0 259 -90l8 -96l-13 -9 q-52 74 -125 114t-153 40q-19 0 -55 -6q4 -29 4 -64q0 -140 -76 -286q-60 -111 -168 -189zM795 1309q-74 -22 -133 -71.5t-93 -117t-34 -135.5q0 -41 11 -84.5t36 -91.5q62 43 113 113t78.5 153t27.5 164q0 27 -6 70zM899 608q34 -6 78 -22q40 -15 92 -15q69 0 121 50.5 t61 126.5q-30 -72 -92 -72h-49q-47 0 -86 -19q3 -1 27.5 -11.5t44.5 -10.5q12 0 26 4q-39 -27 -75 -27q-21 0 -35 2q-49 9 -66 9q-25 0 -47 -15zM850 485q11 -19 39 -39q27 -19 39 -34.5t12 -34.5q0 -32 -25 -74q-5 -9 -11.5 -19t-10.5 -18q-14 -25 -14 -63q23 40 71 61 q-33 -37 -46 -64t-13 -55q0 -46 35 -75q-13 14 -13 32q0 49 50 113q4 6 15 20.5t23 32.5q46 59 46 97q0 50 -76 67q-75 18 -121 53zM586 494q-24 -24 -35 -64q-13 -55 -19.5 -74t-21.5 -39q33 16 49 41q2 -10 2 -20q0 -51 -26.5 -91.5t-71.5 -58.5q61 0 101 33t40 84 q0 28 -12 62q-23 61 -23 77q0 24 17 50z" />
<glyph unicode="&#xf04a;" horiz-adv-x="1372" d="M596 780q79 -123 201 -170q37 44 47 123q8 50 24 70q32 41 78 41q42 0 111 -51q47 -33 63.5 -41.5t36.5 -8.5q35 0 61.5 34.5t26.5 80.5q0 31 -12 55q45 -49 45 -127q0 -65 -28 -119.5t-77 -86t-104 -31.5q-48 0 -108 20q-71 25 -84 25q-32 0 -56 -33q6 -38 40 -61 t118 -43q92 -25 92 -92q0 -27 -14 -54t-68 -94q-55 -69 -55 -108q0 -29 27 -49.5t61 -20.5q55 0 103.5 39.5t48.5 87.5q0 26 -21 41.5t-57 15.5q1 0 -31 -4q45 27 86 27q35 0 56.5 -17.5t21.5 -46.5q0 -40 -41 -83t-104.5 -71t-122.5 -28q-70 0 -133 32t-99.5 86.5 t-36.5 117.5q0 54 37 131q53 92 53 125q0 25 -22 53q-30 4 -35 4q-58 0 -98.5 -28.5t-40.5 -67.5q0 -27 14 -62q25 -55 25 -88q0 -58 -48.5 -96.5t-117.5 -38.5q-60 0 -103 29q10 0 15 -0.5t10 -1.5q37 0 63.5 22.5t26.5 54.5q0 27 -31 82q-5 10 -12 26t-10.5 28t-3.5 28 q0 66 57 113t135 47q60 0 137 -23l7 19q-121 74 -181 172q-75 -47 -161 -47q-104 0 -176 70t-72 174q0 5 1.5 24.5l3 39t1.5 26.5q0 19 -12 34t-27 15q-21 0 -21 -25q0 -3 7 -24q-17 18 -17 36q0 19 14.5 32.5t34.5 13.5q35 0 66 -39q65 80 143 80q41 0 68 -22t27 -56 q0 -39 -27 -61.5t-76 -22.5q62 20 62 65q0 26 -22 43t-54 17q-37 0 -62.5 -22.5t-25.5 -55.5q0 -24 26 -60q37 -51 37 -81q0 -49 -78 -66q59 -102 179 -102q87 0 143 41q-47 98 -47 186q0 78 32 148.5t89.5 125t132.5 85t157 30.5q114 0 259 -90l8 -96l-13 -9 q-52 74 -125 114t-153 40q-19 0 -55 -6q4 -29 4 -64q0 -140 -76 -286q-60 -111 -168 -189zM795 1309q-74 -22 -133 -71.5t-93 -117t-34 -135.5q0 -41 11 -84.5t36 -91.5q62 43 113 113t78.5 153t27.5 164q0 27 -6 70zM899 608q34 -6 78 -22q40 -15 92 -15q69 0 121 50.5 t61 126.5q-30 -72 -92 -72h-49q-47 0 -86 -19q3 -1 27.5 -11.5t44.5 -10.5q12 0 26 4q-39 -27 -75 -27q-21 0 -35 2q-49 9 -66 9q-25 0 -47 -15zM850 485q11 -19 39 -39q27 -19 39 -34.5t12 -34.5q0 -32 -25 -74q-5 -9 -11.5 -19t-10.5 -18q-14 -25 -14 -63q23 40 71 61 q-33 -37 -46 -64t-13 -55q0 -46 35 -75q-13 14 -13 32q0 49 50 113q4 6 15 20.5t23 32.5q46 59 46 97q0 50 -76 67q-75 18 -121 53zM586 494q-24 -24 -35 -64q-13 -55 -19.5 -74t-21.5 -39q33 16 49 41q2 -10 2 -20q0 -51 -26.5 -91.5t-71.5 -58.5q61 0 101 33t40 84 q0 28 -12 62q-23 61 -23 77q0 24 17 50z" />
<glyph unicode="K" horiz-adv-x="1004" d="M469 922q-47 47 -67.5 88t-20.5 94q0 49 21 96.5t58 85t82.5 59t92.5 21.5q49 0 84 -29t35 -69q0 -24 -15.5 -42t-38.5 -18t-45 25q23 -6 27 -6q14 0 23.5 10.5t9.5 26.5q0 27 -21.5 46t-52.5 19q-38 0 -62 -24t-24 -62q0 -50 38 -84.5t140 -75.5q92 -36 133 -80.5 t41 -105.5q0 -42 -23 -70.5t-69 -40.5q70 -110 70 -243q0 -83 -28 -166t-79 -152.5t-127 -126.5q-64 -47 -147 -72.5t-168 -25.5q-45 0 -86 10l4 29q44 -6 70 -6q115 0 216 56t159.5 151t58.5 204q0 98 -42.5 176t-116.5 122t-165 44q-72 0 -133 -29.5t-96 -82.5t-35 -115 q0 -77 51.5 -129.5t128.5 -52.5q53 0 86 25t33 63q0 28 -19 45.5t-51 17.5q-14 0 -37 -8q8 78 64 78q35 0 60.5 -32.5t25.5 -78.5q0 -64 -47.5 -105.5t-122.5 -41.5q-66 0 -122.5 35.5t-90 95t-33.5 129.5q0 84 53.5 158t140.5 119t179 45zM791 819q67 14 67 82q0 46 -34 78 t-113 63q-79 33 -105 49t-51 44q-32 42 -35 104q-24 -44 -24 -78q0 -67 55 -131q24 -29 121 -102q32 -22 65 -52.5t54 -56.5z" />
<glyph unicode="&#xf04b;" horiz-adv-x="1004" d="M469 922q-47 47 -67.5 88t-20.5 94q0 49 21 96.5t58 85t82.5 59t92.5 21.5q49 0 84 -29t35 -69q0 -24 -15.5 -42t-38.5 -18t-45 25q23 -6 27 -6q14 0 23.5 10.5t9.5 26.5q0 27 -21.5 46t-52.5 19q-38 0 -62 -24t-24 -62q0 -50 38 -84.5t140 -75.5q92 -36 133 -80.5 t41 -105.5q0 -42 -23 -70.5t-69 -40.5q70 -110 70 -243q0 -83 -28 -166t-79 -152.5t-127 -126.5q-64 -47 -147 -72.5t-168 -25.5q-45 0 -86 10l4 29q44 -6 70 -6q115 0 216 56t159.5 151t58.5 204q0 98 -42.5 176t-116.5 122t-165 44q-72 0 -133 -29.5t-96 -82.5t-35 -115 q0 -77 51.5 -129.5t128.5 -52.5q53 0 86 25t33 63q0 28 -19 45.5t-51 17.5q-14 0 -37 -8q8 78 64 78q35 0 60.5 -32.5t25.5 -78.5q0 -64 -47.5 -105.5t-122.5 -41.5q-66 0 -122.5 35.5t-90 95t-33.5 129.5q0 84 53.5 158t140.5 119t179 45zM791 819q67 14 67 82q0 46 -34 78 t-113 63q-79 33 -105 49t-51 44q-32 42 -35 104q-24 -44 -24 -78q0 -67 55 -131q24 -29 121 -102q32 -22 65 -52.5t54 -56.5z" />
<glyph unicode="L" horiz-adv-x="1004" d="M535 922q71 0 138 -26t119 -70t83.5 -103t31.5 -123q0 -70 -33.5 -130t-89.5 -95t-122 -35q-74 0 -121 41t-47 106q0 47 24 79t60 32q57 0 63 -78q-21 8 -37 8q-31 0 -49 -18t-18 -45q0 -37 32.5 -62.5t83.5 -25.5q78 0 129.5 52.5t51.5 129.5q0 62 -35 115t-96 82.5 t-134 29.5q-91 0 -165 -44.5t-116 -122t-42 -175.5q0 -109 59 -204.5t160 -151t215 -55.5q27 0 70 6l4 -29q-41 -10 -86 -10q-185 0 -316 98q-73 55 -125 125.5t-80 153.5t-28 166q0 72 15.5 127.5t53.5 115.5q-45 12 -68.5 40.5t-23.5 70.5q0 61 40.5 105t133.5 81 q70 28 108 51t54.5 49.5t16.5 59.5q0 38 -24 62t-63 24q-30 0 -51.5 -19t-21.5 -46q0 -15 9 -26t24 -11q5 0 26 6q-21 -25 -45 -25q-23 0 -38 18t-15 42q0 40 34.5 69t84.5 29q48 0 94.5 -22t82.5 -59t56.5 -84t20.5 -97q0 -53 -20 -94.5t-68 -87.5zM213 819q50 58 119 109 q93 70 121 102q55 66 55 131q0 35 -25 78q-2 -61 -34 -104q-21 -26 -49 -43t-107 -50q-78 -31 -113 -63t-35 -78q0 -68 68 -82z" />
<glyph unicode="&#xf04c;" horiz-adv-x="1004" d="M535 922q71 0 138 -26t119 -70t83.5 -103t31.5 -123q0 -70 -33.5 -130t-89.5 -95t-122 -35q-74 0 -121 41t-47 106q0 47 24 79t60 32q57 0 63 -78q-21 8 -37 8q-31 0 -49 -18t-18 -45q0 -37 32.5 -62.5t83.5 -25.5q78 0 129.5 52.5t51.5 129.5q0 62 -35 115t-96 82.5 t-134 29.5q-91 0 -165 -44.5t-116 -122t-42 -175.5q0 -109 59 -204.5t160 -151t215 -55.5q27 0 70 6l4 -29q-41 -10 -86 -10q-185 0 -316 98q-73 55 -125 125.5t-80 153.5t-28 166q0 72 15.5 127.5t53.5 115.5q-45 12 -68.5 40.5t-23.5 70.5q0 61 40.5 105t133.5 81 q70 28 108 51t54.5 49.5t16.5 59.5q0 38 -24 62t-63 24q-30 0 -51.5 -19t-21.5 -46q0 -15 9 -26t24 -11q5 0 26 6q-21 -25 -45 -25q-23 0 -38 18t-15 42q0 40 34.5 69t84.5 29q48 0 94.5 -22t82.5 -59t56.5 -84t20.5 -97q0 -53 -20 -94.5t-68 -87.5zM213 819q50 58 119 109 q93 70 121 102q55 66 55 131q0 35 -25 78q-2 -61 -34 -104q-21 -26 -49 -43t-107 -50q-78 -31 -113 -63t-35 -78q0 -68 68 -82z" />
<glyph unicode="M" horiz-adv-x="1186" d="M635 340h16q-20 81 -20 147q0 140 102 236l86 84q92 85 92 192q0 89 -51.5 165t-138 120.5t-189.5 44.5q-113 0 -198 -57q22 -37 22 -74q0 -43 -21 -69.5t-93 -69.5q-76 -44 -76 -103q0 -47 37.5 -79.5t93.5 -32.5q60 0 96 43q-24 0 -41.5 14.5t-17.5 34.5q0 23 14.5 38 t36.5 15q24 0 38.5 -16t14.5 -45q0 -47 -40 -80t-99 -33q-78 0 -134 57.5t-56 141.5q0 93 57 173.5t155 129.5t209 49t213 -43.5t180.5 -122t122.5 -178.5t44 -211q0 -94 -37 -194t-107 -195t-166 -174l8 -10q82 63 160 63q54 0 89.5 -31.5t35.5 -81.5q0 -54 -51 -86 q12 29 12 43q0 25 -18.5 41.5t-44.5 16.5q-55 0 -90 -74q-34 -74 -68.5 -101.5t-91.5 -27.5q-50 0 -79.5 30.5t-35.5 82.5q-159 -113 -336 -113q-104 0 -174 37q9 34 43 65q48 -65 156 -65q72 0 146 27t145 77q-74 0 -115 35t-41 98q0 29 25 88q26 65 26 97q0 45 -24.5 70.5 t-65.5 25.5q-49 0 -98 -41q42 82 131 82q76 0 128 -64.5t83 -191.5zM596 164l8 -8q102 74 183.5 157.5t136.5 167.5t84.5 170.5t29.5 167.5q0 165 -94 277q17 -76 17 -154q0 -133 -45.5 -276t-129 -274t-190.5 -228z" />
<glyph unicode="&#xf04d;" horiz-adv-x="1186" d="M635 340h16q-20 81 -20 147q0 140 102 236l86 84q92 85 92 192q0 89 -51.5 165t-138 120.5t-189.5 44.5q-113 0 -198 -57q22 -37 22 -74q0 -43 -21 -69.5t-93 -69.5q-76 -44 -76 -103q0 -47 37.5 -79.5t93.5 -32.5q60 0 96 43q-24 0 -41.5 14.5t-17.5 34.5q0 23 14.5 38 t36.5 15q24 0 38.5 -16t14.5 -45q0 -47 -40 -80t-99 -33q-78 0 -134 57.5t-56 141.5q0 93 57 173.5t155 129.5t209 49t213 -43.5t180.5 -122t122.5 -178.5t44 -211q0 -94 -37 -194t-107 -195t-166 -174l8 -10q82 63 160 63q54 0 89.5 -31.5t35.5 -81.5q0 -54 -51 -86 q12 29 12 43q0 25 -18.5 41.5t-44.5 16.5q-55 0 -90 -74q-34 -74 -68.5 -101.5t-91.5 -27.5q-50 0 -79.5 30.5t-35.5 82.5q-159 -113 -336 -113q-104 0 -174 37q9 34 43 65q48 -65 156 -65q72 0 146 27t145 77q-74 0 -115 35t-41 98q0 29 25 88q26 65 26 97q0 45 -24.5 70.5 t-65.5 25.5q-49 0 -98 -41q42 82 131 82q76 0 128 -64.5t83 -191.5zM596 164l8 -8q102 74 183.5 157.5t136.5 167.5t84.5 170.5t29.5 167.5q0 165 -94 277q17 -76 17 -154q0 -133 -45.5 -276t-129 -274t-190.5 -228z" />
<glyph unicode="N" horiz-adv-x="1186" d="M551 340q34 132 83.5 194t125.5 62q88 0 133 -82q-49 41 -98 41q-42 0 -66 -26t-24 -70q0 -32 26 -97q23 -54 23 -88q0 -63 -40.5 -98t-115.5 -35q70 -49 145.5 -76.5t147.5 -27.5q105 0 156 65q30 -30 43 -65q-71 -37 -177 -37q-174 0 -333 113q-6 -51 -37 -82t-78 -31 q-57 0 -90.5 27.5t-69.5 101.5q-35 74 -90 74q-26 0 -44.5 -16.5t-18.5 -41.5q0 -14 12 -43q-53 32 -53 86q0 48 36.5 80.5t88.5 32.5q41 0 81.5 -16.5t77.5 -46.5l8 10q-93 78 -163 173t-107 195.5t-37 194.5q0 111 44.5 212t122 178.5t179 121t211.5 43.5 q112 0 209.5 -48.5t155 -129.5t57.5 -174q0 -56 -24.5 -101.5t-67.5 -71.5t-96 -26q-58 0 -100 33t-42 80q0 27 15 44t39 17q23 0 38 -15t15 -38q0 -20 -17.5 -34.5t-43.5 -14.5q36 -43 98 -43q54 0 91.5 32.5t37.5 79.5q0 59 -76 103q-49 28 -72.5 48t-33 40t-9.5 51 q0 37 25 74q-89 57 -199 57q-103 0 -190.5 -44.5t-139 -120.5t-51.5 -165q0 -104 93 -192l88 -84q46 -43 74 -108t28 -128q0 -70 -23 -147h19zM590 164q-108 98 -192 228.5t-129.5 273.5t-45.5 276q0 75 19 154q-95 -110 -95 -277q0 -81 30 -167.5t84.5 -170.5t135.5 -167 t183 -158z" />
<glyph unicode="&#xf04e;" horiz-adv-x="1186" d="M551 340q34 132 83.5 194t125.5 62q88 0 133 -82q-49 41 -98 41q-42 0 -66 -26t-24 -70q0 -32 26 -97q23 -54 23 -88q0 -63 -40.5 -98t-115.5 -35q70 -49 145.5 -76.5t147.5 -27.5q105 0 156 65q30 -30 43 -65q-71 -37 -177 -37q-174 0 -333 113q-6 -51 -37 -82t-78 -31 q-57 0 -90.5 27.5t-69.5 101.5q-35 74 -90 74q-26 0 -44.5 -16.5t-18.5 -41.5q0 -14 12 -43q-53 32 -53 86q0 48 36.5 80.5t88.5 32.5q41 0 81.5 -16.5t77.5 -46.5l8 10q-93 78 -163 173t-107 195.5t-37 194.5q0 111 44.5 212t122 178.5t179 121t211.5 43.5 q112 0 209.5 -48.5t155 -129.5t57.5 -174q0 -56 -24.5 -101.5t-67.5 -71.5t-96 -26q-58 0 -100 33t-42 80q0 27 15 44t39 17q23 0 38 -15t15 -38q0 -20 -17.5 -34.5t-43.5 -14.5q36 -43 98 -43q54 0 91.5 32.5t37.5 79.5q0 59 -76 103q-49 28 -72.5 48t-33 40t-9.5 51 q0 37 25 74q-89 57 -199 57q-103 0 -190.5 -44.5t-139 -120.5t-51.5 -165q0 -104 93 -192l88 -84q46 -43 74 -108t28 -128q0 -70 -23 -147h19zM590 164q-108 98 -192 228.5t-129.5 273.5t-45.5 276q0 75 19 154q-95 -110 -95 -277q0 -81 30 -167.5t84.5 -170.5t135.5 -167 t183 -158z" />
<glyph unicode="O" horiz-adv-x="2533" d="M1094 590q57 0 83.5 17t59.5 75q-60 0 -465 -12q-58 -3 -125 -6.5t-106 -6.5q-196 -7 -256 -14q8 58 41 107q60 -8 153 -13q117 -8 322 -14q108 -2 173.5 -4.5t172.5 -5.5h102q58 97 89.5 135t69 51.5t105.5 13.5q88 -2 222 -3.5t156.5 -2t86.5 -0.5q141 0 220 9.5 t124 33.5q68 35 68 97q0 40 -30 65t-76 25q-33 0 -56 -9l-4 19q32 12 70 12q41 0 73 -17t51 -47.5t19 -66.5q0 -126 -174 -176q-70 -20 -166 -31.5t-207 -17.5q-4 0 -71 -2t-167 -3.5t-247 -2.5q-45 0 -64 -8t-41 -35l-30 -39q51 0 231 4q319 3 469 10q202 14 291 29 q-22 -70 -59 -113q-54 3 -115.5 7.5t-99.5 6.5q-56 3 -463 21q-66 2 -262 6q-55 -93 -85 -133.5t-56 -53.5t-72 -16q-5 0 -174 5.5t-211 5.5q-164 0 -256 -7.5t-170 -27.5q-91 -26 -91 -97q0 -40 29.5 -66t77.5 -26q31 0 51 11l8 -17q-33 -18 -67 -18q-64 0 -107 38t-43 95 q0 142 258 182q149 22 275 27q136 8 244 8h26q28 0 95 -2t100 -2z" />
<glyph unicode="&#xf04f;" horiz-adv-x="2533" d="M1094 590q57 0 83.5 17t59.5 75q-60 0 -465 -12q-58 -3 -125 -6.5t-106 -6.5q-196 -7 -256 -14q8 58 41 107q60 -8 153 -13q117 -8 322 -14q108 -2 173.5 -4.5t172.5 -5.5h102q58 97 89.5 135t69 51.5t105.5 13.5q88 -2 222 -3.5t156.5 -2t86.5 -0.5q141 0 220 9.5 t124 33.5q68 35 68 97q0 40 -30 65t-76 25q-33 0 -56 -9l-4 19q32 12 70 12q41 0 73 -17t51 -47.5t19 -66.5q0 -126 -174 -176q-70 -20 -166 -31.5t-207 -17.5q-4 0 -71 -2t-167 -3.5t-247 -2.5q-45 0 -64 -8t-41 -35l-30 -39q51 0 231 4q319 3 469 10q202 14 291 29 q-22 -70 -59 -113q-54 3 -115.5 7.5t-99.5 6.5q-56 3 -463 21q-66 2 -262 6q-55 -93 -85 -133.5t-56 -53.5t-72 -16q-5 0 -174 5.5t-211 5.5q-164 0 -256 -7.5t-170 -27.5q-91 -26 -91 -97q0 -40 29.5 -66t77.5 -26q31 0 51 11l8 -17q-33 -18 -67 -18q-64 0 -107 38t-43 95 q0 142 258 182q149 22 275 27q136 8 244 8h26q28 0 95 -2t100 -2z" />
<glyph unicode="P" horiz-adv-x="2785" d="M494 522q-26 -61 -75.5 -95t-113.5 -34q-57 0 -105 32.5t-76 89t-28 124.5q0 88 50 148.5t122 60.5q57 0 95 -40t38 -99q0 -48 -27.5 -79.5t-66.5 -31.5q-17 0 -28 8t-11 21q0 10 8 16t17 6q14 0 31 -16q49 12 49 74q0 50 -30 81t-75 31q-39 0 -70 -23t-48 -62.5 t-17 -90.5q0 -89 50 -152t120 -63q58 0 101.5 31t68.5 86.5t25 126.5q0 66 -17 127q95 -3 193 -3q50 0 92 0.5t113 0.5q161 0 252.5 4t187.5 18q7 -24 11 -37t9 -26q19 40 56 125q41 103 49 127h14q25 -97 88 -252q16 30 29 63q57 -8 154 -14q107 -6 268 -6q198 0 336 12 q61 160 196 160q48 0 84 -23t57 -63.5t21 -96.5q0 -52 -18.5 -96.5t-51 -71t-71.5 -26.5q-37 0 -62.5 25.5t-25.5 62.5q0 32 17 57t38 25q10 0 16.5 -7.5t6.5 -17.5q0 -9 -7.5 -17.5t-17.5 -8.5q2 0 -14 4q-11 -21 -11 -37q0 -25 17 -40t41 -15q46 0 78 46.5t32 116.5 q0 65 -36 107.5t-91 42.5q-80 0 -135 -77t-55 -189q0 -66 31 -150q-165 43 -394 43q-142 0 -248.5 -14t-193.5 -41q-6 15 -14 33t-13.5 29t-9.5 22q-16 -33 -32 -69.5t-32 -74.5t-28 -65h-12q-23 74 -92 236q-13 -21 -39 -84q-142 18 -287 18q-110 0 -239.5 -9.5 t-243.5 -23.5zM530 666q0 -61 -20 -107q96 12 168.5 17.5t146 8.5t140.5 3q92 0 157 -5t123 -14q9 19 19.5 42t19.5 42l-14 35h-70q-79 0 -125.5 -1t-161.5 -5q-146 -4 -233 -8t-150 -8zM2310 668q-82 6 -344 14q-102 3 -202 3q-99 0 -185 -3q9 -18 23 -46.5t32 -66.5 q140 29 344 29q219 0 346 -29q-14 46 -14 99zM1403 819q-31 -61 -45 -98q25 -58 86 -166q34 70 39 80q-38 96 -80 184z" />
<glyph unicode="&#xf050;" horiz-adv-x="2785" d="M494 522q-26 -61 -75.5 -95t-113.5 -34q-57 0 -105 32.5t-76 89t-28 124.5q0 88 50 148.5t122 60.5q57 0 95 -40t38 -99q0 -48 -27.5 -79.5t-66.5 -31.5q-17 0 -28 8t-11 21q0 10 8 16t17 6q14 0 31 -16q49 12 49 74q0 50 -30 81t-75 31q-39 0 -70 -23t-48 -62.5 t-17 -90.5q0 -89 50 -152t120 -63q58 0 101.5 31t68.5 86.5t25 126.5q0 66 -17 127q95 -3 193 -3q50 0 92 0.5t113 0.5q161 0 252.5 4t187.5 18q7 -24 11 -37t9 -26q19 40 56 125q41 103 49 127h14q25 -97 88 -252q16 30 29 63q57 -8 154 -14q107 -6 268 -6q198 0 336 12 q61 160 196 160q48 0 84 -23t57 -63.5t21 -96.5q0 -52 -18.5 -96.5t-51 -71t-71.5 -26.5q-37 0 -62.5 25.5t-25.5 62.5q0 32 17 57t38 25q10 0 16.5 -7.5t6.5 -17.5q0 -9 -7.5 -17.5t-17.5 -8.5q2 0 -14 4q-11 -21 -11 -37q0 -25 17 -40t41 -15q46 0 78 46.5t32 116.5 q0 65 -36 107.5t-91 42.5q-80 0 -135 -77t-55 -189q0 -66 31 -150q-165 43 -394 43q-142 0 -248.5 -14t-193.5 -41q-6 15 -14 33t-13.5 29t-9.5 22q-16 -33 -32 -69.5t-32 -74.5t-28 -65h-12q-23 74 -92 236q-13 -21 -39 -84q-142 18 -287 18q-110 0 -239.5 -9.5 t-243.5 -23.5zM530 666q0 -61 -20 -107q96 12 168.5 17.5t146 8.5t140.5 3q92 0 157 -5t123 -14q9 19 19.5 42t19.5 42l-14 35h-70q-79 0 -125.5 -1t-161.5 -5q-146 -4 -233 -8t-150 -8zM2310 668q-82 6 -344 14q-102 3 -202 3q-99 0 -185 -3q9 -18 23 -46.5t32 -66.5 q140 29 344 29q219 0 346 -29q-14 46 -14 99zM1403 819q-31 -61 -45 -98q25 -58 86 -166q34 70 39 80q-38 96 -80 184z" />
<glyph unicode="Q" horiz-adv-x="3723" d="M1225 780q51 51 96.5 74t97.5 23q30 0 51.5 -8.5t45.5 -30.5q-37 12 -54 12q-85 0 -147.5 -74.5t-71.5 -185.5l-1147 100v19zM1563 737q0 -57 -40.5 -107t-84.5 -50q-27 0 -44.5 17.5t-17.5 47.5q0 58 42 108t89 50q28 0 42 -17t14 -49zM1997 819q-43 25 -86 25 q-51 0 -95 -32.5t-118 -127.5q-70 -90 -125.5 -128t-112.5 -38q-68 0 -110 49q44 -26 82 -26q49 0 87 28t111 121q77 98 136 141t116 43q66 0 115 -55zM1976 737q0 -57 -40.5 -107t-86.5 -50q-25 0 -43 18t-18 47q0 56 42.5 107t90.5 51q26 0 40.5 -17.5t14.5 -48.5z M2410 819q-42 25 -86 25q-50 0 -93.5 -32t-119.5 -128q-70 -90 -125.5 -128t-111.5 -38q-67 0 -111 49q46 -26 82 -26q50 0 88 28t111 121q75 98 135 141t117 43q66 0 114 -55zM2390 737q0 -58 -41 -107.5t-86 -49.5q-25 0 -42 18t-17 47q0 39 19.5 75t49.5 59.5t62 23.5 q26 0 40.5 -17.5t14.5 -48.5zM2482 793l1147 -84v-19l-1130 -80q-88 -96 -189 -96q-67 0 -117 53q49 -28 86 -28q77 0 134 71t69 183zM1178 692q10 16 14 25.5t10 15.5l-801 -41h777zM1518 768q-43 -2 -77 -39t-34 -82q0 -22 18 -41q29 114 93 162zM1931 768q-42 -2 -76 -39 t-34 -82q0 -22 18 -41q29 115 92 162zM2345 768q-42 -2 -76.5 -39t-34.5 -82q0 -22 19 -41q28 113 92 162zM2570 741q-8 -30 -24 -49h774z" />
<glyph unicode="&#xf051;" horiz-adv-x="3723" d="M1225 780q51 51 96.5 74t97.5 23q30 0 51.5 -8.5t45.5 -30.5q-37 12 -54 12q-85 0 -147.5 -74.5t-71.5 -185.5l-1147 100v19zM1563 737q0 -57 -40.5 -107t-84.5 -50q-27 0 -44.5 17.5t-17.5 47.5q0 58 42 108t89 50q28 0 42 -17t14 -49zM1997 819q-43 25 -86 25 q-51 0 -95 -32.5t-118 -127.5q-70 -90 -125.5 -128t-112.5 -38q-68 0 -110 49q44 -26 82 -26q49 0 87 28t111 121q77 98 136 141t116 43q66 0 115 -55zM1976 737q0 -57 -40.5 -107t-86.5 -50q-25 0 -43 18t-18 47q0 56 42.5 107t90.5 51q26 0 40.5 -17.5t14.5 -48.5z M2410 819q-42 25 -86 25q-50 0 -93.5 -32t-119.5 -128q-70 -90 -125.5 -128t-111.5 -38q-67 0 -111 49q46 -26 82 -26q50 0 88 28t111 121q75 98 135 141t117 43q66 0 114 -55zM2390 737q0 -58 -41 -107.5t-86 -49.5q-25 0 -42 18t-17 47q0 39 19.5 75t49.5 59.5t62 23.5 q26 0 40.5 -17.5t14.5 -48.5zM2482 793l1147 -84v-19l-1130 -80q-88 -96 -189 -96q-67 0 -117 53q49 -28 86 -28q77 0 134 71t69 183zM1178 692q10 16 14 25.5t10 15.5l-801 -41h777zM1518 768q-43 -2 -77 -39t-34 -82q0 -22 18 -41q29 114 93 162zM1931 768q-42 -2 -76 -39 t-34 -82q0 -22 18 -41q29 115 92 162zM2345 768q-42 -2 -76.5 -39t-34.5 -82q0 -22 19 -41q28 113 92 162zM2570 741q-8 -30 -24 -49h774z" />
<glyph unicode="R" horiz-adv-x="3774" d="M2517 711l1163 -11v-8l-1163 -8q-8 -64 -53 -105.5t-107 -41.5q-75 0 -135 51q-69 -53 -141 -53q-67 0 -127 47q-58 -47 -135 -47q-49 0 -99 27t-88 77q-36 -48 -88 -76t-106 -28q-68 0 -119.5 42.5t-61.5 106.5l-1161 8v8l1161 11q8 64 55.5 105.5t110.5 41.5 q67 0 136 -53q39 30 65.5 41.5t61.5 11.5q70 0 129 -53q70 53 143 53q95 0 190 -104q94 104 189 104q72 0 121.5 -41t58.5 -106zM2499 711q-10 50 -54.5 80t-105.5 30q-96 0 -182 -78q6 -7 10 -11.5t16 -18.5zM2501 684l-291 -4q59 -70 91 -92.5t75 -22.5q51 0 85 33t40 86z M2097 713q-55 63 -92.5 87.5t-81.5 24.5q-47 0 -96 -28q43 -40 45 -43q16 -16 25 -27t10 -12zM2212 598q-44 32 -84 82l-189 -2q52 -60 91.5 -86.5t78.5 -26.5q41 0 103 33zM1827 713q-52 65 -88 89.5t-78 24.5q-45 0 -92 -32q38 -31 84 -82h174zM1679 680q47 -59 88 -86 t84 -27q51 0 91 25q-40 33 -87 88h-176zM1278 684q9 -48 56.5 -80.5t109.5 -32.5q47 0 98 23.5t80 56.5q-3 3 -13 15t-14 14zM1571 713q-84 114 -168 114q-50 0 -85.5 -32t-41.5 -84z" />
<glyph unicode="&#xf052;" horiz-adv-x="3774" d="M2517 711l1163 -11v-8l-1163 -8q-8 -64 -53 -105.5t-107 -41.5q-75 0 -135 51q-69 -53 -141 -53q-67 0 -127 47q-58 -47 -135 -47q-49 0 -99 27t-88 77q-36 -48 -88 -76t-106 -28q-68 0 -119.5 42.5t-61.5 106.5l-1161 8v8l1161 11q8 64 55.5 105.5t110.5 41.5 q67 0 136 -53q39 30 65.5 41.5t61.5 11.5q70 0 129 -53q70 53 143 53q95 0 190 -104q94 104 189 104q72 0 121.5 -41t58.5 -106zM2499 711q-10 50 -54.5 80t-105.5 30q-96 0 -182 -78q6 -7 10 -11.5t16 -18.5zM2501 684l-291 -4q59 -70 91 -92.5t75 -22.5q51 0 85 33t40 86z M2097 713q-55 63 -92.5 87.5t-81.5 24.5q-47 0 -96 -28q43 -40 45 -43q16 -16 25 -27t10 -12zM2212 598q-44 32 -84 82l-189 -2q52 -60 91.5 -86.5t78.5 -26.5q41 0 103 33zM1827 713q-52 65 -88 89.5t-78 24.5q-45 0 -92 -32q38 -31 84 -82h174zM1679 680q47 -59 88 -86 t84 -27q51 0 91 25q-40 33 -87 88h-176zM1278 684q9 -48 56.5 -80.5t109.5 -32.5q47 0 98 23.5t80 56.5q-3 3 -13 15t-14 14zM1571 713q-84 114 -168 114q-50 0 -85.5 -32t-41.5 -84z" />
<glyph unicode="S" horiz-adv-x="1745" d="M1333 893q65 22 115 22q58 0 104 -26t71.5 -71t25.5 -105q0 -67 -33 -123.5t-89.5 -90.5t-123.5 -34q-55 0 -92 34t-37 79q0 26 14 42.5t37 16.5q18 0 29.5 -9.5t11.5 -23.5q0 -15 -18 -29q-23 -17 -23 -26q0 -23 25 -38t59 -15q57 0 105.5 29t77 78t28.5 108 q0 44 -17.5 81t-48.5 57.5t-67 20.5q-63 0 -119 -31t-170 -128q-108 -90 -244 -189q-97 -69 -171 -99t-152 -30q-153 0 -236 125q-41 -10 -73 -10q-60 0 -112 28t-83 75.5t-31 103.5q0 96 77.5 166.5t182.5 70.5q53 0 89 -29.5t36 -70.5q0 -29 -15 -45t-42 -16q-41 0 -41 38 q0 17 16 25q23 14 23 29q0 18 -19.5 31.5t-54.5 13.5q-53 0 -105 -29.5t-85 -78t-33 -99.5q0 -69 49.5 -117.5t120.5 -48.5q61 0 113 24.5t145 98.5q77 59 175.5 129.5t156.5 107.5q131 84 237 84q59 0 108 -24.5t103 -81.5zM1300 877q-59 65 -139 65q-33 0 -72 -15.5 t-106.5 -59.5t-212.5 -152q-106 -80 -181 -122t-165 -71q61 -67 158 -67q40 0 90 19.5t121.5 64.5t203.5 145q207 149 303 193z" />
<glyph unicode="&#xf053;" horiz-adv-x="1745" d="M1333 893q65 22 115 22q58 0 104 -26t71.5 -71t25.5 -105q0 -67 -33 -123.5t-89.5 -90.5t-123.5 -34q-55 0 -92 34t-37 79q0 26 14 42.5t37 16.5q18 0 29.5 -9.5t11.5 -23.5q0 -15 -18 -29q-23 -17 -23 -26q0 -23 25 -38t59 -15q57 0 105.5 29t77 78t28.5 108 q0 44 -17.5 81t-48.5 57.5t-67 20.5q-63 0 -119 -31t-170 -128q-108 -90 -244 -189q-97 -69 -171 -99t-152 -30q-153 0 -236 125q-41 -10 -73 -10q-60 0 -112 28t-83 75.5t-31 103.5q0 96 77.5 166.5t182.5 70.5q53 0 89 -29.5t36 -70.5q0 -29 -15 -45t-42 -16q-41 0 -41 38 q0 17 16 25q23 14 23 29q0 18 -19.5 31.5t-54.5 13.5q-53 0 -105 -29.5t-85 -78t-33 -99.5q0 -69 49.5 -117.5t120.5 -48.5q61 0 113 24.5t145 98.5q77 59 175.5 129.5t156.5 107.5q131 84 237 84q59 0 108 -24.5t103 -81.5zM1300 877q-59 65 -139 65q-33 0 -72 -15.5 t-106.5 -59.5t-212.5 -152q-106 -80 -181 -122t-165 -71q61 -67 158 -67q40 0 90 19.5t121.5 64.5t203.5 145q207 149 303 193z" />
<glyph unicode="T" horiz-adv-x="1722" d="M330 1260q-17 -56 -48 -86t-89 -46q-46 36 -71.5 80t-25.5 86q0 72 70 72q81 0 164 -106zM530 1290q-16 5 -16 13t18 20q53 43 132 43q64 0 116.5 -30.5t82.5 -83.5t30 -117q0 -72 -38.5 -155.5t-109.5 -158.5q47 -7 66.5 -30t19.5 -66q0 -55 -18.5 -75.5t-64.5 -20.5 q-54 0 -78.5 22.5t-24.5 67.5q-67 -69 -155.5 -111.5t-163.5 -42.5q-98 0 -163 64t-65 162q0 36 13 78t32 67q7 14 15 14q5 0 8 -12q14 -63 57.5 -113.5t107 -79t140.5 -28.5q112 0 197 41h-33q-85 0 -176 33.5t-148 82.5q-91 81 -112 197q78 12 133.5 66.5t60.5 124.5 q102 -29 170 -89t103 -153t39 -221q38 97 38 198q0 100 -59 181.5t-154 111.5zM752 344l-52 -29q-57 20 -105 29.5t-99 9.5q-62 0 -114.5 -19t-82 -53.5t-29.5 -74.5q0 -45 29 -75t74 -30q19 0 37 7q8 4 12 4q10 0 10 -13q0 -7 -8 -18q-26 -38 -68 -60t-90 -22 q-71 0 -115.5 46.5t-44.5 117.5q0 69 46.5 127.5t126 91.5t176.5 33q146 0 297 -72zM1573 197q-2 6 -2 10t6 4q4 0 12 -10q4 -6 23 -25q14 -14 14 -26q0 -17 -14 -39q-29 -51 -79.5 -81t-107.5 -30q-44 0 -80.5 11t-113.5 46q-33 14 -227 113q-27 15 -74 40t-88 46l45 27 q73 -44 213 -115q77 -41 113 -58t85 -36q-123 170 -286 354q-95 106 -170 164l22 31q72 -58 154 -146.5t186 -218.5q65 -81 108 -127t72.5 -62t63.5 -16q49 0 87 41t38 103zM989 397l19 -22q-19 -7 -56 -23t-71 -30q-49 -24 -80 -48t-46.5 -52t-15.5 -60q0 -58 56 -94 q8 -7 8 -11q0 -10 -15 -10q-32 0 -100 -31q-25 -10 -37 -10q-25 0 -43 29.5t-18 68.5q0 73 59.5 128.5t196.5 107.5q66 24 143 57zM1120 426l-18 20q110 48 193.5 123t128 164.5t44.5 181.5q0 81 -31.5 143.5t-87 99t-126.5 36.5q-46 0 -91.5 -17t-76.5 -44q-13 -11 -19 -11 q-8 0 -8 11q0 40 39 104q41 62 103 95.5t139 33.5q135 0 225 -107.5t90 -269.5q0 -125 -60 -235.5t-173.5 -194.5t-270.5 -133z" />
<glyph unicode="&#xf054;" horiz-adv-x="1722" d="M330 1260q-17 -56 -48 -86t-89 -46q-46 36 -71.5 80t-25.5 86q0 72 70 72q81 0 164 -106zM530 1290q-16 5 -16 13t18 20q53 43 132 43q64 0 116.5 -30.5t82.5 -83.5t30 -117q0 -72 -38.5 -155.5t-109.5 -158.5q47 -7 66.5 -30t19.5 -66q0 -55 -18.5 -75.5t-64.5 -20.5 q-54 0 -78.5 22.5t-24.5 67.5q-67 -69 -155.5 -111.5t-163.5 -42.5q-98 0 -163 64t-65 162q0 36 13 78t32 67q7 14 15 14q5 0 8 -12q14 -63 57.5 -113.5t107 -79t140.5 -28.5q112 0 197 41h-33q-85 0 -176 33.5t-148 82.5q-91 81 -112 197q78 12 133.5 66.5t60.5 124.5 q102 -29 170 -89t103 -153t39 -221q38 97 38 198q0 100 -59 181.5t-154 111.5zM752 344l-52 -29q-57 20 -105 29.5t-99 9.5q-62 0 -114.5 -19t-82 -53.5t-29.5 -74.5q0 -45 29 -75t74 -30q19 0 37 7q8 4 12 4q10 0 10 -13q0 -7 -8 -18q-26 -38 -68 -60t-90 -22 q-71 0 -115.5 46.5t-44.5 117.5q0 69 46.5 127.5t126 91.5t176.5 33q146 0 297 -72zM1573 197q-2 6 -2 10t6 4q4 0 12 -10q4 -6 23 -25q14 -14 14 -26q0 -17 -14 -39q-29 -51 -79.5 -81t-107.5 -30q-44 0 -80.5 11t-113.5 46q-33 14 -227 113q-27 15 -74 40t-88 46l45 27 q73 -44 213 -115q77 -41 113 -58t85 -36q-123 170 -286 354q-95 106 -170 164l22 31q72 -58 154 -146.5t186 -218.5q65 -81 108 -127t72.5 -62t63.5 -16q49 0 87 41t38 103zM989 397l19 -22q-19 -7 -56 -23t-71 -30q-49 -24 -80 -48t-46.5 -52t-15.5 -60q0 -58 56 -94 q8 -7 8 -11q0 -10 -15 -10q-32 0 -100 -31q-25 -10 -37 -10q-25 0 -43 29.5t-18 68.5q0 73 59.5 128.5t196.5 107.5q66 24 143 57zM1120 426l-18 20q110 48 193.5 123t128 164.5t44.5 181.5q0 81 -31.5 143.5t-87 99t-126.5 36.5q-46 0 -91.5 -17t-76.5 -44q-13 -11 -19 -11 q-8 0 -8 11q0 40 39 104q41 62 103 95.5t139 33.5q135 0 225 -107.5t90 -269.5q0 -125 -60 -235.5t-173.5 -194.5t-270.5 -133z" />
<glyph unicode="U" horiz-adv-x="1722" d="M1393 1260q81 106 163 106q35 0 52.5 -18.5t17.5 -53.5q0 -90 -96 -166q-59 17 -89.5 47t-47.5 85zM1192 1290q-94 -30 -152.5 -111.5t-58.5 -181.5q0 -108 37 -198q6 192 81 305.5t228 157.5q6 -69 62 -124t135 -67q-23 -118 -113 -197q-57 -49 -147.5 -82.5 t-176.5 -33.5h-34q87 -41 198 -41q114 0 199.5 62t103.5 159q3 12 11 12q4 0 14 -14q19 -25 32 -67t13 -78q0 -98 -65 -162t-162 -64q-77 0 -166 43t-154 111q0 -47 -23.5 -68.5t-78.5 -21.5q-46 0 -66 21t-20 75q0 42 21 65.5t65 30.5q-45 49 -77 103t-49.5 108.5 t-17.5 102.5q0 64 29.5 117.5t81.5 83.5t115 30q80 0 133 -43q18 -14 18 -20q0 -8 -16 -13zM971 344q147 72 297 72q95 0 175 -33t126.5 -91.5t46.5 -127.5q0 -73 -44.5 -118.5t-117.5 -45.5q-47 0 -88 21.5t-68 60.5q-8 11 -8 18q0 13 10 13q5 0 13 -4q17 -7 35 -7 q46 0 75 30t29 75q0 40 -29.5 74.5t-82 53.5t-115.5 19q-52 0 -100 -9.5t-105 -29.5zM150 197q0 -63 38 -103.5t86 -40.5q49 0 97.5 41t146.5 164q104 129 189 220.5t151 144.5l23 -31q-84 -64 -170 -164q-164 -179 -287 -354q82 32 199 94q157 81 213 115l45 -27 q-50 -26 -164 -86q-180 -94 -228 -113q-120 -57 -192 -57q-57 0 -106 29.5t-80 81.5q-15 22 -15 39q0 12 13 26q4 3 12.5 12.5t11.5 12.5q8 10 12 10q7 0 7 -4q0 -2 -0.5 -4zM733 397q71 -30 141 -57q137 -51 198 -107t61 -129q0 -38 -19 -68t-45 -30q-8 0 -37 10 q-64 31 -98 31q-14 0 -14 10q0 4 8 11q55 36 55 94q0 49 -33.5 86.5t-109.5 73.5q-30 14 -65 28.5t-60 24.5zM602 426q-120 38 -211 93t-158.5 130.5t-102 160.5t-34.5 179q0 106 41.5 192.5t114.5 135.5t162 49q75 0 139 -34.5t102 -94.5q14 -20 26.5 -52t12.5 -52 q0 -11 -8 -11q-6 0 -18 11q-29 26 -76.5 43.5t-93.5 17.5q-105 0 -175.5 -79.5t-70.5 -199.5q0 -139 99 -266t267 -203z" />
<glyph unicode="&#xf055;" horiz-adv-x="1722" d="M1393 1260q81 106 163 106q35 0 52.5 -18.5t17.5 -53.5q0 -90 -96 -166q-59 17 -89.5 47t-47.5 85zM1192 1290q-94 -30 -152.5 -111.5t-58.5 -181.5q0 -108 37 -198q6 192 81 305.5t228 157.5q6 -69 62 -124t135 -67q-23 -118 -113 -197q-57 -49 -147.5 -82.5 t-176.5 -33.5h-34q87 -41 198 -41q114 0 199.5 62t103.5 159q3 12 11 12q4 0 14 -14q19 -25 32 -67t13 -78q0 -98 -65 -162t-162 -64q-77 0 -166 43t-154 111q0 -47 -23.5 -68.5t-78.5 -21.5q-46 0 -66 21t-20 75q0 42 21 65.5t65 30.5q-45 49 -77 103t-49.5 108.5 t-17.5 102.5q0 64 29.5 117.5t81.5 83.5t115 30q80 0 133 -43q18 -14 18 -20q0 -8 -16 -13zM971 344q147 72 297 72q95 0 175 -33t126.5 -91.5t46.5 -127.5q0 -73 -44.5 -118.5t-117.5 -45.5q-47 0 -88 21.5t-68 60.5q-8 11 -8 18q0 13 10 13q5 0 13 -4q17 -7 35 -7 q46 0 75 30t29 75q0 40 -29.5 74.5t-82 53.5t-115.5 19q-52 0 -100 -9.5t-105 -29.5zM150 197q0 -63 38 -103.5t86 -40.5q49 0 97.5 41t146.5 164q104 129 189 220.5t151 144.5l23 -31q-84 -64 -170 -164q-164 -179 -287 -354q82 32 199 94q157 81 213 115l45 -27 q-50 -26 -164 -86q-180 -94 -228 -113q-120 -57 -192 -57q-57 0 -106 29.5t-80 81.5q-15 22 -15 39q0 12 13 26q4 3 12.5 12.5t11.5 12.5q8 10 12 10q7 0 7 -4q0 -2 -0.5 -4zM733 397q71 -30 141 -57q137 -51 198 -107t61 -129q0 -38 -19 -68t-45 -30q-8 0 -37 10 q-64 31 -98 31q-14 0 -14 10q0 4 8 11q55 36 55 94q0 49 -33.5 86.5t-109.5 73.5q-30 14 -65 28.5t-60 24.5zM602 426q-120 38 -211 93t-158.5 130.5t-102 160.5t-34.5 179q0 106 41.5 192.5t114.5 135.5t162 49q75 0 139 -34.5t102 -94.5q14 -20 26.5 -52t12.5 -52 q0 -11 -8 -11q-6 0 -18 11q-29 26 -76.5 43.5t-93.5 17.5q-105 0 -175.5 -79.5t-70.5 -199.5q0 -139 99 -266t267 -203z" />
<glyph unicode="V" horiz-adv-x="1722" d="M330 104q-84 -104 -164 -104q-70 0 -70 72q0 42 25.5 86t71.5 80q56 -16 88.5 -46.5t48.5 -87.5zM530 76q96 32 154.5 112t58.5 181q0 98 -38 198q-4 -127 -39 -221t-104 -155t-169 -89q-4 70 -59.5 125t-134.5 68q11 59 37 105.5t75 91.5q57 51 148 83.5t176 32.5 q18 0 33 -2q-83 43 -197 43t-199 -62t-106 -159q-3 -12 -8 -12q-8 0 -15 14q-19 26 -32 67.5t-13 77.5q0 99 64.5 162.5t163.5 63.5q48 0 105 -18.5t114 -54.5t100 -81q0 90 103 90q46 0 64.5 -21t18.5 -75q0 -43 -19.5 -65.5t-66.5 -30.5q70 -74 109 -158.5t39 -155.5 q0 -98 -65.5 -164.5t-163.5 -66.5q-33 0 -68.5 11t-63.5 30q-18 15 -18 22q0 8 16 13zM752 1022q-156 -74 -297 -74q-98 0 -177.5 33.5t-125.5 92t-46 126.5q0 72 44.5 119t115.5 47q49 0 91 -22.5t67 -61.5q8 -11 8 -18q0 -11 -10 -11q-4 0 -12 4q-18 7 -37 7 q-44 0 -73.5 -30.5t-29.5 -74.5q0 -64 65 -106.5t161 -42.5q82 0 204 41zM1573 1167q0 63 -37.5 104.5t-87.5 41.5q-34 0 -64 -17t-72.5 -63t-107.5 -125q-104 -130 -186 -218.5t-154 -146.5l-22 29q40 31 77.5 68t92.5 98q159 176 286 352q-60 -20 -198 -92 q-121 -61 -213 -117l-45 27q27 15 74.5 40t87.5 46q137 73 227 115q71 32 110 44.5t84 12.5q56 0 106.5 -30.5t80.5 -80.5q14 -22 14 -41q0 -12 -14 -24q-6 -8 -23 -25q-10 -12 -12 -12q-6 0 -6 6q0 2 2 8zM989 969q-54 21 -143 57q-138 53 -197 107.5t-59 126.5 q0 41 18 70.5t43 29.5q13 0 37 -12q64 -29 100 -29q15 -3 15 -10q0 -4 -8 -11q-56 -36 -56 -96q0 -48 33 -85t109 -73q34 -14 65.5 -27t61.5 -26zM1120 940q114 -35 211.5 -94t160 -129.5t97.5 -158.5t35 -181q0 -106 -41 -192t-113.5 -135.5t-160.5 -49.5q-78 0 -139.5 33 t-102.5 96q-16 26 -27.5 57t-11.5 45q0 13 8 13q6 0 19 -13q71 -59 168 -59q106 0 175.5 79.5t69.5 197.5q0 92 -44.5 182.5t-128 165.5t-193.5 123z" />
<glyph unicode="&#xf056;" horiz-adv-x="1722" d="M330 104q-84 -104 -164 -104q-70 0 -70 72q0 42 25.5 86t71.5 80q56 -16 88.5 -46.5t48.5 -87.5zM530 76q96 32 154.5 112t58.5 181q0 98 -38 198q-4 -127 -39 -221t-104 -155t-169 -89q-4 70 -59.5 125t-134.5 68q11 59 37 105.5t75 91.5q57 51 148 83.5t176 32.5 q18 0 33 -2q-83 43 -197 43t-199 -62t-106 -159q-3 -12 -8 -12q-8 0 -15 14q-19 26 -32 67.5t-13 77.5q0 99 64.5 162.5t163.5 63.5q48 0 105 -18.5t114 -54.5t100 -81q0 90 103 90q46 0 64.5 -21t18.5 -75q0 -43 -19.5 -65.5t-66.5 -30.5q70 -74 109 -158.5t39 -155.5 q0 -98 -65.5 -164.5t-163.5 -66.5q-33 0 -68.5 11t-63.5 30q-18 15 -18 22q0 8 16 13zM752 1022q-156 -74 -297 -74q-98 0 -177.5 33.5t-125.5 92t-46 126.5q0 72 44.5 119t115.5 47q49 0 91 -22.5t67 -61.5q8 -11 8 -18q0 -11 -10 -11q-4 0 -12 4q-18 7 -37 7 q-44 0 -73.5 -30.5t-29.5 -74.5q0 -64 65 -106.5t161 -42.5q82 0 204 41zM1573 1167q0 63 -37.5 104.5t-87.5 41.5q-34 0 -64 -17t-72.5 -63t-107.5 -125q-104 -130 -186 -218.5t-154 -146.5l-22 29q40 31 77.5 68t92.5 98q159 176 286 352q-60 -20 -198 -92 q-121 -61 -213 -117l-45 27q27 15 74.5 40t87.5 46q137 73 227 115q71 32 110 44.5t84 12.5q56 0 106.5 -30.5t80.5 -80.5q14 -22 14 -41q0 -12 -14 -24q-6 -8 -23 -25q-10 -12 -12 -12q-6 0 -6 6q0 2 2 8zM989 969q-54 21 -143 57q-138 53 -197 107.5t-59 126.5 q0 41 18 70.5t43 29.5q13 0 37 -12q64 -29 100 -29q15 -3 15 -10q0 -4 -8 -11q-56 -36 -56 -96q0 -48 33 -85t109 -73q34 -14 65.5 -27t61.5 -26zM1120 940q114 -35 211.5 -94t160 -129.5t97.5 -158.5t35 -181q0 -106 -41 -192t-113.5 -135.5t-160.5 -49.5q-78 0 -139.5 33 t-102.5 96q-16 26 -27.5 57t-11.5 45q0 13 8 13q6 0 19 -13q71 -59 168 -59q106 0 175.5 79.5t69.5 197.5q0 92 -44.5 182.5t-128 165.5t-193.5 123z" />
<glyph unicode="W" horiz-adv-x="1722" d="M1393 104q16 56 47.5 87t89.5 47q47 -36 71.5 -80t24.5 -86q0 -72 -70 -72q-81 0 -163 104zM1192 76q16 -5 16 -13q0 -4 -18 -22q-26 -19 -62.5 -30t-70.5 -11q-63 0 -115 30t-81.5 83.5t-29.5 117.5q0 70 38.5 155t105.5 159q-44 7 -65 30.5t-21 65.5q0 53 19.5 74.5 t66.5 21.5q102 0 102 -90q40 43 97.5 80t115 55.5t107.5 18.5q98 0 162.5 -63.5t64.5 -162.5q0 -36 -13 -77.5t-32 -67.5q-10 -14 -14 -14q-8 0 -11 12q-12 63 -55 113t-109 79t-139 29q-114 0 -198 -43q14 2 34 2q86 0 176.5 -32.5t147.5 -83.5q90 -82 113 -197 q-80 -14 -135.5 -68.5t-61.5 -124.5q-152 44 -227.5 158.5t-81.5 306.5q-37 -93 -37 -198q0 -101 58 -181t153 -112zM971 1022l49 29q122 -41 205 -41q97 0 162 42.5t65 106.5q0 44 -29.5 74.5t-74.5 30.5q-18 0 -35 -7q-8 -4 -13 -4q-10 0 -10 11q0 7 8 18q26 40 67 62 t89 22q73 0 117.5 -46t44.5 -120q0 -68 -46 -126.5t-125.5 -92t-176.5 -33.5q-146 0 -297 74zM150 1167q1 -2 1.5 -4t0.5 -4q0 -6 -7 -6q-2 0 -12 12q-5 3 -10 9.5t-14 15.5q-13 12 -13 24q0 19 15 41q32 51 81 81t105 30q44 0 84 -12.5t108 -44.5q85 -37 228 -115 q114 -60 164 -86l-45 -27q-83 49 -213 117q-136 70 -199 92q62 -87 131 -171.5t156 -180.5q59 -67 92 -98.5t78 -67.5l-23 -29q-66 53 -151 144.5t-189 220.5q-65 79 -107.5 125t-72.5 63t-64 17q-48 0 -86 -41t-38 -105zM733 969l-18 22q26 11 60.5 25t64.5 28 q76 35 109.5 72.5t33.5 85.5q0 60 -55 96q-8 7 -8 11q0 7 14 10q12 0 41 8t57 21q28 12 37 12q26 0 45 -30t19 -70q0 -72 -60 -127t-199 -107q-70 -30 -141 -57zM602 940l16 -20q-166 -73 -266 -201.5t-100 -269.5q0 -117 71 -197t175 -80q46 0 92.5 16.5t77.5 42.5 q12 13 18 13q8 0 8 -13q0 -18 -12 -49.5t-27 -52.5q-26 -41 -63.5 -70.5t-82.5 -44t-95 -14.5q-89 0 -162 49t-114.5 135.5t-41.5 192.5q0 94 35 180.5t100 159t161.5 130.5t209.5 93z" />
<glyph unicode="&#xf057;" horiz-adv-x="1722" d="M1393 104q16 56 47.5 87t89.5 47q47 -36 71.5 -80t24.5 -86q0 -72 -70 -72q-81 0 -163 104zM1192 76q16 -5 16 -13q0 -4 -18 -22q-26 -19 -62.5 -30t-70.5 -11q-63 0 -115 30t-81.5 83.5t-29.5 117.5q0 70 38.5 155t105.5 159q-44 7 -65 30.5t-21 65.5q0 53 19.5 74.5 t66.5 21.5q102 0 102 -90q40 43 97.5 80t115 55.5t107.5 18.5q98 0 162.5 -63.5t64.5 -162.5q0 -36 -13 -77.5t-32 -67.5q-10 -14 -14 -14q-8 0 -11 12q-12 63 -55 113t-109 79t-139 29q-114 0 -198 -43q14 2 34 2q86 0 176.5 -32.5t147.5 -83.5q90 -82 113 -197 q-80 -14 -135.5 -68.5t-61.5 -124.5q-152 44 -227.5 158.5t-81.5 306.5q-37 -93 -37 -198q0 -101 58 -181t153 -112zM971 1022l49 29q122 -41 205 -41q97 0 162 42.5t65 106.5q0 44 -29.5 74.5t-74.5 30.5q-18 0 -35 -7q-8 -4 -13 -4q-10 0 -10 11q0 7 8 18q26 40 67 62 t89 22q73 0 117.5 -46t44.5 -120q0 -68 -46 -126.5t-125.5 -92t-176.5 -33.5q-146 0 -297 74zM150 1167q1 -2 1.5 -4t0.5 -4q0 -6 -7 -6q-2 0 -12 12q-5 3 -10 9.5t-14 15.5q-13 12 -13 24q0 19 15 41q32 51 81 81t105 30q44 0 84 -12.5t108 -44.5q85 -37 228 -115 q114 -60 164 -86l-45 -27q-83 49 -213 117q-136 70 -199 92q62 -87 131 -171.5t156 -180.5q59 -67 92 -98.5t78 -67.5l-23 -29q-66 53 -151 144.5t-189 220.5q-65 79 -107.5 125t-72.5 63t-64 17q-48 0 -86 -41t-38 -105zM733 969l-18 22q26 11 60.5 25t64.5 28 q76 35 109.5 72.5t33.5 85.5q0 60 -55 96q-8 7 -8 11q0 7 14 10q12 0 41 8t57 21q28 12 37 12q26 0 45 -30t19 -70q0 -72 -60 -127t-199 -107q-70 -30 -141 -57zM602 940l16 -20q-166 -73 -266 -201.5t-100 -269.5q0 -117 71 -197t175 -80q46 0 92.5 16.5t77.5 42.5 q12 13 18 13q8 0 8 -13q0 -18 -12 -49.5t-27 -52.5q-26 -41 -63.5 -70.5t-82.5 -44t-95 -14.5q-89 0 -162 49t-114.5 135.5t-41.5 192.5q0 94 35 180.5t100 159t161.5 130.5t209.5 93z" />
<glyph unicode="X" horiz-adv-x="1645" d="M1513 797q-32 -2 -77 -2q-219 0 -359 59q45 123 45 207q0 141 -94 256q164 -54 281 -131q108 -71 170 -135q71 -72 71 -125q0 -43 -37 -129zM1243 383q-83 28 -183 80.5t-196 118.5q106 79 191 225q78 -30 182.5 -48t192.5 -18q36 0 59 4q-25 -56 -65 -122.5 t-86.5 -127.5t-94.5 -112zM823 0q-69 44 -196 156q-126 112 -187 184q88 28 209 96q101 55 174 109q31 -24 106.5 -68t154 -82.5t122.5 -54.5q-68 -80 -196 -193q-123 -105 -187 -147zM403 379q-155 166 -247 360q22 0 32.5 -0.5t20.5 -1.5q186 0 351 55.5t260 150.5t95 204 q0 54 -26 89.5t-66 35.5t-68 -35t-28 -90q0 -79 61 -168q-62 -65 -170 -107q-43 98 -43 191q0 85 32.5 154t89.5 109t126 40q66 0 123 -41t90 -107.5t33 -148.5q0 -112 -55 -223t-156 -203q-153 -142 -438 -258zM133 788q-37 77 -37 130q0 51 39.5 100t147.5 125 q181 128 333 176q-51 -66 -72.5 -125t-21.5 -131q0 -109 49 -213q-77 -28 -180.5 -46t-200.5 -18q-13 1 -24.5 1.5t-32.5 0.5z" />
<glyph unicode="&#xf058;" horiz-adv-x="1645" d="M1513 797q-32 -2 -77 -2q-219 0 -359 59q45 123 45 207q0 141 -94 256q164 -54 281 -131q108 -71 170 -135q71 -72 71 -125q0 -43 -37 -129zM1243 383q-83 28 -183 80.5t-196 118.5q106 79 191 225q78 -30 182.5 -48t192.5 -18q36 0 59 4q-25 -56 -65 -122.5 t-86.5 -127.5t-94.5 -112zM823 0q-69 44 -196 156q-126 112 -187 184q88 28 209 96q101 55 174 109q31 -24 106.5 -68t154 -82.5t122.5 -54.5q-68 -80 -196 -193q-123 -105 -187 -147zM403 379q-155 166 -247 360q22 0 32.5 -0.5t20.5 -1.5q186 0 351 55.5t260 150.5t95 204 q0 54 -26 89.5t-66 35.5t-68 -35t-28 -90q0 -79 61 -168q-62 -65 -170 -107q-43 98 -43 191q0 85 32.5 154t89.5 109t126 40q66 0 123 -41t90 -107.5t33 -148.5q0 -112 -55 -223t-156 -203q-153 -142 -438 -258zM133 788q-37 77 -37 130q0 51 39.5 100t147.5 125 q181 128 333 176q-51 -66 -72.5 -125t-21.5 -131q0 -109 49 -213q-77 -28 -180.5 -46t-200.5 -18q-13 1 -24.5 1.5t-32.5 0.5z" />
<glyph unicode="Y" horiz-adv-x="2351" d="M1346 584q0 59 27 120t67 97q44 38 104.5 68t149.5 57q132 41 170 57q68 34 105 83.5t38 109.5q0 34 -12.5 59.5t-55.5 89.5q-12 18 -12 27q0 14 19 14q20 0 57.5 -15t69.5 -36q87 -60 134.5 -144t47.5 -182q0 -152 -111 -241q-55 -46 -235 -119q-209 -86 -256 -142 q-47 -55 -47 -125q0 -48 22.5 -89t61.5 -62q35 -17 76 -24t114 -7h33q80 0 170 -10q74 -6 88 -6q24 0 35 4q22 4 24 4q11 0 18 -6t7 -16q0 -11 -19 -29q-30 -29 -77 -94q-19 -27 -35 -27q-13 0 -29 16q-82 80 -180 80q-58 0 -141 -22q-214 -57 -251 -65.5t-81 -8.5 q-54 0 -114 17.5t-185 72.5q-171 76 -277 76q-59 0 -111 -18.5t-126 -63.5q-77 -48 -127.5 -66t-100.5 -18q-83 0 -153 43t-111 118.5t-41 162.5q0 48 9.5 75t23.5 27q10 0 23 -27q21 -52 50.5 -84t74 -46.5t104.5 -14.5q32 0 164 12q122 15 141 15q85 0 211 -37 q27 -6 29 -6q9 0 15.5 6.5t6.5 15.5q0 22 -27.5 73.5t-66.5 103t-80 87.5q-18 17 -18 29q0 13 22 18q35 9 90 41q17 9 23 9q18 0 18 -37q3 -95 47.5 -184.5t121.5 -163t173.5 -116t192.5 -42.5q72 0 127 26t55 58q0 27 -37 47q-106 67 -168 151q-43 56 -59 105.5t-16 118.5z M864 1260q0 12 10 24q53 82 156 82q63 0 113.5 -35.5t79 -96t28.5 -134.5q0 -71 -29.5 -154.5t-82.5 -157.5t-119 -124q-45 -35 -68 -35q-20 0 -20 14q0 6 10 21q119 143 119 305q0 90 -49 164t-129 106q-19 8 -19 21zM418 934q0 140 139 178q33 9 49.5 15t48.5 24 q57 33 99 33q90 0 152.5 -70.5t62.5 -171.5q0 -124 -71.5 -212.5t-172.5 -88.5q-80 0 -152 40.5t-113.5 109t-41.5 143.5zM96 860q0 80 62.5 140.5t142.5 60.5q51 0 51 -27q0 -10 -10 -30q-18 -46 -18 -99q0 -95 55.5 -173t155.5 -124q94 -40 155 -43q29 -3 29 -16 q0 -35 -139 -35q-134 0 -246 45.5t-175 125t-63 175.5zM586 1366q47 0 90 -22.5t43 -49.5q0 -19 -25 -22q-37 -6 -59 -19q-14 -8 -23 -13.5t-20 -12.5q-10 -6 -41 -15q-58 -12 -98 -45q-22 -16 -33 -16q-23 0 -23 35q0 45 26 88t69.5 67.5t93.5 24.5z" />
<glyph unicode="&#xf059;" horiz-adv-x="2351" d="M1346 584q0 59 27 120t67 97q44 38 104.5 68t149.5 57q132 41 170 57q68 34 105 83.5t38 109.5q0 34 -12.5 59.5t-55.5 89.5q-12 18 -12 27q0 14 19 14q20 0 57.5 -15t69.5 -36q87 -60 134.5 -144t47.5 -182q0 -152 -111 -241q-55 -46 -235 -119q-209 -86 -256 -142 q-47 -55 -47 -125q0 -48 22.5 -89t61.5 -62q35 -17 76 -24t114 -7h33q80 0 170 -10q74 -6 88 -6q24 0 35 4q22 4 24 4q11 0 18 -6t7 -16q0 -11 -19 -29q-30 -29 -77 -94q-19 -27 -35 -27q-13 0 -29 16q-82 80 -180 80q-58 0 -141 -22q-214 -57 -251 -65.5t-81 -8.5 q-54 0 -114 17.5t-185 72.5q-171 76 -277 76q-59 0 -111 -18.5t-126 -63.5q-77 -48 -127.5 -66t-100.5 -18q-83 0 -153 43t-111 118.5t-41 162.5q0 48 9.5 75t23.5 27q10 0 23 -27q21 -52 50.5 -84t74 -46.5t104.5 -14.5q32 0 164 12q122 15 141 15q85 0 211 -37 q27 -6 29 -6q9 0 15.5 6.5t6.5 15.5q0 22 -27.5 73.5t-66.5 103t-80 87.5q-18 17 -18 29q0 13 22 18q35 9 90 41q17 9 23 9q18 0 18 -37q3 -95 47.5 -184.5t121.5 -163t173.5 -116t192.5 -42.5q72 0 127 26t55 58q0 27 -37 47q-106 67 -168 151q-43 56 -59 105.5t-16 118.5z M864 1260q0 12 10 24q53 82 156 82q63 0 113.5 -35.5t79 -96t28.5 -134.5q0 -71 -29.5 -154.5t-82.5 -157.5t-119 -124q-45 -35 -68 -35q-20 0 -20 14q0 6 10 21q119 143 119 305q0 90 -49 164t-129 106q-19 8 -19 21zM418 934q0 140 139 178q33 9 49.5 15t48.5 24 q57 33 99 33q90 0 152.5 -70.5t62.5 -171.5q0 -124 -71.5 -212.5t-172.5 -88.5q-80 0 -152 40.5t-113.5 109t-41.5 143.5zM96 860q0 80 62.5 140.5t142.5 60.5q51 0 51 -27q0 -10 -10 -30q-18 -46 -18 -99q0 -95 55.5 -173t155.5 -124q94 -40 155 -43q29 -3 29 -16 q0 -35 -139 -35q-134 0 -246 45.5t-175 125t-63 175.5zM586 1366q47 0 90 -22.5t43 -49.5q0 -19 -25 -22q-37 -6 -59 -19q-14 -8 -23 -13.5t-20 -12.5q-10 -6 -41 -15q-58 -12 -98 -45q-22 -16 -33 -16q-23 0 -23 35q0 45 26 88t69.5 67.5t93.5 24.5z" />
<glyph unicode="Z" horiz-adv-x="2351" d="M1004 584q0 -73 -16 -121.5t-58 -102.5q-68 -88 -168 -151q-37 -20 -37 -47q0 -31 54.5 -57.5t125.5 -26.5q130 0 254 73t202 191.5t81 241.5q0 21 4 29t14 8q4 0 23 -9q55 -32 90 -41q22 -5 22 -18q0 -12 -18 -29q-57 -50 -115.5 -138.5t-58.5 -125.5q0 -22 22 -22 q-1 0 29 6q126 37 211 37q21 0 139 -15q136 -12 166 -12q93 0 147 34t83 111q9 27 22 27q33 0 33 -102q0 -87 -41 -162t-111.5 -118.5t-152.5 -43.5q-52 0 -101 17.5t-127 66.5q-74 45 -126.5 63.5t-112.5 18.5q-107 0 -275 -76q-124 -54 -185.5 -72t-113.5 -18 q-14 0 -38.5 2.5t-53 9t-76 19t-163.5 43.5q-85 22 -144 22q-96 0 -178 -80q-16 -16 -29 -16q-16 0 -34 27q-45 61 -80 94q-17 18 -17 29q0 9 6.5 15.5t18.5 6.5q2 0 22 -4q13 -4 35 -4q18 0 88 6q90 10 172 10h33q73 0 113 7t75 24q38 20 61 62t23 89q0 73 -45 125 q-48 55 -256 142q-180 73 -235 119q-111 89 -111 241q0 95 48.5 180.5t134.5 145.5q29 20 67.5 35.5t59.5 15.5q16 0 16 -14q0 -13 -12 -27q-40 -59 -53 -87t-13 -62q0 -125 143 -193q29 -13 170 -57q87 -26 150.5 -57.5t103.5 -67.5q41 -37 67 -96t26 -121zM1487 1260 q0 -14 -21 -21q-78 -32 -127 -107.5t-49 -162.5q0 -161 117 -305q10 -11 10 -21q0 -14 -18 -14q-25 0 -68 35q-66 50 -119 124t-82.5 157.5t-29.5 154.5q0 111 63 188.5t156 77.5q61 0 98 -22.5t60 -59.5q10 -17 10 -24zM1931 934q0 -75 -41.5 -143.5t-112.5 -109 t-151 -40.5q-66 0 -123 41t-90 109t-33 151q0 101 64 171.5t153 70.5q42 0 99 -33q37 -22 98 -39q137 -37 137 -178zM2255 860q0 -96 -63.5 -175.5t-175 -125t-244.5 -45.5q-59 0 -100.5 10t-41.5 25q0 13 29 16q27 1 74 14.5t84 28.5q99 46 155 123.5t56 173.5q0 45 -21 99 q-10 25 -10 30q0 27 51 27q81 0 144 -60.5t63 -140.5zM1763 1366q50 0 93.5 -24.5t69.5 -67.5t26 -88q0 -35 -23 -35q-9 0 -31 16q-40 33 -98 45q-31 9 -41 15q-10 7 -22 14t-23 12q-17 12 -59 19q-25 3 -25 22q0 26 43 49t90 23z" />
<glyph unicode="&#xf05a;" horiz-adv-x="2351" d="M1004 584q0 -73 -16 -121.5t-58 -102.5q-68 -88 -168 -151q-37 -20 -37 -47q0 -31 54.5 -57.5t125.5 -26.5q130 0 254 73t202 191.5t81 241.5q0 21 4 29t14 8q4 0 23 -9q55 -32 90 -41q22 -5 22 -18q0 -12 -18 -29q-57 -50 -115.5 -138.5t-58.5 -125.5q0 -22 22 -22 q-1 0 29 6q126 37 211 37q21 0 139 -15q136 -12 166 -12q93 0 147 34t83 111q9 27 22 27q33 0 33 -102q0 -87 -41 -162t-111.5 -118.5t-152.5 -43.5q-52 0 -101 17.5t-127 66.5q-74 45 -126.5 63.5t-112.5 18.5q-107 0 -275 -76q-124 -54 -185.5 -72t-113.5 -18 q-14 0 -38.5 2.5t-53 9t-76 19t-163.5 43.5q-85 22 -144 22q-96 0 -178 -80q-16 -16 -29 -16q-16 0 -34 27q-45 61 -80 94q-17 18 -17 29q0 9 6.5 15.5t18.5 6.5q2 0 22 -4q13 -4 35 -4q18 0 88 6q90 10 172 10h33q73 0 113 7t75 24q38 20 61 62t23 89q0 73 -45 125 q-48 55 -256 142q-180 73 -235 119q-111 89 -111 241q0 95 48.5 180.5t134.5 145.5q29 20 67.5 35.5t59.5 15.5q16 0 16 -14q0 -13 -12 -27q-40 -59 -53 -87t-13 -62q0 -125 143 -193q29 -13 170 -57q87 -26 150.5 -57.5t103.5 -67.5q41 -37 67 -96t26 -121zM1487 1260 q0 -14 -21 -21q-78 -32 -127 -107.5t-49 -162.5q0 -161 117 -305q10 -11 10 -21q0 -14 -18 -14q-25 0 -68 35q-66 50 -119 124t-82.5 157.5t-29.5 154.5q0 111 63 188.5t156 77.5q61 0 98 -22.5t60 -59.5q10 -17 10 -24zM1931 934q0 -75 -41.5 -143.5t-112.5 -109 t-151 -40.5q-66 0 -123 41t-90 109t-33 151q0 101 64 171.5t153 70.5q42 0 99 -33q37 -22 98 -39q137 -37 137 -178zM2255 860q0 -96 -63.5 -175.5t-175 -125t-244.5 -45.5q-59 0 -100.5 10t-41.5 25q0 13 29 16q27 1 74 14.5t84 28.5q99 46 155 123.5t56 173.5q0 45 -21 99 q-10 25 -10 30q0 27 51 27q81 0 144 -60.5t63 -140.5zM1763 1366q50 0 93.5 -24.5t69.5 -67.5t26 -88q0 -35 -23 -35q-9 0 -31 16q-40 33 -98 45q-31 9 -41 15q-10 7 -22 14t-23 12q-17 12 -59 19q-25 3 -25 22q0 26 43 49t90 23z" />
<glyph unicode="[" horiz-adv-x="1110" d="M434 254q-104 13 -146.5 22t-80.5 25q-111 56 -111 178q0 92 62 156.5t153 64.5q82 0 127 -47v193q0 211 -4 311q-46 25 -100 25q-83 0 -139 -51t-56 -127q0 -47 26 -79t62 -32q30 0 52 20t22 48q0 30 -21 52.5t-59 33.5l-6 20q63 37 131 45q62 -53 62 -121 q0 -62 -43.5 -104.5t-106.5 -42.5q-70 0 -116 51.5t-46 132.5q0 73 39.5 139.5t105 106t138.5 39.5q7 0 47 -4q-8 97 -12 127q40 40 84 65l18 -16q-12 -76 -12 -201q62 -30 125 -80t116 -82q29 67 75.5 103.5t99.5 36.5q39 0 63.5 -22t24.5 -56q0 -45 -39 -88.5t-102.5 -71 t-129.5 -27.5q-15 -57 -23 -83t-16 -50q144 -6 230 -75t86 -177q0 -60 -32 -114.5t-99 -106.5q-74 -54 -131 -98q-78 -59 -129.5 -121.5t-79 -129t-27.5 -134.5q1 -7 1.5 -14t0.5 -23q-42 -36 -86 -53l-22 18q11 63 16 164q4 62 8 254zM498 37q20 69 55 121q14 25 14 43 t-19.5 30t-53.5 13q2 -80 2.5 -120.5t1.5 -86.5zM436 399v101q-40 -33 -84 -33q-51 0 -92 41q32 46 57 74l25 -4q22 -37 55 -37q17 0 28 11t11 30q0 31 -27.5 53t-68.5 22q-53 0 -90 -34.5t-37 -85.5q0 -38 24 -65t73 -44.5t126 -28.5zM494 391q66 -9 107.5 -29.5 t70.5 -58.5q110 87 155 158t45 151q0 73 -52.5 126t-139.5 67q-29 -57 -74 -95t-88 -38q-12 0 -24 2v-283zM502 1116q0 -104 -2 -153q0 -52 -0.5 -92t-1.5 -87q55 55 159 78q20 45 41 135q-42 12 -85 38t-111 81zM780 1104q33 -8 58 -8q49 0 92 28t43 60q0 18 -13.5 29.5 t-37.5 11.5q-46 0 -79 -28.5t-63 -92.5zM639 805q-49 -1 -96 -30.5t-47 -59.5q0 -13 16 -13q30 0 66.5 29.5t60.5 73.5z" />
<glyph unicode="&#xf05b;" horiz-adv-x="1110" d="M434 254q-104 13 -146.5 22t-80.5 25q-111 56 -111 178q0 92 62 156.5t153 64.5q82 0 127 -47v193q0 211 -4 311q-46 25 -100 25q-83 0 -139 -51t-56 -127q0 -47 26 -79t62 -32q30 0 52 20t22 48q0 30 -21 52.5t-59 33.5l-6 20q63 37 131 45q62 -53 62 -121 q0 -62 -43.5 -104.5t-106.5 -42.5q-70 0 -116 51.5t-46 132.5q0 73 39.5 139.5t105 106t138.5 39.5q7 0 47 -4q-8 97 -12 127q40 40 84 65l18 -16q-12 -76 -12 -201q62 -30 125 -80t116 -82q29 67 75.5 103.5t99.5 36.5q39 0 63.5 -22t24.5 -56q0 -45 -39 -88.5t-102.5 -71 t-129.5 -27.5q-15 -57 -23 -83t-16 -50q144 -6 230 -75t86 -177q0 -60 -32 -114.5t-99 -106.5q-74 -54 -131 -98q-78 -59 -129.5 -121.5t-79 -129t-27.5 -134.5q1 -7 1.5 -14t0.5 -23q-42 -36 -86 -53l-22 18q11 63 16 164q4 62 8 254zM498 37q20 69 55 121q14 25 14 43 t-19.5 30t-53.5 13q2 -80 2.5 -120.5t1.5 -86.5zM436 399v101q-40 -33 -84 -33q-51 0 -92 41q32 46 57 74l25 -4q22 -37 55 -37q17 0 28 11t11 30q0 31 -27.5 53t-68.5 22q-53 0 -90 -34.5t-37 -85.5q0 -38 24 -65t73 -44.5t126 -28.5zM494 391q66 -9 107.5 -29.5 t70.5 -58.5q110 87 155 158t45 151q0 73 -52.5 126t-139.5 67q-29 -57 -74 -95t-88 -38q-12 0 -24 2v-283zM502 1116q0 -104 -2 -153q0 -52 -0.5 -92t-1.5 -87q55 55 159 78q20 45 41 135q-42 12 -85 38t-111 81zM780 1104q33 -8 58 -8q49 0 92 28t43 60q0 18 -13.5 29.5 t-37.5 11.5q-46 0 -79 -28.5t-63 -92.5zM639 805q-49 -1 -96 -30.5t-47 -59.5q0 -13 16 -13q30 0 66.5 29.5t60.5 73.5z" />
<glyph unicode="\" horiz-adv-x="2511" d="M446 612q99 78 236 78q106 0 173 -46t67 -120q0 -71 -61 -132t-163.5 -96.5t-224.5 -35.5q-58 0 -94 10q113 -151 356 -151q154 0 324 73.5t294 189.5t150 230q-78 -34 -155 -34q-106 0 -176 75.5t-70 190.5q0 130 96 203q-10 -36 -10 -60q0 -50 29 -76q19 -18 43 -24.5 t102 -14.5q201 -15 201 -184q0 -104 -72.5 -209.5t-195 -194.5t-272 -141.5t-292.5 -52.5q-277 0 -387 180q-119 29 -183.5 83.5t-64.5 125.5q0 69 64 114.5t162 45.5q63 0 124 -27zM1663 635q78 40 119 112.5t41 172.5q0 81 -45 204q38 -11 63 -23.5t49.5 -32t48.5 -48.5 q12 109 73 205.5t154.5 152.5t192.5 56q4 0 58 -4q-72 -17 -112 -66.5t-40 -124.5q0 -25 4 -49l17 -86q8 -58 8 -84q0 -77 -41 -143q56 -15 88.5 -34t62.5 -50q-59 -10 -108.5 -31.5t-151.5 -85.5q-82 -51 -139.5 -70.5t-130.5 -19.5q-110 0 -211 49zM2298 100 q-63 -168 -227 -168q-86 0 -145 53.5t-87 155.5l-29 111q-43 168 -178 168q-81 0 -145 -78l-10 6q112 150 260 150q187 0 270 -207l41 -101q27 -60 69 -94.5t89 -34.5q46 0 92 39zM422 592q-50 18 -100 18q-88 0 -142.5 -35.5t-54.5 -93.5q0 -60 54 -107t151 -69 q-15 36 -15 78q0 117 107 209zM446 582q-52 -49 -77 -97t-25 -100q0 -37 16 -84q51 -10 115 -10q108 0 204.5 32t154 85t57.5 114q0 62 -59.5 101t-155.5 39q-108 0 -203 -64q98 -55 98 -139q0 -36 -19.5 -66.5t-53.5 -46.5l-9 14q26 16 42 41.5t16 53.5q0 77 -101 127z M1169 950q-6 -33 -6 -51q0 -55 29 -93t82 -52q-21 -6 -33 -6q-25 0 -59 12q24 -38 64 -59t93 -21q15 0 29 2q-23 -29 -63 -37q49 -37 110 -37q44 0 90 25v20q0 70 -47 111q-19 19 -42 29t-89 24q-83 23 -117.5 52.5t-40.5 80.5zM1694 637q46 -10 100 -10q90 0 172.5 28.5 t134.5 77.5q-28 -4 -41 -4q-45 0 -90 23q116 37 188.5 121.5t84.5 193.5q-36 -46 -97 -72q35 61 41 113l17 100q21 140 131 205q-96 -26 -152.5 -96.5t-95.5 -210.5q-27 -98 -49.5 -156.5t-52 -102.5t-70.5 -85q-96 -99 -221 -125zM2253 51q-46 -12 -68 -12q-64 0 -117 42 t-104 130l-51 86q-48 86 -101 125t-120 39q-44 0 -95 -25q11 1 20 1.5t17 0.5q71 0 122 -40t69 -111l24 -90q1 -2 2.5 -6t3.5 -9q6 45 25 88q6 -119 50.5 -194.5t121.5 -93.5q-23 24 -31 40t-12 41q57 -47 135 -47q64 0 109 35z" />
<glyph unicode="&#xf05c;" horiz-adv-x="2511" d="M446 612q99 78 236 78q106 0 173 -46t67 -120q0 -71 -61 -132t-163.5 -96.5t-224.5 -35.5q-58 0 -94 10q113 -151 356 -151q154 0 324 73.5t294 189.5t150 230q-78 -34 -155 -34q-106 0 -176 75.5t-70 190.5q0 130 96 203q-10 -36 -10 -60q0 -50 29 -76q19 -18 43 -24.5 t102 -14.5q201 -15 201 -184q0 -104 -72.5 -209.5t-195 -194.5t-272 -141.5t-292.5 -52.5q-277 0 -387 180q-119 29 -183.5 83.5t-64.5 125.5q0 69 64 114.5t162 45.5q63 0 124 -27zM1663 635q78 40 119 112.5t41 172.5q0 81 -45 204q38 -11 63 -23.5t49.5 -32t48.5 -48.5 q12 109 73 205.5t154.5 152.5t192.5 56q4 0 58 -4q-72 -17 -112 -66.5t-40 -124.5q0 -25 4 -49l17 -86q8 -58 8 -84q0 -77 -41 -143q56 -15 88.5 -34t62.5 -50q-59 -10 -108.5 -31.5t-151.5 -85.5q-82 -51 -139.5 -70.5t-130.5 -19.5q-110 0 -211 49zM2298 100 q-63 -168 -227 -168q-86 0 -145 53.5t-87 155.5l-29 111q-43 168 -178 168q-81 0 -145 -78l-10 6q112 150 260 150q187 0 270 -207l41 -101q27 -60 69 -94.5t89 -34.5q46 0 92 39zM422 592q-50 18 -100 18q-88 0 -142.5 -35.5t-54.5 -93.5q0 -60 54 -107t151 -69 q-15 36 -15 78q0 117 107 209zM446 582q-52 -49 -77 -97t-25 -100q0 -37 16 -84q51 -10 115 -10q108 0 204.5 32t154 85t57.5 114q0 62 -59.5 101t-155.5 39q-108 0 -203 -64q98 -55 98 -139q0 -36 -19.5 -66.5t-53.5 -46.5l-9 14q26 16 42 41.5t16 53.5q0 77 -101 127z M1169 950q-6 -33 -6 -51q0 -55 29 -93t82 -52q-21 -6 -33 -6q-25 0 -59 12q24 -38 64 -59t93 -21q15 0 29 2q-23 -29 -63 -37q49 -37 110 -37q44 0 90 25v20q0 70 -47 111q-19 19 -42 29t-89 24q-83 23 -117.5 52.5t-40.5 80.5zM1694 637q46 -10 100 -10q90 0 172.5 28.5 t134.5 77.5q-28 -4 -41 -4q-45 0 -90 23q116 37 188.5 121.5t84.5 193.5q-36 -46 -97 -72q35 61 41 113l17 100q21 140 131 205q-96 -26 -152.5 -96.5t-95.5 -210.5q-27 -98 -49.5 -156.5t-52 -102.5t-70.5 -85q-96 -99 -221 -125zM2253 51q-46 -12 -68 -12q-64 0 -117 42 t-104 130l-51 86q-48 86 -101 125t-120 39q-44 0 -95 -25q11 1 20 1.5t17 0.5q71 0 122 -40t69 -111l24 -90q1 -2 2.5 -6t3.5 -9q6 45 25 88q6 -119 50.5 -194.5t121.5 -93.5q-23 24 -31 40t-12 41q57 -47 135 -47q64 0 109 35z" />
<glyph unicode="]" horiz-adv-x="1210" d="M526 1393q4 53 29 80q29 28 66 28q35 0 57 -18t22 -49q0 -25 -18 -54q43 -33 43 -67q0 -42 -39 -78q27 -26 27 -51q0 -53 -51 -86q-25 -18 -41 -29q-31 -20 -44.5 -34.5t-13.5 -30.5q3 -35 51 -35q24 0 40 13t16 34q0 29 -39 35q24 4 22 4q20 0 30.5 -11.5t10.5 -29.5 q0 -25 -20.5 -43.5t-40.5 -18.5v-86h131q62 3 108 54q49 -38 242 -66v-4q-81 -11 -136.5 -26.5t-105.5 -45.5q-18 23 -47.5 40.5t-60.5 17.5h-131q1 -55 6.5 -95t18.5 -70.5t37.5 -51.5t60.5 -37q-53 -61 -79.5 -134.5t-35.5 -191.5q-9 -144 -9 -410q0 -129 1 -188h-33 q0 79 -2.5 153t-7.5 177t-8 180q-7 137 -14 199t-27.5 112.5t-63.5 102.5q45 18 72 48.5t39 81t12 124.5l-149 2q-40 -1 -62.5 -16t-46.5 -44q-52 32 -103.5 47.5t-142.5 24.5v4q86 4 143.5 20t102.5 46q45 -51 109 -54h149v84q-36 0 -56 19.5t-20 48.5q0 37 27 63 q-37 27 -37 60q0 45 41 78q-29 29 -29 59q0 28 15.5 49.5t48.5 44.5l12 8q-22 13 -76 13zM606 1382q47 33 47 70q0 13 -10.5 21t-26.5 8t-27 -12t-11 -31q3 -25 28 -56zM569 1233q49 31 56 35q32 22 43.5 35.5t11.5 31.5q0 15 -10 35q-23 -24 -47 -41q-34 -22 -47 -38 t-13 -36q0 -7 6 -22zM561 1092q26 19 51 34q70 45 70 80q0 11 -6 21q-36 -27 -68 -47q-55 -34 -55 -64q0 -11 8 -24z" />
<glyph unicode="&#xf05d;" horiz-adv-x="1210" d="M526 1393q4 53 29 80q29 28 66 28q35 0 57 -18t22 -49q0 -25 -18 -54q43 -33 43 -67q0 -42 -39 -78q27 -26 27 -51q0 -53 -51 -86q-25 -18 -41 -29q-31 -20 -44.5 -34.5t-13.5 -30.5q3 -35 51 -35q24 0 40 13t16 34q0 29 -39 35q24 4 22 4q20 0 30.5 -11.5t10.5 -29.5 q0 -25 -20.5 -43.5t-40.5 -18.5v-86h131q62 3 108 54q49 -38 242 -66v-4q-81 -11 -136.5 -26.5t-105.5 -45.5q-18 23 -47.5 40.5t-60.5 17.5h-131q1 -55 6.5 -95t18.5 -70.5t37.5 -51.5t60.5 -37q-53 -61 -79.5 -134.5t-35.5 -191.5q-9 -144 -9 -410q0 -129 1 -188h-33 q0 79 -2.5 153t-7.5 177t-8 180q-7 137 -14 199t-27.5 112.5t-63.5 102.5q45 18 72 48.5t39 81t12 124.5l-149 2q-40 -1 -62.5 -16t-46.5 -44q-52 32 -103.5 47.5t-142.5 24.5v4q86 4 143.5 20t102.5 46q45 -51 109 -54h149v84q-36 0 -56 19.5t-20 48.5q0 37 27 63 q-37 27 -37 60q0 45 41 78q-29 29 -29 59q0 28 15.5 49.5t48.5 44.5l12 8q-22 13 -76 13zM606 1382q47 33 47 70q0 13 -10.5 21t-26.5 8t-27 -12t-11 -31q3 -25 28 -56zM569 1233q49 31 56 35q32 22 43.5 35.5t11.5 31.5q0 15 -10 35q-23 -24 -47 -41q-34 -22 -47 -38 t-13 -36q0 -7 6 -22zM561 1092q26 19 51 34q70 45 70 80q0 11 -6 21q-36 -27 -68 -47q-55 -34 -55 -64q0 -11 8 -24z" />
<glyph unicode="&#xc0;" horiz-adv-x="1210" d="M526 1393q4 53 29 80q29 28 66 28q35 0 57 -18t22 -49q0 -25 -18 -54q43 -33 43 -67q0 -42 -39 -78q27 -26 27 -51q0 -53 -51 -86q-25 -18 -41 -29q-31 -20 -44.5 -34.5t-13.5 -30.5q3 -35 51 -35q24 0 40 13t16 34q0 29 -39 35q24 4 22 4q20 0 30.5 -11.5t10.5 -29.5 q0 -25 -20.5 -43.5t-40.5 -18.5v-86h131q62 3 108 54q49 -38 242 -66v-4q-81 -11 -136.5 -26.5t-105.5 -45.5q-18 23 -47.5 40.5t-60.5 17.5h-131q1 -55 6.5 -95t18.5 -70.5t37.5 -51.5t60.5 -37q-53 -61 -79.5 -134.5t-35.5 -191.5q-9 -144 -9 -410q0 -129 1 -188h-33 q0 79 -2.5 153t-7.5 177t-8 180q-7 137 -14 199t-27.5 112.5t-63.5 102.5q45 18 72 48.5t39 81t12 124.5l-149 2q-40 -1 -62.5 -16t-46.5 -44q-52 32 -103.5 47.5t-142.5 24.5v4q86 4 143.5 20t102.5 46q45 -51 109 -54h149v84q-36 0 -56 19.5t-20 48.5q0 37 27 63 q-37 27 -37 60q0 45 41 78q-29 29 -29 59q0 28 15.5 49.5t48.5 44.5l12 8q-22 13 -76 13zM606 1382q47 33 47 70q0 13 -10.5 21t-26.5 8t-27 -12t-11 -31q3 -25 28 -56zM569 1233q49 31 56 35q32 22 43.5 35.5t11.5 31.5q0 15 -10 35q-23 -24 -47 -41q-34 -22 -47 -38 t-13 -36q0 -7 6 -22zM561 1092q26 19 51 34q70 45 70 80q0 11 -6 21q-36 -27 -68 -47q-55 -34 -55 -64q0 -11 8 -24z" />
<glyph unicode="^" horiz-adv-x="2570" d="M1878 1204q92 86 195 86q51 0 99.5 -21.5t89.5 -60t71 -94t41 -115.5q-76 48 -162 48q-197 0 -459 -197l-170 -131q-182 -137 -353 -208t-321 -71q-214 0 -305 129q-34 -23 -43 -30q46 -52 95.5 -82t115.5 -45t148 -15q168 0 336.5 67.5t353.5 207.5l172 131 q133 100 237 147t193 47q160 0 264 -145l-10 -8q-48 60 -101 86t-127 26q-84 0 -175.5 -49t-235.5 -172q-164 -139 -250.5 -200t-181.5 -105q-201 -92 -422 -92q-308 0 -443 182q-85 -55 -167 -142.5t-131.5 -176t-49.5 -148.5q0 -36 19 -61q-27 -19 -54 -19q-51 0 -51 64 q0 70 55 162.5t152.5 190t210.5 171.5q-10 36 -10 68q0 55 26 100l13 -4q-17 -35 -17 -72q0 -38 17 -75q24 16 45 26q-8 25 -8 43q0 65 53 115q-17 41 -17 72q0 109 102.5 187.5t244.5 78.5q87 0 172 -37q23 99 81 173.5t143 115.5t185 41q113 0 194 -45.5t140 -143.5z M1858 1182q-38 48 -87 81.5t-106.5 50.5t-118.5 17q-142 0 -241.5 -75.5t-141.5 -213.5q62 -38 62 -88q0 -28 -25 -28q-51 0 -72 102q-69 19 -124 19q-92 0 -169 -30t-121 -81t-44 -113q0 -1 4 -39q81 37 168 37h30v-14q-113 -6 -188 -45q14 -29 27.5 -44t40.5 -32 q122 49 235 49q53 0 53 -26q0 -16 -30.5 -32.5t-75.5 -27t-90 -10.5q-37 0 -76 10q-73 -28 -133 -63q33 -49 96 -75t152 -26q70 0 140.5 18t145.5 56t162 96l195 133q98 68 165 110t128.5 72t126.5 56q122 51 235 51q87 0 158 -35q-103 187 -291 187q-93 0 -158 -55 q4 -19 4 -39q0 -33 -13 -58.5t-32 -25.5q-28 0 -28 45q0 37 37 86zM649 735q-39 -30 -39 -78q0 -13 6 -39l15 7q10 5 80 39l12 6q-25 9 -38.5 20.5t-35.5 44.5z" />
<glyph unicode="&#xf05e;" horiz-adv-x="2570" d="M1878 1204q92 86 195 86q51 0 99.5 -21.5t89.5 -60t71 -94t41 -115.5q-76 48 -162 48q-197 0 -459 -197l-170 -131q-182 -137 -353 -208t-321 -71q-214 0 -305 129q-34 -23 -43 -30q46 -52 95.5 -82t115.5 -45t148 -15q168 0 336.5 67.5t353.5 207.5l172 131 q133 100 237 147t193 47q160 0 264 -145l-10 -8q-48 60 -101 86t-127 26q-84 0 -175.5 -49t-235.5 -172q-164 -139 -250.5 -200t-181.5 -105q-201 -92 -422 -92q-308 0 -443 182q-85 -55 -167 -142.5t-131.5 -176t-49.5 -148.5q0 -36 19 -61q-27 -19 -54 -19q-51 0 -51 64 q0 70 55 162.5t152.5 190t210.5 171.5q-10 36 -10 68q0 55 26 100l13 -4q-17 -35 -17 -72q0 -38 17 -75q24 16 45 26q-8 25 -8 43q0 65 53 115q-17 41 -17 72q0 109 102.5 187.5t244.5 78.5q87 0 172 -37q23 99 81 173.5t143 115.5t185 41q113 0 194 -45.5t140 -143.5z M1858 1182q-38 48 -87 81.5t-106.5 50.5t-118.5 17q-142 0 -241.5 -75.5t-141.5 -213.5q62 -38 62 -88q0 -28 -25 -28q-51 0 -72 102q-69 19 -124 19q-92 0 -169 -30t-121 -81t-44 -113q0 -1 4 -39q81 37 168 37h30v-14q-113 -6 -188 -45q14 -29 27.5 -44t40.5 -32 q122 49 235 49q53 0 53 -26q0 -16 -30.5 -32.5t-75.5 -27t-90 -10.5q-37 0 -76 10q-73 -28 -133 -63q33 -49 96 -75t152 -26q70 0 140.5 18t145.5 56t162 96l195 133q98 68 165 110t128.5 72t126.5 56q122 51 235 51q87 0 158 -35q-103 187 -291 187q-93 0 -158 -55 q4 -19 4 -39q0 -33 -13 -58.5t-32 -25.5q-28 0 -28 45q0 37 37 86zM649 735q-39 -30 -39 -78q0 -13 6 -39l15 7q10 5 80 39l12 6q-25 9 -38.5 20.5t-35.5 44.5z" />
<glyph unicode="_" horiz-adv-x="2769" d="M1612 1153q186 92 379 92q113 0 213.5 -35t179 -98t122.5 -147t44 -174q0 -40 -4.5 -72t-10.5 -61.5t-11 -57t-5 -53.5q0 -147 154 -174q-74 -15 -136 -15q-123 0 -227.5 51.5t-164.5 139.5t-60 194q0 91 61 183q70 108 70 147q0 25 -18.5 41t-45.5 16q-40 0 -96 -53 q-99 -90 -186 -348q-68 -195 -112.5 -283t-78.5 -131q-86 -107 -196.5 -165t-231.5 -58q-101 0 -187 37t-145 106t-83 162q-98 -72 -204 -125.5t-209 -81.5t-187 -28q-46 0 -101 8l-39 174q108 -43 246 -43q74 0 147 15.5t151 50.5t161 88q-51 -17 -105 -17q-92 0 -170 44 t-123 119t-45 163q0 133 107 249.5t286.5 187.5t381.5 71q127 0 240.5 -28t238.5 -91zM969 471l581 481q45 37 45 74q0 30 -20 50t-49 20q-25 0 -74 -37l-565 -465q-27 -23 -37 -38.5t-10 -35.5q0 -31 20 -53.5t51 -22.5q24 0 58 27z" />
<glyph unicode="&#xf05f;" horiz-adv-x="2769" d="M1612 1153q186 92 379 92q113 0 213.5 -35t179 -98t122.5 -147t44 -174q0 -40 -4.5 -72t-10.5 -61.5t-11 -57t-5 -53.5q0 -147 154 -174q-74 -15 -136 -15q-123 0 -227.5 51.5t-164.5 139.5t-60 194q0 91 61 183q70 108 70 147q0 25 -18.5 41t-45.5 16q-40 0 -96 -53 q-99 -90 -186 -348q-68 -195 -112.5 -283t-78.5 -131q-86 -107 -196.5 -165t-231.5 -58q-101 0 -187 37t-145 106t-83 162q-98 -72 -204 -125.5t-209 -81.5t-187 -28q-46 0 -101 8l-39 174q108 -43 246 -43q74 0 147 15.5t151 50.5t161 88q-51 -17 -105 -17q-92 0 -170 44 t-123 119t-45 163q0 133 107 249.5t286.5 187.5t381.5 71q127 0 240.5 -28t238.5 -91zM969 471l581 481q45 37 45 74q0 30 -20 50t-49 20q-25 0 -74 -37l-565 -465q-27 -23 -37 -38.5t-10 -35.5q0 -31 20 -53.5t51 -22.5q24 0 58 27z" />
<glyph unicode="`" horiz-adv-x="2396" d="M2302 1366q-9 -113 -53 -213t-116.5 -176.5t-164 -119t-192.5 -42.5q-74 0 -123 25q-135 -90 -166 -109q-67 -42 -146 -90q79 21 148 21q136 0 241.5 -60t194.5 -188q-133 -99 -319 -99q-125 0 -237.5 67t-176.5 177q-59 -31 -111 -54.5t-133.5 -56.5t-141.5 -54.5 t-104 -33.5q179 -14 291.5 -106.5t143.5 -251.5q-31 -2 -72 -2q-100 0 -195.5 41.5t-166.5 116.5t-107 172q-123 -33 -287 -33q-136 0 -213 53q18 55 80 82q26 -42 78.5 -61t144.5 -19q114 0 185 15q-17 64 -17 137q0 91 31 185.5t86 173t135 141.5q51 -108 51 -213 q0 -118 -56 -229t-150 -177q109 30 270 95t244 112q-52 131 -52 237q0 141 78 275.5t209 218.5q72 -126 72 -252q0 -233 -189 -416q167 95 336 209q30 234 198 368t472 134zM627 383q63 38 114.5 104.5t80 145t28.5 158.5q0 98 -41 172q-100 -94 -153.5 -225t-53.5 -283v-47 q30 110 78 221q62 145 129 221q-53 -77 -109 -229q-51 -140 -73 -238zM1210 612q70 39 125 112.5t87 164.5t32 182q0 102 -41 209q-79 -62 -136 -137.5t-86.5 -159.5t-29.5 -170q0 -73 29 -178q22 164 83.5 319t139.5 240q-48 -76 -89.5 -174.5t-71 -205.5t-42.5 -202z M2277 1348q-150 0 -288 -63t-227.5 -170.5t-104.5 -233.5q61 36 113.5 73t134.5 101q134 102 223 174q-74 -74 -215 -191q-65 -55 -227 -174q37 -8 71 -8q105 0 198.5 47t170.5 137q119 145 151 308zM1251 594q90 -54 252 -100q121 -37 299 -58q-154 0 -307 39 q-181 47 -285 109q46 -97 162 -160.5t252 -63.5q69 0 133 17t129 53q-70 99 -174 152t-231 53q-123 0 -230 -41zM639 340q45 -50 172 -141q62 -42 109.5 -70.5t121.5 -67.5q-58 21 -109.5 45.5t-112.5 63.5t-103.5 73t-89.5 81q56 -121 172 -203q70 -50 140.5 -73t172.5 -28 q-20 67 -68 132t-106 104q-112 78 -299 84z" />
<glyph unicode="&#xf060;" horiz-adv-x="2396" d="M2302 1366q-9 -113 -53 -213t-116.5 -176.5t-164 -119t-192.5 -42.5q-74 0 -123 25q-135 -90 -166 -109q-67 -42 -146 -90q79 21 148 21q136 0 241.5 -60t194.5 -188q-133 -99 -319 -99q-125 0 -237.5 67t-176.5 177q-59 -31 -111 -54.5t-133.5 -56.5t-141.5 -54.5 t-104 -33.5q179 -14 291.5 -106.5t143.5 -251.5q-31 -2 -72 -2q-100 0 -195.5 41.5t-166.5 116.5t-107 172q-123 -33 -287 -33q-136 0 -213 53q18 55 80 82q26 -42 78.5 -61t144.5 -19q114 0 185 15q-17 64 -17 137q0 91 31 185.5t86 173t135 141.5q51 -108 51 -213 q0 -118 -56 -229t-150 -177q109 30 270 95t244 112q-52 131 -52 237q0 141 78 275.5t209 218.5q72 -126 72 -252q0 -233 -189 -416q167 95 336 209q30 234 198 368t472 134zM627 383q63 38 114.5 104.5t80 145t28.5 158.5q0 98 -41 172q-100 -94 -153.5 -225t-53.5 -283v-47 q30 110 78 221q62 145 129 221q-53 -77 -109 -229q-51 -140 -73 -238zM1210 612q70 39 125 112.5t87 164.5t32 182q0 102 -41 209q-79 -62 -136 -137.5t-86.5 -159.5t-29.5 -170q0 -73 29 -178q22 164 83.5 319t139.5 240q-48 -76 -89.5 -174.5t-71 -205.5t-42.5 -202z M2277 1348q-150 0 -288 -63t-227.5 -170.5t-104.5 -233.5q61 36 113.5 73t134.5 101q134 102 223 174q-74 -74 -215 -191q-65 -55 -227 -174q37 -8 71 -8q105 0 198.5 47t170.5 137q119 145 151 308zM1251 594q90 -54 252 -100q121 -37 299 -58q-154 0 -307 39 q-181 47 -285 109q46 -97 162 -160.5t252 -63.5q69 0 133 17t129 53q-70 99 -174 152t-231 53q-123 0 -230 -41zM639 340q45 -50 172 -141q62 -42 109.5 -70.5t121.5 -67.5q-58 21 -109.5 45.5t-112.5 63.5t-103.5 73t-89.5 81q56 -121 172 -203q70 -50 140.5 -73t172.5 -28 q-20 67 -68 132t-106 104q-112 78 -299 84z" />
<glyph unicode="a" horiz-adv-x="2464" d="M1778 356q-17 0 -29 -10t-12 -24q0 -11 2 -19q-115 6 -193 58.5t-78 123.5q0 19 7 43q2 11 2 21q0 26 -27 26q-24 0 -47 -20q-59 -42 -93 -115t-34 -157q0 -31 6.5 -106t15.5 -165l-69 -12q-4 27 -8 63.5t-7 55.5q-14 114 -30 159t-58 80q-37 32 -112 72q-105 57 -137 57 q-29 0 -52 -53q-16 -40 -33.5 -62t-42.5 -31t-63 -9q-116 0 -256 28q37 16 37 43q0 25 -35 52q-69 55 -102 87t-70 81q15 -9 27 -9q15 0 26 10t11 25q0 18 -23 47q-62 86 -77 113.5t-25 75.5q39 0 39 33q0 16 -37 88q-17 27 -37 81q27 0 42 13.5t15 34.5q0 45 -36 106 t-91 109q46 4 49 4q79 0 142 -19q102 -24 121 -24q38 0 38 28q0 12 -10 27q43 -9 72.5 -29t89.5 -80q29 -26 47 -26q29 0 29 49q52 -25 96 -88q34 -50 57 -82q17 -25 35 -25q26 0 29 39q36 -70 53 -133q15 -41 39 -41q20 0 29 25q63 -116 63 -242q0 -89 -67 -141 q-33 -28 -33 -45q0 -19 16.5 -32.5t83.5 -53.5q96 -58 121 -58q17 0 26.5 9t28.5 39q71 110 123 167q25 30 25 50q0 17 -11 26t-40 15q-57 12 -82.5 37t-36.5 82t-19 182q25 -17 43 -17q32 0 56 49q33 66 61 106.5t68 82.5q0 -51 34 -51q12 0 23.5 7.5t28.5 22.5 q54 56 124.5 95t139.5 51q-12 -18 -12 -33q0 -39 38 -39q16 0 37 6q39 15 117 39q64 24 137 27q-22 -21 -22 -43q0 -21 16 -31q21 -10 133 -12q79 -3 137 -15q-58 -80 -88 -142.5t-30 -96.5q0 -21 11.5 -35t27.5 -14q11 0 24 8q-20 -93 -98 -180q-60 -65 -72 -81.5 t-12 -31.5q0 -33 43 -33q10 0 20 2q-35 -57 -84 -94q-13 -9 -88 -61q-28 -20 -28 -41q0 -18 8 -37q16 -43 20 -68q-54 -4 -101 -4q-58 0 -99 6q-42 4 -43 4zM352 1182q-8 14 -22 14q-5 0 -9 -5t-4 -9q0 -14 48 -90q171 -291 417 -506q40 -33 50 -40t20 -7q8 0 16.5 6.5 t8.5 13.5q-4 12 -19 29q-70 57 -126.5 112.5t-121 130.5t-125 158t-133.5 193zM532 1171q3 -13 6 -27t7 -31t8 -40q12 -81 14 -98q3 -29 23 -29t20 27t-35 137q-24 74 -36 74q-7 0 -7 -13zM764 1024q-8 0 -8 -10q1 -2 2 -6t2 -13q10 -77 12 -123q2 -34 6 -108q3 -29 9 -40 t20 -11q24 0 24 30q0 31 -7.5 79t-22.5 110q-12 48 -19.5 70t-17.5 22zM299 854q-8 0 -8 -8q0 -15 65 -55q39 -24 85.5 -42t72.5 -18q25 0 25 21q0 20 -31 26q-40 6 -97 26.5t-94 41.5q-13 8 -18 8zM684 590q-62 -8 -125 -8q-75 0 -131 18q-6 4 -10 4q-6 0 -6 -6 q0 -5 10 -10q68 -49 184 -49q59 0 81 6.5t22 21.5q0 23 -25 23zM1567 1110q2 4 2 12t-6 8q-9 0 -21 -18q-25 -42 -40 -110t-15 -142q0 -44 4.5 -60t17.5 -16q23 0 23 31v19q-2 16 -2 55q0 120 37 221zM1942 1233q0 8 -7 8q-11 0 -43.5 -31t-62.5 -73q-25 -36 -44.5 -75.5 t-19.5 -55.5q0 -23 19 -23q17 0 28 27q49 121 119 204q11 15 11 19zM1497 688q0 -24 23 -24q9 0 30 18q145 122 359 274q108 79 180 125q29 20 41 25q12 9 12 16q0 13 -14 13q-17 0 -114 -60.5t-226 -152.5q-146 -100 -232 -168q-38 -30 -48.5 -41.5t-10.5 -24.5zM1968 860 q-34 0 -72 6q-10 2 -16 2q-18 0 -18 -18q0 -29 94 -29q115 0 194 47q17 12 17 19q0 6 -8 6q-1 0 -17 -4q-40 -14 -85 -21.5t-89 -7.5zM1638 670q-9 6 -16 6q-23 0 -23 -21q0 -12 13 -22q30 -26 109.5 -45t170.5 -19q39 0 39 13q0 10 -24 12q-81 10 -146.5 28.5t-122.5 47.5z " />
</font>
</defs>
</svg>
